<?xml version="1.0" encoding="UTF-8"?>
<!DOCTYPE svg PUBLIC "-//W3C//DTD SVG 1.1//EN" "http://www.w3.org/Graphics/SVG/1.1/DTD/svg11.dtd">
<!-- Creator: CorelDRAW X7 -->
<svg xmlns="http://www.w3.org/2000/svg" xml:space="preserve" width="210mm" height="297mm" version="1.1" style="shape-rendering:geometricPrecision; text-rendering:geometricPrecision; image-rendering:optimizeQuality; fill-rule:evenodd; clip-rule:evenodd"
viewBox="0 0 21000 29700"
 xmlns:xlink="http://www.w3.org/1999/xlink">
 <defs>
  <style type="text/css">
   <![CDATA[
    .fil2 {fill:#FEFEFE}
    .fil0 {fill:#FCCF00}
    .fil3 {fill:#CA332F}
    .fil1 {fill:#603827}
   ]]>
  </style>
 </defs>
 <g id="Layer_x0020_1">
  <metadata id="CorelCorpID_0Corel-Layer"/>
  <g id="_267791768">
   <path class="fil0" d="M4369 4307c0,843 -683,1527 -1527,1527 -843,0 -1526,-684 -1526,-1527 0,-843 683,-1526 1526,-1526 844,0 1527,683 1527,1526z"/>
   <path class="fil1" d="M2369 4255c10,5 23,-4 21,-16 -19,-92 -109,-161 -218,-161 -109,0 -200,69 -218,161 -3,12 10,21 21,16 56,-32 124,-51 197,-51 73,0 141,19 197,51z"/>
   <path class="fil2" d="M3863 4078c0,232 -188,420 -421,420 -232,0 -421,-188 -421,-420 0,-233 189,-421 421,-421 233,0 421,188 421,421z"/>
   <path class="fil1" d="M3606 4078c0,90 -73,163 -164,163 -90,0 -163,-73 -163,-163 0,-91 73,-164 163,-164 91,0 164,73 164,164z"/>
   <path class="fil1" d="M2174 4694c-60,-29 -121,40 -87,97 161,260 439,433 755,433 317,0 594,-173 755,-433 35,-57 -26,-126 -86,-97 -194,92 -423,146 -669,146 -245,0 -474,-54 -668,-146z"/>
   <path class="fil3" d="M2842 4915c-118,0 -232,-13 -341,-36l0 453 0 75 0 73c0,188 153,341 341,341 189,0 341,-153 341,-341l0 -73 0 -75 0 -453c-108,23 -222,36 -341,36z"/>
  </g>
 </g>
</svg>
