<?xml version="1.0" encoding="UTF-8"?>
<!DOCTYPE svg PUBLIC "-//W3C//DTD SVG 1.1//EN" "http://www.w3.org/Graphics/SVG/1.1/DTD/svg11.dtd">
<!-- Creator: CorelDRAW X7 -->
<svg xmlns="http://www.w3.org/2000/svg" xml:space="preserve" width="8.4666mm" height="8.4666mm" version="1.1" style="shape-rendering:geometricPrecision; text-rendering:geometricPrecision; image-rendering:optimizeQuality; fill-rule:evenodd; clip-rule:evenodd"
viewBox="0 0 847 847"
 xmlns:xlink="http://www.w3.org/1999/xlink">
 <defs>
  <style type="text/css">
   <![CDATA[
    .fil0 {fill:#FCCF00}
    .fil1 {fill:#603827}
   ]]>
  </style>
 </defs>
 <g id="Layer_x0020_1">
  <metadata id="CorelCorpID_0Corel-Layer"/>
  <path class="fil0" d="M839 418c0,229 -186,415 -415,415 -229,0 -414,-186 -414,-415 0,-228 185,-414 414,-414 229,0 415,186 415,414z"/>
  <path class="fil1" d="M646 373c0,36 -20,66 -44,66 -24,0 -44,-30 -44,-66 0,-37 20,-66 44,-66 24,0 44,29 44,66z"/>
  <path class="fil1" d="M300 373c0,36 -20,66 -44,66 -24,0 -44,-30 -44,-66 0,-37 20,-66 44,-66 24,0 44,29 44,66z"/>
 </g>
</svg>
