<?xml version="1.0" encoding="UTF-8"?>
<!DOCTYPE svg PUBLIC "-//W3C//DTD SVG 1.1//EN" "http://www.w3.org/Graphics/SVG/1.1/DTD/svg11.dtd">
<!-- Creator: CorelDRAW X7 -->
<svg xmlns="http://www.w3.org/2000/svg" xml:space="preserve" width="8.4666mm" height="8.4666mm" version="1.1" style="shape-rendering:geometricPrecision; text-rendering:geometricPrecision; image-rendering:optimizeQuality; fill-rule:evenodd; clip-rule:evenodd"
viewBox="0 0 847 847"
 xmlns:xlink="http://www.w3.org/1999/xlink">
 <defs>
  <style type="text/css">
   <![CDATA[
    .fil0 {fill:#FCCF00}
    .fil2 {fill:#F29E0F}
    .fil1 {fill:#603827}
   ]]>
  </style>
 </defs>
 <g id="Layer_x0020_1">
  <metadata id="CorelCorpID_0Corel-Layer"/>
  <path class="fil0" d="M833 428c0,228 -184,413 -412,413 -228,0 -413,-185 -413,-413 0,-227 185,-412 413,-412 228,0 412,185 412,412z"/>
  <path class="fil1" d="M276 517c-12,-2 -21,13 -12,23 36,42 93,69 157,69 64,0 120,-27 157,-69 8,-10 0,-25 -13,-23 -43,7 -92,11 -144,11 -52,0 -101,-4 -145,-11z"/>
  <path class="fil1" d="M573 366c-3,-2 -7,1 -6,4 5,25 29,44 59,44 29,0 54,-19 59,-44 0,-3 -3,-6 -6,-4 -15,9 -33,14 -53,14 -20,0 -38,-5 -53,-14z"/>
  <path class="fil1" d="M162 366c-2,-2 -6,1 -5,4 5,25 29,44 59,44 29,0 54,-19 59,-44 0,-3 -3,-6 -6,-4 -15,9 -34,14 -53,14 -20,0 -38,-5 -54,-14z"/>
  <path class="fil2" d="M681 574c-35,0 -63,-28 -63,-63 0,-36 28,-64 63,-64 35,0 64,28 64,64 0,35 -29,63 -64,63z"/>
  <path class="fil2" d="M160 574c-35,0 -64,-28 -64,-63 0,-36 29,-64 64,-64 35,0 64,28 64,64 0,35 -29,63 -64,63z"/>
 </g>
</svg>
