<?xml version="1.0" encoding="UTF-8"?>
<!DOCTYPE svg PUBLIC "-//W3C//DTD SVG 1.1//EN" "http://www.w3.org/Graphics/SVG/1.1/DTD/svg11.dtd">
<!-- Creator: CorelDRAW X7 -->
<svg xmlns="http://www.w3.org/2000/svg" xml:space="preserve" width="8.4666mm" height="8.4666mm" version="1.1" style="shape-rendering:geometricPrecision; text-rendering:geometricPrecision; image-rendering:optimizeQuality; fill-rule:evenodd; clip-rule:evenodd"
viewBox="0 0 847 847"
 xmlns:xlink="http://www.w3.org/1999/xlink">
 <defs>
  <style type="text/css">
   <![CDATA[
    .fil2 {fill:#FEFEFE}
    .fil0 {fill:#FCCF00}
    .fil3 {fill:#CA332F}
    .fil1 {fill:#603827}
   ]]>
  </style>
 </defs>
 <g id="Layer_x0020_1">
  <metadata id="CorelCorpID_0Corel-Layer"/>
  <path class="fil0" d="M838 412c0,230 -187,416 -417,416 -230,0 -416,-186 -416,-416 0,-230 186,-417 416,-417 230,0 417,187 417,417z"/>
  <path class="fil1" d="M642 267c0,13 -2,25 -7,35 -3,7 -11,9 -17,5 -6,-4 -13,-7 -20,-7 -8,0 -15,3 -21,7 -5,4 -14,2 -17,-5 -4,-10 -7,-22 -7,-35 0,-34 20,-63 45,-63 24,0 44,29 44,63z"/>
  <path class="fil1" d="M289 267c0,13 -2,25 -7,35 -3,7 -11,9 -17,5 -6,-4 -13,-7 -20,-7 -8,0 -15,3 -21,7 -6,4 -14,2 -17,-5 -4,-10 -7,-22 -7,-35 0,-34 20,-63 45,-63 24,0 44,29 44,63z"/>
  <path class="fil1" d="M209 430c-12,0 -20,12 -17,24 22,79 116,139 229,139 114,0 209,-60 230,-141 3,-11 -7,-22 -18,-22l-424 0z"/>
  <path class="fil2" d="M421 461c62,0 118,-11 163,-31l-326 0c45,20 101,31 163,31z"/>
  <path class="fil3" d="M425 550c-33,0 -62,13 -83,33 24,7 51,10 79,10 30,0 59,-4 85,-12 -20,-19 -49,-31 -81,-31z"/>
 </g>
</svg>
