<?xml version="1.0" encoding="UTF-8"?>
<!DOCTYPE svg PUBLIC "-//W3C//DTD SVG 1.1//EN" "http://www.w3.org/Graphics/SVG/1.1/DTD/svg11.dtd">
<!-- Creator: CorelDRAW X7 -->
<svg xmlns="http://www.w3.org/2000/svg" xml:space="preserve" width="8.4666mm" height="8.4666mm" version="1.1" style="shape-rendering:geometricPrecision; text-rendering:geometricPrecision; image-rendering:optimizeQuality; fill-rule:evenodd; clip-rule:evenodd"
viewBox="0 0 847 847"
 xmlns:xlink="http://www.w3.org/1999/xlink">
 <defs>
  <style type="text/css">
   <![CDATA[
    .fil0 {fill:#FCCF00}
    .fil2 {fill:#CA332F}
    .fil1 {fill:#603827}
   ]]>
  </style>
 </defs>
 <g id="Layer_x0020_1">
  <metadata id="CorelCorpID_0Corel-Layer"/>
  <path class="fil0" d="M843 421c0,229 -187,416 -417,416 -230,0 -416,-187 -416,-416 0,-230 186,-417 416,-417 230,0 417,187 417,417z"/>
  <path class="fil1" d="M702 367c4,3 10,0 10,-6l0 0c0,-30 -25,-55 -55,-55 -31,0 -55,25 -55,55l0 0c0,5 5,9 10,6 13,-8 28,-13 45,-13 16,0 31,5 45,13z"/>
  <path class="fil1" d="M241 367c4,3 10,0 10,-6l0 0c0,-30 -25,-55 -55,-55 -30,0 -55,25 -55,55l0 0c0,5 6,9 10,6 13,-8 29,-13 45,-13 17,0 32,5 45,13z"/>
  <path class="fil1" d="M213 484c-13,4 -20,19 -15,32 31,78 122,144 228,144 107,0 198,-66 229,-144 5,-13 -3,-28 -16,-32 -128,-44 -297,-44 -426,0z"/>
  <path class="fil2" d="M312 633c34,17 73,27 114,27 42,0 81,-10 115,-27 -32,-23 -71,-38 -115,-38 -43,0 -83,15 -114,38z"/>
 </g>
</svg>
