<?xml version="1.0" encoding="UTF-8"?>
<!DOCTYPE svg PUBLIC "-//W3C//DTD SVG 1.1//EN" "http://www.w3.org/Graphics/SVG/1.1/DTD/svg11.dtd">
<!-- Creator: CorelDRAW X7 -->
<svg xmlns="http://www.w3.org/2000/svg" xml:space="preserve" width="8.4666mm" height="8.4666mm" version="1.1" style="shape-rendering:geometricPrecision; text-rendering:geometricPrecision; image-rendering:optimizeQuality; fill-rule:evenodd; clip-rule:evenodd"
viewBox="0 0 847 847"
 xmlns:xlink="http://www.w3.org/1999/xlink">
 <defs>
  <style type="text/css">
   <![CDATA[
    .fil0 {fill:#FCCF00}
    .fil1 {fill:#603827}
   ]]>
  </style>
 </defs>
 <g id="Layer_x0020_1">
  <metadata id="CorelCorpID_0Corel-Layer"/>
  <path class="fil0" d="M835 424c0,228 -184,412 -411,412 -227,0 -411,-184 -411,-412 0,-227 184,-411 411,-411 227,0 411,184 411,411z"/>
  <path class="fil1" d="M612 552l-375 0c-11,0 -20,-9 -20,-20 0,-11 9,-20 20,-20l375 0c11,0 20,9 20,20 0,11 -9,20 -20,20z"/>
  <path class="fil1" d="M639 355c0,23 -19,43 -43,43 -24,0 -43,-20 -43,-43 0,-24 19,-44 43,-44 24,0 43,20 43,44z"/>
  <path class="fil1" d="M296 355c0,23 -19,43 -43,43 -24,0 -44,-20 -44,-43 0,-24 20,-44 44,-44 24,0 43,20 43,44z"/>
 </g>
</svg>
