<?xml version="1.0" encoding="UTF-8"?>
<!DOCTYPE svg PUBLIC "-//W3C//DTD SVG 1.1//EN" "http://www.w3.org/Graphics/SVG/1.1/DTD/svg11.dtd">
<!-- Creator: CorelDRAW X7 -->
<svg xmlns="http://www.w3.org/2000/svg" xml:space="preserve" width="8.4666mm" height="8.4666mm" version="1.1" style="shape-rendering:geometricPrecision; text-rendering:geometricPrecision; image-rendering:optimizeQuality; fill-rule:evenodd; clip-rule:evenodd"
viewBox="0 0 847 847"
 xmlns:xlink="http://www.w3.org/1999/xlink">
 <defs>
  <style type="text/css">
   <![CDATA[
    .fil1 {fill:#FEFEFE}
    .fil0 {fill:#FCCF00}
    .fil2 {fill:#603827}
   ]]>
  </style>
 </defs>
 <g id="Layer_x0020_1">
  <metadata id="CorelCorpID_0Corel-Layer"/>
  <path class="fil0" d="M830 416c0,229 -186,415 -415,415 -230,0 -416,-186 -416,-415 0,-229 186,-415 416,-415 229,0 415,186 415,415z"/>
  <path class="fil1" d="M586 658l-343 0c-22,0 -39,-18 -39,-40l0 -173c0,-22 17,-40 39,-40l343 0c22,0 40,18 40,40l0 173c0,22 -18,40 -40,40z"/>
  <path class="fil1" d="M615 518l218 -109 0 -2c0,-14 0,-28 -2,-42l-383 191 360 6c5,-13 10,-26 13,-40l-206 -4z"/>
  <path class="fil1" d="M-2 365c-1,14 -2,28 -2,42l0 2 218 109 -206 4c4,14 8,27 13,40l360 -6 -383 -191z"/>
  <path class="fil2" d="M233 354c-19,0 -38,-5 -55,-14 -9,-6 -12,-18 -7,-28 6,-10 19,-13 28,-7 22,13 53,11 73,-4 9,-6 22,-5 28,4 7,9 5,22 -4,29 -18,13 -41,20 -63,20z"/>
  <path class="fil2" d="M587 354c-22,0 -45,-7 -63,-20 -9,-7 -11,-20 -5,-29 7,-9 20,-10 29,-4 20,15 51,17 72,4 10,-6 23,-3 28,7 6,10 3,22 -7,28 -16,9 -35,14 -54,14z"/>
 </g>
</svg>
