<?xml version="1.0" encoding="UTF-8"?>
<!DOCTYPE svg PUBLIC "-//W3C//DTD SVG 1.1//EN" "http://www.w3.org/Graphics/SVG/1.1/DTD/svg11.dtd">
<!-- Creator: CorelDRAW X7 -->
<svg xmlns="http://www.w3.org/2000/svg" xml:space="preserve" width="8.4666mm" height="8.4666mm" version="1.1" style="shape-rendering:geometricPrecision; text-rendering:geometricPrecision; image-rendering:optimizeQuality; fill-rule:evenodd; clip-rule:evenodd"
viewBox="0 0 847 847"
 xmlns:xlink="http://www.w3.org/1999/xlink">
 <defs>
  <style type="text/css">
   <![CDATA[
    .fil2 {fill:#FEFEFE}
    .fil0 {fill:#FCCF00}
    .fil3 {fill:#F29E0F}
    .fil1 {fill:#603827}
   ]]>
  </style>
 </defs>
 <g id="Layer_x0020_1">
  <metadata id="CorelCorpID_0Corel-Layer"/>
  <path class="fil0" d="M842 424c0,231 -188,419 -420,419 -231,0 -419,-188 -419,-419 0,-232 188,-419 419,-419 232,0 420,187 420,419z"/>
  <path class="fil1" d="M507 626c-5,0 -9,-1 -13,-5 -18,-16 -42,-26 -68,-27 -28,-1 -56,9 -75,27 -7,7 -19,7 -27,-1 -7,-7 -7,-19 1,-26 26,-26 64,-39 103,-38 35,2 68,15 92,37 8,8 8,20 1,27 -4,4 -9,6 -14,6z"/>
  <path class="fil1" d="M169 290c-3,0 -6,-2 -9,-4 -4,-5 -3,-13 2,-17 27,-23 61,-38 97,-41 6,0 12,4 12,11 1,6 -4,12 -10,13 -31,2 -61,15 -84,35 -2,2 -5,3 -8,3z"/>
  <path class="fil1" d="M676 290c-3,0 -6,-1 -8,-3 -23,-20 -53,-33 -84,-35 -6,-1 -11,-7 -11,-13 1,-7 7,-11 13,-11 36,3 70,18 97,41 5,4 6,12 2,17 -3,2 -6,4 -9,4z"/>
  <path class="fil2" d="M690 400c0,50 -40,91 -89,91 -49,0 -88,-41 -88,-91 0,-51 39,-92 88,-92 49,0 89,41 89,92z"/>
  <path class="fil1" d="M639 400c0,21 -17,39 -38,39 -21,0 -38,-18 -38,-39 0,-22 17,-40 38,-40 21,0 38,18 38,40z"/>
  <path class="fil2" d="M332 400c0,50 -39,91 -88,91 -49,0 -89,-41 -89,-91 0,-51 40,-92 89,-92 49,0 88,41 88,92z"/>
  <path class="fil1" d="M282 400c0,21 -17,39 -38,39 -21,0 -38,-18 -38,-39 0,-22 17,-40 38,-40 21,0 38,18 38,40z"/>
  <path class="fil3" d="M687 640c-35,0 -64,-29 -64,-65 0,-35 29,-64 64,-64 36,0 65,29 65,64 0,36 -29,65 -65,65z"/>
  <path class="fil3" d="M158 640c-36,0 -65,-29 -65,-65 0,-35 29,-64 65,-64 35,0 64,29 64,64 0,36 -29,65 -64,65z"/>
 </g>
</svg>
