<?xml version="1.0" encoding="UTF-8"?>
<!DOCTYPE svg PUBLIC "-//W3C//DTD SVG 1.1//EN" "http://www.w3.org/Graphics/SVG/1.1/DTD/svg11.dtd">
<!-- Creator: CorelDRAW X7 -->
<svg xmlns="http://www.w3.org/2000/svg" xml:space="preserve" width="8.4666mm" height="8.4666mm" version="1.1" style="shape-rendering:geometricPrecision; text-rendering:geometricPrecision; image-rendering:optimizeQuality; fill-rule:evenodd; clip-rule:evenodd"
viewBox="0 0 847 847"
 xmlns:xlink="http://www.w3.org/1999/xlink">
 <defs>
  <style type="text/css">
   <![CDATA[
    .fil0 {fill:#FCCF00}
    .fil1 {fill:#603827}
   ]]>
  </style>
 </defs>
 <g id="Layer_x0020_1">
  <metadata id="CorelCorpID_0Corel-Layer"/>
  <path class="fil0" d="M842 422c0,231 -187,417 -417,417 -230,0 -417,-186 -417,-417 0,-230 187,-416 417,-416 230,0 417,186 417,416z"/>
  <path class="fil1" d="M687 399c0,30 -24,54 -54,54 -29,0 -54,-24 -54,-54 0,-29 25,-54 54,-54 30,0 54,25 54,54z"/>
  <path class="fil1" d="M563 346c-2,0 -4,0 -5,-1 -7,-3 -11,-11 -8,-18 1,-2 26,-60 113,-43 7,1 12,8 11,16 -2,7 -9,12 -16,10 -65,-12 -82,26 -83,28 -2,5 -7,8 -12,8z"/>
  <path class="fil1" d="M266 399c0,30 -24,54 -54,54 -30,0 -54,-24 -54,-54 0,-29 24,-54 54,-54 30,0 54,25 54,54z"/>
  <path class="fil1" d="M141 362c-1,0 -3,-1 -5,-1 -7,-3 -10,-11 -7,-18 1,-3 26,-60 112,-44 8,2 13,9 11,16 -1,8 -8,13 -16,11 -64,-12 -81,26 -82,27 -2,6 -7,9 -13,9z"/>
  <path class="fil1" d="M463 695c-10,0 -19,-8 -20,-19 -1,-12 8,-21 19,-22 59,-4 116,-34 152,-80 7,-9 20,-11 29,-4 9,7 11,20 4,29 -44,55 -112,91 -182,96l-2 0z"/>
 </g>
</svg>
