<?xml version="1.0" encoding="UTF-8"?>
<!DOCTYPE svg PUBLIC "-//W3C//DTD SVG 1.1//EN" "http://www.w3.org/Graphics/SVG/1.1/DTD/svg11.dtd">
<!-- Creator: CorelDRAW X7 -->
<svg xmlns="http://www.w3.org/2000/svg" xml:space="preserve" width="8.4666mm" height="8.4666mm" version="1.1" style="shape-rendering:geometricPrecision; text-rendering:geometricPrecision; image-rendering:optimizeQuality; fill-rule:evenodd; clip-rule:evenodd"
viewBox="0 0 847 847"
 xmlns:xlink="http://www.w3.org/1999/xlink">
 <defs>
  <style type="text/css">
   <![CDATA[
    .fil0 {fill:#FCCF00}
    .fil1 {fill:#603827}
   ]]>
  </style>
 </defs>
 <g id="Layer_x0020_1">
  <metadata id="CorelCorpID_0Corel-Layer"/>
  <path class="fil0" d="M841 419c0,230 -186,416 -417,416 -230,0 -416,-186 -416,-416 0,-231 186,-417 416,-417 231,0 417,186 417,417z"/>
  <path class="fil1" d="M585 587c-4,0 -9,-2 -13,-5 -34,-32 -80,-50 -130,-52 -56,-2 -109,16 -145,51 -8,8 -21,8 -29,0 -8,-8 -8,-21 1,-29 44,-43 108,-66 174,-63 60,2 115,25 156,63 9,7 9,20 1,29 -4,4 -9,6 -15,6z"/>
  <path class="fil1" d="M686 468c-2,0 -3,0 -4,-1l-89 -26c-5,-1 -9,-6 -9,-11 -1,-6 2,-11 7,-14 0,0 69,-35 89,-46 7,-4 15,-1 19,5 3,7 1,15 -6,19 -11,6 -38,20 -59,31l56 16c7,2 11,10 9,17 -2,6 -7,10 -13,10z"/>
  <path class="fil1" d="M186 468c-6,0 -11,-4 -13,-10 -2,-7 2,-15 9,-17l56 -16c-21,-11 -48,-25 -59,-31 -7,-4 -9,-12 -6,-19 4,-6 12,-9 18,-5 21,11 90,46 90,46 5,3 8,8 7,14 0,5 -4,10 -9,11l-89 26c-1,1 -3,1 -4,1z"/>
  <path class="fil1" d="M706 323l-2 0c-68,-11 -102,-66 -103,-68 -4,-6 -2,-15 4,-19 7,-3 15,-1 19,5 0,1 29,47 84,55 7,1 12,8 11,15 -1,7 -7,12 -13,12z"/>
  <path class="fil1" d="M166 323c-6,0 -12,-5 -13,-12 -1,-7 4,-14 11,-15 55,-9 84,-55 84,-55 4,-6 12,-9 19,-5 6,4 8,13 4,19 -1,2 -35,57 -103,68l-2 0z"/>
 </g>
</svg>
