<?xml version="1.0" encoding="UTF-8"?>
<!DOCTYPE svg PUBLIC "-//W3C//DTD SVG 1.1//EN" "http://www.w3.org/Graphics/SVG/1.1/DTD/svg11.dtd">
<!-- Creator: CorelDRAW X7 -->
<svg xmlns="http://www.w3.org/2000/svg" xml:space="preserve" width="8.4666mm" height="8.4666mm" version="1.1" style="shape-rendering:geometricPrecision; text-rendering:geometricPrecision; image-rendering:optimizeQuality; fill-rule:evenodd; clip-rule:evenodd"
viewBox="0 0 847 847"
 xmlns:xlink="http://www.w3.org/1999/xlink">
 <defs>
  <style type="text/css">
   <![CDATA[
    .str0 {stroke:#2B2A29;stroke-width:12.66;stroke-linejoin:round}
    .fil5 {fill:#FEFEFE;fill-rule:nonzero}
    .fil0 {fill:#2B2A29;fill-rule:nonzero}
    .fil2 {fill:#FBD9CA;fill-rule:nonzero}
    .fil6 {fill:#FBBB00;fill-rule:nonzero}
    .fil4 {fill:#E8AE03;fill-rule:nonzero}
    .fil1 {fill:#C02222;fill-rule:nonzero}
    .fil3 {fill:#AF2220;fill-rule:nonzero}
   ]]>
  </style>
 </defs>
 <g id="Layer_x0020_1">
  <metadata id="CorelCorpID_0Corel-Layer"/>
  <g id="_579506960">
   <path class="fil0" d="M76 480l-26 11c0,0 8,25 34,41l-59 -20 -14 39 75 0 -42 21 16 23 48 -38 2 -26c-4,-3 -27,-21 -34,-51z"/>
   <path class="fil1" d="M457 114c-13,0 -26,1 -38,3 -3,-42 -47,-94 -87,-94 -42,0 -33,49 20,72 -63,-17 -105,2 -96,26 6,16 44,20 69,21 -138,58 -237,202 -237,348 0,207 165,321 369,321 204,0 369,-114 369,-321 0,-190 -165,-376 -369,-376z"/>
   <path class="fil2 str0" d="M457 811c103,0 196,-29 263,-84 -10,-18 -23,-38 -42,-51 7,25 0,27 0,27 0,0 -39,-67 -141,-74 -141,-10 -185,52 -185,52l-10 -26c-32,21 -59,62 -59,62l0 -27c0,0 -29,19 -60,58 64,42 145,63 234,63z"/>
   <path class="fil3" d="M363 527c-19,0 -35,17 -35,37 0,21 16,38 35,38 20,0 36,-17 36,-38 0,-20 -16,-37 -36,-37z"/>
   <path class="fil3" d="M159 385c0,14 10,26 22,26 12,0 22,-12 22,-26 0,-14 -10,-25 -22,-25 -12,0 -22,11 -22,25z"/>
   <path class="fil3" d="M207 527c0,-64 -40,-116 -90,-116 -7,0 -13,1 -20,3 -6,25 -9,50 -9,76 0,58 14,110 37,153 46,-5 82,-55 82,-116z"/>
   <path class="fil3" d="M291 446c0,-26 -19,-47 -42,-47 -23,0 -42,21 -42,47 0,26 19,47 42,47 23,0 42,-21 42,-47z"/>
   <path class="fil0" d="M418 113c13,-1 26,-2 39,-2 98,0 191,42 263,118 70,73 109,168 109,261 0,194 -149,325 -372,325 -223,0 -372,-131 -372,-325 0,-93 40,-188 109,-261 37,-39 79,-69 125,-89l14 2c-138,54 -241,193 -241,348 0,190 147,318 365,318 219,0 366,-128 366,-318 0,-198 -171,-372 -366,-372 -13,0 -26,1 -38,2l-1 -7z"/>
   <path class="fil0" d="M336 145c-24,0 -76,-2 -83,-23 -3,-8 -1,-15 4,-21 11,-12 37,-19 74,-14 -22,-15 -31,-35 -28,-48 2,-12 13,-19 29,-19 45,0 90,59 90,101 0,2 -1,3 -3,3 -2,0 -4,-1 -4,-3 0,-39 -43,-94 -83,-94 -13,0 -21,4 -23,13 -3,15 13,38 44,52 2,1 3,3 2,4 0,2 -2,3 -4,2 -46,-12 -78,-5 -89,7 -4,5 -5,9 -3,15 7,17 66,19 88,18 2,0 3,2 3,3 0,2 -1,4 -3,4 -2,0 -6,0 -11,0z"/>
   <path class="fil4 str0" d="M491 598c3,28 45,81 71,81 25,0 84,-61 85,-69 1,-9 -156,-12 -156,-12z"/>
   <path class="fil5 str0" d="M663 526c0,28 -22,50 -50,50 -27,0 -49,-22 -49,-50 0,-27 22,-49 49,-49 28,0 50,22 50,49z"/>
   <path class="fil0" d="M612 515c0,8 -7,14 -15,14 -7,0 -14,-6 -14,-14 0,-8 7,-14 14,-14 8,0 15,6 15,14z"/>
   <path class="fil5 str0" d="M465 526c0,28 22,50 49,50 27,0 50,-22 50,-50 0,-27 -23,-49 -50,-49 -27,0 -49,22 -49,49z"/>
   <path class="fil0" d="M516 515c0,8 6,14 14,14 8,0 14,-6 14,-14 0,-8 -6,-14 -14,-14 -8,0 -14,6 -14,14z"/>
   <path class="fil0" d="M462 352c26,12 68,27 116,27 31,0 64,-6 98,-22 2,-1 4,-4 2,-7 -1,-2 -4,-4 -7,-2 -84,39 -164,13 -204,-6 -3,-1 -6,0 -7,3 -1,2 0,5 2,7zm248 35l0 0c-2,-3 -5,-4 -7,-3 -87,38 -173,38 -262,0 -3,-1 -6,0 -7,3 -1,3 0,6 3,7 46,20 91,29 136,29 45,0 89,-9 134,-29 2,-1 4,-4 3,-7z"/>
   <path class="fil6 str0" d="M471 617c0,-27 63,-81 99,-81 36,0 135,63 135,102 0,11 -131,-32 -234,-21z"/>
   <polygon class="fil0" points="565,463 708,423 715,510 565,512 399,493 404,410 "/>
  </g>
 </g>
</svg>
