<?xml version="1.0" encoding="UTF-8"?>
<!DOCTYPE svg PUBLIC "-//W3C//DTD SVG 1.1//EN" "http://www.w3.org/Graphics/SVG/1.1/DTD/svg11.dtd">
<!-- Creator: CorelDRAW X7 -->
<svg xmlns="http://www.w3.org/2000/svg" xml:space="preserve" width="8.4666mm" height="8.4666mm" version="1.1" style="shape-rendering:geometricPrecision; text-rendering:geometricPrecision; image-rendering:optimizeQuality; fill-rule:evenodd; clip-rule:evenodd"
viewBox="0 0 847 847"
 xmlns:xlink="http://www.w3.org/1999/xlink">
 <defs>
  <style type="text/css">
   <![CDATA[
    .fil0 {fill:#444766;fill-rule:nonzero}
   ]]>
  </style>
 </defs>
 <g id="Layer_x0020_1">
  <metadata id="CorelCorpID_0Corel-Layer"/>
  <path class="fil0" d="M370 827c1,1 1,1 1,1 3,2 7,4 10,5 1,0 1,1 1,1 4,1 7,2 11,3 0,0 1,0 1,0 4,1 8,1 12,1 0,0 0,0 0,0 4,0 7,0 11,-1 0,0 1,0 1,0 4,-1 7,-2 11,-3 0,0 0,-1 1,-1 3,-1 7,-3 10,-5 0,0 1,0 1,-1 3,-2 7,-5 10,-7 0,-1 0,-1 0,-1l317 -317c25,-25 25,-65 0,-90 -25,-25 -65,-25 -90,0l-209 209 0 -548c0,-35 -28,-64 -63,-64 -36,0 -64,29 -64,64l0 548 -209 -209c-25,-25 -65,-25 -90,0 -13,12 -19,29 -19,45 0,16 6,32 19,45l318 317c0,0 0,0 0,1 3,2 6,5 9,7z"/>
 </g>
</svg>
