<?xml version="1.0" encoding="UTF-8" ?>
<!DOCTYPE svg PUBLIC "-//W3C//DTD SVG 1.1//EN" "http://www.w3.org/Graphics/SVG/1.1/DTD/svg11.dtd">
<svg width="182pt" height="276pt" viewBox="0 0 182 276" version="1.1" xmlns="http://www.w3.org/2000/svg">
<g id="#ffffffff">
</g>
<g id="#030202ff">
<path fill="#030202" opacity="1.00" d=" M 73.82 1.76 C 88.51 -1.51 104.38 0.33 117.79 7.21 C 134.06 15.22 146.37 30.77 150.55 48.40 C 151.10 51.11 152.34 53.67 154.68 55.26 C 160.09 59.57 164.12 65.91 164.29 72.97 C 164.27 79.12 162.84 85.84 158.22 90.24 C 155.08 93.36 150.48 93.91 146.41 95.07 C 145.44 101.72 148.75 109.06 145.31 115.24 C 139.97 121.61 131.65 124.36 123.91 126.59 C 123.33 126.63 122.15 126.72 121.57 126.77 C 120.89 125.49 120.18 124.23 119.38 123.03 C 119.49 122.47 119.71 121.36 119.82 120.80 C 117.41 118.79 114.93 116.87 112.43 114.98 C 120.45 111.45 127.92 106.11 132.72 98.67 C 136.74 92.65 137.89 85.11 137.33 78.01 C 136.52 73.00 131.47 70.08 126.77 69.60 C 117.08 68.63 107.00 68.27 98.04 64.03 C 93.20 61.75 89.44 57.79 86.11 53.70 C 80.22 63.09 68.85 66.24 58.82 69.07 C 53.78 70.64 47.76 72.09 44.98 77.06 C 43.07 81.68 44.34 86.82 43.65 91.65 C 43.57 94.07 42.67 96.77 44.06 98.98 C 48.92 106.87 57.03 112.07 65.42 115.59 C 71.61 118.57 78.49 119.22 85.25 119.54 C 81.47 120.26 77.62 120.26 73.79 120.41 C 69.65 120.53 65.38 120.91 61.54 122.61 C 59.54 123.94 58.48 126.42 56.06 127.19 C 48.92 124.31 41.02 122.17 35.48 116.51 C 32.33 113.33 32.87 108.52 32.38 104.44 C 31.43 102.56 29.08 101.77 28.17 99.82 C 26.89 97.13 26.90 93.58 23.90 92.07 C 15.50 86.72 13.71 75.36 16.49 66.42 C 18.15 60.63 24.48 57.46 25.24 51.27 C 29.88 27.20 49.76 6.72 73.82 1.76 M 67.36 20.34 C 62.91 22.80 64.45 28.55 63.63 32.71 C 57.48 36.09 51.06 40.14 47.56 46.41 C 45.00 47.76 43.96 50.51 43.19 53.12 C 47.93 52.10 51.64 48.77 56.03 46.92 C 60.23 44.79 65.01 44.18 69.15 41.92 C 75.77 41.18 82.28 39.41 88.99 39.57 C 94.05 39.47 99.04 40.40 103.99 41.32 C 107.29 42.27 110.64 43.02 113.94 43.93 C 120.43 45.86 126.13 49.55 131.86 53.01 C 130.10 45.82 123.78 41.04 117.94 37.14 C 116.58 35.07 114.18 34.21 112.38 32.64 C 111.65 29.38 112.01 25.99 111.22 22.75 C 110.93 22.54 110.36 22.11 110.07 21.89 C 109.08 20.63 107.78 19.40 106.01 19.75 C 101.52 19.55 97.84 22.25 93.94 23.98 C 89.72 24.08 85.43 24.13 81.24 23.62 C 76.94 21.67 72.26 18.35 67.36 20.34 Z" />
</g>
<g id="#770e16ff">
<path fill="#770e16" opacity="1.00" d=" M 67.36 20.34 C 72.26 18.35 76.94 21.67 81.24 23.62 C 85.43 24.13 89.72 24.08 93.94 23.98 C 97.84 22.25 101.52 19.55 106.01 19.75 C 107.78 19.40 109.08 20.63 110.07 21.89 C 109.65 21.82 108.82 21.69 108.40 21.63 C 103.05 20.41 98.14 23.12 93.97 26.15 C 92.79 25.92 91.61 25.71 90.43 25.50 C 88.20 25.35 85.98 25.61 83.77 25.79 C 82.85 25.62 81.95 25.42 81.06 25.17 C 77.79 23.63 74.69 21.25 70.96 21.10 C 68.25 20.92 66.15 23.34 65.77 25.85 C 65.21 28.90 64.62 31.96 63.45 34.86 C 57.33 37.48 52.71 42.37 47.56 46.41 C 51.06 40.14 57.48 36.09 63.63 32.71 C 64.45 28.55 62.91 22.80 67.36 20.34 Z" />
</g>
<g id="#ea1e28ff">
<path fill="#ea1e28" opacity="1.00" d=" M 65.77 25.85 C 66.15 23.34 68.25 20.92 70.96 21.10 C 74.69 21.25 77.79 23.63 81.06 25.17 C 81.59 28.03 81.91 30.93 82.13 33.83 C 77.73 36.78 72.35 37.95 67.13 36.98 C 66.08 33.38 65.34 29.62 65.77 25.85 Z" />
</g>
<g id="#e91e2aff">
<path fill="#e91e2a" opacity="1.00" d=" M 93.97 26.15 C 98.14 23.12 103.05 20.41 108.40 21.63 C 110.01 26.59 110.75 31.99 108.87 37.00 C 103.04 38.21 97.19 36.34 92.42 32.98 C 92.95 30.71 93.46 28.43 93.97 26.15 Z" />
</g>
<g id="#b20816ff">
<path fill="#b20816" opacity="1.00" d=" M 108.40 21.63 C 108.82 21.69 109.65 21.82 110.07 21.89 C 110.36 22.11 110.93 22.54 111.22 22.75 C 112.01 25.99 111.65 29.38 112.38 32.64 C 114.18 34.21 116.58 35.07 117.94 37.14 C 115.79 36.72 113.57 35.92 111.36 36.34 C 108.65 37.70 107.63 41.73 103.99 41.32 C 99.04 40.40 94.05 39.47 88.99 39.57 C 82.28 39.41 75.77 41.18 69.15 41.92 C 66.39 42.18 63.62 42.39 60.89 42.85 C 62.89 41.84 64.86 40.75 66.83 39.68 C 65.69 38.08 64.56 36.47 63.45 34.86 C 64.62 31.96 65.21 28.90 65.77 25.85 C 65.34 29.62 66.08 33.38 67.13 36.98 C 72.35 37.95 77.73 36.78 82.13 33.83 C 81.91 30.93 81.59 28.03 81.06 25.17 C 81.95 25.42 82.85 25.62 83.77 25.79 C 83.79 27.89 83.83 29.99 83.86 32.09 C 85.65 32.66 88.20 34.74 89.73 32.69 C 91.98 30.87 90.66 27.88 90.43 25.50 C 91.61 25.71 92.79 25.92 93.97 26.15 C 93.46 28.43 92.95 30.71 92.42 32.98 C 97.19 36.34 103.04 38.21 108.87 37.00 C 110.75 31.99 110.01 26.59 108.40 21.63 Z" />
</g>
<g id="#e5202bff">
<path fill="#e5202b" opacity="1.00" d=" M 83.77 25.79 C 85.98 25.61 88.20 25.35 90.43 25.50 C 90.66 27.88 91.98 30.87 89.73 32.69 C 88.20 34.74 85.65 32.66 83.86 32.09 C 83.83 29.99 83.79 27.89 83.77 25.79 Z" />
</g>
<g id="#e42028ff">
<path fill="#e42028" opacity="1.00" d=" M 47.56 46.41 C 52.71 42.37 57.33 37.48 63.45 34.86 C 64.56 36.47 65.69 38.08 66.83 39.68 C 64.86 40.75 62.89 41.84 60.89 42.85 C 56.65 44.44 52.28 48.68 47.56 46.41 Z" />
</g>
<g id="#dc1b2bff">
<path fill="#dc1b2b" opacity="1.00" d=" M 111.36 36.34 C 113.57 35.92 115.79 36.72 117.94 37.14 C 123.78 41.04 130.10 45.82 131.86 53.01 C 126.13 49.55 120.43 45.86 113.94 43.93 C 110.64 43.02 107.29 42.27 103.99 41.32 C 107.63 41.73 108.65 37.70 111.36 36.34 Z" />
</g>
<g id="#901a2cff">
<path fill="#901a2c" opacity="1.00" d=" M 60.89 42.85 C 63.62 42.39 66.39 42.18 69.15 41.92 C 65.01 44.18 60.23 44.79 56.03 46.92 C 51.64 48.77 47.93 52.10 43.19 53.12 C 43.96 50.51 45.00 47.76 47.56 46.41 C 52.28 48.68 56.65 44.44 60.89 42.85 Z" />
</g>
<g id="#f4c69cff">
<path fill="#f4c69c" opacity="1.00" d=" M 58.82 69.07 C 68.85 66.24 80.22 63.09 86.11 53.70 C 89.44 57.79 93.20 61.75 98.04 64.03 C 107.00 68.27 117.08 68.63 126.77 69.60 C 131.47 70.08 136.52 73.00 137.33 78.01 C 137.89 85.11 136.74 92.65 132.72 98.67 C 127.92 106.11 120.45 111.45 112.43 114.98 C 106.33 117.62 99.77 119.03 93.13 119.31 C 93.20 119.62 93.33 120.24 93.40 120.55 L 93.58 121.31 C 96.64 122.33 99.88 122.80 102.87 124.06 C 105.20 124.93 106.38 127.27 107.76 129.17 C 103.81 131.35 99.22 131.03 94.96 132.07 C 94.21 132.93 93.69 133.97 93.17 134.98 C 93.08 134.49 92.90 133.53 92.82 133.04 C 90.49 132.72 88.14 132.61 85.80 132.55 C 85.86 133.42 85.97 135.17 86.03 136.04 L 85.21 136.08 C 84.86 134.90 84.52 133.72 84.20 132.54 C 80.76 131.40 77.15 130.97 73.62 130.18 C 72.37 128.72 73.89 127.02 74.78 125.82 C 77.66 122.67 82.29 122.62 86.08 121.24 C 82.00 120.79 77.90 120.41 73.79 120.41 C 77.62 120.26 81.47 120.26 85.25 119.54 C 78.49 119.22 71.61 118.57 65.42 115.59 C 57.03 112.07 48.92 106.87 44.06 98.98 C 42.67 96.77 43.57 94.07 43.65 91.65 C 44.34 86.82 43.07 81.68 44.98 77.06 C 47.76 72.09 53.78 70.64 58.82 69.07 M 56.21 81.77 C 56.80 83.24 57.47 84.68 58.14 86.12 C 57.61 86.13 56.55 86.15 56.02 86.16 C 56.46 86.41 57.35 86.92 57.80 87.18 C 57.48 87.45 56.83 87.99 56.51 88.27 C 57.15 89.38 57.75 90.52 58.31 91.67 C 60.47 87.45 65.27 84.82 69.99 86.01 C 73.02 86.42 74.81 89.13 77.06 90.88 C 76.33 88.56 75.57 85.93 73.26 84.70 C 69.11 82.21 63.80 83.25 59.87 85.69 C 58.64 84.39 57.46 83.04 56.21 81.77 M 117.14 85.68 C 112.94 83.26 107.25 82.02 103.01 85.03 C 100.88 86.25 100.36 88.77 99.82 90.95 C 101.95 88.91 103.92 86.26 107.11 85.99 C 111.48 84.92 115.72 87.23 118.35 90.61 C 119.17 90.00 120.02 89.42 120.90 88.88 C 121.93 88.30 122.89 87.58 123.81 86.83 C 122.15 85.44 120.80 83.75 119.92 81.77 C 118.85 82.97 117.94 84.29 117.14 85.68 M 54.25 87.18 C 54.85 87.78 54.85 87.78 54.25 87.18 M 80.81 108.00 C 82.76 110.60 85.39 113.33 88.95 113.10 C 92.65 112.56 95.87 109.53 96.36 105.76 C 91.11 105.79 85.89 106.75 80.81 108.00 Z" />
</g>
<g id="#130300ff">
<path fill="#130300" opacity="1.00" d=" M 56.21 81.77 C 57.46 83.04 58.64 84.39 59.87 85.69 C 63.80 83.25 69.11 82.21 73.26 84.70 C 75.57 85.93 76.33 88.56 77.06 90.88 C 74.81 89.13 73.02 86.42 69.99 86.01 C 65.27 84.82 60.47 87.45 58.31 91.67 C 57.75 90.52 57.15 89.38 56.51 88.27 C 56.83 87.99 57.48 87.45 57.80 87.18 C 57.35 86.92 56.46 86.41 56.02 86.16 C 56.55 86.15 57.61 86.13 58.14 86.12 C 57.47 84.68 56.80 83.24 56.21 81.77 Z" />
</g>
<g id="#9e8270ff">
<path fill="#9e8270" opacity="1.00" d=" M 117.14 85.68 C 117.94 84.29 118.85 82.97 119.92 81.77 C 120.80 83.75 122.15 85.44 123.81 86.83 C 122.89 87.58 121.93 88.30 120.90 88.88 C 119.63 87.83 118.40 86.74 117.14 85.68 Z" />
</g>
<g id="#130100ff">
<path fill="#130100" opacity="1.00" d=" M 103.01 85.03 C 107.25 82.02 112.94 83.26 117.14 85.68 C 118.40 86.74 119.63 87.83 120.90 88.88 C 120.02 89.42 119.17 90.00 118.35 90.61 C 115.72 87.23 111.48 84.92 107.11 85.99 C 103.92 86.26 101.95 88.91 99.82 90.95 C 100.36 88.77 100.88 86.25 103.01 85.03 Z" />
</g>
<g id="#371900ff">
<path fill="#371900" opacity="1.00" d=" M 54.25 87.18 C 54.85 87.78 54.85 87.78 54.25 87.18 Z" />
</g>
<g id="#e73b41ff">
<path fill="#e73b41" opacity="1.00" d=" M 80.81 108.00 C 85.89 106.75 91.11 105.79 96.36 105.76 C 95.87 109.53 92.65 112.56 88.95 113.10 C 85.39 113.33 82.76 110.60 80.81 108.00 Z" />
</g>
<g id="#20181bff">
<path fill="#20181b" opacity="1.00" d=" M 93.13 119.31 C 99.77 119.03 106.33 117.62 112.43 114.98 C 114.93 116.87 117.41 118.79 119.82 120.80 C 119.71 121.36 119.49 122.47 119.38 123.03 C 111.04 120.08 102.12 120.13 93.40 120.55 C 93.33 120.24 93.20 119.62 93.13 119.31 Z" />
</g>
<g id="#f9fcf9ff">
<path fill="#f9fcf9" opacity="1.00" d=" M 61.54 122.61 C 65.38 120.91 69.65 120.53 73.79 120.41 C 77.90 120.41 82.00 120.79 86.08 121.24 C 82.29 122.62 77.66 122.67 74.78 125.82 C 73.89 127.02 72.37 128.72 73.62 130.18 C 77.15 130.97 80.76 131.40 84.20 132.54 C 84.52 133.72 84.86 134.90 85.21 136.08 C 80.73 136.61 76.32 137.75 71.79 137.87 C 67.75 136.98 64.11 134.81 61.12 131.99 C 60.80 131.69 60.17 131.08 59.85 130.78 C 58.91 131.98 57.98 133.18 57.12 134.44 C 56.47 132.07 56.10 129.64 56.06 127.19 C 58.48 126.42 59.54 123.94 61.54 122.61 Z" />
</g>
<g id="#f9fbfaff">
<path fill="#f9fbfa" opacity="1.00" d=" M 93.40 120.55 C 102.12 120.13 111.04 120.08 119.38 123.03 C 120.18 124.23 120.89 125.49 121.57 126.77 C 122.15 126.72 123.33 126.63 123.91 126.59 C 127.95 131.12 128.86 137.20 128.97 143.04 C 126.37 138.56 124.37 133.75 121.68 129.33 C 120.13 128.80 119.63 130.65 118.72 131.49 C 115.60 134.62 111.72 137.38 107.22 137.91 C 102.47 137.49 97.82 136.34 93.06 135.90 L 93.17 134.98 C 93.69 133.97 94.21 132.93 94.96 132.07 C 99.22 131.03 103.81 131.35 107.76 129.17 C 106.38 127.27 105.20 124.93 102.87 124.06 C 99.88 122.80 96.64 122.33 93.58 121.31 L 93.40 120.55 Z" />
</g>
<g id="#c52e40ff">
<path fill="#c52e40" opacity="1.00" d=" M 118.72 131.49 C 119.63 130.65 120.13 128.80 121.68 129.33 C 124.37 133.75 126.37 138.56 128.97 143.04 C 129.67 144.71 130.37 146.38 131.02 148.07 C 129.47 147.38 127.88 146.78 126.30 146.18 C 124.27 148.79 122.32 151.46 120.59 154.28 C 119.87 153.84 119.15 153.40 118.43 152.96 C 120.51 150.82 122.53 148.60 124.26 146.16 C 125.70 143.47 125.06 140.40 124.09 137.67 C 123.21 134.96 120.73 133.31 118.72 131.49 Z" />
</g>
<g id="#b22f35ff">
<path fill="#b22f35" opacity="1.00" d=" M 57.12 134.44 C 57.98 133.18 58.91 131.98 59.85 130.78 C 60.17 131.08 60.80 131.69 61.12 131.99 C 58.47 135.69 57.11 139.97 56.56 144.45 C 56.43 144.89 56.19 145.78 56.07 146.23 C 54.35 146.67 52.63 147.12 50.96 147.73 C 53.11 143.34 55.34 138.99 57.12 134.44 Z" />
</g>
<g id="#8fd7f3ff">
<path fill="#8fd7f3" opacity="1.00" d=" M 61.12 131.99 C 64.11 134.81 67.75 136.98 71.79 137.87 C 70.91 141.66 70.65 145.60 71.29 149.45 C 68.33 150.48 65.34 151.50 62.24 152.02 C 60.62 149.30 58.76 146.72 56.56 144.45 C 57.11 139.97 58.47 135.69 61.12 131.99 Z" />
</g>
<g id="#92d6f7ff">
<path fill="#92d6f7" opacity="1.00" d=" M 107.22 137.91 C 111.72 137.38 115.60 134.62 118.72 131.49 C 120.73 133.31 123.21 134.96 124.09 137.67 C 124.12 140.50 124.10 143.33 124.26 146.16 C 122.53 148.60 120.51 150.82 118.43 152.96 C 115.90 151.45 113.23 150.19 110.65 148.77 C 110.23 148.51 109.37 148.00 108.94 147.75 C 109.07 144.40 109.57 140.68 107.22 137.91 Z" />
</g>
<g id="#b24253ff">
<path fill="#b24253" opacity="1.00" d=" M 85.80 132.55 C 88.14 132.61 90.49 132.72 92.82 133.04 C 92.90 133.53 93.08 134.49 93.17 134.98 L 93.06 135.90 C 90.72 135.85 88.37 135.94 86.03 136.04 C 85.97 135.17 85.86 133.42 85.80 132.55 Z" />
</g>
<g id="#2c68b0ff">
<path fill="#2c68b0" opacity="1.00" d=" M 71.79 137.87 C 76.32 137.75 80.73 136.61 85.21 136.08 L 86.03 136.04 C 88.37 135.94 90.72 135.85 93.06 135.90 C 97.82 136.34 102.47 137.49 107.22 137.91 C 109.57 140.68 109.07 144.40 108.94 147.75 C 108.76 150.33 108.90 152.95 108.33 155.49 C 107.36 157.69 105.79 159.57 104.36 161.48 C 100.78 164.23 97.33 167.17 93.49 169.55 C 89.82 172.40 86.44 167.51 83.37 165.85 C 79.92 162.86 76.15 160.30 72.27 157.92 L 72.18 157.05 C 71.99 154.50 71.71 151.97 71.29 149.45 C 70.65 145.60 70.91 141.66 71.79 137.87 Z" />
</g>
<g id="#9ab964ff">
<path fill="#9ab964" opacity="1.00" d=" M 152.12 141.05 C 154.59 138.18 157.99 135.91 161.92 137.30 C 161.60 139.11 161.41 140.98 160.64 142.67 C 158.59 143.86 156.14 143.99 153.88 144.52 C 153.29 143.36 152.70 142.21 152.12 141.05 Z" />
</g>
<g id="#c49fb9ff">
<path fill="#c49fb9" opacity="1.00" d=" M 124.09 137.67 C 125.06 140.40 125.70 143.47 124.26 146.16 C 124.10 143.33 124.12 140.50 124.09 137.67 Z" />
</g>
<g id="#e71f28ff">
<path fill="#e71f28" opacity="1.00" d=" M 143.66 151.31 C 144.19 148.59 144.99 144.97 148.29 144.51 C 151.27 144.53 154.20 146.01 157.18 144.94 C 160.03 143.83 163.39 145.06 164.23 148.16 C 165.68 152.12 162.21 155.15 160.28 158.15 C 156.82 158.95 152.99 160.38 149.66 158.35 C 146.53 157.19 145.05 154.09 143.66 151.31 Z" />
</g>
<g id="#4c6f89ff">
<path fill="#4c6f89" opacity="1.00" d=" M 56.07 146.23 C 56.19 145.78 56.43 144.89 56.56 144.45 C 58.76 146.72 60.62 149.30 62.24 152.02 C 61.69 152.12 60.61 152.33 60.07 152.43 C 58.61 150.44 57.12 148.46 56.07 146.23 Z" />
</g>
<g id="#f3c69dff">
<path fill="#f3c69d" opacity="1.00" d=" M 50.96 147.73 C 52.63 147.12 54.35 146.67 56.07 146.23 C 57.12 148.46 58.61 150.44 60.07 152.43 C 60.08 152.85 60.09 153.69 60.10 154.10 C 53.74 156.59 47.68 159.80 41.46 162.61 C 36.27 163.06 31.30 165.11 26.06 165.04 C 21.59 165.22 18.31 159.65 20.88 155.92 C 22.64 152.62 26.83 152.92 30.01 152.68 C 37.24 152.47 44.56 151.23 50.96 147.73 Z" />
</g>
<g id="#f2c69eff">
<path fill="#f2c69e" opacity="1.00" d=" M 126.30 146.18 C 127.88 146.78 129.47 147.38 131.02 148.07 C 134.84 150.36 139.07 152.45 143.66 151.31 C 145.05 154.09 146.53 157.19 149.66 158.35 C 152.99 160.38 156.82 158.95 160.28 158.15 C 159.79 160.92 159.23 164.46 155.82 164.91 C 150.79 165.41 145.84 163.53 140.80 163.40 C 134.31 159.82 126.97 158.09 120.59 154.28 C 122.32 151.46 124.27 148.79 126.30 146.18 Z" />
</g>
<g id="#5e5e7eff">
<path fill="#5e5e7e" opacity="1.00" d=" M 108.94 147.75 C 109.37 148.00 110.23 148.51 110.65 148.77 C 110.61 150.96 110.77 153.16 111.14 155.32 C 109.29 157.79 106.87 159.73 104.36 161.48 C 105.79 159.57 107.36 157.69 108.33 155.49 C 108.90 152.95 108.76 150.33 108.94 147.75 Z" />
</g>
<g id="#e72027ff">
<path fill="#e72027" opacity="1.00" d=" M 111.14 155.32 C 110.77 153.16 110.61 150.96 110.65 148.77 C 113.23 150.19 115.90 151.45 118.43 152.96 C 119.15 153.40 119.87 153.84 120.59 154.28 C 126.97 158.09 134.31 159.82 140.80 163.40 C 141.69 165.07 142.62 166.73 143.68 168.30 C 153.24 182.11 164.34 195.05 177.91 205.07 C 180.45 206.71 182.00 209.33 182.00 212.38 L 182.00 215.52 C 181.63 219.08 181.18 222.67 179.91 226.04 C 178.60 229.50 175.83 232.08 173.39 234.76 C 170.46 230.68 169.66 225.62 167.83 221.05 C 162.88 208.53 156.34 196.59 148.10 185.93 C 137.98 173.46 125.66 162.38 111.14 155.32 Z" />
</g>
<g id="#99485fff">
<path fill="#99485f" opacity="1.00" d=" M 62.24 152.02 C 65.34 151.50 68.33 150.48 71.29 149.45 C 71.71 151.97 71.99 154.50 72.18 157.05 C 71.68 156.74 70.67 156.10 70.17 155.79 C 69.97 154.58 69.78 153.38 69.59 152.18 C 66.39 152.61 63.18 153.11 60.10 154.10 C 60.09 153.69 60.08 152.85 60.07 152.43 C 60.61 152.33 61.69 152.12 62.24 152.02 Z" />
</g>
<g id="#e71f27ff">
<path fill="#e71f27" opacity="1.00" d=" M 60.10 154.10 C 63.18 153.11 66.39 152.61 69.59 152.18 C 69.78 153.38 69.97 154.58 70.17 155.79 C 53.30 167.72 38.05 182.01 25.54 198.48 C 21.72 203.81 18.40 209.47 15.20 215.19 C 11.96 220.85 10.35 227.28 6.85 232.80 C 2.55 228.85 0.70 223.07 0.00 217.43 L 0.00 208.39 C 8.78 201.44 17.58 194.36 24.73 185.68 C 30.64 178.26 37.32 171.25 41.46 162.61 C 47.68 159.80 53.74 156.59 60.10 154.10 Z" />
</g>
<g id="#fdd14aff">
<path fill="#fdd14a" opacity="1.00" d=" M 111.14 155.32 C 125.66 162.38 137.98 173.46 148.10 185.93 C 156.34 196.59 162.88 208.53 167.83 221.05 C 169.66 225.62 170.46 230.68 173.39 234.76 C 173.78 238.48 174.61 242.20 174.28 245.96 C 172.94 249.24 169.52 250.89 166.68 252.67 C 159.31 256.67 152.71 262.09 144.70 264.85 C 135.12 269.74 124.45 271.74 114.00 273.89 C 107.88 275.15 101.62 275.42 95.42 276.00 L 80.58 276.00 C 72.27 275.16 64.14 273.16 55.86 272.14 C 50.51 271.26 45.57 268.99 40.47 267.29 C 33.20 264.99 27.11 260.25 20.57 256.50 C 12.32 251.81 5.56 242.69 6.85 232.80 C 10.35 227.28 11.96 220.85 15.20 215.19 C 18.40 209.47 21.72 203.81 25.54 198.48 C 38.05 182.01 53.30 167.72 70.17 155.79 C 70.67 156.10 71.68 156.74 72.18 157.05 L 72.27 157.92 C 73.42 162.97 79.05 164.53 83.37 165.85 C 86.44 167.51 89.82 172.40 93.49 169.55 C 97.33 167.17 100.78 164.23 104.36 161.48 C 106.87 159.73 109.29 157.79 111.14 155.32 M 44.57 206.57 C 41.62 210.93 40.08 216.00 37.87 220.74 C 33.70 229.74 31.19 239.38 28.90 249.00 C 28.39 251.29 28.25 253.64 28.19 255.99 C 32.03 250.44 33.06 243.62 35.46 237.43 C 39.06 228.85 42.55 220.21 46.75 211.90 C 49.78 205.27 52.19 198.33 56.07 192.13 C 58.26 188.57 60.47 184.99 61.97 181.07 C 54.48 188.37 50.52 198.15 44.57 206.57 M 117.16 183.94 C 118.96 189.40 122.16 194.23 124.74 199.33 C 130.42 209.73 134.80 220.75 139.23 231.72 C 140.95 236.02 143.29 240.08 144.49 244.58 C 145.56 248.53 146.96 252.38 148.89 255.99 C 148.78 240.50 142.11 226.02 135.63 212.26 C 131.58 203.14 125.49 195.17 120.11 186.83 C 119.38 185.63 118.28 184.75 117.16 183.94 Z" />
</g>
<g id="#cfcc84ff">
<path fill="#cfcc84" opacity="1.00" d=" M 72.27 157.92 C 76.15 160.30 79.92 162.86 83.37 165.85 C 79.05 164.53 73.42 162.97 72.27 157.92 Z" />
</g>
<g id="#ebb728ff">
<path fill="#ebb728" opacity="1.00" d=" M 44.57 206.57 C 50.52 198.15 54.48 188.37 61.97 181.07 C 60.47 184.99 58.26 188.57 56.07 192.13 C 52.19 198.33 49.78 205.27 46.75 211.90 C 42.55 220.21 39.06 228.85 35.46 237.43 C 33.06 243.62 32.03 250.44 28.19 255.99 C 28.25 253.64 28.39 251.29 28.90 249.00 C 31.19 239.38 33.70 229.74 37.87 220.74 C 40.08 216.00 41.62 210.93 44.57 206.57 Z" />
</g>
<g id="#ecb727ff">
<path fill="#ecb727" opacity="1.00" d=" M 117.16 183.94 C 118.28 184.75 119.38 185.63 120.11 186.83 C 125.49 195.17 131.58 203.14 135.63 212.26 C 142.11 226.02 148.78 240.50 148.89 255.99 C 146.96 252.38 145.56 248.53 144.49 244.58 C 143.29 240.08 140.95 236.02 139.23 231.72 C 134.80 220.75 130.42 209.73 124.74 199.33 C 122.16 194.23 118.96 189.40 117.16 183.94 Z" />
</g>
<g id="#fffffdff">
</g>
<g id="#fefefeff">
</g>
<g id="#fff8ccff">
</g>
</svg>
