<?xml version="1.0" encoding="UTF-8"?>
<!DOCTYPE svg PUBLIC "-//W3C//DTD SVG 1.1//EN" "http://www.w3.org/Graphics/SVG/1.1/DTD/svg11.dtd">
<!-- Creator: CorelDRAW X7 -->
<svg xmlns="http://www.w3.org/2000/svg" xml:space="preserve" width="4.2332mm" height="4.2332mm" version="1.1" style="shape-rendering:geometricPrecision; text-rendering:geometricPrecision; image-rendering:optimizeQuality; fill-rule:evenodd; clip-rule:evenodd"
viewBox="0 0 423 423"
 xmlns:xlink="http://www.w3.org/1999/xlink">
 <defs>
  <style type="text/css">
   <![CDATA[
    .fil0 {fill:#F1A9DB}
   ]]>
  </style>
 </defs>
 <g id="Layer_x0020_1">
  <metadata id="CorelCorpID_0Corel-Layer"/>
  <path class="fil0" d="M195 239l0 -1 3 1 -3 0zm-19 -6l0 0 -3 -3 2 4 -5 -3c3,1 5,2 6,2zm220 -55c-6,-4 -16,-10 -24,-11 -91,-18 -177,59 -177,59l0 -2c-1,-2 -3,-3 -5,-4 -3,-2 -7,1 -9,4l0 -1c0,0 -34,-110 -122,-142 -7,-2 -18,-3 -25,-2 -10,0 -17,27 -18,39 0,15 7,30 14,45 1,6 2,10 5,17 3,7 6,14 10,19 3,6 9,13 15,16 7,4 15,2 23,1 7,-1 26,2 45,6 -9,0 -18,0 -26,0l-1 0 -2 0c-10,1 -19,3 -21,4 -10,6 -23,9 -28,19 -2,5 -3,6 -1,12 2,4 4,9 0,13 4,2 5,6 8,10 3,5 3,7 1,12l5 2c2,1 3,4 6,6 5,2 5,4 3,9l5 0c-3,10 17,6 14,15l4 -1 4 1c2,1 10,1 8,5 5,-6 15,-10 15,1 4,-6 8,-11 13,-16 8,-8 14,-19 20,-28 4,-5 6,-11 9,-17 1,-2 7,-15 7,-15l1 -4c1,2 4,4 8,5 4,1 8,1 10,-1l-2 5c0,0 -1,14 -2,17 0,6 -1,12 0,18 0,11 0,24 3,35 1,7 3,13 3,20 5,-9 11,-1 13,7 0,-5 7,0 9,0l5 1 3 3c1,-9 17,4 20,-6l3 2c2,-5 3,-6 8,-6 4,0 6,-2 8,-2l5 1c1,-5 2,-7 7,-10 4,-2 7,-5 12,-4 -2,-6 3,-9 7,-12 5,-4 4,-5 5,-10 1,-11 -9,-21 -14,-31 -2,-3 -8,-8 -17,-14l-1 -1c-6,-4 -13,-9 -21,-13 17,6 34,13 39,17 7,5 13,10 21,11 6,0 15,-2 21,-6 6,-3 12,-7 18,-11 6,-5 9,-8 13,-13 14,-9 28,-19 35,-32 6,-10 13,-36 5,-42z"/>
 </g>
</svg>
