<?xml version="1.0" encoding="UTF-8"?>
<!DOCTYPE svg PUBLIC "-//W3C//DTD SVG 1.1//EN" "http://www.w3.org/Graphics/SVG/1.1/DTD/svg11.dtd">
<!-- Creator: CorelDRAW X7 -->
<svg xmlns="http://www.w3.org/2000/svg" xml:space="preserve" width="16.9332mm" height="16.9332mm" version="1.1" style="shape-rendering:geometricPrecision; text-rendering:geometricPrecision; image-rendering:optimizeQuality; fill-rule:evenodd; clip-rule:evenodd"
viewBox="0 0 1693 1693"
 xmlns:xlink="http://www.w3.org/1999/xlink">
 <defs>
  <style type="text/css">
   <![CDATA[
    .fil0 {fill:#444766}
   ]]>
  </style>
 </defs>
 <g id="Layer_x0020_1">
  <metadata id="CorelCorpID_0Corel-Layer"/>
  <path class="fil0" d="M1131 1476c237,0 366,-173 279,-445 -74,-231 -243,-583 -279,-583 -35,0 -207,358 -280,589 -86,270 49,439 280,439z"/>
  <path class="fil0" d="M1129 541c156,0 284,-96 284,-213 0,-118 -128,-214 -284,-214 -157,0 -285,96 -285,214 0,117 128,213 285,213z"/>
  <path class="fil0" d="M971 154c-58,-37 -159,-66 -180,-43 -21,23 15,121 58,175 46,58 184,-92 122,-132z"/>
  <path class="fil0" d="M1286 154c57,-37 158,-66 179,-43 22,23 -15,121 -58,175 -46,58 -184,-92 -121,-132z"/>
  <path class="fil0" d="M1351 435c97,-58 247,-50 317,41 -100,-54 -206,-62 -317,-41z"/>
  <path class="fil0" d="M1354 414c69,-75 201,-92 281,-29 -99,-22 -188,-12 -281,29z"/>
  <path class="fil0" d="M1336 459c95,-32 251,15 266,102 -78,-71 -162,-95 -266,-102z"/>
  <path class="fil0" d="M911 435c-110,-21 -217,-13 -317,41 71,-91 221,-99 317,-41z"/>
  <path class="fil0" d="M908 414c-92,-41 -181,-51 -280,-29 79,-63 211,-46 280,29z"/>
  <path class="fil0" d="M926 459c-104,7 -188,31 -265,102 14,-87 170,-134 265,-102z"/>
  <path class="fil0" d="M1094 1404c-1,-22 16,-41 38,-42 22,-1 41,16 42,38 5,95 -27,164 -79,210 -35,31 -79,50 -127,58 -45,8 -94,5 -141,-7 -89,-24 -170,-83 -207,-172 -45,-111 0,-213 49,-325 38,-84 78,-174 75,-273 -1,-58 -16,-104 -41,-140 -24,-36 -58,-61 -96,-78 -40,-17 -84,-25 -129,-23 -62,1 -124,20 -172,53 -84,57 -110,142 -96,215 5,27 15,52 30,75 14,22 33,40 54,53 52,33 124,34 205,-21 36,-25 44,-60 36,-92 -4,-15 -11,-30 -21,-43l0 0c-10,-14 -22,-25 -36,-34 -31,-20 -69,-25 -101,0 -18,13 -43,10 -57,-8 -13,-17 -10,-42 8,-56 64,-48 136,-40 193,-4 22,14 42,33 58,54l0 0 0 0c16,22 28,46 34,71 16,63 0,130 -69,178 -111,76 -215,71 -292,23 -32,-19 -59,-46 -79,-77 -21,-31 -35,-67 -42,-105 -19,-101 16,-217 130,-295 61,-42 138,-65 215,-67 56,-2 112,8 162,30 52,22 98,57 131,106 33,48 53,109 55,183 3,117 -41,216 -82,308 -42,95 -81,182 -48,262 27,64 87,107 154,124 35,10 72,12 107,6 33,-6 63,-19 87,-40 34,-30 55,-77 52,-145z"/>
 </g>
</svg>
