<?xml version="1.0" encoding="UTF-8"?>
<!DOCTYPE svg PUBLIC "-//W3C//DTD SVG 1.1//EN" "http://www.w3.org/Graphics/SVG/1.1/DTD/svg11.dtd">
<!-- Creator: CorelDRAW X7 -->
<svg xmlns="http://www.w3.org/2000/svg" xml:space="preserve" width="8.4666mm" height="8.4666mm" version="1.1" style="shape-rendering:geometricPrecision; text-rendering:geometricPrecision; image-rendering:optimizeQuality; fill-rule:evenodd; clip-rule:evenodd"
viewBox="0 0 847 847"
 xmlns:xlink="http://www.w3.org/1999/xlink">
 <defs>
  <style type="text/css">
   <![CDATA[
    .fil0 {fill:#444766}
    .fil1 {fill:#444766}
    .fil2 {fill:white}
   ]]>
  </style>
 </defs>
 <g id="Layer_x0020_1">
  <metadata id="CorelCorpID_0Corel-Layer"/>
  <path class="fil0" d="M504 297c25,30 41,129 -7,129 -47,0 -46,37 -24,83 22,46 -6,46 -37,29 -30,-18 -129,0 -74,97 56,100 316,100 372,0 55,-97 -44,-115 -74,-97 -31,17 -59,17 -37,-29 22,-46 23,-83 -24,-83 -48,0 -32,-99 -7,-129 17,-171 -105,-171 -88,0z"/>
  <path class="fil1" d="M549 305c82,0 149,-50 149,-111 0,-62 -67,-111 -149,-111 -81,0 -148,49 -148,111 0,61 67,111 148,111z"/>
  <path class="fil1" d="M467 103c-30,-19 -82,-34 -93,-22 -11,12 8,63 30,91 24,30 96,-48 63,-69z"/>
  <path class="fil1" d="M631 103c30,-19 82,-34 93,-22 12,12 -8,63 -30,91 -24,30 -96,-48 -63,-69z"/>
  <path class="fil2" d="M607 243c22,0 39,-18 39,-40 0,-21 -17,-39 -39,-39 -22,0 -39,18 -39,39 0,22 17,40 39,40z"/>
  <path class="fil1" d="M607 235c3,0 6,-9 6,-19 0,-11 -3,-20 -6,-20 -3,0 -6,9 -6,20 0,10 3,19 6,19z"/>
  <path class="fil2" d="M492 243c21,0 39,-18 39,-40 0,-21 -18,-39 -39,-39 -22,0 -40,18 -40,39 0,22 18,40 40,40z"/>
  <path class="fil1" d="M492 235c3,0 5,-9 5,-19 0,-11 -2,-20 -5,-20 -3,0 -6,9 -6,20 0,10 3,19 6,19z"/>
  <path class="fil2" d="M549 268c-16,0 -36,-18 0,-19 36,1 17,19 0,19z"/>
  <path class="fil1" d="M665 250c50,-31 128,-26 165,21 -52,-29 -107,-32 -165,-21z"/>
  <path class="fil1" d="M667 239c36,-39 104,-48 146,-16 -52,-11 -98,-6 -146,16z"/>
  <path class="fil1" d="M657 262c50,-17 131,8 138,53 -40,-37 -84,-50 -138,-53z"/>
  <path class="fil1" d="M436 250c-57,-11 -112,-8 -165,21 37,-47 115,-52 165,-21z"/>
  <path class="fil1" d="M435 239c-48,-22 -95,-27 -146,-16 41,-32 110,-23 146,16z"/>
  <path class="fil1" d="M444 262c-54,3 -98,16 -138,53 7,-45 89,-70 138,-53z"/>
  <path class="fil1" d="M468 749c17,0 30,-12 30,-28 0,-15 -13,-27 -30,-27 -17,0 -30,12 -30,27 0,16 13,28 30,28z"/>
  <path class="fil1" d="M432 740c17,0 31,-12 31,-27 0,-16 -14,-28 -31,-28 -16,0 -30,12 -30,28 0,15 14,27 30,27z"/>
  <path class="fil1" d="M504 740c17,0 30,-12 30,-27 0,-16 -13,-28 -30,-28 -17,0 -31,12 -31,28 0,15 14,27 31,27z"/>
  <path class="fil1" d="M468 733c21,0 37,-15 37,-34 0,-19 -16,-34 -37,-34 -20,0 -37,15 -37,34 0,19 17,34 37,34z"/>
  <path class="fil1" d="M468 768c3,0 6,-9 6,-20 0,-11 -3,-20 -6,-20 -3,0 -6,9 -6,20 0,11 3,20 6,20z"/>
  <path class="fil1" d="M512 755c4,0 6,-9 6,-20 0,-11 -2,-20 -6,-20 -3,0 -5,9 -5,20 0,11 2,20 5,20z"/>
  <path class="fil1" d="M424 755c3,0 5,-9 5,-20 0,-11 -2,-20 -5,-20 -3,0 -6,9 -6,20 0,11 3,20 6,20z"/>
  <path class="fil1" d="M628 749c17,0 30,-12 30,-28 0,-15 -13,-27 -30,-27 -17,0 -31,12 -31,27 0,16 14,28 31,28z"/>
  <path class="fil1" d="M592 740c17,0 31,-12 31,-27 0,-16 -14,-28 -31,-28 -17,0 -30,12 -30,28 0,15 13,27 30,27z"/>
  <path class="fil1" d="M664 740c16,0 30,-12 30,-27 0,-16 -14,-28 -30,-28 -17,0 -31,12 -31,28 0,15 14,27 31,27z"/>
  <path class="fil1" d="M628 733c20,0 37,-15 37,-34 0,-19 -17,-34 -37,-34 -21,0 -37,15 -37,34 0,19 16,34 37,34z"/>
  <path class="fil1" d="M628 768c3,0 6,-9 6,-20 0,-11 -3,-20 -6,-20 -3,0 -6,9 -6,20 0,11 3,20 6,20z"/>
  <path class="fil1" d="M672 755c3,0 6,-9 6,-20 0,-11 -3,-20 -6,-20 -3,0 -5,9 -5,20 0,11 2,20 5,20z"/>
  <path class="fil1" d="M584 755c3,0 5,-9 5,-20 0,-11 -2,-20 -5,-20 -4,0 -6,9 -6,20 0,11 2,20 6,20z"/>
  <path class="fil1" d="M455 680c10,1 17,9 16,18 -1,10 -9,17 -18,16 -170,-13 -199,-88 -193,-171 3,-29 9,-58 15,-85 8,-35 16,-68 12,-91 -4,-24 -13,-43 -25,-58 -13,-16 -29,-27 -48,-33 -19,-6 -40,-7 -60,-4 -22,4 -43,13 -60,27 -34,27 -42,63 -34,94 3,11 8,22 15,31 7,9 15,16 25,21 23,12 54,11 86,-15 15,-12 17,-27 13,-40 -2,-7 -6,-13 -10,-18 -5,-6 -11,-10 -17,-14 -13,-7 -30,-8 -43,4 -7,6 -18,5 -24,-2 -6,-7 -6,-18 1,-24 26,-23 57,-21 83,-8 9,6 18,13 26,22 7,8 13,18 16,29 9,26 4,55 -24,78 -44,35 -89,36 -123,18 -14,-7 -26,-18 -36,-30 -10,-13 -17,-28 -21,-43 -11,-43 0,-93 46,-130 22,-17 48,-29 76,-33 25,-5 51,-3 75,5 25,8 48,22 65,44 15,19 26,43 31,73 5,30 -3,66 -11,104 -6,26 -13,54 -15,80 -4,66 20,124 161,135z"/>
  <polygon class="fil1" points="450,119 554,164 528,222 425,177 "/>
  <polygon class="fil1" points="638,119 535,164 560,222 664,177 "/>
 </g>
</svg>
