<?xml version="1.0" encoding="UTF-8"?>
<!DOCTYPE svg PUBLIC "-//W3C//DTD SVG 1.1//EN" "http://www.w3.org/Graphics/SVG/1.1/DTD/svg11.dtd">
<!-- Creator: CorelDRAW X7 -->
<svg xmlns="http://www.w3.org/2000/svg" xml:space="preserve" width="8.4666mm" height="8.4666mm" version="1.1" style="shape-rendering:geometricPrecision; text-rendering:geometricPrecision; image-rendering:optimizeQuality; fill-rule:evenodd; clip-rule:evenodd"
viewBox="0 0 847 847"
 xmlns:xlink="http://www.w3.org/1999/xlink">
 <defs>
  <style type="text/css">
   <![CDATA[
    .fil0 {fill:#64A0C2}
   ]]>
  </style>
 </defs>
 <g id="Layer_x0020_1">
  <metadata id="CorelCorpID_0Corel-Layer"/>
  <path class="fil0" d="M700 224c-10,-81 -78,-144 -162,-144 -39,0 -76,15 -104,39 -27,-35 -68,-57 -115,-57 -69,0 -127,49 -142,114 -76,6 -136,68 -136,145 0,81 66,146 146,146 17,0 34,-3 49,-9 26,37 69,61 118,61 30,0 57,-9 80,-24 26,25 62,41 102,41 58,0 108,-34 131,-84 8,2 15,2 23,2 64,0 115,-51 115,-115 0,-61 -46,-110 -105,-115z"/>
  <g id="_231801192">
  </g>
  <g id="_231799944">
  </g>
  <g id="_231801696">
  </g>
  <g id="_231797472">
  </g>
  <g id="_231800280">
  </g>
  <g id="_231801432">
  </g>
  <g id="_231798960">
  </g>
  <g id="_231796224">
  </g>
  <g id="_231795408">
  </g>
  <g id="_231799536">
  </g>
  <g id="_231797064">
  </g>
  <g id="_231798480">
  </g>
  <g id="_231798888">
  </g>
  <g id="_231797856">
  </g>
  <g id="_231794952">
  </g>
 </g>
</svg>
