<?xml version="1.0" encoding="UTF-8" ?>
<!DOCTYPE svg PUBLIC "-//W3C//DTD SVG 1.1//EN" "http://www.w3.org/Graphics/SVG/1.1/DTD/svg11.dtd">
<svg width="562pt" height="732pt" viewBox="0 0 562 732" version="1.1" xmlns="http://www.w3.org/2000/svg">
<g id="#ffffffff">
</g>
<g id="#000101ff">
<path fill="#000101" opacity="1.00" d=" M 259.03 11.10 C 269.69 5.17 281.48 -0.14 293.97 0.74 C 296.66 0.70 298.69 2.65 300.51 4.37 C 307.79 11.66 313.61 20.41 317.47 29.96 C 318.06 31.96 320.27 32.53 321.88 33.45 C 325.89 35.27 329.90 37.13 333.62 39.52 C 336.40 47.20 334.65 55.56 331.60 62.88 C 328.06 71.98 323.91 81.07 323.14 90.94 C 318.84 95.43 312.10 95.33 306.39 94.59 C 303.50 92.86 301.62 89.62 298.17 88.82 C 291.83 91.78 287.99 97.78 283.50 102.84 C 288.96 114.37 288.74 127.45 287.73 139.89 C 286.48 154.04 284.33 168.43 287.32 182.52 C 288.19 194.27 293.86 204.77 298.28 215.45 C 302.11 225.64 305.37 236.11 310.40 245.81 C 312.07 246.56 313.02 244.57 314.22 243.82 C 314.64 236.47 316.16 228.59 312.47 221.77 C 312.97 221.43 313.99 220.76 314.49 220.42 C 314.42 219.68 314.26 218.20 314.18 217.46 C 316.48 218.38 318.54 219.84 320.93 220.57 C 321.70 219.82 322.31 218.97 322.74 218.00 C 321.03 215.75 317.98 214.94 316.45 212.51 C 315.12 210.90 314.85 208.78 314.54 206.80 C 319.81 207.70 325.91 210.07 330.80 206.88 C 333.99 204.49 330.03 201.63 328.93 199.22 C 333.18 199.15 337.44 199.25 341.68 199.67 C 344.78 198.91 345.93 195.28 348.81 194.02 C 352.59 191.51 357.15 192.77 361.03 194.27 C 364.16 190.43 366.44 185.99 367.87 181.26 C 369.60 182.95 371.20 184.77 372.58 186.77 C 373.27 186.07 373.95 185.37 374.64 184.67 C 373.07 181.29 371.14 178.05 369.78 174.60 C 371.12 174.82 372.26 175.48 373.17 176.48 C 375.77 176.93 378.06 178.19 379.80 180.18 C 381.84 182.63 385.21 182.39 387.96 183.39 C 391.95 185.11 394.85 188.56 397.15 192.14 C 398.49 190.69 401.32 189.77 400.21 187.30 C 402.09 187.57 402.85 186.55 402.86 184.81 C 403.97 184.21 405.14 183.76 406.38 183.44 C 405.42 187.76 405.17 192.16 405.12 196.57 C 405.62 196.60 406.63 196.65 407.13 196.68 C 408.30 200.13 409.72 203.48 410.97 206.91 C 407.45 204.07 403.89 200.66 402.92 196.06 C 402.11 192.99 403.28 189.89 403.19 186.81 C 400.42 188.52 400.18 191.72 399.29 194.53 C 398.88 194.60 398.07 194.76 397.67 194.84 C 395.48 192.25 393.04 189.88 390.88 187.26 C 389.95 186.03 388.61 185.31 387.13 185.01 C 388.00 187.27 389.13 189.45 389.45 191.89 C 384.45 186.82 380.43 180.03 373.14 177.87 C 374.14 180.70 377.22 184.42 374.72 187.28 C 373.56 187.22 372.39 187.21 371.23 187.23 C 370.16 186.35 369.08 185.50 367.96 184.70 C 366.55 188.70 364.92 192.68 362.32 196.07 C 363.88 198.94 366.42 201.09 368.09 203.87 C 374.32 212.87 377.74 223.40 380.63 233.85 C 381.43 236.90 382.59 239.90 382.76 243.09 C 381.75 242.47 380.91 241.62 380.54 240.49 C 376.41 230.82 374.43 220.25 369.03 211.13 C 366.68 206.89 364.52 202.42 361.07 198.94 C 358.69 196.56 355.40 195.55 352.17 195.03 C 347.28 197.94 346.39 203.99 345.62 209.12 C 345.10 211.49 346.33 214.59 344.16 216.34 C 343.10 211.09 344.33 205.82 344.52 200.57 C 340.82 199.74 337.11 201.01 333.41 201.24 C 333.87 203.22 335.47 205.81 333.57 207.54 C 329.22 211.10 323.18 210.76 318.00 209.71 C 320.35 212.66 322.92 215.53 326.21 217.45 C 325.52 218.87 324.90 220.41 323.67 221.47 C 321.71 222.02 319.64 221.49 317.65 221.44 C 318.15 228.39 317.17 235.31 316.71 242.23 C 318.46 241.77 320.19 240.87 322.06 241.30 C 317.66 245.42 310.20 247.95 309.98 254.99 C 313.13 251.92 317.41 249.94 321.89 250.49 C 329.47 250.85 335.01 256.71 339.66 262.07 C 341.39 257.93 343.50 253.87 346.83 250.79 C 351.53 245.56 358.57 242.33 361.68 235.78 C 361.58 232.27 356.90 230.55 357.09 226.87 C 360.03 228.87 362.28 231.66 364.41 234.47 C 374.19 247.80 377.68 264.84 388.73 277.36 C 391.60 281.33 396.86 283.43 401.67 282.57 C 404.40 281.12 406.96 278.22 406.07 274.90 C 405.84 271.76 403.27 269.39 403.12 266.26 C 406.73 269.04 408.21 273.74 408.11 278.17 C 409.42 277.93 411.00 278.10 411.94 276.96 C 414.67 274.45 413.95 270.42 414.62 267.13 C 417.24 254.03 417.10 240.23 422.66 227.85 C 423.56 230.39 424.69 232.84 425.99 235.20 C 428.54 230.93 427.44 225.60 426.94 220.91 C 425.99 216.76 425.31 211.66 421.18 209.40 C 418.98 209.08 417.80 211.09 416.64 212.56 C 413.60 216.51 412.84 221.54 411.02 226.05 C 410.26 220.81 412.77 215.77 414.40 210.91 C 413.63 209.97 412.88 209.04 412.16 208.08 C 413.48 208.00 414.72 208.48 415.93 208.98 C 418.90 206.21 424.28 206.95 426.25 210.55 C 429.60 215.72 429.20 222.21 429.79 228.10 C 433.46 226.21 436.03 222.80 439.04 220.06 C 450.99 207.64 462.31 194.63 473.40 181.45 C 474.20 175.22 473.61 168.54 476.60 162.80 C 482.89 150.78 491.25 140.04 499.11 129.04 C 499.74 128.01 500.71 127.09 500.91 125.86 C 499.65 122.31 496.47 120.06 493.77 117.66 C 490.37 119.95 487.04 122.66 482.89 123.41 C 478.01 124.78 473.31 122.39 468.78 120.92 C 465.72 106.56 456.37 94.82 450.30 81.73 C 448.77 77.73 448.67 73.25 449.45 69.08 C 451.13 62.85 456.37 57.54 462.97 56.88 C 467.39 41.11 474.58 25.84 485.77 13.73 C 489.11 9.74 493.41 6.74 496.96 2.96 C 499.86 -0.10 504.64 0.15 508.23 1.76 C 520.68 7.02 529.67 17.81 536.57 29.08 C 550.97 53.25 559.89 80.84 561.33 108.99 C 560.16 121.52 553.44 132.53 548.79 143.96 C 549.20 155.71 549.62 167.88 545.43 179.08 C 542.77 186.48 537.71 193.06 531.01 197.21 C 528.21 198.99 524.88 199.43 521.85 200.61 C 493.02 229.44 460.81 254.57 430.12 281.34 C 435.26 288.21 443.93 291.03 452.01 292.62 C 463.49 289.31 475.25 283.96 487.46 286.69 C 491.21 287.11 491.26 291.74 490.37 294.50 C 486.80 300.43 480.10 303.24 474.01 305.87 C 463.89 310.40 452.51 310.92 442.29 315.18 C 438.10 316.83 434.58 319.72 430.54 321.68 C 419.78 327.58 409.56 335.79 396.94 337.08 C 390.40 337.96 384.16 335.34 378.61 332.18 C 372.75 339.29 367.66 347.14 364.59 355.89 C 363.40 359.62 360.84 362.72 359.74 366.49 C 357.86 372.44 357.80 378.74 357.51 384.92 C 356.49 384.39 355.47 383.86 354.46 383.35 C 351.04 371.64 349.50 359.50 348.40 347.38 C 336.66 349.91 324.32 351.11 312.48 348.54 C 306.34 347.30 299.46 343.59 298.22 336.91 C 297.68 322.77 304.89 309.94 306.78 296.18 C 292.47 305.69 277.19 314.99 259.89 317.51 C 259.22 316.30 258.56 315.11 257.91 313.91 C 253.46 316.29 250.09 320.14 246.08 323.13 C 238.96 329.03 231.09 334.68 221.77 336.27 C 225.31 345.45 230.06 354.17 232.69 363.70 C 232.34 364.31 231.64 365.54 231.29 366.15 L 231.13 366.43 C 229.91 363.97 228.64 361.54 227.25 359.17 C 211.47 369.52 199.78 384.91 189.55 400.53 C 187.30 403.54 186.53 407.59 183.47 409.98 C 184.40 403.21 188.18 397.37 190.56 391.08 C 188.15 386.05 186.01 380.83 182.69 376.31 C 181.26 374.39 179.36 372.47 176.83 372.35 C 176.39 376.77 175.59 381.25 176.66 385.65 C 173.72 384.36 171.12 382.32 169.47 379.54 C 166.11 374.21 162.96 368.71 158.59 364.12 C 159.12 379.44 160.63 394.79 159.34 410.11 C 159.13 411.96 158.91 414.02 157.38 415.29 C 157.09 414.71 156.52 413.56 156.24 412.98 C 156.50 412.56 157.01 411.73 157.27 411.31 C 157.28 394.72 155.56 378.17 152.72 361.84 C 152.25 359.05 151.60 356.26 151.70 353.41 C 154.37 354.02 155.52 356.83 157.37 358.57 C 162.32 364.68 168.55 369.61 173.12 376.03 C 175.05 372.16 172.13 368.37 172.12 364.42 C 176.70 365.12 180.89 367.73 183.62 371.47 C 187.19 376.37 189.72 381.93 193.07 386.99 C 198.56 377.58 206.12 369.67 213.84 362.10 C 213.88 352.82 209.91 344.00 210.12 334.74 C 214.10 334.20 218.22 335.13 222.09 333.77 C 235.32 330.34 246.12 321.08 254.77 310.84 C 258.45 306.19 262.19 301.46 264.89 296.15 C 262.12 277.75 260.86 259.02 255.55 241.10 C 253.87 235.84 253.03 230.36 251.29 225.12 C 247.36 206.65 240.78 188.91 235.30 170.88 C 234.42 167.37 230.49 166.16 228.59 163.33 C 221.65 154.20 219.18 142.71 216.29 131.85 C 216.05 127.44 214.63 121.56 218.80 118.50 C 216.22 94.58 216.53 69.52 225.76 46.94 C 232.32 31.72 243.71 18.02 259.03 11.10 M 251.67 20.79 C 239.62 28.81 230.94 41.32 226.68 55.08 C 220.59 74.71 221.06 95.61 222.28 115.91 C 230.09 113.59 238.26 114.14 246.28 113.84 C 248.85 107.36 255.94 104.20 259.20 98.16 C 261.40 93.92 260.16 88.98 261.29 84.49 C 262.05 84.19 263.58 83.58 264.34 83.28 C 268.10 88.40 264.11 94.45 264.39 100.04 C 268.75 99.68 273.13 99.88 277.48 99.39 C 282.03 96.16 288.35 94.29 290.52 88.63 C 293.51 78.87 287.66 68.90 280.10 63.03 C 287.02 66.35 292.89 72.22 295.91 79.32 C 296.80 80.84 296.38 82.59 296.25 84.24 C 298.87 85.66 301.37 82.92 303.22 81.31 C 305.92 78.00 309.42 74.86 310.20 70.46 C 311.60 64.50 310.90 58.15 308.58 52.52 C 307.00 48.11 303.63 44.82 301.07 41.05 C 305.78 43.90 308.93 48.51 312.24 52.78 C 317.74 34.83 308.46 14.62 293.02 4.88 C 277.96 5.30 263.44 11.56 251.67 20.79 M 497.04 6.73 C 489.22 14.40 481.69 22.54 475.74 31.78 C 469.63 41.37 466.46 53.07 468.62 64.39 C 468.98 64.31 469.71 64.16 470.07 64.08 C 473.40 58.19 476.44 51.99 481.20 47.08 C 482.40 45.67 484.12 44.97 485.76 44.19 C 482.34 53.14 476.74 61.07 473.33 70.03 C 471.21 76.36 468.80 83.37 471.42 89.94 C 474.00 97.10 479.34 104.31 487.18 105.91 C 487.42 93.09 491.99 80.61 498.91 69.94 C 498.51 82.11 491.83 93.59 493.87 105.94 C 494.79 114.25 502.09 121.82 510.72 121.61 C 511.09 116.22 509.31 110.47 512.02 105.45 C 512.57 111.31 512.92 117.56 516.57 122.47 C 519.81 127.86 525.35 131.27 531.31 132.91 C 525.61 133.19 520.24 130.85 514.97 129.00 C 511.50 127.91 508.69 125.37 505.10 124.61 C 504.85 131.43 509.53 136.66 512.65 142.24 C 519.79 147.93 528.83 151.74 538.11 150.99 C 539.63 151.35 540.15 149.63 540.96 148.76 C 546.39 141.28 550.28 132.81 553.42 124.14 C 555.25 118.92 557.52 113.72 557.71 108.11 C 558.17 98.35 555.49 88.83 553.33 79.41 C 548.40 64.47 545.82 48.06 535.61 35.53 C 528.98 26.26 522.37 16.85 514.14 8.90 C 509.35 5.41 502.50 4.29 497.04 6.73 M 318.76 37.01 C 318.75 43.14 318.42 49.40 315.95 55.10 C 316.56 60.36 316.24 65.89 313.58 70.60 C 311.02 76.35 305.70 80.68 304.26 86.92 C 306.72 91.03 311.88 91.36 316.17 91.31 C 322.46 82.93 321.85 71.87 325.68 62.47 C 327.85 57.47 331.43 52.75 331.25 47.05 C 331.04 45.47 331.11 43.44 329.56 42.52 C 326.30 40.11 322.82 37.75 318.76 37.01 M 462.17 62.99 C 455.85 65.86 451.49 73.96 454.44 80.64 C 460.39 90.28 466.37 100.05 470.26 110.74 C 471.34 113.55 470.95 117.58 474.10 119.09 C 478.13 120.84 483.05 120.11 486.67 117.71 C 487.89 117.34 488.65 115.42 487.46 114.64 C 483.71 112.44 479.77 110.45 476.62 107.37 C 467.88 99.19 464.70 86.41 466.37 74.80 C 466.98 71.37 464.04 68.44 464.61 64.95 C 465.14 63.50 463.55 61.92 462.17 62.99 M 259.46 101.01 C 258.02 103.27 256.32 105.38 255.13 107.80 C 258.57 107.38 261.17 104.86 264.20 103.41 C 263.29 101.61 261.18 101.53 259.46 101.01 M 255.93 111.85 C 251.36 114.17 247.32 118.11 241.94 118.29 C 236.64 118.49 231.16 117.06 226.01 118.91 C 221.98 120.20 219.96 125.12 221.31 129.00 C 224.47 140.60 228.71 152.00 234.77 162.40 C 249.47 163.82 265.46 161.58 277.57 152.55 C 280.35 150.27 283.76 147.85 284.14 143.95 C 286.73 130.38 283.91 116.39 279.20 103.60 C 270.62 102.84 262.86 107.37 255.93 111.85 M 495.94 139.99 C 490.65 146.85 484.97 153.68 481.91 161.90 C 480.04 167.41 479.56 173.70 481.60 179.21 C 492.74 191.13 509.73 194.08 525.24 195.44 C 529.82 193.07 532.60 188.58 535.48 184.51 C 540.97 176.54 545.16 166.97 544.03 157.09 C 532.46 156.84 520.94 153.25 511.42 146.63 C 506.62 143.31 503.38 138.19 501.53 132.73 C 499.30 134.86 497.79 137.57 495.94 139.99 M 239.69 168.19 C 246.77 192.53 252.37 217.37 261.46 241.09 C 264.96 264.17 273.39 287.61 267.56 311.06 C 281.84 308.05 295.59 302.21 307.38 293.57 C 309.78 287.31 309.30 280.04 311.82 274.02 C 314.02 292.50 304.86 309.55 300.60 327.05 C 299.69 332.36 299.06 339.36 303.96 342.98 C 309.79 347.12 317.33 346.51 324.09 347.39 C 337.39 347.53 351.51 346.44 363.06 339.18 C 367.18 336.76 370.24 333.04 373.60 329.73 C 374.14 328.24 374.71 326.77 375.27 325.29 C 383.58 333.23 396.99 337.21 407.55 331.42 C 425.56 321.10 443.33 310.04 462.95 302.98 C 464.62 302.34 466.48 301.90 468.12 302.89 C 465.59 302.72 463.46 304.33 461.22 305.22 C 459.51 306.09 457.36 306.57 456.44 308.45 C 461.63 307.93 466.60 306.14 471.49 304.41 C 476.61 302.48 481.56 300.08 486.03 296.90 C 487.68 295.86 488.64 293.88 488.52 291.94 C 488.88 288.56 484.61 287.62 482.01 287.94 C 463.82 288.21 448.10 298.22 431.75 304.84 C 436.67 300.77 442.61 298.28 448.02 294.97 C 439.73 291.86 430.56 288.09 426.31 279.75 C 424.57 276.46 426.05 272.82 427.67 269.83 C 427.72 271.27 427.79 272.72 427.86 274.17 C 431.92 271.65 432.90 266.57 433.14 262.16 C 431.67 260.51 430.06 258.90 427.88 258.25 C 425.35 264.48 423.41 271.73 417.73 275.87 C 413.75 276.40 411.38 280.46 407.19 280.31 C 405.72 282.26 403.95 284.14 401.48 284.72 C 398.26 285.87 395.04 284.25 391.93 283.49 C 388.36 288.20 381.30 290.23 375.87 288.19 C 376.50 285.62 374.26 283.63 374.23 281.14 C 374.02 276.08 375.97 271.35 378.27 266.97 C 377.07 262.56 374.35 258.70 372.51 254.53 C 369.25 248.82 367.42 242.20 362.98 237.23 C 358.49 244.22 351.52 248.96 345.82 254.85 C 341.47 258.96 341.87 265.81 344.00 270.93 C 347.74 279.02 355.07 285.76 363.93 287.62 C 367.40 288.39 370.98 287.69 374.49 288.04 C 374.55 288.78 375.07 289.92 374.03 290.24 C 367.41 291.61 360.28 289.99 354.67 286.28 C 346.83 281.20 341.56 273.01 338.40 264.37 C 335.04 258.52 329.24 252.92 322.05 253.02 C 317.92 252.60 312.43 253.42 310.98 257.99 C 309.94 263.34 312.61 268.54 311.89 273.93 C 311.14 273.06 310.33 272.24 309.47 271.50 C 308.44 265.45 306.81 259.31 307.80 253.15 C 307.99 251.55 308.60 249.84 307.57 248.39 C 299.01 231.60 293.19 213.62 286.40 196.09 C 283.50 182.24 282.35 168.08 281.63 153.96 C 268.27 160.34 254.08 164.81 239.69 168.19 M 428.14 237.13 C 426.76 243.64 429.32 250.29 428.38 256.89 C 430.64 258.28 433.13 259.71 434.61 261.99 C 435.45 265.30 433.07 268.27 432.57 271.47 C 435.44 270.26 437.56 267.91 440.00 266.07 C 464.89 246.13 491.03 227.06 511.14 202.01 C 511.66 201.25 511.99 200.41 512.13 199.49 C 499.92 195.39 487.12 191.01 477.87 181.60 C 462.57 201.17 446.80 220.62 428.14 237.13 M 422.15 233.63 C 419.74 242.23 418.31 251.14 417.89 260.07 C 421.06 257.94 422.45 261.65 424.53 263.33 C 427.76 253.48 427.67 242.32 423.13 232.90 L 422.15 233.63 M 264.34 304.41 C 263.88 304.73 262.97 305.37 262.52 305.69 C 262.37 306.80 262.25 307.91 262.17 309.02 C 264.22 308.66 264.73 306.62 265.49 304.99 C 265.20 304.85 264.63 304.55 264.34 304.41 M 213.03 336.36 C 212.68 344.17 215.40 351.58 217.67 358.91 C 219.84 357.57 222.43 356.87 224.40 355.27 C 223.78 350.63 221.46 346.52 219.48 342.37 C 217.93 339.84 216.53 336.30 213.03 336.36 M 352.70 346.01 C 353.79 351.68 354.04 357.45 355.05 363.13 C 357.60 362.30 357.38 358.86 358.67 356.87 C 360.66 351.08 364.82 346.25 366.48 340.39 C 361.79 342.03 357.39 344.37 352.70 346.01 Z" />
</g>
<g id="#fffffdff">
<path fill="#fffffd" opacity="1.00" d=" M 259.46 101.01 C 261.18 101.53 263.29 101.61 264.20 103.41 C 261.17 104.86 258.57 107.38 255.13 107.80 C 256.32 105.38 258.02 103.27 259.46 101.01 Z" />
</g>
<g id="#3474b4ff">
<path fill="#3474b4" opacity="1.00" d=" M 255.93 111.85 C 262.86 107.37 270.62 102.84 279.20 103.60 C 283.91 116.39 286.73 130.38 284.14 143.95 C 283.76 147.85 280.35 150.27 277.57 152.55 C 265.46 161.58 249.47 163.82 234.77 162.40 C 228.71 152.00 224.47 140.60 221.31 129.00 C 219.96 125.12 221.98 120.20 226.01 118.91 C 231.16 117.06 236.64 118.49 241.94 118.29 C 247.32 118.11 251.36 114.17 255.93 111.85 Z" />
<path fill="#3474b4" opacity="1.00" d=" M 495.94 139.99 C 497.79 137.57 499.30 134.86 501.53 132.73 C 503.38 138.19 506.62 143.31 511.42 146.63 C 520.94 153.25 532.46 156.84 544.03 157.09 C 545.16 166.97 540.97 176.54 535.48 184.51 C 532.60 188.58 529.82 193.07 525.24 195.44 C 509.73 194.08 492.74 191.13 481.60 179.21 C 479.56 173.70 480.04 167.41 481.91 161.90 C 484.97 153.68 490.65 146.85 495.94 139.99 Z" />
<path fill="#3474b4" opacity="1.00" d=" M 259.89 317.51 C 277.19 314.99 292.47 305.69 306.78 296.18 C 304.89 309.94 297.68 322.77 298.22 336.91 C 299.46 343.59 306.34 347.30 312.48 348.54 C 324.32 351.11 336.66 349.91 348.40 347.38 C 349.50 359.50 351.04 371.64 354.46 383.35 C 356.15 388.86 358.05 394.32 360.38 399.60 C 362.08 403.53 364.46 407.15 365.82 411.23 C 354.60 416.62 343.53 422.33 332.14 427.36 C 326.76 429.11 321.67 431.94 316.05 432.82 C 308.70 432.58 301.30 432.98 293.97 432.31 C 288.71 431.95 284.17 428.99 280.11 425.87 C 273.58 420.76 268.62 414.05 263.15 407.89 C 254.47 398.34 247.32 387.55 240.30 376.76 C 237.74 372.42 234.53 368.42 232.69 363.70 C 230.06 354.17 225.31 345.45 221.77 336.27 C 231.09 334.68 238.96 329.03 246.08 323.13 C 250.09 320.14 253.46 316.29 257.91 313.91 C 258.56 315.11 259.22 316.30 259.89 317.51 Z" />
</g>
<g id="#edf2f5ff">
<path fill="#edf2f5" opacity="1.00" d=" M 422.15 233.63 L 423.13 232.90 C 427.67 242.32 427.76 253.48 424.53 263.33 C 422.45 261.65 421.06 257.94 417.89 260.07 C 418.31 251.14 419.74 242.23 422.15 233.63 Z" />
</g>
<g id="#ecf3f9ff">
<path fill="#ecf3f9" opacity="1.00" d=" M 345.82 254.85 C 351.52 248.96 358.49 244.22 362.98 237.23 C 367.42 242.20 369.25 248.82 372.51 254.53 C 374.35 258.70 377.07 262.56 378.27 266.97 C 375.97 271.35 374.02 276.08 374.23 281.14 C 374.26 283.63 376.50 285.62 375.87 288.19 C 375.53 288.15 374.84 288.07 374.49 288.04 C 370.98 287.69 367.40 288.39 363.93 287.62 C 355.07 285.76 347.74 279.02 344.00 270.93 C 341.87 265.81 341.47 258.96 345.82 254.85 Z" />
</g>
<g id="#fec85eff">
<path fill="#fec85e" opacity="1.00" d=" M 310.98 257.99 C 312.43 253.42 317.92 252.60 322.05 253.02 C 329.24 252.92 335.04 258.52 338.40 264.37 C 341.56 273.01 346.83 281.20 354.67 286.28 C 360.28 289.99 367.41 291.61 374.03 290.24 C 375.07 289.92 374.55 288.78 374.49 288.04 C 374.84 288.07 375.53 288.15 375.87 288.19 C 381.30 290.23 388.36 288.20 391.93 283.49 C 395.04 284.25 398.26 285.87 401.48 284.72 C 403.95 284.14 405.72 282.26 407.19 280.31 C 411.38 280.46 413.75 276.40 417.73 275.87 C 423.41 271.73 425.35 264.48 427.88 258.25 C 430.06 258.90 431.67 260.51 433.14 262.16 C 432.90 266.57 431.92 271.65 427.86 274.17 C 427.79 272.72 427.72 271.27 427.67 269.83 C 426.05 272.82 424.57 276.46 426.31 279.75 C 430.56 288.09 439.73 291.86 448.02 294.97 C 442.61 298.28 436.67 300.77 431.75 304.84 C 448.10 298.22 463.82 288.21 482.01 287.94 C 484.61 287.62 488.88 288.56 488.52 291.94 C 488.64 293.88 487.68 295.86 486.03 296.90 C 481.56 300.08 476.61 302.48 471.49 304.41 C 470.37 303.87 469.25 303.36 468.12 302.89 C 466.48 301.90 464.62 302.34 462.95 302.98 C 443.33 310.04 425.56 321.10 407.55 331.42 C 396.99 337.21 383.58 333.23 375.27 325.29 C 355.36 308.80 343.25 285.46 326.15 266.44 C 328.22 266.62 330.30 266.80 332.38 266.92 C 328.33 263.32 322.45 262.85 317.64 265.15 C 318.75 265.68 319.87 266.20 321.00 266.71 C 322.01 286.55 314.63 305.34 308.98 324.00 C 307.90 327.51 306.65 331.74 308.95 335.04 C 313.45 340.04 320.73 340.63 327.05 340.50 C 339.05 340.03 351.81 338.70 361.96 331.67 C 364.97 329.77 366.83 326.53 369.80 324.61 C 371.71 325.76 372.91 327.65 373.60 329.73 C 370.24 333.04 367.18 336.76 363.06 339.18 C 351.51 346.44 337.39 347.53 324.09 347.39 C 317.33 346.51 309.79 347.12 303.96 342.98 C 299.06 339.36 299.69 332.36 300.60 327.05 C 304.86 309.55 314.02 292.50 311.82 274.02 L 311.89 273.95 L 311.89 273.93 C 312.61 268.54 309.94 263.34 310.98 257.99 Z" />
<path fill="#fec85e" opacity="1.00" d=" M 322.61 266.46 C 324.44 265.85 325.09 267.90 326.08 268.96 C 329.21 273.54 333.17 277.53 335.92 282.36 C 330.92 279.40 328.87 273.63 324.60 269.89 C 324.38 274.43 324.48 279.08 322.66 283.35 C 322.97 277.72 323.51 272.07 322.61 266.46 Z" />
<path fill="#fec85e" opacity="1.00" d=" M 181.86 502.56 C 186.64 502.51 191.43 502.42 196.22 502.60 C 200.66 509.02 207.06 513.60 212.88 518.66 C 211.35 523.23 208.73 527.31 206.59 531.60 C 196.60 550.81 186.62 570.08 178.45 590.15 C 181.10 588.47 185.26 584.76 188.05 587.98 C 189.32 591.81 189.20 595.96 189.49 599.97 C 189.60 612.13 188.58 624.42 185.03 636.11 C 178.86 655.76 172.25 675.31 164.20 694.29 C 162.05 700.52 156.98 705.66 150.94 708.19 C 135.06 710.20 117.57 708.19 103.50 717.34 C 92.20 725.47 77.77 729.29 63.96 726.94 C 60.67 726.57 58.18 724.16 55.48 722.49 C 42.99 713.76 30.20 704.28 14.90 701.35 C 10.25 700.61 5.85 695.80 6.69 690.95 C 8.07 687.31 12.20 686.20 15.13 684.15 C 56.25 657.24 92.79 624.09 128.03 590.02 C 132.16 585.95 136.20 581.77 140.64 578.02 C 140.73 582.22 136.89 585.12 136.05 589.14 C 141.86 584.93 145.94 578.87 149.92 573.00 C 160.24 557.37 166.19 539.49 173.47 522.37 C 176.21 515.74 178.99 509.13 181.86 502.56 Z" />
<path fill="#fec85e" opacity="1.00" d=" M 284.98 524.42 C 293.60 518.80 301.68 512.33 310.53 507.07 C 313.34 524.57 318.24 541.78 325.92 557.79 C 338.35 584.22 356.21 607.82 376.36 628.79 C 384.25 636.23 392.08 643.78 401.01 649.98 C 418.03 662.47 437.31 671.73 457.55 677.66 C 461.67 679.80 468.03 682.33 467.26 688.02 C 453.68 686.62 439.68 691.45 429.74 700.79 C 416.31 715.68 393.21 718.94 374.91 712.16 C 364.75 710.33 354.29 710.61 344.06 711.76 C 340.81 712.49 338.11 710.02 335.76 708.17 C 331.99 704.59 327.86 701.33 324.72 697.14 C 317.08 687.31 311.20 676.26 306.08 664.95 C 304.06 660.38 301.57 655.91 300.68 650.94 C 296.18 629.62 294.10 607.24 299.13 585.83 C 302.65 586.54 303.36 591.03 306.70 591.89 C 298.65 569.70 289.79 547.60 284.98 524.42 Z" />
</g>
<g id="#0f0000ff">
<path fill="#0f0000" opacity="1.00" d=" M 317.64 265.15 C 322.45 262.85 328.33 263.32 332.38 266.92 C 330.30 266.80 328.22 266.62 326.15 266.44 C 343.25 285.46 355.36 308.80 375.27 325.29 C 374.71 326.77 374.14 328.24 373.60 329.73 C 372.91 327.65 371.71 325.76 369.80 324.61 C 366.83 326.53 364.97 329.77 361.96 331.67 C 351.81 338.70 339.05 340.03 327.05 340.50 C 320.73 340.63 313.45 340.04 308.95 335.04 C 306.65 331.74 307.90 327.51 308.98 324.00 C 314.63 305.34 322.01 286.55 321.00 266.71 C 319.87 266.20 318.75 265.68 317.64 265.15 M 322.61 266.46 C 323.51 272.07 322.97 277.72 322.66 283.35 C 320.69 296.02 316.77 308.29 312.30 320.28 C 310.80 324.33 309.36 328.89 310.77 333.16 C 314.00 337.48 320.00 338.26 325.04 338.25 C 331.01 337.92 337.09 338.02 342.90 336.38 C 350.90 334.76 359.91 333.15 365.34 326.41 C 366.18 324.94 368.55 323.01 366.70 321.38 C 362.73 316.93 358.46 312.73 354.87 307.94 C 352.07 311.08 349.41 314.35 346.01 316.88 C 344.58 316.89 343.16 316.89 341.74 316.91 C 341.85 307.87 341.38 298.79 339.81 289.87 C 339.37 287.06 338.04 284.29 335.92 282.36 C 333.17 277.53 329.21 273.54 326.08 268.96 C 325.09 267.90 324.44 265.85 322.61 266.46 M 342.76 293.00 C 343.57 300.79 343.72 308.62 343.87 316.45 C 347.97 314.28 351.60 311.07 353.68 306.87 C 350.41 302.01 347.31 296.72 342.76 293.00 Z" />
</g>
<g id="#ffa229ff">
<path fill="#ffa229" opacity="1.00" d=" M 322.66 283.35 C 324.48 279.08 324.38 274.43 324.60 269.89 C 328.87 273.63 330.92 279.40 335.92 282.36 C 338.04 284.29 339.37 287.06 339.81 289.87 C 341.38 298.79 341.85 307.87 341.74 316.91 C 343.16 316.89 344.58 316.89 346.01 316.88 C 349.41 314.35 352.07 311.08 354.87 307.94 C 358.46 312.73 362.73 316.93 366.70 321.38 C 368.55 323.01 366.18 324.94 365.34 326.41 C 359.91 333.15 350.90 334.76 342.90 336.38 C 337.09 338.02 331.01 337.92 325.04 338.25 C 320.00 338.26 314.00 337.48 310.77 333.16 C 309.36 328.89 310.80 324.33 312.30 320.28 C 316.77 308.29 320.69 296.02 322.66 283.35 Z" />
</g>
<g id="#fac4c0ff">
<path fill="#fac4c0" opacity="1.00" d=" M 342.76 293.00 C 347.31 296.72 350.41 302.01 353.68 306.87 C 351.60 311.07 347.97 314.28 343.87 316.45 C 343.72 308.62 343.57 300.79 342.76 293.00 Z" />
</g>
<g id="#dcba75ff">
<path fill="#dcba75" opacity="1.00" d=" M 461.22 305.22 C 463.46 304.33 465.59 302.72 468.12 302.89 C 469.25 303.36 470.37 303.87 471.49 304.41 C 466.60 306.14 461.63 307.93 456.44 308.45 C 457.36 306.57 459.51 306.09 461.22 305.22 Z" />
</g>
<g id="#fdfefcff">
<path fill="#fdfefc" opacity="1.00" d=" M 264.34 304.41 C 264.63 304.55 265.20 304.85 265.49 304.99 C 264.73 306.62 264.22 308.66 262.17 309.02 C 262.25 307.91 262.37 306.80 262.52 305.69 C 262.97 305.37 263.88 304.73 264.34 304.41 Z" />
<path fill="#fdfefc" opacity="1.00" d=" M 352.70 346.01 C 357.39 344.37 361.79 342.03 366.48 340.39 C 364.82 346.25 360.66 351.08 358.67 356.87 C 357.38 358.86 357.60 362.30 355.05 363.13 C 354.04 357.45 353.79 351.68 352.70 346.01 Z" />
</g>
<g id="#fdfeffff">
<path fill="#fdfeff" opacity="1.00" d=" M 213.03 336.36 C 216.53 336.30 217.93 339.84 219.48 342.37 C 221.46 346.52 223.78 350.63 224.40 355.27 C 222.43 356.87 219.84 357.57 217.67 358.91 C 215.40 351.58 212.68 344.17 213.03 336.36 Z" />
</g>
<g id="#00030cff">
<path fill="#00030c" opacity="1.00" d=" M 232.69 363.70 C 234.53 368.42 237.74 372.42 240.30 376.76 C 247.32 387.55 254.47 398.34 263.15 407.89 C 268.62 414.05 273.58 420.76 280.11 425.87 C 284.17 428.99 288.71 431.95 293.97 432.31 C 301.30 432.98 308.70 432.58 316.05 432.82 C 321.67 431.94 326.76 429.11 332.14 427.36 C 330.89 428.85 329.38 430.06 327.87 431.25 C 327.78 431.53 327.59 432.10 327.50 432.38 L 327.44 432.57 C 314.26 435.91 299.81 438.39 286.80 433.09 C 281.53 431.19 277.78 426.88 273.81 423.17 C 257.60 407.67 244.18 389.44 233.12 369.98 C 232.46 368.73 231.68 367.51 231.29 366.15 C 231.64 365.54 232.34 364.31 232.69 363.70 Z" />
</g>
<g id="#020100ff">
<path fill="#020100" opacity="1.00" d=" M 354.46 383.35 C 355.47 383.86 356.49 384.39 357.51 384.92 C 361.34 394.11 365.43 403.19 369.93 412.08 C 370.97 413.35 369.61 414.84 368.45 415.33 C 361.68 419.16 354.99 423.20 347.71 425.99 C 343.62 453.82 332.82 480.74 315.55 503.02 C 317.72 525.46 325.59 547.02 336.67 566.56 C 354.89 598.65 380.44 626.08 408.87 649.38 C 416.59 655.04 424.89 659.89 433.42 664.22 C 440.13 667.60 447.29 669.93 454.18 672.89 C 459.07 674.58 464.41 676.14 467.93 680.18 C 470.24 683.33 473.19 686.88 472.08 691.08 C 469.48 694.51 464.77 693.62 461.04 693.80 C 453.22 694.17 444.72 694.23 438.02 698.84 C 433.97 702.60 431.86 708.14 427.23 711.36 C 417.51 718.72 404.87 720.37 393.02 720.23 C 389.02 720.01 384.91 720.25 381.06 718.96 C 368.69 715.28 355.65 717.21 342.98 716.15 C 332.28 714.09 326.58 703.80 319.22 696.85 C 306.55 682.62 298.75 664.53 294.90 646.00 C 290.29 623.39 291.22 599.80 296.51 577.40 C 288.73 561.77 284.13 544.86 278.06 528.56 C 259.68 534.40 240.12 537.05 220.90 534.73 C 218.17 534.38 215.46 533.90 212.85 533.04 C 203.61 547.78 194.45 562.84 188.99 579.45 C 191.34 580.03 192.53 582.35 193.24 584.47 C 195.19 593.15 194.47 602.14 193.32 610.88 C 189.80 642.18 179.38 672.24 166.99 701.04 C 164.26 707.82 157.12 711.76 150.16 712.81 C 143.11 714.13 135.94 712.65 128.85 713.53 C 118.32 714.60 108.27 718.72 99.40 724.40 C 87.76 730.14 74.34 733.16 61.45 730.43 C 54.80 728.68 50.49 722.92 45.27 718.89 C 34.16 710.74 20.42 708.00 7.74 703.28 C 0.09 700.72 -2.61 688.15 5.24 684.21 C 39.84 663.57 71.26 638.04 100.80 610.75 C 112.75 599.77 124.23 588.32 136.09 577.26 C 140.99 572.41 146.36 567.92 150.60 562.49 C 158.98 544.41 169.96 527.37 175.27 508.00 C 167.12 490.68 165.22 471.18 165.83 452.29 C 155.99 441.41 150.14 427.61 146.74 413.48 C 145.69 408.62 143.41 403.74 144.23 398.72 C 146.17 400.20 147.09 402.56 148.71 404.33 C 150.79 406.98 153.69 409.20 154.53 412.62 C 152.68 411.93 151.31 410.50 149.82 409.30 C 150.68 422.57 156.85 435.87 166.99 444.62 C 168.08 440.90 169.17 436.91 171.83 433.97 C 171.50 439.64 170.19 445.21 170.09 450.91 C 169.79 463.78 169.95 476.93 173.45 489.42 C 174.42 492.53 176.11 496.61 179.88 496.89 C 184.58 497.03 189.30 497.14 194.00 497.12 C 200.06 495.79 205.45 492.60 211.18 490.38 C 208.57 494.80 204.09 498.53 198.96 499.54 C 198.86 503.62 202.41 506.38 205.24 508.78 C 210.66 513.11 217.55 514.73 224.18 516.16 C 219.38 518.88 214.74 523.02 213.81 528.74 C 233.53 528.56 254.15 533.64 273.14 526.20 C 305.63 511.49 331.22 481.11 338.38 445.97 C 339.62 440.34 340.02 434.57 339.67 428.83 C 335.61 430.01 331.64 431.50 327.50 432.38 C 327.59 432.10 327.78 431.53 327.87 431.25 C 329.38 430.06 330.89 428.85 332.14 427.36 C 343.53 422.33 354.60 416.62 365.82 411.23 C 364.46 407.15 362.08 403.53 360.38 399.60 C 358.05 394.32 356.15 388.86 354.46 383.35 M 181.86 502.56 C 178.99 509.13 176.21 515.74 173.47 522.37 C 166.19 539.49 160.24 557.37 149.92 573.00 C 145.94 578.87 141.86 584.93 136.05 589.14 C 136.89 585.12 140.73 582.22 140.64 578.02 C 136.20 581.77 132.16 585.95 128.03 590.02 C 92.79 624.09 56.25 657.24 15.13 684.15 C 12.20 686.20 8.07 687.31 6.69 690.95 C 5.85 695.80 10.25 700.61 14.90 701.35 C 30.20 704.28 42.99 713.76 55.48 722.49 C 58.18 724.16 60.67 726.57 63.96 726.94 C 77.77 729.29 92.20 725.47 103.50 717.34 C 117.57 708.19 135.06 710.20 150.94 708.19 C 156.98 705.66 162.05 700.52 164.20 694.29 C 172.25 675.31 178.86 655.76 185.03 636.11 C 188.58 624.42 189.60 612.13 189.49 599.97 C 189.20 595.96 189.32 591.81 188.05 587.98 C 185.26 584.76 181.10 588.47 178.45 590.15 C 186.62 570.08 196.60 550.81 206.59 531.60 C 208.73 527.31 211.35 523.23 212.88 518.66 C 207.06 513.60 200.66 509.02 196.22 502.60 C 191.43 502.42 186.64 502.51 181.86 502.56 M 284.98 524.42 C 289.79 547.60 298.65 569.70 306.70 591.89 C 303.36 591.03 302.65 586.54 299.13 585.83 C 294.10 607.24 296.18 629.62 300.68 650.94 C 301.57 655.91 304.06 660.38 306.08 664.95 C 311.20 676.26 317.08 687.31 324.72 697.14 C 327.86 701.33 331.99 704.59 335.76 708.17 C 338.11 710.02 340.81 712.49 344.06 711.76 C 354.29 710.61 364.75 710.33 374.91 712.16 C 393.21 718.94 416.31 715.68 429.74 700.79 C 439.68 691.45 453.68 686.62 467.26 688.02 C 468.03 682.33 461.67 679.80 457.55 677.66 C 437.31 671.73 418.03 662.47 401.01 649.98 C 392.08 643.78 384.25 636.23 376.36 628.79 C 356.21 607.82 338.35 584.22 325.92 557.79 C 318.24 541.78 313.34 524.57 310.53 507.07 C 301.68 512.33 293.60 518.80 284.98 524.42 Z" />
</g>
</svg>
