<?xml version="1.0" encoding="UTF-8"?>
<!DOCTYPE svg PUBLIC "-//W3C//DTD SVG 1.1//EN" "http://www.w3.org/Graphics/SVG/1.1/DTD/svg11.dtd">
<!-- Creator: CorelDRAW X7 -->
<svg xmlns="http://www.w3.org/2000/svg" xml:space="preserve" width="16.9332mm" height="4.2332mm" version="1.1" style="shape-rendering:geometricPrecision; text-rendering:geometricPrecision; image-rendering:optimizeQuality; fill-rule:evenodd; clip-rule:evenodd"
viewBox="0 0 1693 423"
 xmlns:xlink="http://www.w3.org/1999/xlink">
 <defs>
  <style type="text/css">
   <![CDATA[
    .fil1 {fill:#009654}
    .fil2 {fill:#32A942}
    .fil5 {fill:#7ABFE1}
    .fil22 {fill:#816C60}
    .fil14 {fill:#89BC3D}
    .fil11 {fill:#9EB82A}
    .fil10 {fill:#A3BD2C}
    .fil13 {fill:#A6C12E}
    .fil16 {fill:#A76035}
    .fil8 {fill:#B0BF54}
    .fil7 {fill:#B9C958}
    .fil21 {fill:#BE936D}
    .fil12 {fill:#C0D15C}
    .fil15 {fill:#C3855F}
    .fil20 {fill:#C6AA5D}
    .fil9 {fill:#C6D677}
    .fil17 {fill:#CBD96D}
    .fil18 {fill:#D3E271}
    .fil19 {fill:#D4BC72}
    .fil0 {fill:#E4EFEB}
    .fil6 {fill:#E66AAE}
    .fil4 {fill:#F0EBB1}
    .fil23 {fill:#F2F7B9}
    .fil3 {fill:#FFB282}
   ]]>
  </style>
 </defs>
 <g id="Layer_x0020_1">
  <metadata id="CorelCorpID_0Corel-Layer"/>
  <g id="_579493544">
   <path class="fil0" d="M778 99l-158 0c-7,-13 -16,-25 -26,-36 5,-2 11,-4 17,-4 4,0 8,1 12,3 5,-8 13,-13 23,-13 3,0 5,1 7,1 7,-12 20,-20 35,-20 20,0 36,14 40,32 4,-2 9,-3 14,-3 20,0 36,17 36,37 0,1 0,2 0,3z"/>
   <path class="fil0" d="M1031 121l-106 0c0,-1 0,-2 0,-2 0,-13 10,-23 23,-23 3,0 6,1 9,2 2,-12 12,-20 25,-20 9,0 17,5 22,12 1,0 3,-1 4,-1 6,0 11,4 14,8 3,-1 5,-1 8,-1 2,0 3,0 5,0l-4 25z"/>
   <path class="fil0" d="M312 134l-127 0c0,0 0,-1 0,-2 0,-12 10,-23 22,-23 3,0 6,1 9,2 3,-11 13,-20 25,-20 9,0 18,5 22,13 1,-1 3,-1 4,-1 6,0 12,3 15,8 2,-1 5,-2 8,-2 12,0 22,11 22,23 0,1 0,2 0,2z"/>
   <path class="fil0" d="M1602 206l-159 0c4,-13 7,-26 8,-39l0 0c0,-1 0,-1 0,-1l0 0c0,0 0,0 0,0 0,0 0,0 0,0 0,0 0,0 0,0 0,0 0,0 0,0 0,0 0,0 0,0 0,0 0,0 0,0 0,0 0,0 0,-1 0,0 0,0 0,0 0,0 0,0 0,0 0,0 0,0 0,0 0,0 0,0 0,0 0,0 0,0 0,0 0,0 0,0 0,0 0,0 0,0 0,0 0,0 0,0 0,0 0,0 0,0 0,0 0,0 0,-1 0,-1 0,0 0,0 0,0 0,0 0,0 0,0 0,0 0,0 0,0 0,0 0,0 0,0l0 0c5,-5 12,-8 19,-8 3,0 5,0 7,1 7,-12 20,-20 35,-20 20,0 36,14 40,32 5,-2 9,-3 14,-3 20,0 37,16 37,37 0,1 -1,2 -1,3z"/>
   <path class="fil1" d="M1211 392c-6,-29 -3,-53 7,-72l4 2c-10,18 -12,41 -6,69l-5 1z"/>
   <path class="fil2" d="M1210 359c-2,-5 -6,-9 -11,-11 -1,-1 -2,-1 -2,-1 -1,1 -1,2 -1,3 1,9 8,19 16,24l-2 -15z"/>
   <path class="fil2" d="M1211 367c2,-4 4,-8 8,-10 1,1 1,3 1,5 -1,7 -2,15 -7,20l-2 -15z"/>
   <path class="fil3" d="M1217 351c-8,-2 -12,-8 -11,-15l1 -1 -1 1c-7,0 -14,-3 -15,-11 -1,-8 5,-14 12,-14 0,0 1,0 2,0 -1,-1 -1,-2 -2,-3 -2,-6 0,-13 7,-16 8,-3 15,1 17,7 0,1 0,2 1,3 0,-1 1,-2 2,-2 6,-4 13,-3 17,3 4,6 3,14 -3,17l0 1c6,4 8,11 3,17 -4,6 -11,7 -16,4 -2,6 -7,10 -14,9z"/>
   <path class="fil4" d="M1212 329c4,-1 11,-8 11,-8 0,0 -8,-6 -12,-6 -4,1 -7,4 -6,8 0,4 4,6 7,6z"/>
   <path class="fil4" d="M1226 332c1,-4 -4,-13 -4,-13 0,0 -8,6 -9,10 -1,4 1,7 6,8 4,1 7,-2 7,-5z"/>
   <path class="fil4" d="M1234 321c-3,-3 -14,-2 -14,-2 0,0 2,11 6,13 3,2 7,2 9,-2 3,-3 2,-7 -1,-9z"/>
   <path class="fil4" d="M1226 309c-3,2 -6,12 -6,12 0,0 10,2 13,0 3,-3 4,-6 2,-10 -2,-3 -6,-4 -9,-2z"/>
   <path class="fil4" d="M1211 314c2,3 11,8 11,8 0,0 4,-9 2,-13 -1,-3 -5,-5 -9,-4 -4,2 -5,5 -4,9z"/>
   <path class="fil1" d="M422 392c-6,-29 -4,-53 7,-72l4 2c-10,18 -12,41 -6,69l-5 1z"/>
   <path class="fil2" d="M421 359c-3,-5 -7,-9 -11,-11 -1,-1 -2,-1 -3,-1 -1,1 -1,2 -1,3 1,9 9,19 17,24l-2 -15z"/>
   <path class="fil2" d="M421 367c2,-4 5,-8 9,-10 1,1 1,3 0,5 0,7 -1,15 -6,20l-3 -15z"/>
   <path class="fil5" d="M427 351c-7,-2 -11,-8 -10,-15l0 -1 -1 1c-7,0 -13,-3 -14,-11 -1,-8 4,-14 11,-14 1,0 2,0 3,0 -1,-1 -2,-2 -2,-3 -2,-6 0,-13 7,-16 7,-3 14,1 17,7 0,1 0,2 0,3 1,-1 2,-2 2,-2 6,-4 13,-3 17,3 5,6 3,14 -2,17l0 1c6,4 8,11 3,17 -4,6 -11,7 -16,4 -2,6 -8,10 -15,9z"/>
   <path class="fil4" d="M423 329c4,-1 11,-8 11,-8 0,0 -9,-6 -12,-6 -4,1 -7,4 -7,8 1,4 4,6 8,6z"/>
   <path class="fil4" d="M437 332c1,-4 -4,-13 -4,-13 0,0 -9,6 -9,10 -1,4 1,7 5,8 4,1 7,-2 8,-5z"/>
   <path class="fil4" d="M444 321c-3,-3 -13,-2 -13,-2 0,0 2,11 5,13 3,2 7,2 10,-2 2,-3 1,-7 -2,-9z"/>
   <path class="fil4" d="M436 309c-3,2 -6,12 -6,12 0,0 11,2 14,0 3,-3 4,-6 2,-10 -3,-3 -7,-4 -10,-2z"/>
   <path class="fil4" d="M422 314c1,3 11,8 11,8 0,0 3,-9 2,-13 -2,-3 -5,-5 -9,-4 -4,2 -5,5 -4,9z"/>
   <path class="fil1" d="M1183 392l-4 -1c4,-20 3,-37 -5,-50l4 -2c8,14 10,31 5,53z"/>
   <path class="fil2" d="M1184 367c1,-3 4,-6 8,-8 0,0 1,0 1,0 1,0 1,1 1,2 -1,7 -6,14 -12,17l2 -11z"/>
   <path class="fil2" d="M1183 373c-1,-2 -3,-6 -6,-7 -1,1 -1,3 -1,4 1,5 2,11 5,15l2 -12z"/>
   <path class="fil5" d="M1179 362c5,-1 8,-6 7,-11l0 -1 1 1c5,0 10,-3 11,-8 0,-6 -4,-10 -9,-11 0,0 -1,0 -2,0 1,0 1,-1 1,-1 2,-5 1,-10 -5,-12 -5,-2 -10,0 -12,5 0,1 0,1 0,2 -1,-1 -1,-1 -2,-2 -4,-3 -9,-2 -12,3 -3,4 -2,10 2,12l0 1c-5,3 -6,8 -3,13 3,4 8,5 12,2 2,5 6,8 11,7z"/>
   <path class="fil4" d="M1182 346c-3,-1 -8,-6 -8,-6 0,0 6,-5 9,-4 3,0 5,2 5,5 -1,3 -3,5 -6,5z"/>
   <path class="fil4" d="M1172 348c-1,-3 3,-10 3,-10 0,0 6,5 6,8 1,2 -1,5 -4,6 -3,0 -5,-2 -5,-4z"/>
   <path class="fil4" d="M1166 340c3,-2 10,-1 10,-1 0,0 -1,7 -4,9 -2,1 -5,1 -7,-1 -2,-3 -1,-6 1,-7z"/>
   <path class="fil4" d="M1172 331c3,2 5,9 5,9 0,0 -8,1 -10,0 -3,-2 -3,-5 -2,-7 2,-3 5,-3 7,-2z"/>
   <path class="fil4" d="M1183 335c-1,2 -8,6 -8,6 0,0 -3,-7 -2,-10 1,-2 4,-4 7,-3 3,1 4,4 3,7z"/>
   <path class="fil1" d="M1511 396c-8,-36 -5,-67 8,-91l4 3c-13,22 -15,52 -8,87l-4 1z"/>
   <path class="fil2" d="M1508 354c-3,-6 -8,-11 -14,-14 -1,0 -2,-1 -3,0 -1,0 -1,2 -1,4 1,11 11,23 21,29l-3 -19z"/>
   <path class="fil2" d="M1509 365c3,-5 6,-11 11,-13 1,2 1,4 1,6 -1,10 -3,19 -9,26l-3 -19z"/>
   <path class="fil6" d="M1517 345c-10,-2 -15,-11 -13,-19l0 -1c0,0 -1,0 -1,0 -9,1 -18,-4 -19,-14 -1,-10 6,-17 15,-18 1,0 2,0 3,0 -1,-1 -2,-2 -2,-3 -3,-8 0,-17 9,-21 9,-3 18,2 21,10 0,1 1,2 1,3 1,-1 2,-2 2,-3 8,-5 17,-4 22,5 6,8 4,17 -3,22l0 0c7,5 10,15 4,23 -5,7 -14,8 -21,4 -2,8 -9,13 -18,12z"/>
   <path class="fil4" d="M1511 316c5,0 14,-10 14,-10 0,0 -11,-8 -16,-7 -4,1 -8,4 -8,10 1,5 6,8 10,7z"/>
   <path class="fil4" d="M1529 320c1,-5 -5,-16 -5,-16 0,0 -11,8 -12,13 -1,4 2,9 7,10 5,1 9,-2 10,-7z"/>
   <path class="fil4" d="M1538 306c-4,-3 -17,-2 -17,-2 0,0 3,13 7,16 4,3 9,3 12,-2 4,-4 2,-9 -2,-12z"/>
   <path class="fil4" d="M1528 291c-4,3 -7,16 -7,16 0,0 13,2 17,-1 4,-3 5,-8 2,-12 -3,-5 -8,-5 -12,-3z"/>
   <path class="fil4" d="M1510 297c2,5 13,11 13,11 0,0 5,-12 3,-17 -1,-4 -6,-7 -11,-5 -5,2 -7,7 -5,11z"/>
   <path class="fil1" d="M234 392l-4 -1c4,-20 2,-37 -5,-50l4 -2c8,14 10,31 5,53z"/>
   <path class="fil2" d="M235 367c1,-3 4,-6 8,-8 0,0 1,0 1,0 1,0 1,1 1,2 -1,7 -6,14 -12,17l2 -11z"/>
   <path class="fil2" d="M234 373c-1,-2 -3,-6 -6,-7 -1,1 -1,3 -1,4 1,5 2,11 5,15l2 -12z"/>
   <path class="fil6" d="M230 362c5,-1 8,-6 7,-11l0 -1 1 1c5,0 10,-3 10,-8 1,-6 -3,-10 -8,-11 0,0 -1,0 -2,0 1,0 1,-1 1,-1 2,-5 1,-10 -5,-12 -5,-2 -10,0 -12,5 0,1 0,1 0,2 -1,-1 -1,-1 -2,-2 -4,-3 -9,-2 -12,3 -3,4 -2,10 2,12l-1 1c-4,3 -5,8 -2,13 3,4 8,5 12,2 2,5 6,8 11,7z"/>
   <path class="fil4" d="M233 346c-3,-1 -8,-6 -8,-6 0,0 6,-5 9,-4 3,0 5,2 5,5 -1,3 -3,5 -6,5z"/>
   <path class="fil4" d="M223 348c-1,-3 3,-10 3,-10 0,0 6,5 6,8 1,2 -1,5 -4,6 -3,0 -5,-2 -5,-4z"/>
   <path class="fil4" d="M217 340c3,-2 10,-1 10,-1 0,0 -2,7 -4,9 -2,1 -5,1 -7,-1 -2,-3 -1,-6 1,-7z"/>
   <path class="fil4" d="M223 331c2,2 4,9 4,9 0,0 -7,1 -9,0 -3,-2 -3,-5 -2,-7 2,-3 5,-3 7,-2z"/>
   <path class="fil4" d="M234 335c-1,2 -8,6 -8,6 0,0 -3,-7 -2,-10 1,-2 4,-4 7,-3 3,1 4,4 3,7z"/>
   <path class="fil7" d="M371 342c0,0 -14,-48 -71,-31 0,0 -27,14 -23,41 0,0 -44,-2 -43,25 0,26 57,36 112,36 55,0 87,-15 93,-28 6,-14 -4,-23 -24,-20 0,0 7,-21 -6,-28 -12,-6 -22,-5 -38,5z"/>
   <path class="fil8" d="M415 365c0,0 7,-21 -6,-28 -12,-6 -22,-5 -38,5 0,0 -6,-22 -28,-31l0 102c1,0 2,0 3,0 55,0 87,-15 93,-28 6,-14 -4,-23 -24,-20z"/>
   <path class="fil9" d="M343 413c-4,0 -9,0 -13,0 5,0 9,0 14,0 -1,0 -1,0 -1,0z"/>
   <path class="fil10" d="M344 413c-5,0 -9,0 -14,0 -30,-1 -57,-8 -58,-23 0,-15 22,-15 27,-15 0,0 1,0 1,0 -3,-17 14,-26 14,-26 5,-1 10,-2 14,-2 6,0 11,2 15,4l0 62c1,0 1,0 1,0 0,0 0,0 0,0z"/>
   <path class="fil11" d="M344 413c0,0 0,0 -1,0l0 -62c12,6 16,18 16,18 5,-4 10,-6 14,-6 3,0 6,1 9,3 8,4 4,17 4,17 2,0 3,0 5,0 9,0 13,5 10,12 -4,8 -23,18 -57,18z"/>
   <path class="fil8" d="M840 324c0,0 18,-60 89,-38 0,0 34,17 29,50 0,0 55,-2 54,31 0,34 -71,46 -140,46 -69,0 -108,-19 -116,-36 -8,-16 4,-28 29,-24 0,0 -8,-27 8,-35 15,-8 28,-6 47,6z"/>
   <path class="fil12" d="M785 353c0,0 -8,-27 8,-35 15,-8 28,-6 47,6 0,0 8,-27 35,-38l0 127c-1,0 -2,0 -3,0 -69,0 -108,-19 -116,-36 -8,-16 4,-28 29,-24z"/>
   <path class="fil9" d="M876 413c0,0 -1,0 -2,0 6,0 12,0 17,0 -5,0 -10,0 -15,0z"/>
   <path class="fil11" d="M874 413c0,0 0,0 0,0 0,0 1,0 1,0l0 -78c5,-3 11,-4 19,-4 5,0 11,0 18,2 0,0 21,11 18,32 0,0 0,0 1,0 6,0 33,1 33,20 -1,18 -35,26 -73,28 -5,0 -11,0 -17,0z"/>
   <path class="fil13" d="M874 413c-42,0 -66,-12 -70,-22 -5,-9 0,-16 12,-16 2,0 4,0 6,1 0,0 -5,-17 4,-22 4,-2 8,-3 12,-3 5,0 11,2 18,7 0,0 5,-15 19,-23l0 78c0,0 -1,0 -1,0z"/>
   <path class="fil7" d="M1463 342c0,0 -15,-48 -71,-31 0,0 -28,14 -24,41 0,0 -44,-2 -43,25 1,26 57,36 112,36 56,0 87,-15 93,-28 7,-14 -3,-23 -23,-20 0,0 6,-21 -6,-28 -12,-6 -23,-5 -38,5z"/>
   <path class="fil8" d="M1507 365c0,0 6,-21 -6,-28 -12,-6 -23,-5 -38,5 0,0 -7,-22 -28,-31l0 102c1,0 2,0 2,0 56,0 87,-15 93,-28 7,-14 -3,-23 -23,-20z"/>
   <path class="fil9" d="M1434 413c-4,0 -8,0 -12,0 4,0 9,0 13,0 0,0 0,0 -1,0z"/>
   <path class="fil10" d="M1435 413c-4,0 -9,0 -13,0 -30,-1 -58,-8 -58,-23 0,-15 21,-15 26,-15 1,0 1,0 1,0 -2,-17 15,-26 15,-26 5,-1 10,-2 14,-2 6,0 11,2 15,4l0 62c0,0 0,0 1,0 0,0 -1,0 -1,0z"/>
   <path class="fil11" d="M1436 413c-1,0 -1,0 -1,0l0 -62c11,6 15,18 15,18 6,-4 10,-6 15,-6 3,0 6,1 9,3 7,4 4,17 4,17 1,0 3,0 4,0 9,0 14,5 10,12 -4,8 -23,18 -56,18z"/>
   <path class="fil14" d="M1497 405c0,10 -10,17 -22,17l-1197 0c-12,0 -22,-7 -22,-17 0,-9 10,-16 22,-16l1197 0c12,0 22,7 22,16z"/>
   <path class="fil12" d="M634 160c0,74 -60,135 -135,135 -75,0 -136,-61 -136,-135 0,-75 61,-136 136,-136 75,0 135,61 135,136z"/>
   <path class="fil8" d="M502 24l0 271c73,-2 132,-62 132,-135 0,-74 -59,-134 -132,-136z"/>
   <path class="fil15" d="M501 145l-21 248c0,0 8,7 21,7l0 -255z"/>
   <path class="fil16" d="M501 145l20 248c0,0 -7,7 -20,7l0 -255z"/>
   <polygon class="fil16" points="505,238 554,200 511,269 "/>
   <polygon class="fil15" points="462,182 494,221 496,205 "/>
   <path class="fil17" d="M585 192c-5,0 -10,-5 -10,-10 0,-6 5,-11 10,-11 6,0 11,5 11,11 0,5 -5,10 -11,10z"/>
   <path class="fil18" d="M438 251c-5,0 -9,-3 -9,-8 0,-5 4,-9 9,-9 4,0 8,4 8,9 0,5 -4,8 -8,8z"/>
   <path class="fil18" d="M459 201c-21,0 -40,-7 -54,-22 -28,-32 -20,-84 17,-117 19,-18 42,-26 65,-26 5,0 10,0 15,1l0 122 -1 -14 0 46 0 -46 -4 47c-4,2 -8,4 -12,5l-23 -15 15 17c-7,1 -13,2 -18,2z"/>
   <path class="fil17" d="M504 189l-2 -30 0 -122c14,3 28,10 38,21 28,31 20,84 -17,117 -6,5 -12,10 -19,14z"/>
   <path class="fil19" d="M497 192l4 -47 0 46c-2,0 -3,1 -4,1z"/>
   <path class="fil20" d="M501 191l0 -46 1 14 2 30c-1,0 -2,1 -3,2z"/>
   <path class="fil19" d="M477 199l-15 -17 23 15c-3,1 -6,2 -8,2z"/>
   <path class="fil8" d="M447 108c0,5 -4,9 -9,9 -5,0 -9,-4 -9,-9 0,-5 4,-9 9,-9 5,0 9,4 9,9z"/>
   <path class="fil12" d="M1451 160c0,74 -61,135 -135,135 -75,0 -136,-61 -136,-135 0,-75 61,-136 136,-136 74,0 135,61 135,136z"/>
   <path class="fil8" d="M1319 24l0 271c73,-2 132,-62 132,-135 0,-74 -59,-134 -132,-136z"/>
   <path class="fil15" d="M1317 145l-20 248c0,0 8,7 20,7l0 -255z"/>
   <path class="fil16" d="M1317 145l21 248c0,0 -8,7 -21,7l0 -255z"/>
   <polygon class="fil16" points="1322,238 1371,200 1328,269 "/>
   <polygon class="fil15" points="1279,182 1311,221 1313,205 "/>
   <path class="fil17" d="M1402 192c-5,0 -10,-5 -10,-10 0,-6 5,-11 10,-11 6,0 10,5 10,11 0,5 -4,10 -10,10z"/>
   <path class="fil18" d="M1255 251c-5,0 -9,-3 -9,-8 0,-5 4,-9 9,-9 4,0 8,4 8,9 0,5 -4,8 -8,8z"/>
   <path class="fil18" d="M1275 201c-20,0 -39,-7 -53,-22 -28,-32 -21,-84 16,-117 20,-18 43,-26 65,-26 6,0 11,0 16,1l0 122 -2 -14 0 46 0 -46 -3 47c-4,2 -9,4 -13,5l-22 -15 14 17c-6,1 -12,2 -18,2z"/>
   <path class="fil17" d="M1321 189l-2 -30 0 -122c14,3 27,10 37,21 29,31 21,84 -16,117 -6,5 -12,10 -19,14z"/>
   <path class="fil19" d="M1314 192l3 -47 0 46c-1,0 -2,1 -3,1z"/>
   <path class="fil20" d="M1317 191l0 -46 2 14 2 30c-1,0 -2,1 -4,2z"/>
   <path class="fil19" d="M1293 199l-14 -17 22 15c-2,1 -5,2 -8,2z"/>
   <path class="fil8" d="M1263 108c0,5 -4,9 -8,9 -5,0 -9,-4 -9,-9 0,-5 4,-9 9,-9 4,0 8,4 8,9z"/>
   <polygon class="fil21" points="1062,343 1092,343 "/>
   <polygon class="fil22" points="1092,343 1077,343 "/>
   <path class="fil12" d="M1152 297c0,25 -17,46 -39,46l-71 0c-22,0 -40,-21 -40,-46l34 -207c0,-25 18,-46 40,-46l3 0c22,0 39,21 39,46l34 207z"/>
   <path class="fil8" d="M1118 90c0,-25 -17,-46 -39,-46l-2 0 0 299 36 0c22,0 39,-21 39,-46l-34 -207z"/>
   <polygon class="fil21" points="733,357 756,357 "/>
   <polygon class="fil22" points="756,357 745,357 "/>
   <path class="fil12" d="M802 321c0,20 -14,36 -30,36l-54 0c-17,0 -31,-16 -31,-36l26 -158c0,-19 14,-35 31,-35l2 0c17,0 30,16 30,35l26 158z"/>
   <path class="fil8" d="M776 163c0,-19 -13,-35 -30,-35l-1 0 0 229 27 0c16,0 30,-16 30,-36l-26 -158z"/>
   <path class="fil15" d="M745 192l-14 202c0,0 5,6 14,6l0 -208z"/>
   <path class="fil16" d="M745 192l13 202c0,0 -5,6 -13,6l0 -208z"/>
   <polygon class="fil16" points="747,253 761,239 747,266 "/>
   <polygon class="fil15" points="741,251 730,235 743,243 "/>
   <polygon class="fil16" points="754,348 767,336 754,361 "/>
   <polygon class="fil16" points="758,353 770,347 758,348 "/>
   <polygon class="fil15" points="722,322 738,336 738,350 "/>
   <polygon class="fil15" points="717,331 729,331 733,339 "/>
   <path class="fil17" d="M778 314c-4,0 -8,-3 -8,-8 0,-4 4,-7 8,-7 4,0 8,3 8,7 0,5 -4,8 -8,8z"/>
   <path class="fil23" d="M783 207l-7 -44c0,-19 -13,-35 -30,-35l0 0c17,0 31,16 31,35l6 42c0,1 0,1 0,2z"/>
   <path class="fil18" d="M713 297c0,0 0,0 -1,0 -3,-12 -8,-22 -15,-31l17 -103c0,-19 13,-35 30,-35l1 0 0 65 -3 49 -12 -7 11 16 -3 37c-8,6 -16,9 -25,9z"/>
   <path class="fil17" d="M745 284l0 -92 0 1 0 -65 0 0 1 0c17,0 30,16 30,35l7 44c-1,6 -2,12 -3,18 -6,22 -17,41 -29,53l-2 -16 12 -23 -12 12 -4 -59 0 92z"/>
   <path class="fil19" d="M738 288l3 -37 0 0 2 -8 -1 -1 3 -49 0 -1 0 92c-2,1 -4,3 -7,4z"/>
   <path class="fil20" d="M745 284l0 -92 4 59 -2 2 0 13 2 -4 2 16c-2,2 -4,4 -6,6z"/>
   <polygon class="fil20" points="747,266 747,253 749,251 761,239 749,262 "/>
   <polygon class="fil19" points="741,251 741,251 730,235 742,242 743,243 "/>
   <path class="fil8" d="M733 206c0,2 -2,4 -4,4 -2,0 -4,-2 -4,-4 0,-2 2,-4 4,-4 2,0 4,2 4,4z"/>
   <path class="fil15" d="M1077 128l-17 264c0,0 6,8 17,8l0 -272z"/>
   <path class="fil16" d="M1077 128l18 264c0,0 -6,8 -18,8l0 -272z"/>
   <polygon class="fil16" points="1081,207 1099,189 1081,225 "/>
   <polygon class="fil15" points="1073,205 1058,184 1076,195 "/>
   <polygon class="fil16" points="1090,332 1107,316 1090,350 "/>
   <polygon class="fil16" points="1095,338 1111,331 1095,332 "/>
   <polygon class="fil15" points="1047,298 1068,316 1069,335 "/>
   <polygon class="fil15" points="1042,309 1056,309 1062,320 "/>
   <path class="fil17" d="M1121 288c-6,0 -10,-5 -10,-11 0,-5 4,-10 10,-10 5,0 10,5 10,10 0,6 -5,11 -10,11z"/>
   <path class="fil23" d="M1128 147l-10 -57c0,-25 -17,-46 -39,-46l0 0c22,0 40,21 40,46l9 55c0,1 0,2 0,2z"/>
   <path class="fil18" d="M1036 265c-4,0 -8,-1 -12,-2 -5,-1 -10,-4 -15,-7l28 -166c0,-25 17,-46 39,-46l1 0 0 85 -4 64 -15 -9 14 21 -3 49c-11,7 -22,11 -33,11z"/>
   <path class="fil17" d="M1077 248l0 -120 0 1 0 -85 1 0 1 0c22,0 39,21 39,46l10 57c-1,8 -3,16 -5,24 -8,29 -22,53 -38,70l-2 -21 16 -31 -16 16 -6 -77 0 120z"/>
   <path class="fil19" d="M1069 254l3 -49 1 0 3 -10 -3 -2 4 -64 0 -1 0 120c-2,2 -5,4 -8,6z"/>
   <path class="fil20" d="M1077 248l0 -120 6 77 -2 2 0 18 2 -5 2 21c-3,2 -5,5 -8,7z"/>
   <polygon class="fil20" points="1081,225 1081,207 1083,205 1099,189 1083,220 "/>
   <polygon class="fil19" points="1073,205 1072,205 1058,184 1073,193 1076,195 "/>
   <path class="fil8" d="M1062 146c0,3 -2,5 -5,5 -3,0 -5,-2 -5,-5 0,-3 2,-5 5,-5 3,0 5,2 5,5z"/>
   <path class="fil18" d="M1027 303c-3,0 -6,-2 -6,-5 0,-3 3,-6 6,-6 3,0 5,3 5,6 0,3 -2,5 -5,5z"/>
   <path class="fil12" d="M715 318c0,45 -36,81 -81,81 -45,0 -81,-36 -81,-81 0,-45 36,-81 81,-81 45,0 81,36 81,81z"/>
   <path class="fil8" d="M636 237l0 162c44,-1 79,-37 79,-81 0,-44 -35,-80 -79,-81z"/>
   <path class="fil23" d="M607 242c0,-1 1,-2 1,-2 8,-3 15,-5 23,-5 5,0 11,1 16,3 -4,-1 -9,-1 -13,-1 -10,0 -19,1 -27,5z"/>
   <path class="fil18" d="M607 242c0,-1 1,-2 1,-2 0,0 0,0 0,0 0,0 -1,1 -1,2 0,0 0,0 0,0z"/>
   <path class="fil17" d="M583 255c0,0 0,0 1,-1 7,-6 15,-11 24,-14 0,0 -1,1 -1,2 -9,3 -17,7 -24,13z"/>
   <path class="fil18" d="M610 356c-14,0 -28,-6 -38,-17 -20,-22 -15,-60 11,-84 7,-6 15,-10 24,-13 0,0 0,0 0,0 8,-4 17,-5 27,-5 4,0 9,0 13,1 0,0 0,0 0,0 -4,-1 -7,-1 -11,-1l0 113c-8,4 -17,6 -26,6z"/>
   <path class="fil17" d="M636 350l0 -113c4,0 7,0 11,1 8,2 16,7 22,14 21,23 15,61 -12,85 -6,6 -13,10 -21,13z"/>
   <path class="fil18" d="M598 373c-3,0 -6,-2 -6,-5 0,-3 3,-5 6,-5 2,0 5,2 5,5 0,3 -3,5 -5,5z"/>
   <path class="fil8" d="M603 287c0,3 -3,5 -5,5 -3,0 -6,-2 -6,-5 0,-3 3,-5 6,-5 2,0 5,2 5,5z"/>
  </g>
 </g>
</svg>
