<?xml version="1.0" encoding="UTF-8"?>
<!DOCTYPE svg PUBLIC "-//W3C//DTD SVG 1.1//EN" "http://www.w3.org/Graphics/SVG/1.1/DTD/svg11.dtd">
<!-- Creator: CorelDRAW X7 -->
<svg xmlns="http://www.w3.org/2000/svg" xml:space="preserve" width="8.4666mm" height="8.4666mm" version="1.1" style="shape-rendering:geometricPrecision; text-rendering:geometricPrecision; image-rendering:optimizeQuality; fill-rule:evenodd; clip-rule:evenodd"
viewBox="0 0 847 847"
 xmlns:xlink="http://www.w3.org/1999/xlink">
 <defs>
  <style type="text/css">
   <![CDATA[
    .fil1 {fill:#231F1F;fill-rule:nonzero}
    .fil10 {fill:#AFA38C;fill-rule:nonzero}
    .fil3 {fill:#C1B39A;fill-rule:nonzero}
    .fil0 {fill:white;fill-rule:nonzero}
    .fil4 {fill:black;fill-rule:nonzero}
    .fil6 {fill:#535353;fill-rule:nonzero}
    .fil5 {fill:#6F6F6F;fill-rule:nonzero}
    .fil8 {fill:#898989;fill-rule:nonzero}
    .fil7 {fill:#9F9FA0;fill-rule:nonzero}
    .fil9 {fill:#AAAAAB;fill-rule:nonzero}
    .fil11 {fill:#C9C9C9;fill-rule:nonzero}
    .fil2 {fill:gainsboro;fill-rule:nonzero}
   ]]>
  </style>
 </defs>
 <g id="Layer_x0020_1">
  <metadata id="CorelCorpID_0Corel-Layer"/>
  <g id="_260090320">
   <g>
    <path class="fil0" d="M447 748c-42,-5 -67,-16 -67,-16 0,0 -63,-9 -67,30 -5,39 58,42 58,42 0,0 42,3 78,3 36,0 51,-3 60,-5 8,-2 6,-63 6,-63 0,0 -26,13 -68,9z"/>
    <path class="fil1" d="M449 809c-35,0 -77,-3 -78,-3 -1,0 -37,-2 -53,-21 -6,-6 -8,-14 -7,-23 3,-28 36,-33 55,-33 8,0 14,1 14,1l0 0c1,0 26,11 67,16 6,1 12,1 17,1 31,0 50,-10 51,-10l2 -1 0 3c0,14 1,62 -8,64l0 0c-9,3 -24,6 -60,6zm-83 -76l0 0c-18,0 -49,3 -52,30 -1,8 1,15 6,20 15,18 51,20 52,20 0,0 42,3 77,3 35,0 50,-4 59,-6l0 0c4,-1 7,-23 6,-59 -6,3 -24,9 -50,9 -5,0 -11,0 -17,-1 -40,-4 -65,-15 -68,-16 -1,0 -6,0 -13,0z"/>
   </g>
   <g>
    <path class="fil2" d="M515 739c0,0 -4,2 -13,5 -4,23 -15,45 -32,63 21,-1 32,-4 39,-5 8,-2 6,-63 6,-63z"/>
   </g>
   <g>
    <path class="fil1" d="M449 809c-35,0 -77,-3 -78,-3 -1,0 -37,-2 -53,-21 -6,-6 -8,-14 -7,-23 3,-28 36,-33 55,-33 8,0 14,1 14,1l0 0c1,0 26,11 67,16 6,1 12,1 17,1 31,0 50,-10 51,-10l2 -1 0 3c0,14 1,62 -8,64l0 0c-9,3 -24,6 -60,6zm-83 -76l0 0c-18,0 -49,3 -52,30 -1,8 1,15 6,20 15,18 51,20 52,20 0,0 42,3 77,3 35,0 50,-4 59,-6l0 0c4,-1 7,-23 6,-59 -6,3 -24,9 -50,9 -5,0 -11,0 -17,-1 -40,-4 -65,-15 -68,-16 -1,0 -6,0 -13,0z"/>
   </g>
   <g>
    <path class="fil1" d="M495 295c46,-17 39,-41 39,-41 0,0 -41,10 -72,23 -31,13 -49,26 -49,26 0,0 35,9 82,-8z"/>
    <path class="fil1" d="M437 308c0,0 0,0 0,0 -15,0 -24,-3 -24,-3l-5 -1 4 -3c0,0 18,-13 49,-26 31,-13 72,-23 72,-23l2 0 1 2c0,1 7,25 -41,43 -19,7 -38,11 -58,11zm-18 -6l0 0c4,1 10,1 18,1l0 0c19,0 38,-3 57,-10 23,-9 32,-19 36,-26 2,-4 2,-8 2,-10 -9,2 -43,11 -69,22 -22,9 -38,19 -44,23z"/>
   </g>
   <g>
    <path class="fil3" d="M456 182c-47,0 -92,19 -92,19l-13 56 29 3 -19 2 -3 8 50 25 117 -19 32 -96c0,0 -54,2 -101,2z"/>
    <path class="fil1" d="M408 299l-56 -27 4 -11 -10 -1 14 -62 2 -1c2,-1 47,-19 94,-19 46,0 101,-2 101,-2l6 0 -35 104 -120 19zm-45 -31l0 0 46 23 113 -18 30 -89c-16,1 -59,2 -96,2 -40,0 -79,14 -89,18l-11 49 25 3 0 8 -17 2 -1 2z"/>
   </g>
   <g>
    <polygon class="fil1" points="376,780 370,776 395,742 400,746 "/>
   </g>
   <g>
    <polygon class="fil1" points="395,783 388,778 418,739 424,743 "/>
   </g>
   <g>
    <polygon class="fil1" points="416,785 409,780 441,736 448,742 "/>
   </g>
   <g>
    <path class="fil4" d="M442 666c-53,-1 -114,-21 -114,-21 0,0 -6,56 2,70 3,7 57,34 109,38 52,4 96,-14 100,-29 5,-15 -1,-72 -1,-72 0,0 -43,15 -96,14z"/>
    <path class="fil1" d="M453 756c-5,0 -10,-1 -14,-1 -54,-4 -107,-31 -111,-39 -8,-14 -2,-69 -2,-71l1 -2 2 0c1,1 61,20 113,21 52,1 95,-14 95,-14l3 -1 0 3c0,2 6,57 1,73 -5,18 -51,31 -88,31zm-123 -108l0 0c-1,11 -5,55 2,66 3,6 56,33 107,37 5,0 9,0 14,0 47,0 81,-16 84,-28 5,-12 0,-57 -1,-68 -10,3 -48,14 -94,13 -47,-1 -100,-16 -112,-20z"/>
   </g>
   <g>
    <path class="fil0" d="M471 665c-9,1 -19,1 -29,1 -9,0 -19,-1 -29,-2l0 85c9,2 17,3 26,4 11,1 22,1 32,0l0 -88z"/>
    <path class="fil1" d="M453 756c-5,0 -10,-1 -14,-1 -9,-1 -17,-2 -26,-4l-2 0 0 -90 2 1c11,1 20,2 29,2 10,0 19,0 29,-1l2 0 0 91 -2 1c-6,0 -12,1 -18,1zm-38 -8l0 0c8,1 16,2 24,3 10,1 20,1 30,0l0 -84c-9,1 -18,1 -27,1 -8,0 -17,-1 -27,-2l0 82z"/>
   </g>
   <g>
    <path class="fil5" d="M428 198c-69,12 -125,22 -125,22l10 -7c0,0 39,-2 61,-66 22,-65 19,-98 38,-115 20,-17 144,-15 155,0 11,15 -1,156 -1,156 0,0 -69,-3 -138,10z"/>
    <path class="fil1" d="M304 222l-2 -4 10 -7 1 0c0,0 38,-3 59,-65 9,-26 14,-47 17,-64 6,-25 10,-41 22,-52 11,-9 48,-12 80,-12 31,0 71,3 78,13 11,15 0,143 -1,157l0 2 -2 0c-1,0 -7,0 -18,0 -24,0 -72,1 -120,10 -68,12 -124,22 -124,22zm10 -7l0 0 -2 1c19,-3 63,-11 115,-20 48,-9 97,-10 121,-10 8,0 13,0 16,0 3,-41 10,-141 1,-153 -4,-6 -36,-11 -74,-11 -38,0 -69,5 -77,12 -11,9 -15,24 -20,49 -4,17 -9,38 -18,64 -21,62 -57,67 -62,68z"/>
   </g>
   <g>
    <path class="fil6" d="M567 32c-5,-7 -34,-11 -66,-12 9,34 15,71 15,111 0,20 -1,39 -4,57 32,-1 54,0 54,0 0,0 12,-141 1,-156z"/>
   </g>
   <g>
    <path class="fil1" d="M304 224l-3 -8 11 -7 1 0c0,0 9,-1 20,-9 11,-7 26,-23 37,-55 9,-26 14,-47 17,-63 6,-26 10,-42 23,-53 11,-10 49,-13 81,-13 11,0 70,1 79,14 12,15 2,135 0,158l-1 4 -4 0c0,0 -6,0 -17,0 -24,0 -72,1 -120,10 -68,12 -123,22 -124,22zm187 -200l0 0c-37,0 -68,5 -76,11 -10,9 -14,24 -19,49 -4,16 -9,38 -18,64 -13,37 -31,54 -45,62 23,-4 56,-10 94,-17 48,-8 97,-10 121,-10 6,0 11,1 14,1 4,-54 9,-140 2,-150 -4,-4 -33,-10 -73,-10z"/>
   </g>
   <g>
    <path class="fil1" d="M481 218c5,13 14,22 25,22 15,0 27,-19 27,-41 0,-23 -12,-41 -27,-41 -15,0 -29,24 -30,46l-3 1c1,-26 15,-56 33,-56 18,0 33,23 33,50 0,27 -15,49 -33,49 -13,0 -28,-13 -34,-28l9 -2z"/>
   </g>
   <g>
    <polygon class="fil1" points="360,219 446,215 361,214 "/>
   </g>
   <g>
    <path class="fil7" d="M495 295c46,-17 39,-41 39,-41 0,0 22,5 34,63 6,32 -6,138 -11,223 -3,66 1,119 1,119 0,0 -77,30 -128,24 -51,-6 -128,-39 -128,-39 0,0 -7,-46 13,-111 12,-39 45,-100 62,-120 47,-53 36,-110 36,-110 0,0 35,9 82,-8z"/>
    <path class="fil1" d="M445 686c-5,0 -11,0 -15,-1 -51,-6 -128,-39 -129,-40l-1 0 0 -1c0,-1 -6,-47 13,-112 13,-40 46,-101 63,-121 45,-51 35,-107 35,-107l0 -4 3 1c0,0 9,2 23,2l0 0c19,0 38,-3 57,-10 43,-16 38,-38 38,-38l-1 -4 3 1c1,0 24,6 36,64 4,23 0,79 -5,139 -2,29 -4,58 -6,85 -3,65 1,118 1,119l1 1 -2 1c-1,0 -65,25 -114,25zm-141 -44l0 0c9,4 80,33 126,39 5,0 10,1 15,1 45,0 101,-21 111,-24 0,-10 -4,-59 -1,-118 2,-27 4,-57 6,-85 5,-60 9,-116 5,-138 -9,-43 -23,-56 -30,-60 0,8 -4,26 -41,40 -19,7 -38,11 -58,11 0,0 0,0 0,0 -10,0 -17,-2 -21,-2 1,12 4,62 -37,108 -17,19 -50,79 -62,119 -18,59 -14,102 -13,109z"/>
   </g>
   <g>
    <path class="fil8" d="M413 334c25,-17 51,-27 79,-27 27,0 53,10 77,26 0,-6 0,-12 -1,-16 -12,-58 -34,-63 -34,-63 0,0 7,24 -39,41 -47,17 -82,8 -82,8 0,0 3,13 0,31z"/>
   </g>
   <g>
    <path class="fil9" d="M400 480c4,-39 5,-76 4,-110 -6,14 -14,28 -27,43 -17,20 -50,81 -62,120 -20,65 -13,111 -13,111 0,0 24,10 55,20 19,-47 35,-112 43,-184z"/>
   </g>
   <g>
    <path class="fil1" d="M445 688c-6,0 -11,0 -15,-1 -51,-6 -127,-38 -130,-40l-2 -1 0 -2c-1,-2 -7,-47 13,-112 13,-41 46,-102 63,-122 45,-51 35,-106 35,-106l-1 -6 6 1c0,0 9,2 23,2 0,0 0,0 0,0 13,0 33,-1 56,-10 42,-16 37,-35 37,-36l-2 -6 7 1c2,1 25,7 37,66 4,23 0,79 -5,140 -2,28 -4,57 -6,84 -3,65 1,118 2,119l0 3 -3 1c-3,1 -65,25 -115,25zm-139 -47l0 0c13,5 80,32 125,38 4,0 9,1 14,1 42,0 96,-19 109,-24 -1,-12 -4,-60 -1,-116 2,-27 4,-57 6,-85 5,-60 9,-116 5,-138 -8,-36 -19,-51 -26,-56 -1,10 -9,25 -42,38 -19,7 -39,11 -59,11 0,0 0,0 0,0 -8,0 -15,-1 -19,-2 2,16 2,63 -38,107 -16,19 -49,80 -61,119 -17,55 -14,97 -13,107z"/>
   </g>
   <g>
    <path class="fil8" d="M434 412c11,-34 13,-70 13,-70 0,0 4,-11 20,-7 16,4 22,10 22,10 0,0 3,44 -5,119 -8,75 5,112 -35,117 -39,4 -44,-54 -44,-54l2 -48c0,0 17,-33 27,-67z"/>
   </g>
   <g>
    <polygon class="fil6" points="289,378 260,380 257,348 286,351 "/>
   </g>
   <g>
    <path class="fil1" d="M246 427c1,-29 0,-61 0,-61l52 -1c0,0 9,34 10,64 1,29 4,45 1,56 -3,11 -62,13 -62,-2 -1,-15 -1,-28 -1,-56z"/>
   </g>
   <g>
    <path class="fil1" d="M411 491c0,29 -9,34 -9,34 0,0 -6,-25 -3,-48 2,-23 4,-23 4,-23 0,0 8,8 8,37z"/>
    <path class="fil1" d="M401 528l-1 -2c0,-1 -6,-26 -3,-49 2,-24 4,-25 5,-25l1 -1 1 1c1,0 9,9 9,39 1,29 -9,35 -10,36l-2 1zm2 -70l0 0c0,3 -1,9 -2,19 -2,17 1,36 2,44 3,-4 6,-13 6,-30 0,-18 -3,-28 -6,-33z"/>
   </g>
   <g>
    <path class="fil10" d="M415 485c2,-18 -10,-30 -10,-30 0,0 -37,-35 -54,-61 -16,-26 -35,-71 -40,-73 -6,-1 -47,4 -47,4 0,0 2,15 6,15 4,1 22,0 22,0 0,0 9,10 12,26 2,15 4,21 4,21 0,0 -32,-4 -37,-3 -5,0 -5,14 -5,14 0,0 20,10 30,16 10,5 23,26 27,30 5,4 7,0 7,0l80 65c0,0 4,-5 5,-24z"/>
    <path class="fil1" d="M411 514l-81 -66c0,0 -1,1 -3,1 -2,0 -4,-1 -6,-3 -1,-1 -4,-4 -7,-9 -6,-7 -14,-17 -20,-21 -10,-6 -30,-15 -30,-15l-2 -1 0 -2c0,-4 1,-17 8,-17 1,0 1,0 2,0 6,0 24,1 32,2 -1,-3 -2,-8 -3,-17 -2,-11 -8,-20 -10,-22 -3,0 -9,0 -14,0 -4,0 -6,0 -8,-1 -5,0 -7,-10 -8,-18l0 -3 3 0c1,0 31,-4 43,-4 2,0 3,0 4,0 4,1 8,9 20,32 7,14 15,30 23,43 16,25 53,60 53,60 1,1 13,13 11,33 -1,18 -5,24 -5,25l-2 3zm-81 -75l0 0 79 65c1,-3 2,-9 3,-19 1,-17 -9,-27 -9,-28 -1,-1 -38,-35 -54,-61 -8,-12 -16,-29 -24,-43 -6,-13 -13,-27 -16,-29 0,0 -1,0 -2,0 -9,0 -31,3 -40,4 1,4 2,8 3,9 1,0 3,0 7,0 7,0 15,0 15,0l2 0 1 1c0,1 9,11 12,27 2,15 4,21 4,21l1 5 -4 -1c-1,0 -28,-3 -36,-3 0,0 -1,0 -1,0 -1,0 -2,5 -2,9 5,3 20,10 28,15 8,4 15,14 22,22 3,4 5,7 6,8 2,1 2,1 2,1 1,0 1,0 1,0l2 -3z"/>
   </g>
   <g>
    <path class="fil11" d="M434 388c12,-33 16,-70 16,-70 0,0 4,-11 20,-6 16,5 22,11 22,11 0,0 1,45 -11,119 -12,75 -34,114 -40,115 -6,1 -39,-32 -39,-32 0,0 4,-16 5,-36 1,-19 -4,-35 -4,-35 0,0 19,-33 31,-66z"/>
    <path class="fil1" d="M441 561c-7,0 -27,-18 -42,-33l-1 -1 0 -3c0,0 4,-16 5,-35 0,-18 -4,-34 -4,-34l-1 -2 1 -2c0,0 20,-32 31,-64 11,-33 16,-69 16,-69l0 -1c0,-1 4,-10 16,-10 3,0 6,0 9,1 17,5 23,12 24,12l1 1 0 2c0,1 1,46 -11,120 -11,71 -33,117 -44,118l0 0zm-34 -37l0 0c13,13 28,27 33,29 5,-5 25,-40 37,-111 10,-65 11,-108 11,-117 -3,-2 -9,-6 -19,-9 -3,-1 -5,-1 -7,-1 -5,0 -8,3 -8,4 -1,6 -5,39 -16,70 -11,29 -27,58 -31,65 1,5 5,19 4,36 0,15 -3,29 -4,34z"/>
   </g>
   <g>
    <path class="fil1" d="M417 491c-6,0 -9,-3 -9,-3l1 -1c0,0 4,3 10,2 7,-1 15,-8 22,-19 19,-28 24,-154 24,-155l2 0c-1,5 -5,127 -24,156 -8,12 -16,19 -24,20 -1,0 -2,0 -2,0z"/>
   </g>
   <g>
    <path class="fil1" d="M410 506c-2,0 -3,0 -3,0l0 -2c0,0 22,3 40,-25 19,-29 24,-162 24,-163l3 0c-1,5 -6,135 -25,164 -15,23 -31,26 -39,26z"/>
   </g>
  </g>
 </g>
</svg>
