<?xml version="1.0" encoding="UTF-8"?>
<!DOCTYPE svg PUBLIC "-//W3C//DTD SVG 1.1//EN" "http://www.w3.org/Graphics/SVG/1.1/DTD/svg11.dtd">
<!-- Creator: CorelDRAW X7 -->
<svg xmlns="http://www.w3.org/2000/svg" xml:space="preserve" width="8.4666mm" height="8.4666mm" version="1.1" style="shape-rendering:geometricPrecision; text-rendering:geometricPrecision; image-rendering:optimizeQuality; fill-rule:evenodd; clip-rule:evenodd"
viewBox="0 0 847 847"
 xmlns:xlink="http://www.w3.org/1999/xlink">
 <defs>
  <style type="text/css">
   <![CDATA[
    .fil28 {fill:#443B36}
    .fil22 {fill:#4C99BD}
    .fil12 {fill:#595046}
    .fil31 {fill:#614A38}
    .fil17 {fill:#78BACA}
    .fil21 {fill:#7C5035}
    .fil15 {fill:#824837}
    .fil32 {fill:#86BDB8}
    .fil14 {fill:#90BD67}
    .fil26 {fill:#A2A2A2}
    .fil24 {fill:#AA73B1}
    .fil29 {fill:#AD7961}
    .fil19 {fill:#B18D51}
    .fil18 {fill:#CE614F}
    .fil27 {fill:#D1A075}
    .fil23 {fill:#E18539}
    .fil16 {fill:#E44145}
    .fil25 {fill:#F04D4F}
    .fil20 {fill:#F2795E}
    .fil30 {fill:#FCBA33}
    .fil13 {fill:#FECB7F}
    .fil0 {fill:white}
    .fil11 {fill:#47C7F0;fill-opacity:0.639216}
    .fil4 {fill:#84C441;fill-opacity:0.639216}
    .fil9 {fill:#C184BA;fill-opacity:0.639216}
    .fil7 {fill:#FEEB11;fill-opacity:0.639216}
    .fil5 {fill:white;fill-opacity:0.639216}
    .fil10 {fill:#47C7F0;fill-opacity:0.800000}
    .fil3 {fill:#84C441;fill-opacity:0.800000}
    .fil8 {fill:#C184BA;fill-opacity:0.800000}
    .fil1 {fill:#EF4523;fill-opacity:0.800000}
    .fil6 {fill:#FEEB11;fill-opacity:0.800000}
    .fil2 {fill:white;fill-opacity:0.800000}
   ]]>
  </style>
 </defs>
 <g id="Layer_x0020_1">
  <metadata id="CorelCorpID_0Corel-Layer"/>
  <g id="_634829056">
   <g>
    <path class="fil0" d="M743 477c0,0 0,0 -1,0 0,0 0,0 0,0 1,-4 3,-7 4,-10 4,-10 8,-21 9,-32 0,-12 -1,-23 -2,-35 0,-2 0,-5 0,-8 0,-2 -1,-3 -1,-5 -1,-11 -1,-21 3,-31 0,0 0,0 0,0 1,0 1,0 1,0 -5,11 -4,20 -3,31 0,2 0,3 0,5 1,3 1,5 1,8 1,12 2,23 1,35 -1,11 -5,22 -9,32 -1,3 -2,7 -3,10 0,0 0,0 0,0z"/>
    <g>
     <path class="fil1" d="M758 357c-4,3 -7,-3 -7,-3 -5,2 -8,1 -9,-2 -1,-2 10,-9 10,-9 -30,-8 -49,-42 -43,-78 6,-39 38,-66 70,-60 33,5 55,40 48,79 -6,36 -34,62 -64,61 0,0 8,9 5,12 -2,2 -6,0 -8,-2 0,0 -1,1 -2,2z"/>
     <path class="fil2" d="M814 239c-4,-8 -11,-12 -16,-10 -5,2 -6,10 -2,17 4,8 11,12 16,10 5,-2 6,-10 2,-17z"/>
     <path class="fil2" d="M762 346c-7,0 -12,-3 -12,-3 0,0 0,0 0,0 0,0 0,0 0,0 1,0 6,3 14,2 0,0 1,0 1,0 0,0 -1,0 -1,0 -1,1 -2,1 -2,1z"/>
     <path class="fil2" d="M760 347c-6,0 -10,-3 -10,-3 0,0 0,-1 0,-1 0,0 0,0 1,0 0,0 6,5 13,2 0,0 0,0 0,1 0,0 0,0 0,0 -1,0 -3,1 -4,1z"/>
    </g>
   </g>
   <g>
    <path class="fil0" d="M430 429c0,0 0,0 0,0 0,0 0,0 0,0 0,-4 1,-7 2,-10 2,-11 4,-22 3,-33 -1,-12 -3,-23 -6,-34 -1,-3 -2,-6 -2,-8 -1,-2 -1,-4 -1,-6 -3,-10 -5,-19 -3,-30 1,0 1,0 1,0 0,0 0,0 0,0 -3,11 0,20 2,30 1,2 1,4 1,5 1,3 2,6 2,8 3,12 6,23 7,35 1,11 -1,22 -4,33 0,3 -1,6 -2,10 0,0 0,0 0,0z"/>
    <g>
     <path class="fil3" d="M426 308c-3,3 -7,-2 -7,-2 -5,3 -8,2 -9,0 -2,-2 8,-11 8,-11 -31,-3 -55,-33 -55,-70 0,-39 27,-71 61,-70 33,0 60,31 59,70 0,37 -23,67 -54,70 0,0 9,8 8,11 -2,3 -7,2 -9,0 0,0 -1,1 -2,2z"/>
     <path class="fil2" d="M463 182c-5,-6 -13,-10 -17,-7 -5,3 -5,11 1,18 5,7 12,10 17,7 4,-3 4,-11 -1,-18z"/>
     <path class="fil2" d="M423 297c-4,0 -6,-1 -6,-1 -1,0 -1,0 -1,0 0,-1 1,-1 1,-1 0,0 6,2 14,0 0,0 0,0 0,1 0,0 0,0 0,0 -3,1 -6,1 -8,1z"/>
     <path class="fil2" d="M424 298c-4,0 -7,-2 -7,-2 -1,0 -1,0 -1,0 1,0 1,0 1,0 0,0 7,3 14,0 0,0 0,0 0,0 0,0 0,0 0,0 -3,2 -5,2 -7,2z"/>
    </g>
   </g>
   <g>
    <path class="fil0" d="M789 367c0,0 0,0 0,0 0,0 0,0 0,-1 1,-3 2,-6 3,-9 3,-11 6,-22 6,-33 -1,-12 -2,-23 -4,-35 -1,-2 -1,-5 -2,-8 0,-1 0,-3 0,-5 -2,-10 -4,-20 0,-31 0,0 0,0 0,0 0,0 0,0 0,0 -3,11 -2,21 0,31 0,2 1,3 1,5 0,3 1,6 1,8 2,12 4,23 4,35 0,11 -3,22 -6,33 -1,3 -2,6 -3,10 0,0 0,0 0,0z"/>
    <g>
     <path class="fil3" d="M795 246c-4,3 -8,-3 -8,-3 -5,3 -8,2 -9,0 -1,-3 9,-10 9,-10 -30,-6 -52,-38 -49,-75 3,-39 32,-68 65,-66 33,3 58,37 55,76 -3,36 -29,64 -60,65 0,0 9,9 7,12 -2,3 -6,1 -8,-1 0,0 -2,1 -2,2z"/>
     <path class="fil2" d="M795 234c-6,0 -9,-1 -9,-1 0,0 -1,0 0,0 0,-1 0,-1 0,-1 0,0 6,3 14,1 0,0 0,0 0,1 0,0 0,0 0,0 -2,0 -4,0 -5,0z"/>
     <path class="fil2" d="M794 236c-5,0 -8,-3 -8,-3 0,0 0,0 0,0 0,0 0,0 0,0 0,0 6,4 14,1 0,0 0,0 0,0 0,0 0,0 0,0 -2,1 -4,2 -6,2z"/>
    </g>
   </g>
   <g>
    <path class="fil0" d="M628 321c0,0 0,0 0,0 0,0 0,-1 0,-1 1,-3 2,-6 2,-10 2,-10 5,-21 4,-33 -1,-11 -4,-23 -7,-34 0,-3 -1,-5 -2,-8 0,-2 -1,-3 -1,-5 -3,-10 -5,-20 -2,-31 0,0 0,0 0,0 0,0 1,0 1,1 -3,10 -1,20 2,30 0,2 0,3 1,5 1,3 1,5 2,8 3,11 5,23 6,34 1,12 -1,23 -3,33 -1,4 -2,7 -2,10 0,1 0,1 -1,1z"/>
    <g>
     <path class="fil4" d="M625 199c-3,4 -8,-1 -8,-1 -4,2 -7,2 -9,0 -1,-3 8,-11 8,-11 -30,-3 -54,-34 -54,-70 0,-39 27,-71 60,-71 33,0 60,32 60,71 0,36 -24,66 -54,70 0,0 9,8 7,11 -1,3 -6,2 -8,-1 0,0 -2,2 -2,2z"/>
     <path class="fil5" d="M622 188c-4,0 -7,0 -7,0 0,-1 0,-1 0,-1 0,0 0,0 0,0 0,0 6,2 14,0 0,0 0,0 0,0 0,0 0,0 0,0 -3,1 -5,1 -7,1z"/>
     <path class="fil5" d="M622 190c-4,0 -7,-2 -7,-2 0,0 0,0 0,-1 0,0 0,0 0,0 0,0 7,4 14,0 0,0 0,0 0,0 0,1 0,1 0,1 -2,1 -5,2 -7,2z"/>
    </g>
   </g>
   <g>
    <path class="fil0" d="M166 486c0,0 0,0 0,0 0,0 -1,-1 -1,-1 1,-3 1,-7 1,-10 0,-11 1,-22 -2,-33 -2,-11 -7,-22 -11,-33 -2,-2 -3,-5 -4,-7 0,-2 -1,-4 -2,-5 -4,-10 -8,-19 -7,-30 0,0 1,-1 1,0 0,0 0,0 0,0 -1,11 3,20 7,30 0,1 1,3 2,4 1,3 2,5 3,8 4,11 9,22 12,33 3,11 2,22 1,33 0,3 0,7 0,10 0,0 0,1 0,1z"/>
    <g>
     <path class="fil6" d="M144 366c-3,4 -8,0 -8,0 -4,3 -8,3 -9,1 -2,-2 6,-12 6,-12 -31,2 -59,-24 -65,-61 -6,-38 16,-74 49,-79 33,-5 64,22 70,61 6,36 -13,69 -43,78 0,0 11,6 9,9 -1,4 -6,3 -8,1 0,0 -1,2 -1,2z"/>
     <path class="fil2" d="M160 237c-6,-6 -14,-8 -18,-5 -4,4 -3,12 3,18 6,6 15,8 19,4 4,-3 2,-11 -4,-17z"/>
     <path class="fil2" d="M134 356c-1,0 -2,0 -2,0 0,0 0,0 0,0 0,0 0,0 0,0 0,0 6,1 14,-3 0,0 0,0 0,1 0,0 0,0 0,0 -5,2 -9,2 -12,2z"/>
     <path class="fil2" d="M137 357c-3,0 -5,0 -5,0 0,0 0,-1 0,-1 0,0 0,0 0,0 0,0 7,2 14,-2 0,0 0,0 0,0 0,0 0,0 0,0 -3,3 -7,3 -9,3z"/>
    </g>
   </g>
   <g>
    <g>
     <path class="fil6" d="M-5 223c-2,4 -8,-1 -8,-1 -4,4 -7,3 -9,1 -2,-1 7,-11 7,-11 -31,1 -59,-25 -65,-61 -6,-39 16,-74 48,-79 33,-5 65,22 71,60 5,36 -14,70 -43,78 0,0 10,6 9,9 -1,4 -6,3 -8,1 0,0 -1,2 -2,3z"/>
    </g>
   </g>
   <g>
    <path class="fil0" d="M502 393c0,0 0,0 0,0 0,0 0,0 0,0 1,-3 3,-7 4,-10 5,-10 9,-20 11,-31 1,-12 1,-23 0,-35 0,-3 0,-5 0,-8 0,-2 0,-4 0,-5 0,-11 -1,-21 4,-31 0,0 1,0 1,0 0,0 0,0 0,0 -5,10 -5,20 -4,31 0,1 0,3 0,5 0,3 0,5 0,8 0,12 1,23 -1,35 -1,11 -6,22 -10,32 -2,3 -3,6 -4,9 0,0 0,0 -1,0z"/>
    <g>
     <path class="fil6" d="M524 274c-4,3 -7,-4 -7,-4 -5,2 -8,1 -9,-1 -1,-3 11,-9 11,-9 -30,-10 -47,-44 -39,-80 8,-39 41,-64 74,-57 32,7 52,44 43,82 -7,36 -37,60 -67,57 0,0 7,10 5,12 -3,3 -7,1 -8,-2 0,0 -2,1 -3,2z"/>
     <path class="fil2" d="M586 159c-3,-8 -10,-13 -15,-11 -5,2 -6,10 -3,18 3,7 10,12 16,10 5,-1 6,-9 2,-17z"/>
     <path class="fil2" d="M530 263c-8,0 -13,-3 -13,-3 0,0 0,0 0,0 0,0 0,0 0,0 0,0 6,3 14,2 0,0 0,0 0,0 0,0 0,1 0,1 0,0 0,0 0,0 0,0 -1,0 -1,0z"/>
     <path class="fil2" d="M527 264c-6,0 -10,-3 -10,-3 0,-1 0,-1 0,-1 0,0 0,0 0,0 0,0 6,5 14,3 0,0 0,0 0,0 0,0 0,0 0,1 -1,0 -3,0 -4,0z"/>
    </g>
   </g>
   <g>
    <path class="fil0" d="M855 458c0,0 0,0 0,0 -1,0 -1,0 -1,0 1,-4 2,-7 3,-11 2,-10 5,-21 5,-32 -1,-12 -3,-23 -5,-35 -1,-2 -2,-5 -2,-8 0,-1 -1,-3 -1,-5 -2,-10 -4,-20 -1,-31 0,0 0,0 0,0 1,0 1,0 1,1 -4,10 -2,20 0,30 1,2 1,3 1,5 1,3 2,6 2,8 2,12 5,23 5,35 1,11 -2,22 -5,33 -1,3 -1,6 -2,10 0,0 0,0 0,0z"/>
    <g>
     <path class="fil7" d="M856 337c-3,3 -8,-3 -8,-3 -4,3 -7,2 -9,0 -1,-2 9,-10 9,-10 -31,-5 -53,-36 -52,-73 2,-39 30,-69 64,-68 33,2 58,34 56,73 -1,37 -26,66 -57,68 0,0 9,8 7,11 -1,3 -6,2 -8,-1 0,0 -1,2 -2,3z"/>
     <path class="fil5" d="M855 325c-5,0 -8,-1 -8,-1 0,0 -1,0 0,0 0,0 0,0 0,0 0,0 6,2 14,0 0,0 0,0 0,1 0,0 0,0 0,0 -2,0 -5,0 -6,0z"/>
     <path class="fil5" d="M855 327c-5,0 -8,-2 -8,-2 0,0 0,-1 0,-1 0,0 0,0 0,0 0,0 7,4 14,1 0,0 0,0 0,0 0,0 0,0 0,0 -2,1 -4,2 -6,2z"/>
    </g>
   </g>
   <g>
    <path class="fil0" d="M111 433c0,0 0,0 0,0 0,-4 0,-7 0,-11 0,-10 0,-22 -4,-32 -3,-12 -8,-22 -13,-33 -1,-2 -2,-5 -4,-7 0,-2 -1,-3 -2,-5 -5,-9 -9,-18 -8,-29 0,-1 0,-1 0,-1 0,0 0,0 0,1 0,11 4,20 9,29 0,2 1,3 2,5 1,2 2,5 3,7 5,10 11,21 14,32 3,11 3,22 3,33 0,4 0,7 0,11 0,0 0,0 0,0 0,0 0,0 0,0z"/>
    <g>
     <path class="fil1" d="M83 315c-3,4 -8,0 -8,0 -4,4 -7,4 -9,2 -2,-2 6,-12 6,-12 -31,3 -61,-22 -68,-58 -8,-38 12,-75 44,-81 33,-7 65,18 73,57 8,35 -9,70 -38,79 0,0 10,6 9,9 -1,4 -5,3 -8,2 0,0 -1,1 -1,2z"/>
     <path class="fil2" d="M93 185c-7,-6 -15,-7 -19,-4 -4,4 -2,12 5,18 6,5 14,7 18,3 4,-4 2,-11 -4,-17z"/>
     <path class="fil2" d="M72 306c-1,0 -1,0 -1,0 -1,0 -1,-1 -1,-1 0,0 1,0 1,0 0,0 6,1 13,-3 0,0 1,0 1,0 0,0 0,0 0,1 -6,2 -11,3 -13,3z"/>
     <path class="fil2" d="M75 306c-3,0 -4,0 -4,0 -1,0 -1,0 -1,-1 0,0 1,0 1,0 0,0 7,2 13,-3 0,0 0,0 1,1 0,0 0,0 -1,0 -3,3 -7,3 -9,3z"/>
    </g>
   </g>
   <g>
    <path class="fil0" d="M422 348c0,0 0,0 -1,0 0,0 0,0 0,0 1,-3 3,-7 4,-10 4,-10 8,-20 9,-32 0,-11 -1,-23 -2,-34 0,-3 0,-6 0,-8 0,-2 -1,-4 -1,-6 -1,-10 -1,-20 3,-30 0,-1 0,-1 0,-1 1,0 1,1 1,1 -5,10 -4,20 -3,30 0,2 0,4 0,5 1,3 1,6 1,9 1,11 2,23 1,35 -1,11 -5,21 -9,32 -1,3 -2,6 -3,9 0,0 0,0 0,0z"/>
    <g>
     <path class="fil1" d="M437 228c-4,3 -7,-3 -7,-3 -5,2 -8,1 -9,-1 -1,-3 10,-10 10,-10 -30,-8 -49,-41 -43,-78 6,-38 38,-65 70,-60 33,5 55,41 48,79 -6,37 -34,62 -64,61 0,0 8,9 5,12 -2,3 -6,1 -8,-2 0,0 -1,2 -2,2z"/>
     <path class="fil2" d="M441 217c-7,0 -12,-2 -12,-2 0,0 0,0 0,-1 0,0 0,0 0,0 1,0 6,3 14,2 0,0 1,0 1,1 0,0 -1,0 -1,0 -1,0 -2,0 -2,0z"/>
     <path class="fil2" d="M439 218c-6,0 -10,-3 -10,-3 0,0 0,0 0,0 0,0 0,0 1,0 0,0 6,4 13,2 0,0 0,0 0,0 0,0 0,0 0,0 -2,1 -3,1 -4,1z"/>
    </g>
   </g>
   <g>
    <path class="fil0" d="M140 379c0,0 0,0 0,0 0,0 0,0 0,-1 1,-3 2,-6 3,-10 3,-10 6,-21 6,-32 0,-12 -2,-23 -3,-35 -1,-2 -1,-5 -2,-8 0,-1 0,-3 0,-5 -2,-10 -4,-20 0,-31 0,0 1,0 1,0 0,0 0,0 0,1 -4,10 -2,20 -1,30 0,2 1,3 1,5 0,3 1,6 1,8 2,12 4,23 4,35 0,11 -4,22 -7,33 -1,3 -2,6 -3,10 0,0 0,0 0,0z"/>
    <g>
     <path class="fil3" d="M147 258c-3,3 -7,-3 -7,-3 -5,3 -8,2 -9,-1 -2,-2 9,-10 9,-10 -30,-6 -52,-38 -48,-75 4,-38 33,-67 66,-64 33,3 57,37 53,76 -3,36 -29,64 -60,64 0,0 9,9 7,12 -2,3 -7,1 -9,-1 0,0 -1,1 -2,2z"/>
     <path class="fil2" d="M148 247c-6,0 -9,-2 -10,-2 0,0 0,0 0,0 0,-1 1,-1 1,-1 0,0 5,3 14,1 0,0 0,1 0,1 0,0 0,0 0,0 -2,0 -4,1 -5,1z"/>
     <path class="fil2" d="M147 248c-5,0 -8,-3 -9,-3 0,0 0,0 0,0 1,0 1,0 1,0 0,0 6,4 13,1 1,0 1,0 1,0 0,0 0,1 0,1 -2,0 -4,1 -6,1z"/>
    </g>
   </g>
   <g>
    <path class="fil0" d="M229 422c0,0 0,0 0,0 0,0 0,0 0,0 1,-3 3,-7 4,-10 4,-10 8,-21 8,-32 1,-11 0,-23 -1,-35 0,-2 0,-5 0,-8 0,-1 -1,-3 -1,-5 -1,-10 -2,-20 3,-31 0,0 0,0 0,0 0,0 1,0 0,1 -4,10 -3,20 -2,30 0,2 0,4 0,5 0,3 1,6 1,8 1,12 2,24 1,35 -1,12 -5,22 -9,32 -1,4 -2,7 -3,10 0,0 0,0 -1,0z"/>
    <g>
     <path class="fil8" d="M245 302c-4,3 -7,-3 -7,-3 -5,2 -8,1 -9,-2 -2,-2 9,-9 9,-9 -29,-8 -48,-42 -42,-78 6,-38 37,-65 70,-60 33,5 54,41 48,79 -6,36 -34,62 -64,61 0,0 8,9 5,12 -2,3 -6,1 -8,-2 0,0 -1,1 -2,2z"/>
     <path class="fil2" d="M301 184c-4,-8 -11,-12 -16,-10 -5,2 -6,10 -2,17 4,8 11,12 16,10 5,-2 6,-10 2,-17z"/>
     <path class="fil2" d="M248 291c-7,0 -11,-2 -11,-2 0,0 0,-1 0,-1 0,0 0,0 0,0 0,0 6,3 14,2 0,0 0,0 0,0 0,1 0,1 0,1 -1,0 -2,0 -3,0z"/>
     <path class="fil2" d="M246 292c-5,0 -9,-3 -9,-3 0,0 0,0 0,0 0,-1 0,-1 0,0 0,0 6,4 14,2 0,0 0,0 0,0 0,0 0,0 0,0 -2,1 -3,1 -5,1z"/>
    </g>
   </g>
   <g>
    <path class="fil0" d="M713 394c0,0 0,0 0,0 0,0 0,0 0,0 0,-3 1,-7 1,-10 2,-11 3,-22 1,-33 -1,-12 -5,-23 -8,-34 -1,-2 -2,-5 -3,-8 0,-1 -1,-3 -1,-5 -4,-10 -7,-19 -5,-30 0,0 1,0 1,0 0,0 0,0 0,0 -2,11 1,20 4,30 1,2 1,4 2,5 0,3 1,5 2,8 4,11 7,22 9,34 2,11 0,22 -1,33 -1,3 -1,7 -2,10 0,0 0,0 0,0z"/>
    <g>
     <path class="fil9" d="M701 274c-3,4 -8,-2 -8,-2 -4,4 -7,3 -9,1 -1,-2 8,-11 8,-11 -31,-1 -57,-30 -59,-67 -3,-39 22,-72 55,-74 33,-2 62,28 65,67 2,36 -20,68 -50,73 0,0 10,7 8,10 -1,4 -6,2 -8,1 0,-1 -1,1 -2,2z"/>
     <path class="fil5" d="M695 263c-3,0 -4,0 -4,-1 0,0 -1,0 -1,0 1,0 1,0 1,0 0,0 6,1 14,-1 0,0 0,0 0,0 0,0 0,0 0,0 -4,2 -7,2 -10,2z"/>
     <path class="fil5" d="M697 264c-4,0 -6,-1 -6,-1 0,0 0,0 0,-1 0,0 0,0 0,0 0,0 7,3 14,-1 0,0 0,0 0,1 0,0 0,0 0,0 -3,2 -6,2 -8,2z"/>
    </g>
   </g>
   <g>
    <path class="fil0" d="M362 475c-1,0 -1,-1 -1,-1 -16,-32 -10,-67 -4,-101 3,-18 6,-36 6,-53 0,-4 0,-9 -1,-13 -1,-7 -2,-15 0,-22 0,-1 0,-1 1,-1 0,0 0,0 0,1 -2,7 -1,15 0,22 0,4 1,9 1,13 0,17 -3,36 -6,53 -6,34 -12,69 4,101 0,0 0,0 0,0 0,0 0,1 0,1z"/>
    <g>
     <path class="fil10" d="M366 287c-3,4 -8,-1 -8,-1 -4,3 -8,3 -9,1 -2,-2 6,-11 6,-11 -30,1 -59,-26 -64,-62 -6,-39 17,-74 49,-79 33,-4 64,23 70,62 5,36 -14,69 -43,77 0,0 10,6 9,10 -2,3 -6,2 -9,0 0,0 -1,2 -1,3z"/>
     <path class="fil2" d="M384 157c-6,-6 -15,-8 -19,-4 -4,3 -2,11 4,17 6,6 14,8 18,5 4,-4 3,-12 -3,-18z"/>
     <path class="fil2" d="M357 277c-2,0 -3,-1 -3,-1 0,0 0,0 0,0 0,0 0,0 0,0 0,0 6,1 14,-2 0,0 0,0 0,0 0,0 0,0 0,0 -5,2 -9,3 -11,3z"/>
     <path class="fil2" d="M359 277c-3,0 -5,0 -5,0 0,0 0,-1 0,-1 0,0 0,0 0,0 0,0 7,3 14,-2 0,0 0,0 0,0 0,0 0,1 0,1 -3,2 -6,2 -9,2z"/>
    </g>
   </g>
   <g>
    <path class="fil0" d="M645 517c0,0 -1,0 -1,0 -17,-32 -13,-67 -8,-101 2,-17 4,-36 4,-53 -1,-4 -1,-9 -2,-13 -1,-7 -2,-15 -1,-22 0,-1 0,-1 1,-1 0,0 0,1 0,1 -2,7 -1,15 1,22 0,4 1,9 1,13 1,17 -1,36 -4,53 -4,34 -8,69 9,101 0,0 0,0 0,0 0,0 0,0 0,0z"/>
    <g>
     <path class="fil11" d="M641 330c-3,4 -8,-1 -8,-1 -4,4 -7,4 -9,2 -2,-2 6,-12 6,-12 -31,3 -60,-23 -67,-59 -7,-38 14,-74 46,-80 33,-7 65,19 72,58 7,36 -11,70 -40,79 0,0 11,6 10,9 -1,4 -6,3 -9,1 0,0 -1,2 -1,3z"/>
     <path class="fil2" d="M653 200c-6,-6 -14,-8 -18,-4 -4,4 -2,11 4,17 6,6 14,7 18,4 4,-4 2,-12 -4,-17z"/>
     <path class="fil5" d="M630 320c-1,0 -1,0 -1,0 0,0 0,0 0,-1 0,0 0,0 0,0 0,0 6,1 14,-2 0,-1 0,0 0,0 0,0 0,0 0,0 -6,3 -10,3 -13,3z"/>
     <path class="fil5" d="M633 321c-2,0 -4,-1 -4,-1 0,0 0,0 0,0 0,0 0,0 0,0 0,0 7,2 13,-3 1,0 1,0 1,0 0,0 0,0 0,1 -4,2 -7,3 -10,3z"/>
    </g>
   </g>
  </g>
  <g id="_488770800">
   <g>
    <path class="fil12" d="M760 680c0,-2 0,-4 0,-6 0,-12 1,-26 -1,-40 0,-1 0,-2 0,-2 -2,-21 -10,-40 -34,-52 -16,-7 -34,-8 -50,-3 -14,4 -31,13 -41,31 0,0 0,0 0,0 0,0 -17,21 -8,93 0,0 12,5 44,4 0,0 76,3 90,-4 0,0 0,-8 0,-21z"/>
    <path class="fil13" d="M809 709c0,0 -1,0 -1,0 0,0 1,0 1,0z"/>
    <path class="fil13" d="M804 699c-2,0 -11,10 -11,10l-83 -6 -40 2 -83 4 -3 -5c0,0 -9,-8 -9,-5 0,3 5,7 5,7l-8 0c0,0 -10,1 -10,2 0,1 10,3 10,3 0,0 -14,-1 -14,2 0,3 15,2 15,2 0,0 -11,2 -10,4 0,3 10,0 10,0 0,0 -9,3 -6,4 4,1 13,-1 16,-1 3,-1 5,-4 5,-4l80 0 -2 49 60 0 -10 -48 76 -4c5,5 12,3 12,3 0,0 7,5 7,3 0,-2 -4,-5 -4,-5 0,0 8,2 8,1 1,-2 -7,-4 -7,-4 0,0 11,0 11,-2 -1,-2 -8,-2 -10,-1 0,0 -1,0 -1,0 0,0 1,0 1,0 2,-1 8,-1 8,-3 -1,-2 -16,1 -16,1 0,0 5,-9 3,-9z"/>
    <path class="fil14" d="M788 708l-76 -6c0,0 -3,7 -19,7 -15,-1 -20,-7 -20,-7l-74 6 1 15 67 -4c0,0 -1,56 0,56 1,0 64,-4 64,-4l-12 -49 67 -3 2 -11z"/>
    <ellipse class="fil13" cx="690" cy="652" rx="52" ry="59"/>
    <circle class="fil13" cx="746" cy="655" r="9"/>
    <circle class="fil13" cx="639" cy="655" r="9"/>
    <path class="fil15" d="M707 637c0,0 5,1 7,3 2,3 3,-6 -7,-3z"/>
    <path class="fil15" d="M660 640c3,-2 8,-3 8,-3 -10,-3 -10,6 -8,3z"/>
    <path class="fil15" d="M689 667c0,0 -3,3 -2,5 1,2 2,3 2,3 0,0 -5,-2 -4,-4 1,-1 4,-4 4,-4z"/>
    <g>
     <circle class="fil15" cx="666" cy="655" r="6"/>
     <circle class="fil0" cx="668" cy="653" r="2"/>
    </g>
    <g>
     <circle class="fil15" cx="709" cy="655" r="6"/>
     <circle class="fil0" cx="711" cy="653" r="2"/>
    </g>
    <g>
     <path class="fil15" d="M704 684c0,0 -12,4 -20,1 -9,-2 -18,0 -10,8 7,7 23,8 28,2 6,-5 9,-14 2,-11z"/>
     <path class="fil16" d="M678 696c8,4 18,4 23,0 -3,-2 -9,-4 -17,-2 -3,1 -4,1 -6,2z"/>
    </g>
    <path class="fil12" d="M701 581c-48,-6 -68,25 -65,65 0,0 53,3 67,-29 17,30 42,29 42,29l5 3c0,0 -1,-61 -49,-68z"/>
    <g>
     <path class="fil17" d="M715 525l-47 59c5,10 29,17 29,17 0,0 24,5 34,-2l-16 -74z"/>
     <path class="fil17" d="M749 536c0,0 -9,2 -17,-4 -8,-7 -17,-7 -17,-7 0,0 7,1 13,8 0,0 10,13 19,8l2 -5z"/>
     <path class="fil17" d="M732 539c0,0 -7,1 -10,-6 -2,-7 -7,-8 -7,-8 0,0 4,2 5,9 0,0 1,13 9,10l3 -5z"/>
    </g>
   </g>
   <g>
    <g>
     <polygon class="fil18" points="336,777 342,832 356,832 348,756 312,757 310,831 324,831 328,777 "/>
    </g>
    <g>
     <path class="fil19" d="M285 595c0,0 -35,-8 -48,19 -13,27 -5,57 -18,65 -13,7 14,-1 17,-12 3,-11 3,7 3,9 0,1 6,0 8,-13 3,-13 3,5 2,9 -1,4 7,-2 9,-16 2,-15 8,-56 25,-53 17,2 2,-8 2,-8z"/>
     <path class="fil20" d="M279 592l0 2c0,0 1,2 1,5 -1,4 -3,4 -3,4 0,0 0,3 5,3 4,0 6,-3 7,-9 1,-5 -4,-9 -10,-5z"/>
    </g>
    <g>
     <path class="fil19" d="M361 595c0,0 36,-8 49,19 12,27 5,57 18,65 13,7 -14,-1 -17,-12 -4,-11 -3,7 -4,9 0,1 -5,0 -8,-13 -2,-13 -3,5 -1,9 1,4 -7,-2 -9,-16 -2,-15 -8,-56 -25,-53 -17,2 -3,-8 -3,-8z"/>
     <path class="fil20" d="M367 592l1 2c0,0 -2,2 -1,5 0,4 3,4 3,4 0,0 -1,3 -5,3 -4,0 -7,-3 -7,-9 -1,-5 4,-9 9,-5z"/>
    </g>
    <path class="fil13" d="M437 706c0,0 0,0 0,0 0,0 0,0 0,0z"/>
    <path class="fil13" d="M432 696c-2,0 -10,10 -10,10l-79 -6 -39 1 -79 5 -3 -5c0,0 -8,-8 -8,-5 0,3 4,6 4,6l-7 1c0,0 -10,0 -10,1 0,2 10,3 10,3 0,0 -14,-1 -14,2 1,3 15,2 15,2 0,0 -11,2 -10,4 0,2 10,0 10,0 0,0 -9,3 -6,4 3,1 12,-1 15,-2 3,0 5,-3 5,-3l76 0 -1 47 56 0 -9 -46 73 -4c5,5 11,3 11,3 0,0 7,4 7,3 0,-2 -3,-5 -3,-5 0,0 7,2 7,0 1,-1 -7,-3 -7,-3 0,0 11,0 11,-2 -1,-2 -7,-1 -10,-1 0,0 0,0 0,0 0,0 0,0 0,0 2,0 8,-1 8,-3 -1,-2 -15,1 -15,1 0,0 4,-8 2,-8z"/>
    <path class="fil20" d="M417 704l-73 -5c0,0 -3,13 -18,13 -15,-1 -19,-13 -19,-13l-71 5 2 15 63 -4c0,0 -1,53 0,53 1,1 61,-3 61,-3l-11 -48 64 -2 2 -11z"/>
    <ellipse class="fil13" cx="324" cy="651" rx="50" ry="56"/>
    <circle class="fil13" cx="376" cy="654" r="8"/>
    <circle class="fil13" cx="275" cy="654" r="8"/>
    <path class="fil19" d="M333 608c2,-5 3,22 21,32 18,10 22,5 22,5l5 3c0,0 -1,-59 -47,-65 -46,-6 -65,24 -62,62 0,0 21,-7 32,-17 10,-11 20,-22 20,-22l-15 25c0,0 22,-17 24,-23z"/>
    <path class="fil15" d="M340 637c0,0 5,0 7,3 1,2 2,-6 -7,-3z"/>
    <path class="fil15" d="M295 640c2,-3 7,-3 7,-3 -9,-3 -9,5 -7,3z"/>
    <path class="fil15" d="M341 681l-38 1c0,0 3,13 20,13 17,-1 18,-14 18,-14z"/>
    <path class="fil0" d="M335 683c1,-1 2,-2 3,-2l-30 1c0,1 1,2 2,2 2,0 21,2 25,-1z"/>
    <path class="fil16" d="M311 692c3,2 7,3 12,3 2,0 3,0 5,-1 -5,-2 -13,-6 -17,-2z"/>
    <path class="fil15" d="M337 659c0,0 1,-11 6,-12 5,-1 6,13 6,13 0,0 -4,-11 -6,-11 -2,0 -6,10 -6,10z"/>
    <path class="fil15" d="M295 659c0,0 1,-11 6,-12 5,-1 6,13 6,13 0,0 -4,-11 -6,-11 -2,0 -6,10 -6,10z"/>
    <path class="fil15" d="M323 665c0,0 -3,3 -3,5 1,1 2,3 2,3 0,0 -5,-2 -4,-4 1,-1 5,-4 5,-4z"/>
   </g>
   <g>
    <polygon class="fil21" points="129,619 129,688 249,688 249,619 139,606 "/>
    <ellipse class="fil13" cx="189" cy="626" rx="48" ry="58"/>
    <ellipse class="fil13" cx="239" cy="637" rx="6" ry="11"/>
    <ellipse class="fil13" cx="140" cy="637" rx="6" ry="11"/>
    <path class="fil15" d="M204 619c0,0 6,1 7,3 2,2 2,-6 -7,-3z"/>
    <path class="fil15" d="M160 622c2,-2 7,-3 7,-3 -9,-3 -8,5 -7,3z"/>
    <g>
     <path class="fil15" d="M204 660c0,0 -12,5 -21,2 -8,-3 -18,0 -10,8 8,7 24,8 29,2 6,-5 9,-15 2,-12z"/>
     <path class="fil16" d="M178 673c8,4 18,4 23,0 -3,-2 -9,-4 -17,-2 -3,0 -5,1 -6,2z"/>
    </g>
    <path class="fil15" d="M188 653c-3,2 3,2 3,-1 0,-4 -5,-3 -5,-3 0,0 5,3 2,4z"/>
    <path class="fil13" d="M125 623c1,-6 -6,-3 -6,-3 0,0 0,-4 -4,-6 -5,-1 -13,4 -13,8 1,5 4,12 10,11l38 52 9 -6 -38 -49c0,0 4,-1 4,-7z"/>
    <path class="fil13" d="M229 685l38 -52c6,1 9,-6 10,-11 0,-4 -8,-9 -12,-8 -5,2 -5,6 -5,6 0,0 -6,-3 -6,3 1,6 5,7 5,7l-39 49 9 6z"/>
    <polygon class="fil22" points="151,800 184,803 191,783 193,801 233,801 223,754 159,754 "/>
    <path class="fil23" d="M222 668c-8,10 -20,16 -33,16 -13,0 -24,-6 -33,-15l-14 15 20 25 -8 45 71 0 -3 -40 17 -35 -17 -11z"/>
    <path class="fil13" d="M180 674c-4,1 -7,4 -7,7 0,5 8,8 16,8 9,0 16,-3 16,-8 0,-3 -2,-6 -5,-7 -5,2 -14,2 -20,0z"/>
    <path class="fil21" d="M129 620l74 0 8 -18 4 18 34 0c0,0 4,-66 -60,-66 -65,0 -60,66 -60,66z"/>
    <g>
     <circle class="fil15" cx="168" cy="635" r="6"/>
     <circle class="fil0" cx="170" cy="632" r="2"/>
    </g>
    <g>
     <circle class="fil15" cx="208" cy="635" r="6"/>
     <circle class="fil0" cx="210" cy="632" r="2"/>
    </g>
    <g>
     <path class="fil20" d="M150 508l-14 74c10,6 34,1 34,1 0,0 23,-8 29,-18l-49 -57z"/>
     <g>
      <g>
       <path class="fil24" d="M164 524l-8 -9c-2,2 -4,4 -4,4 0,0 -2,1 -5,2l-3 14c8,-3 15,-7 15,-7 0,0 2,-1 5,-4z"/>
       <path class="fil24" d="M164 549c0,0 6,-5 12,-11l-7 -8c-6,5 -11,9 -11,9 0,0 -7,4 -16,7l-2 12c11,-1 24,-9 24,-9z"/>
       <path class="fil24" d="M188 552l-7 -9c-7,9 -18,17 -18,17 0,0 -13,8 -25,9l-2 9 1 1c12,3 33,-10 33,-10 0,0 11,-8 18,-17z"/>
      </g>
     </g>
     <path class="fil24" d="M184 501c0,0 -6,7 -17,5 -10,-2 -17,2 -17,2 0,0 6,-3 15,1 0,0 15,6 21,-3l-2 -5z"/>
     <path class="fil20" d="M171 512c0,0 -6,4 -11,-1 -5,-5 -11,-3 -11,-3 0,0 5,0 9,5 0,0 7,11 12,4l1 -5z"/>
    </g>
   </g>
   <g>
    <path class="fil15" d="M628 624c-12,-53 -60,-43 -60,-43 0,0 -47,-10 -59,43 -12,54 9,162 9,162l50 0 51 0c0,0 21,-108 9,-162z"/>
    <path class="fil13" d="M674 718c-1,0 -1,0 -1,0 0,0 0,0 1,0z"/>
    <polygon class="fil13" points="584,709 547,709 531,715 512,761 524,764 544,719 541,765 595,768 588,723 592,723 621,770 636,771 598,710 "/>
    <path class="fil25" d="M591 726l9 46c0,0 -58,1 -59,1 -1,-1 2,-51 2,-51l-4 12 -16 -5c13,-37 27,-22 27,-22 0,0 3,4 17,5 15,1 18,-4 18,-4 0,0 10,-10 26,20l-15 7 -5 -9z"/>
    <ellipse class="fil13" transform="matrix(0.0398338 0.00170274 -0.00170274 0.0398338 567.728 661.326)" rx="1200" ry="1346"/>
    <circle class="fil13" cx="618" cy="666" r="8"/>
    <circle class="fil13" cx="521" cy="662" r="8"/>
    <path class="fil15" d="M582 648c0,0 5,1 7,4 1,2 2,-6 -7,-4z"/>
    <path class="fil15" d="M542 649c2,-2 7,-2 7,-2 -9,-3 -9,5 -7,2z"/>
    <path class="fil15" d="M568 675c0,0 -3,3 -2,4 1,2 2,3 2,3 0,0 -5,-2 -4,-3 1,-2 4,-4 4,-4z"/>
    <g>
     <circle class="fil15" cx="545" cy="663" r="6"/>
     <circle class="fil0" cx="548" cy="660" r="2"/>
    </g>
    <g>
     <circle class="fil15" cx="585" cy="664" r="6"/>
     <circle class="fil0" cx="587" cy="662" r="2"/>
    </g>
    <path class="fil15" d="M575 694c0,0 -2,3 -8,4 -5,1 -7,-4 -7,-4 0,0 0,7 6,7 7,0 9,-7 9,-7z"/>
    <path class="fil15" d="M521 643l58 0 2 -14 4 14 31 0 0 -19 -16 -20 -31 -5 -40 0c0,0 -2,29 -8,44z"/>
    <path class="fil25" d="M609 602c-3,0 -6,3 -9,6 0,0 0,0 -1,0 -2,0 -4,2 -4,4 -15,-1 -7,8 -2,11 4,2 6,-2 7,-5 2,-1 3,-2 4,-3 3,1 9,1 12,0 4,-2 -1,-11 -7,-13z"/>
   </g>
   <g>
    <g>
     <polygon class="fil26" points="56,760 46,813 59,817 73,744 40,734 15,802 29,807 48,758 "/>
    </g>
    <polygon class="fil27" points="85,690 49,679 31,682 1,722 12,728 43,688 28,734 81,751 86,705 90,706 106,761 121,765 99,695 "/>
    <path class="fil26" d="M88 709l-4 47c0,0 -57,-14 -58,-15 -1,0 16,-49 16,-49l-8 10 -14 -9c22,-33 33,-15 33,-15 0,0 -1,13 13,18 14,4 21,-7 21,-7 0,0 13,-7 21,27l-17 3 -3 -10z"/>
    <ellipse class="fil27" transform="matrix(0.0379958 0.0120725 -0.0120725 0.0379958 82.4132 637.977)" rx="1236" ry="1386"/>
    <circle class="fil27" cx="131" cy="656" r="8"/>
    <circle class="fil27" cx="36" cy="626" r="8"/>
    <path class="fil28" d="M100 629c0,0 5,2 6,5 1,3 4,-5 -6,-5z"/>
    <path class="fil28" d="M60 619c2,-1 7,0 7,0 -8,-6 -10,2 -7,0z"/>
    <path class="fil28" d="M79 652c0,0 -4,2 -3,3 0,2 1,4 1,4 0,0 -5,-3 -3,-5 1,-1 5,-2 5,-2z"/>
    <g>
     <circle class="fil28" cx="60" cy="633" r="6"/>
     <circle class="fil0" cx="63" cy="631" r="2"/>
    </g>
    <g>
     <circle class="fil28" cx="99" cy="646" r="6"/>
     <circle class="fil0" cx="102" cy="644" r="2"/>
    </g>
    <path class="fil15" d="M127 573c-4,-6 -5,-15 -5,-15 -1,7 -7,8 -7,8 4,-13 -2,-28 -2,-28 1,8 -8,15 -8,15 2,-5 -3,-9 -3,-9 0,0 -4,20 -36,21 -32,2 -35,54 -35,54l0 0c2,-1 5,-2 7,-1 0,0 0,0 0,0l0 0c0,0 13,-30 29,-26 11,2 14,4 24,7 13,4 17,5 29,10 16,6 11,38 11,38l0 1c1,0 2,0 2,0 2,1 4,2 5,4l0 0c31,-54 -8,-73 -11,-79z"/>
    <path class="fil28" d="M81 673c0,0 -3,2 -9,1 -5,0 -6,-6 -6,-6 0,0 -2,7 4,9 7,2 11,-4 11,-4z"/>
   </g>
   <g>
    <path class="fil29" d="M556 717c0,0 0,0 0,0 0,0 0,0 0,0z"/>
    <polygon class="fil29" points="463,707 426,707 409,714 390,761 402,764 423,717 420,765 476,768 468,722 472,722 502,770 517,771 478,709 "/>
    <path class="fil24" d="M471 725l9 47c0,0 -59,1 -60,1 -1,0 2,-52 2,-52l-5 12 -16 -5c13,-38 28,-23 28,-23 0,0 3,5 18,6 14,1 18,-5 18,-5 0,0 10,-10 27,21l-15 7 -6 -9z"/>
    <ellipse class="fil29" transform="matrix(0.0398338 0.00170274 -0.00170274 0.0398338 447.161 658.396)" rx="1236" ry="1386"/>
    <circle class="fil29" cx="499" cy="663" r="8"/>
    <circle class="fil29" cx="399" cy="659" r="8"/>
    <path class="fil28" d="M462 645c0,0 5,1 7,3 2,3 2,-5 -7,-3z"/>
    <path class="fil28" d="M421 646c2,-2 6,-2 6,-2 -9,-4 -8,5 -6,2z"/>
    <path class="fil28" d="M448 673c0,0 -3,2 -3,4 1,2 2,3 2,3 0,0 -5,-2 -4,-4 1,-1 5,-3 5,-3z"/>
    <g>
     <circle class="fil28" cx="424" cy="660" r="6"/>
     <circle class="fil0" cx="426" cy="657" r="2"/>
    </g>
    <g>
     <circle class="fil28" cx="465" cy="661" r="6"/>
     <circle class="fil0" cx="467" cy="659" r="2"/>
    </g>
    <path class="fil28" d="M504 657c0,0 -3,-2 -5,-2 -1,0 -2,0 -3,0l0 0c0,0 -3,-32 -20,-35 -14,-1 -17,-1 -30,-1 -11,-1 -14,-2 -25,-1 -18,1 -22,33 -22,33l0 0c0,0 0,0 0,0 -2,0 -5,1 -6,3l0 0c0,0 -30,-67 23,-71 0,0 2,-27 23,-21 0,0 32,-15 49,16 0,0 22,8 16,24 0,0 26,11 0,55z"/>
    <path class="fil28" d="M455 692c0,0 -3,3 -8,4 -5,1 -8,-4 -8,-4 0,0 0,7 7,7 6,0 9,-7 9,-7z"/>
    <g>
     <path class="fil30" d="M434 519l-33 68c9,9 33,10 33,10 0,0 25,-1 33,-10l-33 -68z"/>
     <path class="fil30" d="M469 522c0,0 -8,5 -17,0 -9,-5 -18,-3 -18,-3 0,0 7,0 14,5 0,0 14,10 21,3l0 -5 0 0z"/>
     <path class="fil23" d="M453 529c0,0 -6,3 -10,-3 -3,-7 -9,-7 -9,-7 0,0 4,1 7,8 0,0 4,12 11,7l1 -5z"/>
     <g>
      <g>
       <circle class="fil23" cx="434" cy="573" r="8"/>
       <g>
        <path class="fil23" d="M449 550c-3,1 -5,4 -5,8 0,4 3,7 8,7 1,0 3,0 4,-1l-7 -14z"/>
       </g>
       <g>
        <path class="fil23" d="M422 558c4,0 7,-3 7,-8 0,-4 -2,-7 -6,-7l-7 13c2,1 4,2 6,2z"/>
       </g>
       <g>
        <path class="fil23" d="M413 580c-5,0 -8,3 -8,8 0,1 0,2 0,2 3,2 7,4 11,5 3,-2 4,-4 4,-7 0,-5 -3,-8 -7,-8z"/>
       </g>
       <g>
        <path class="fil23" d="M455 585c-4,0 -7,3 -7,8 0,1 0,2 0,2 5,-1 11,-2 15,-5 -1,-3 -4,-5 -8,-5z"/>
       </g>
       <path class="fil23" d="M441 540c1,0 2,0 3,-1l-7 -14c-2,2 -4,4 -4,7 0,4 4,8 8,8z"/>
      </g>
     </g>
    </g>
   </g>
   <g>
    <path class="fil31" d="M887 585c0,-6 -5,-10 -10,-11 0,-2 0,-3 0,-4 0,-5 -4,-10 -9,-11 0,-1 0,-3 0,-4 -1,-9 -8,-15 -16,-17 -2,-4 -7,-6 -12,-6 -1,0 -2,1 -3,1 -4,-6 -11,-9 -19,-9 -3,1 -5,2 -8,3 -4,-5 -10,-8 -17,-7 -7,1 -13,6 -16,12 -3,-1 -7,-2 -11,-1 -9,1 -17,7 -20,16 -1,0 -2,0 -3,0 -6,1 -11,5 -12,11 -5,4 -8,10 -7,17 0,2 1,4 2,6 -7,2 -12,8 -11,15 1,6 5,10 9,12 -5,3 -9,9 -8,15 1,9 9,15 18,14 1,0 1,0 2,0 1,1 2,1 3,1 0,2 0,4 0,6 1,6 4,10 9,13 1,5 5,9 11,9 -1,1 -1,3 -1,6 1,6 7,11 14,11 7,-1 12,-8 11,-14 0,-1 0,-1 0,-2 3,-3 4,-7 3,-11 0,-8 -7,-13 -15,-13 0,-1 0,-2 0,-3 -1,-6 -5,-11 -10,-13 1,-2 1,-5 1,-7 -1,-3 -2,-6 -3,-8 2,-3 3,-5 4,-9 11,-2 19,-12 19,-24 6,-3 10,-9 12,-15 4,10 14,16 25,15 0,0 1,0 1,0 4,5 11,8 18,7 2,0 4,-1 6,-1 0,2 1,4 2,6 -5,4 -7,10 -7,17 1,2 2,5 3,7 -5,3 -7,8 -6,14 0,2 0,4 1,6 -6,2 -11,9 -10,16 1,8 9,14 17,13 6,-1 10,-4 12,-9 1,0 2,0 3,0 8,-1 13,-8 12,-16 0,-1 0,-2 -1,-4 4,-3 7,-8 6,-14 0,-2 -1,-4 -2,-6 1,0 2,0 4,0 6,-1 11,-6 10,-13 0,-3 -2,-5 -4,-7 2,-3 4,-6 3,-10z"/>
    <ellipse class="fil27" transform="matrix(-0.0395786 0.00481227 -0.00481227 -0.0395786 802.931 621.45)" rx="1215" ry="1449"/>
    <ellipse class="fil27" transform="matrix(-0.0395786 0.00481227 -0.00481227 -0.0395786 853.687 626.177)" rx="153" ry="281"/>
    <ellipse class="fil27" transform="matrix(-0.0395786 0.00481227 -0.00481227 -0.0395786 756.181 637.979)" rx="153" ry="281"/>
    <path class="fil28" d="M818 613c0,0 5,0 7,2 1,1 1,-7 -7,-2z"/>
    <path class="fil28" d="M774 621c1,-2 7,-3 7,-3 -10,-3 -8,5 -7,3z"/>
    <path class="fil28" d="M806 649c-3,2 3,1 2,-2 0,-4 -5,-3 -5,-3 0,0 5,3 3,5z"/>
    <path class="fil27" d="M739 626c0,-6 -6,-2 -6,-2 0,0 -1,-4 -5,-5 -5,-1 -12,5 -11,9 1,5 5,12 11,10l44 47 8 -7 -44 -44c0,0 4,-1 3,-8z"/>
    <path class="fil27" d="M850 675l32 -56c6,0 8,-7 8,-12 0,-4 -9,-8 -13,-6 -4,2 -4,6 -4,6 0,0 -7,-3 -6,4 2,6 6,6 6,6l-33 53 10 5z"/>
    <polygon class="fil32" points="787,799 819,798 824,777 828,795 867,790 852,744 788,752 "/>
    <path class="fil32" d="M841 659c-7,11 -18,18 -31,20 -12,1 -24,-3 -34,-11l-13 16 23 23 -2 45 70 -8 -7 -39 12 -37 -18 -9z"/>
    <path class="fil27" d="M800 670c-4,2 -6,5 -6,8 1,4 8,7 17,6 9,-1 16,-5 15,-10 0,-3 -3,-5 -7,-6 -4,3 -12,4 -19,2z"/>
    <path class="fil31" d="M852 594c2,-2 2,-5 2,-7 0,-4 -4,-7 -8,-8 0,0 0,0 0,0 0,-7 -6,-11 -12,-10 -2,0 -4,1 -6,2 -2,-3 -6,-5 -11,-4 0,-6 -5,-10 -11,-9 -2,0 -3,1 -4,1 -2,-4 -7,-6 -12,-6 -5,1 -9,5 -9,10 -2,0 -3,0 -4,0 -6,1 -10,6 -9,12 0,0 0,1 0,1 -6,1 -10,6 -10,12 0,0 0,0 0,1 -4,1 -7,6 -6,11 0,1 0,2 0,3 -3,2 -5,5 -5,9 1,2 1,3 2,4 -1,2 -1,3 -1,5 0,4 4,6 7,6 4,-1 6,-3 6,-7 4,-1 7,-6 6,-10 0,0 0,-1 0,-1 5,-2 7,-6 7,-11 2,1 4,1 6,1 4,0 7,-3 9,-7 3,3 6,4 10,3 4,0 8,-3 10,-7 3,3 7,5 11,5 2,0 3,-1 4,-1 0,0 0,1 0,1 1,7 7,12 14,11 1,0 2,0 3,-1 0,1 0,2 0,3 1,6 6,10 12,10 6,-1 11,-7 10,-13 -1,-5 -6,-9 -11,-9z"/>
    <g>
     <path class="fil28" d="M823 656l-28 4c0,0 3,10 16,8 13,-2 12,-12 12,-12z"/>
     <path class="fil16" d="M802 667c2,1 5,1 9,1 1,0 2,-1 3,-1 -4,-2 -10,-3 -12,0z"/>
    </g>
    <path class="fil28" d="M819 635c0,0 -1,-12 3,-14 5,-2 9,12 9,12 0,0 -6,-10 -8,-10 -2,0 -4,12 -4,12z"/>
    <path class="fil28" d="M776 641c0,0 -1,-12 4,-14 5,-2 8,13 8,13 0,0 -6,-11 -8,-11 -2,0 -4,12 -4,12z"/>
   </g>
  </g>
 </g>
</svg>
