<?xml version="1.0" encoding="UTF-8"?>
<!DOCTYPE svg PUBLIC "-//W3C//DTD SVG 1.1//EN" "http://www.w3.org/Graphics/SVG/1.1/DTD/svg11.dtd">
<!-- Creator: CorelDRAW X7 -->
<svg xmlns="http://www.w3.org/2000/svg" xml:space="preserve" width="8.4666mm" height="8.4666mm" version="1.1" style="shape-rendering:geometricPrecision; text-rendering:geometricPrecision; image-rendering:optimizeQuality; fill-rule:evenodd; clip-rule:evenodd"
viewBox="0 0 847 847"
 xmlns:xlink="http://www.w3.org/1999/xlink">
 <defs>
  <style type="text/css">
   <![CDATA[
    .str1 {stroke:#00711E;stroke-width:3.52;stroke-linecap:round}
    .str0 {stroke:#825B3F;stroke-width:3.52;stroke-linecap:round}
    .fil3 {fill:none;fill-rule:nonzero}
    .fil5 {fill:#00711E;fill-rule:nonzero}
    .fil1 {fill:#825B3F;fill-rule:nonzero}
    .fil2 {fill:#AF7C50;fill-rule:nonzero}
    .fil0 {fill:#FFFEF9;fill-rule:nonzero}
    .fil4 {fill:white;fill-rule:nonzero}
   ]]>
  </style>
 </defs>
 <g id="Layer_x0020_1">
  <metadata id="CorelCorpID_0Corel-Layer"/>
  <g id="_490451008">
   <g>
    <path class="fil0" d="M255 630c2,13 5,27 12,38 -4,-1 -8,-5 -10,-9 -6,-9 -11,-19 -12,-29 -1,-4 -1,-9 1,-13 2,-3 7,-6 9,-1 1,2 -1,10 0,14z"/>
    <path class="fil0" d="M240 634c2,14 5,27 12,39 -4,-2 -8,-6 -10,-10 -6,-9 -11,-19 -12,-29 -1,-4 -1,-9 1,-12 2,-4 7,-7 9,-2 1,2 -1,10 0,14z"/>
    <path class="fil0" d="M225 637c2,14 5,28 13,39 -4,-2 -8,-6 -11,-10 -6,-8 -10,-18 -12,-29 0,-4 -1,-8 1,-12 3,-4 8,-7 10,-2 1,3 -1,11 -1,14z"/>
   </g>
   <g>
    <path class="fil0" d="M466 620c0,13 1,25 7,36 -4,-2 -6,-6 -9,-10 -4,-8 -7,-17 -7,-27 0,-4 0,-8 2,-11 2,-3 8,-5 9,0 1,2 -2,9 -2,12z"/>
    <path class="fil0" d="M452 623c1,12 2,24 8,35 -4,-2 -7,-6 -9,-9 -4,-9 -7,-18 -7,-28 -1,-3 0,-7 2,-10 2,-4 7,-5 8,-1 1,3 -2,9 -2,13z"/>
    <path class="fil0" d="M439 625c1,13 2,25 8,36 -4,-2 -7,-6 -9,-10 -4,-8 -7,-18 -7,-27 -1,-4 0,-8 2,-11 2,-3 7,-5 9,0 0,2 -3,9 -3,12z"/>
   </g>
   <path class="fil1" d="M305 596c2,14 4,31 -15,36 -11,3 -19,4 -26,-9 -7,-13 -6,-35 -8,-51 -13,-100 -6,-201 10,-300 1,-9 -1,-22 5,-22 3,-1 6,2 8,5 31,38 90,17 67,61 -53,101 -45,262 -41,280z"/>
   <path class="fil0" d="M356 338c-41,-4 -81,-24 -77,-31 2,-3 27,-3 30,-4 17,-6 34,-11 52,-14 6,-1 13,-2 20,-1 7,0 14,3 21,5 14,5 28,9 41,14 7,2 13,5 18,10 19,22 -28,17 -38,17 -22,1 -45,6 -67,4z"/>
   <path class="fil1" d="M521 579c3,7 5,15 5,24 0,8 -4,16 -11,20 -9,4 -20,0 -26,-8 -6,-7 -8,-17 -10,-26 -12,-56 -10,-114 4,-170 1,-5 4,-11 9,-11 3,0 5,1 7,3 28,22 51,16 38,43 -20,39 -24,95 -16,125z"/>
   <path class="fil2" d="M62 337c114,-2 228,-3 341,-6 45,-1 90,-2 134,-11 48,-10 195,-9 241,-13 7,0 14,-1 20,2 6,3 10,10 8,16 -3,7 -11,8 -18,9 -122,13 -244,26 -366,39 -34,4 -69,8 -103,8 -48,0 -95,-7 -143,-9 -57,-3 -115,0 -173,2 2,-7 0,-17 2,-24 3,-14 -5,-7 9,-13 12,-5 35,0 48,0z"/>
   <path class="fil1" d="M501 337c0,0 -80,117 -37,257 10,33 -24,52 -39,2 -44,-148 -5,-255 10,-278 0,0 -202,-68 -210,101 -4,78 15,152 25,192 9,39 -33,38 -40,9 -9,-37 -83,-275 19,-400 66,-80 352,-72 272,117z"/>
   <path class="fil1" d="M687 372c-22,65 -94,99 -162,77 -69,-23 -106,-94 -85,-158 22,-65 94,-99 162,-77 68,23 106,94 85,158z"/>
   <path class="fil0" d="M662 379c-18,53 -79,82 -135,63 -57,-19 -88,-78 -70,-131 18,-54 92,-94 125,-35 65,-25 97,49 80,103z"/>
   <path class="fil1" d="M529 365c-15,3 -47,-6 -71,6 -7,4 -11,-2 -12,5 4,-17 7,-22 18,-35 14,-15 37,-22 44,-23 13,-2 24,2 28,4 15,9 13,38 -7,43z"/>
   <path class="fil1" d="M582 403c-3,10 -25,18 -46,11 -21,-7 -34,-26 -30,-36 3,-10 23,-13 44,-6 21,7 36,21 32,31z"/>
   <path class="fil1" d="M570 378c10,12 41,23 54,49 3,6 6,4 3,10 7,-15 11,-22 9,-39 -1,-20 -16,-39 -21,-45 -9,-8 -20,-12 -25,-13 -17,-2 -33,23 -20,38z"/>
   <path class="fil3 str0" d="M503 405c0,0 21,30 64,21"/>
   <g>
    <path class="fil4" d="M611 395c0,0 -8,-18 -38,-25l38 25z"/>
    <path class="fil4" d="M481 351c0,0 17,-9 45,4l-45 -4z"/>
   </g>
   <polygon class="fil1" points="581,219 586,180 595,207 622,158 613,213 651,188 613,229 "/>
   <g>
    <path class="fil0" d="M488 623c-1,12 -2,25 -7,36 3,-2 6,-6 8,-10 5,-8 7,-18 8,-27 0,-4 0,-8 -2,-11 -3,-3 -8,-5 -9,0 -1,2 2,9 2,12z"/>
    <path class="fil0" d="M501 625c0,13 -1,25 -7,36 4,-2 6,-6 9,-10 4,-8 7,-17 7,-27 0,-4 0,-8 -2,-11 -2,-3 -8,-5 -9,0 -1,2 2,9 2,12z"/>
    <path class="fil0" d="M514 628c0,12 -1,25 -7,36 4,-2 6,-6 8,-10 5,-8 8,-18 8,-27 0,-4 0,-8 -2,-11 -2,-3 -8,-5 -9,0 -1,2 2,9 2,12z"/>
   </g>
   <g>
    <path class="fil0" d="M261 626c-2,14 -5,28 -12,39 4,-2 8,-6 11,-10 6,-9 10,-19 11,-29 1,-4 1,-9 -1,-12 -2,-4 -7,-7 -9,-2 -1,3 1,11 0,14z"/>
    <path class="fil0" d="M276 630c-2,14 -5,28 -12,39 4,-2 8,-6 11,-10 6,-8 10,-18 11,-29 1,-4 1,-8 -1,-12 -2,-4 -7,-7 -9,-2 -1,3 1,11 0,14z"/>
    <path class="fil0" d="M291 634c-2,13 -5,27 -13,38 5,-1 8,-5 11,-9 6,-9 10,-19 12,-30 0,-4 1,-8 -1,-12 -2,-4 -8,-6 -10,-1 -1,2 1,10 1,14z"/>
   </g>
   <path class="fil5" d="M830 364c-6,-11 -17,-18 -28,-20 -5,10 -5,23 1,34 5,11 16,19 27,21 5,-11 5,-24 0,-35z"/>
   <line class="fil3 str1" x1="806" y1="351" x2="792" y2= "327" />
  </g>
 </g>
</svg>
