<?xml version="1.0" encoding="UTF-8" ?>
<!DOCTYPE svg PUBLIC "-//W3C//DTD SVG 1.1//EN" "http://www.w3.org/Graphics/SVG/1.1/DTD/svg11.dtd">
<svg width="455pt" height="360pt" viewBox="0 0 455 360" version="1.1" xmlns="http://www.w3.org/2000/svg">
<g id="#231f20ff">
<path fill="#231f20" opacity="1.00" d=" M 212.40 5.51 C 219.77 3.60 227.44 5.03 234.90 5.61 C 242.51 5.94 248.95 10.56 256.43 11.65 C 255.45 10.29 254.48 8.94 253.53 7.57 C 260.34 9.70 266.36 13.72 271.84 18.20 C 276.97 22.56 279.61 29.02 284.20 33.84 C 289.97 36.92 296.67 37.42 302.85 39.28 C 307.11 40.53 310.28 43.78 313.20 46.96 C 310.23 45.93 307.25 44.86 304.31 43.79 C 306.95 45.73 310.16 47.19 312.15 49.91 C 315.13 53.77 316.46 58.52 318.07 63.04 C 314.58 56.41 307.56 53.08 300.69 51.06 C 304.05 54.13 307.88 56.88 310.09 60.98 C 314.12 67.78 318.80 74.79 326.34 78.05 C 324.80 79.07 323.25 80.07 321.70 81.06 C 324.07 84.63 325.26 88.76 325.99 92.94 C 324.63 92.29 323.28 91.63 321.93 90.96 C 325.93 95.19 327.14 100.97 326.90 106.63 C 325.29 105.93 323.65 105.27 322.02 104.63 C 324.33 108.14 327.06 111.56 328.08 115.73 C 329.07 119.30 328.59 123.02 328.17 126.64 C 327.54 126.26 326.30 125.52 325.68 125.14 C 325.39 130.64 326.28 136.17 328.90 141.05 C 327.59 141.01 326.27 140.96 324.96 140.92 C 323.99 142.78 321.95 144.57 322.80 146.87 C 323.50 150.31 325.02 153.65 324.64 157.25 C 324.22 165.42 324.87 173.90 321.96 181.71 C 320.27 186.76 318.62 191.84 317.68 197.09 C 316.49 204.12 313.89 210.79 311.45 217.44 C 310.28 220.71 307.71 224.09 303.97 224.30 C 301.43 224.05 299.42 222.25 297.21 221.14 C 296.16 234.41 294.38 248.06 288.00 259.96 C 286.31 262.85 285.88 266.37 286.46 269.63 C 287.48 272.33 289.52 274.47 291.30 276.69 C 297.92 284.37 304.92 291.74 312.20 298.80 C 314.87 301.50 318.57 302.62 321.99 304.05 C 327.16 306.17 332.25 308.47 337.37 310.70 C 351.79 317.27 366.73 322.60 381.43 328.51 C 393.12 332.90 404.52 338.13 416.56 341.53 C 429.90 346.45 442.61 352.94 455.00 359.88 L 455.00 360.00 L 275.31 360.00 C 279.74 347.16 283.45 334.07 286.56 320.85 C 289.36 308.18 291.93 295.26 291.34 282.21 C 289.87 280.94 288.41 279.67 286.95 278.41 C 287.40 286.70 287.07 295.22 284.21 303.10 C 279.78 314.67 275.37 326.31 269.42 337.21 C 265.46 344.34 261.20 351.59 254.83 356.85 C 252.80 358.57 250.28 359.61 247.67 360.00 L 0.00 360.00 L 0.00 337.12 C 6.05 334.94 12.37 333.62 18.44 331.50 C 22.79 329.68 26.57 326.71 30.98 324.97 C 44.51 319.24 58.79 315.52 73.06 312.10 C 79.16 310.55 85.50 309.82 91.38 307.45 C 101.44 303.46 111.52 299.49 121.63 295.63 C 123.91 294.79 126.11 293.64 127.80 291.86 C 135.34 284.09 142.74 276.17 150.38 268.50 C 150.56 267.16 150.74 265.82 150.93 264.48 C 146.05 259.29 143.18 252.59 141.31 245.80 C 139.45 237.38 140.07 228.63 138.19 220.21 C 136.78 221.03 135.43 221.98 133.88 222.53 C 129.05 222.16 125.76 217.54 125.20 213.02 C 124.50 207.03 125.28 200.89 123.78 194.98 C 122.88 190.58 119.90 187.04 118.42 182.86 C 115.89 175.94 116.03 168.40 116.73 161.17 C 115.16 159.82 113.59 158.46 112.01 157.12 C 112.69 150.90 114.78 144.37 112.41 138.28 C 111.53 141.15 110.97 144.10 110.28 147.02 C 108.90 138.88 109.17 130.29 111.81 122.43 C 109.52 124.13 107.19 125.77 104.85 127.40 C 107.66 122.29 108.50 116.53 108.54 110.78 C 107.67 110.76 105.93 110.74 105.06 110.72 C 106.19 109.20 107.31 107.69 108.43 106.16 C 106.32 106.72 104.21 107.28 102.09 107.80 C 104.00 101.46 108.56 96.54 111.75 90.88 C 109.50 92.34 107.38 93.99 105.35 95.74 C 105.45 93.21 105.50 90.68 105.54 88.15 C 106.90 86.72 108.27 85.28 109.63 83.83 C 109.49 83.42 109.22 82.60 109.09 82.19 C 111.38 78.70 113.86 75.21 114.92 71.11 C 121.22 64.46 127.84 58.11 134.28 51.60 C 133.53 51.33 132.04 50.79 131.29 50.52 C 133.57 48.31 135.96 46.19 138.08 43.82 C 136.40 43.57 134.71 43.33 133.03 43.11 C 134.14 41.98 135.26 40.85 136.37 39.71 C 134.12 38.89 131.87 38.06 129.62 37.25 C 139.27 35.88 148.43 31.90 155.99 25.76 C 155.53 24.80 155.06 23.84 154.60 22.88 C 161.03 22.55 167.64 22.27 173.63 19.66 C 171.21 16.62 167.46 17.85 164.26 18.59 C 169.45 14.29 176.46 15.17 182.71 14.38 C 182.58 13.94 182.32 13.07 182.19 12.63 C 192.59 12.00 202.51 8.54 212.40 5.51 M 257.21 31.21 C 254.91 29.09 252.47 27.11 249.96 25.25 C 250.64 28.87 253.73 30.81 257.21 31.21 M 203.36 29.05 C 206.65 31.87 211.14 30.54 214.99 29.94 C 211.11 29.65 207.25 28.97 203.36 29.05 M 176.96 41.97 C 172.06 43.18 166.50 43.56 162.59 47.10 C 175.76 44.42 189.38 41.22 200.69 33.68 C 192.63 36.01 185.39 40.87 176.96 41.97 M 220.13 43.18 C 225.10 43.23 231.03 42.21 234.07 37.84 C 229.30 39.04 223.65 39.32 220.13 43.18 M 251.64 37.41 C 252.81 40.53 254.32 43.76 257.37 45.47 C 256.30 42.27 253.86 39.84 251.64 37.41 M 263.78 44.14 C 265.55 42.26 266.81 39.95 267.12 37.35 C 265.42 39.28 264.25 41.62 263.78 44.14 M 282.84 40.25 C 283.92 42.42 285.24 44.47 286.81 46.32 C 286.72 43.64 285.56 41.10 282.84 40.25 M 272.20 48.40 C 272.76 49.71 274.49 51.02 275.96 50.66 C 275.79 50.21 275.44 49.31 275.27 48.86 C 274.62 48.19 272.56 46.81 272.20 48.40 M 289.75 73.23 C 289.75 71.62 289.75 70.02 289.76 68.42 C 289.29 68.63 288.37 69.05 287.91 69.26 C 286.18 68.62 284.45 67.98 282.71 67.38 C 284.97 69.43 287.35 71.34 289.75 73.23 M 294.77 67.04 C 296.29 70.41 297.89 73.75 299.52 77.08 C 299.94 75.43 300.37 73.77 300.81 72.12 C 302.73 73.47 304.68 74.79 306.66 76.07 C 306.49 75.08 306.16 73.10 305.99 72.11 C 307.04 72.37 309.16 72.88 310.21 73.14 C 308.15 71.81 306.07 70.51 304.00 69.19 L 303.99 71.59 C 302.82 70.79 301.66 69.99 300.51 69.19 C 299.97 69.48 298.90 70.06 298.36 70.36 C 297.16 69.24 295.98 68.13 294.77 67.04 M 236.25 84.64 C 236.55 82.62 236.69 80.58 236.27 78.57 C 234.40 81.91 231.81 84.81 228.38 86.58 C 230.14 84.48 231.91 82.23 231.69 79.31 C 229.24 80.53 226.92 81.99 224.72 83.60 C 225.59 81.54 226.43 79.47 227.27 77.39 C 220.31 81.10 213.50 85.13 206.19 88.12 C 204.93 88.53 203.59 89.30 202.24 88.84 C 197.44 87.56 193.51 84.30 189.68 81.27 C 183.26 81.23 176.59 80.88 170.50 83.30 C 166.13 84.92 162.30 87.76 159.24 91.25 C 158.72 90.35 158.22 89.45 157.70 88.56 C 153.59 91.41 149.88 94.98 147.53 99.44 C 142.73 108.15 142.50 118.56 143.97 128.17 C 144.80 132.34 145.18 136.89 148.14 140.21 C 149.02 144.73 145.80 148.80 144.48 152.95 C 144.23 156.12 145.81 159.28 148.71 160.69 C 156.38 157.12 166.33 154.94 173.68 160.41 C 183.84 161.24 194.10 161.33 204.25 160.49 C 205.72 164.41 206.93 168.95 210.44 171.56 C 214.37 173.33 218.89 173.10 223.11 173.28 C 223.12 172.45 223.15 170.79 223.16 169.96 C 222.58 167.68 220.01 167.07 218.20 166.06 C 218.15 165.37 218.07 164.00 218.02 163.32 C 224.42 163.05 231.24 163.68 237.09 160.56 C 239.79 160.34 242.40 161.30 244.99 161.94 C 247.48 160.40 249.97 158.59 252.95 158.16 C 260.61 157.05 268.83 155.83 276.11 159.24 C 278.91 158.19 281.69 157.09 284.53 156.14 C 286.50 145.75 285.30 134.98 282.00 124.98 C 281.60 123.43 280.77 121.85 281.18 120.21 C 282.43 113.28 284.48 106.26 283.52 99.16 C 282.26 94.68 281.49 89.97 279.12 85.89 C 276.77 88.80 274.88 92.05 272.64 95.04 C 272.30 94.94 271.63 94.75 271.29 94.65 C 268.79 90.89 272.17 85.62 269.11 81.94 C 266.34 79.85 262.67 79.29 260.05 76.94 C 258.63 75.61 258.19 73.63 257.46 71.91 C 256.53 73.43 255.60 74.93 254.68 76.45 C 254.34 74.92 254.00 73.40 253.66 71.88 C 248.32 76.73 242.53 81.07 236.25 84.64 M 304.70 84.35 C 305.85 87.26 307.62 90.36 311.02 90.85 C 309.20 88.42 307.02 86.28 304.70 84.35 M 123.11 98.09 C 126.06 95.83 127.65 92.38 129.20 89.12 C 126.83 91.85 124.43 94.68 123.11 98.09 M 312.75 97.89 C 311.97 97.55 310.40 96.86 309.62 96.52 C 310.31 98.41 310.99 100.30 311.65 102.21 C 310.28 101.35 308.92 100.48 307.58 99.60 C 308.38 103.51 308.74 107.49 309.43 111.42 C 309.90 109.15 310.31 106.88 310.73 104.60 C 311.73 103.99 312.74 103.38 313.76 102.78 C 313.74 99.85 313.80 96.92 313.83 93.99 C 313.56 94.97 313.02 96.92 312.75 97.89 M 137.43 145.55 C 135.40 155.13 132.69 164.77 132.59 174.62 C 134.35 171.28 134.67 167.47 135.26 163.82 C 136.11 157.74 137.05 151.67 137.43 145.55 M 290.41 174.47 C 291.93 172.63 293.34 170.58 293.55 168.13 C 294.38 161.68 293.94 155.12 293.51 148.66 C 292.52 157.24 294.16 166.38 290.41 174.47 M 170.48 168.27 C 170.55 168.77 170.68 169.77 170.75 170.27 C 171.94 170.34 173.13 170.40 174.32 170.45 C 173.54 168.94 172.08 168.40 170.48 168.27 M 256.11 169.63 C 257.57 169.97 259.05 170.11 260.54 170.22 C 259.93 167.66 257.45 167.46 256.11 169.63 M 156.96 175.98 C 157.40 182.34 163.83 186.97 169.97 186.76 C 176.67 186.45 183.23 184.19 188.79 180.45 C 185.63 183.72 182.65 187.54 178.23 189.14 C 173.10 191.07 167.28 191.37 162.02 189.84 C 158.70 186.11 155.37 181.43 150.00 180.81 C 146.95 180.70 142.35 180.52 141.66 184.43 C 140.74 190.92 141.33 197.87 143.96 203.93 C 145.37 207.73 149.46 209.14 151.89 212.10 C 156.62 217.42 161.24 222.84 165.67 228.40 C 170.52 236.31 170.05 246.22 168.39 255.01 C 169.02 255.84 169.65 256.68 170.29 257.53 C 172.38 256.15 174.47 254.78 176.62 253.50 C 176.67 254.25 176.79 255.74 176.84 256.49 C 178.49 254.87 180.13 253.24 181.86 251.71 C 180.70 254.39 179.44 257.04 178.26 259.72 C 180.92 257.03 183.38 254.16 185.94 251.37 C 186.91 252.28 187.90 253.20 188.88 254.12 C 189.93 252.71 190.82 251.21 191.30 249.52 C 192.96 249.64 195.34 250.12 196.02 248.05 C 198.28 243.48 195.91 238.39 193.31 234.53 C 191.90 232.64 192.51 230.15 192.43 227.97 C 193.90 227.30 195.35 226.53 196.94 226.17 C 199.46 226.01 200.28 228.77 201.68 230.31 C 204.77 234.68 210.56 237.48 215.86 235.85 C 220.70 234.00 224.42 230.10 227.40 225.97 C 228.97 227.42 230.47 229.73 232.90 229.48 C 234.31 228.89 235.58 228.04 236.90 227.27 C 236.30 224.35 236.87 220.71 234.61 218.43 C 233.22 216.79 230.89 217.62 229.06 217.36 C 227.18 213.20 226.14 208.74 224.68 204.43 C 225.20 204.30 226.23 204.04 226.75 203.92 C 227.93 206.84 229.31 209.67 230.72 212.49 C 232.47 212.21 234.21 211.94 235.96 211.69 C 238.59 222.94 236.82 234.61 235.88 245.97 C 236.80 246.30 237.72 246.63 238.64 246.96 C 239.36 248.66 240.07 250.35 240.83 252.05 C 240.93 251.17 241.13 249.40 241.23 248.52 C 242.09 249.81 242.84 251.32 244.42 251.85 C 245.55 254.48 247.51 256.56 249.72 258.33 C 250.35 255.84 250.95 253.34 251.83 250.92 C 254.67 253.70 257.40 256.68 260.90 258.66 C 260.68 257.68 260.24 255.73 260.03 254.75 C 263.59 257.55 265.41 261.66 267.05 265.75 C 266.96 263.11 266.87 260.41 265.88 257.93 C 262.57 249.37 260.65 240.01 262.13 230.85 C 262.37 228.11 264.43 226.10 266.18 224.18 C 269.71 220.67 273.44 217.27 277.80 214.81 C 284.96 210.50 290.45 203.26 292.04 195.00 C 292.46 192.85 293.00 190.29 291.50 188.41 C 288.73 184.84 283.85 184.22 279.65 183.89 C 276.31 187.55 271.99 190.58 266.98 191.27 C 259.53 192.49 252.26 189.54 245.85 186.04 C 253.15 187.31 261.02 189.13 268.13 186.09 C 271.94 184.53 273.98 180.59 274.41 176.67 C 272.34 174.04 269.97 171.64 267.12 169.86 C 266.59 172.15 266.49 174.82 264.69 176.57 C 261.61 177.79 258.16 177.14 255.02 176.55 C 252.03 175.88 250.94 172.79 250.20 170.19 C 247.72 172.89 245.13 175.62 241.88 177.40 C 238.09 178.09 234.26 176.92 230.52 176.39 C 230.50 178.76 230.50 181.14 230.49 183.51 C 230.02 183.51 229.07 183.50 228.60 183.50 C 228.20 183.00 227.38 182.00 226.98 181.50 C 226.07 182.93 225.18 184.38 224.32 185.84 C 224.04 182.23 223.79 178.62 223.69 175.00 C 217.80 175.00 211.92 175.00 206.03 175.00 C 205.70 177.78 205.37 180.56 205.06 183.35 C 203.63 182.77 202.18 182.23 200.73 181.72 C 201.33 179.83 201.05 177.97 200.20 176.21 C 196.69 177.86 192.79 178.09 189.03 177.34 C 186.79 174.60 183.81 172.67 180.78 170.92 C 179.11 174.33 176.38 178.56 171.94 177.73 C 167.34 177.96 164.11 174.15 163.11 170.01 C 160.45 171.09 156.78 172.50 156.96 175.98 M 168.11 170.93 C 168.24 173.53 169.73 175.58 171.93 176.88 C 174.14 175.96 177.28 175.14 176.28 172.03 C 174.91 172.71 173.59 173.53 172.13 174.03 C 170.56 173.33 169.42 171.99 168.11 170.93 M 254.76 170.94 C 255.50 173.07 256.09 176.35 259.03 176.26 C 262.16 176.93 262.06 173.19 262.19 171.12 C 260.98 172.06 259.75 172.97 258.48 173.83 C 257.23 172.87 255.99 171.91 254.76 170.94 M 312.03 182.03 C 313.03 185.20 314.24 188.62 313.07 191.92 C 311.74 196.78 307.76 200.08 304.27 203.40 C 302.07 206.51 300.32 210.24 300.25 214.11 C 300.35 217.21 305.38 218.75 306.78 215.69 C 308.86 211.67 308.49 206.91 308.37 202.53 C 311.95 198.84 315.71 194.56 315.97 189.15 C 315.98 186.21 313.88 184.03 312.03 182.03 M 136.29 189.61 C 136.56 196.80 136.67 204.22 139.09 211.08 C 139.69 213.62 142.14 214.77 144.14 216.05 C 137.58 208.94 137.53 198.65 136.29 189.61 M 310.73 211.20 C 311.75 207.49 313.22 203.95 315.07 200.58 C 312.83 203.66 309.26 207.04 310.73 211.20 M 131.07 209.01 C 128.92 211.29 127.97 214.85 128.98 217.85 C 130.69 220.66 134.36 218.63 136.80 218.03 C 136.67 215.69 136.98 213.19 135.91 211.02 C 135.07 209.32 132.88 208.12 131.07 209.01 M 219.70 248.49 C 223.76 252.09 223.47 257.82 222.64 262.69 C 221.42 265.54 217.94 265.33 215.37 265.08 C 214.59 266.11 213.81 267.13 213.01 268.14 C 211.05 266.24 210.00 263.72 208.69 261.38 C 207.13 260.83 205.43 261.04 203.80 260.89 C 203.12 263.06 202.45 265.23 201.78 267.40 C 201.44 267.09 200.77 266.45 200.43 266.14 C 199.11 267.49 197.78 268.85 196.47 270.22 C 199.53 270.87 202.79 271.53 205.64 269.83 C 211.28 274.71 220.13 274.38 225.95 270.00 C 230.54 266.08 237.04 268.08 242.46 268.44 C 241.54 266.61 240.61 264.78 239.72 262.94 C 241.76 261.76 243.98 262.01 245.92 263.26 C 245.55 261.99 245.21 260.72 244.87 259.45 C 244.04 259.77 242.40 260.42 241.58 260.74 C 241.02 259.04 240.44 257.34 239.89 255.64 C 239.03 257.29 238.11 258.92 237.16 260.52 C 233.83 260.75 232.29 257.82 230.38 255.70 C 230.60 257.29 230.84 258.88 231.09 260.48 C 229.72 260.81 228.37 261.17 227.03 261.58 C 226.51 256.50 225.08 250.46 219.70 248.49 M 207.43 252.33 C 206.43 253.08 206.06 254.02 206.30 255.16 C 207.94 256.17 209.87 251.16 207.43 252.33 M 226.55 251.83 C 226.13 252.99 226.66 254.86 228.03 255.11 C 229.81 254.46 228.15 250.78 226.55 251.83 M 146.88 276.06 C 146.33 279.00 146.25 282.02 146.31 285.01 C 146.98 303.19 149.17 321.29 152.47 339.17 C 153.47 343.81 154.28 348.55 156.14 352.95 C 156.59 353.77 157.20 355.73 158.47 354.74 C 163.13 351.49 168.79 350.49 174.30 349.74 C 165.97 342.11 162.62 330.88 159.40 320.42 C 155.00 304.26 152.07 287.67 150.57 271.00 C 149.39 272.72 147.73 274.13 146.88 276.06 M 185.32 274.60 C 182.47 276.08 180.17 278.51 178.11 280.95 C 176.03 283.16 176.93 286.36 176.72 289.07 C 178.64 287.86 180.55 286.64 182.45 285.39 C 182.97 285.87 183.50 286.34 184.03 286.83 C 186.96 285.03 190.53 284.79 193.81 283.97 C 193.87 284.60 193.99 285.88 194.06 286.51 C 196.53 286.34 199.02 286.40 201.51 286.31 C 201.85 285.68 202.52 284.41 202.86 283.77 C 203.20 284.78 203.55 285.80 203.89 286.81 C 205.48 286.32 206.86 285.48 207.70 283.99 C 209.94 284.15 212.18 284.30 214.42 284.49 C 214.82 284.91 215.60 285.74 216.00 286.15 C 216.26 285.68 216.80 284.73 217.07 284.25 C 219.31 284.25 221.56 284.24 223.81 284.23 C 224.08 284.72 224.62 285.71 224.89 286.21 C 225.61 286.04 227.06 285.70 227.78 285.52 C 228.92 286.36 230.06 287.20 231.21 288.03 C 231.58 287.64 232.33 286.87 232.71 286.48 C 233.49 286.73 235.06 287.22 235.85 287.47 C 235.81 286.82 235.74 285.52 235.71 284.87 C 236.40 285.22 237.78 285.92 238.47 286.27 C 240.26 285.07 241.93 285.99 243.52 286.93 C 243.93 285.82 244.35 284.72 244.77 283.63 C 247.96 282.75 250.96 281.28 254.23 280.66 C 252.06 277.93 249.86 275.17 246.96 273.18 C 226.42 274.08 205.86 274.03 185.32 274.60 M 216.33 297.70 C 215.71 300.03 215.06 302.36 214.20 304.61 C 213.72 303.11 213.50 301.52 213.18 299.99 C 211.80 300.73 210.43 301.47 209.07 302.24 C 208.64 301.64 207.79 300.46 207.36 299.86 C 207.06 300.28 206.44 301.11 206.14 301.52 C 205.58 301.60 204.48 301.76 203.92 301.83 C 204.63 304.09 203.00 305.44 201.44 306.69 C 199.98 304.28 200.00 298.99 195.94 300.12 C 194.06 301.43 194.10 304.01 193.50 306.02 C 192.71 310.60 191.54 316.13 195.01 319.94 C 196.39 318.33 197.48 316.50 198.41 314.61 C 200.99 316.36 203.89 318.18 207.16 317.47 C 206.99 315.89 206.82 314.33 206.61 312.76 C 207.68 313.74 208.76 314.68 209.85 315.66 C 210.47 314.06 211.08 312.45 211.70 310.85 C 212.12 313.50 212.59 316.15 213.13 318.78 C 214.44 315.98 215.69 313.16 216.87 310.32 C 218.47 313.71 219.48 319.06 223.99 319.45 C 228.49 319.44 228.85 313.92 230.60 310.89 C 230.94 312.89 231.28 314.89 231.64 316.89 C 232.25 314.84 232.82 312.79 233.40 310.74 C 234.55 311.93 235.69 313.12 236.83 314.32 C 236.96 311.83 237.24 309.34 237.90 306.93 C 238.55 306.71 239.84 306.28 240.48 306.06 C 238.66 303.79 236.61 301.71 234.67 299.54 C 233.79 300.62 232.91 301.73 232.03 302.82 C 229.42 301.09 226.21 301.68 223.27 301.46 C 221.92 300.34 220.55 299.25 219.17 298.19 C 219.29 299.37 219.52 301.74 219.64 302.93 C 218.53 301.17 217.44 299.44 216.33 297.70 M 242.82 304.68 C 242.78 305.74 242.74 306.81 242.71 307.89 C 243.83 308.23 244.96 308.58 246.09 308.92 C 245.00 307.50 243.92 306.08 242.82 304.68 M 178.19 312.02 C 180.07 311.73 181.95 311.39 183.82 311.04 C 182.78 313.29 181.85 315.64 181.88 318.18 C 183.81 316.57 185.01 314.35 186.10 312.14 L 185.71 311.17 C 186.04 311.62 186.69 312.52 187.02 312.97 C 186.06 315.61 184.85 318.28 185.47 321.17 C 190.10 318.10 189.37 312.36 189.28 307.59 C 188.92 308.60 188.53 309.57 188.15 310.59 C 185.43 311.15 188.13 306.99 187.87 306.01 C 184.41 307.50 180.23 308.52 178.19 312.02 Z" />
<path fill="#231f20" opacity="1.00" d=" M 223.94 195.35 C 225.25 194.42 226.67 196.72 225.65 197.72 C 224.32 198.60 222.88 196.37 223.94 195.35 Z" />
<path fill="#231f20" opacity="1.00" d=" M 204.60 195.46 C 205.36 198.26 205.66 201.52 203.60 203.87 C 203.62 201.04 204.07 198.23 204.60 195.46 Z" />
<path fill="#231f20" opacity="1.00" d=" M 193.03 222.99 C 192.79 217.31 192.47 211.62 193.24 205.97 C 193.95 207.77 194.24 209.97 196.02 211.11 C 198.33 211.81 200.43 210.31 202.47 209.48 C 201.52 212.31 200.67 215.17 200.26 218.13 C 196.56 215.89 194.13 220.06 193.03 222.99 Z" />
</g>
<g id="#ffffffff">
<path fill="#ffffff" opacity="1.00" d=" M 257.21 31.21 C 253.73 30.81 250.64 28.87 249.96 25.25 C 252.47 27.11 254.91 29.09 257.21 31.21 Z" />
<path fill="#ffffff" opacity="1.00" d=" M 203.36 29.05 C 207.25 28.97 211.11 29.65 214.99 29.94 C 211.14 30.54 206.65 31.87 203.36 29.05 Z" />
<path fill="#ffffff" opacity="1.00" d=" M 176.96 41.97 C 185.39 40.87 192.63 36.01 200.69 33.68 C 189.38 41.22 175.76 44.42 162.59 47.10 C 166.50 43.56 172.06 43.18 176.96 41.97 Z" />
<path fill="#ffffff" opacity="1.00" d=" M 220.13 43.18 C 223.65 39.32 229.30 39.04 234.07 37.84 C 231.03 42.21 225.10 43.23 220.13 43.18 Z" />
<path fill="#ffffff" opacity="1.00" d=" M 251.64 37.41 C 253.86 39.84 256.30 42.27 257.37 45.47 C 254.32 43.76 252.81 40.53 251.64 37.41 Z" />
<path fill="#ffffff" opacity="1.00" d=" M 263.78 44.14 C 264.25 41.62 265.42 39.28 267.12 37.35 C 266.81 39.95 265.55 42.26 263.78 44.14 Z" />
<path fill="#ffffff" opacity="1.00" d=" M 282.84 40.25 C 285.56 41.10 286.72 43.64 286.81 46.32 C 285.24 44.47 283.92 42.42 282.84 40.25 Z" />
<path fill="#ffffff" opacity="1.00" d=" M 272.20 48.40 C 272.56 46.81 274.62 48.19 275.27 48.86 C 275.44 49.31 275.79 50.21 275.96 50.66 C 274.49 51.02 272.76 49.71 272.20 48.40 Z" />
<path fill="#ffffff" opacity="1.00" d=" M 289.75 73.23 C 287.35 71.34 284.97 69.43 282.71 67.38 C 284.45 67.98 286.18 68.62 287.91 69.26 C 288.37 69.05 289.29 68.63 289.76 68.42 C 289.75 70.02 289.75 71.62 289.75 73.23 Z" />
<path fill="#ffffff" opacity="1.00" d=" M 294.77 67.04 C 295.98 68.13 297.16 69.24 298.36 70.36 C 298.90 70.06 299.97 69.48 300.51 69.19 C 301.66 69.99 302.82 70.79 303.99 71.59 L 304.00 69.19 C 306.07 70.51 308.15 71.81 310.21 73.14 C 309.16 72.88 307.04 72.37 305.99 72.11 C 306.16 73.10 306.49 75.08 306.66 76.07 C 304.68 74.79 302.73 73.47 300.81 72.12 C 300.37 73.77 299.94 75.43 299.52 77.08 C 297.89 73.75 296.29 70.41 294.77 67.04 Z" />
<path fill="#ffffff" opacity="1.00" d=" M 304.70 84.35 C 307.02 86.28 309.20 88.42 311.02 90.85 C 307.62 90.36 305.85 87.26 304.70 84.35 Z" />
<path fill="#ffffff" opacity="1.00" d=" M 123.11 98.09 C 124.43 94.68 126.83 91.85 129.20 89.12 C 127.65 92.38 126.06 95.83 123.11 98.09 Z" />
<path fill="#ffffff" opacity="1.00" d=" M 312.75 97.89 C 313.02 96.92 313.56 94.97 313.83 93.99 C 313.80 96.92 313.74 99.85 313.76 102.78 C 312.74 103.38 311.73 103.99 310.73 104.60 C 310.31 106.88 309.90 109.15 309.43 111.42 C 308.74 107.49 308.38 103.51 307.58 99.60 C 308.92 100.48 310.28 101.35 311.65 102.21 C 310.99 100.30 310.31 98.41 309.62 96.52 C 310.40 96.86 311.97 97.55 312.75 97.89 Z" />
<path fill="#ffffff" opacity="1.00" d=" M 137.43 145.55 C 137.05 151.67 136.11 157.74 135.26 163.82 C 134.67 167.47 134.35 171.28 132.59 174.62 C 132.69 164.77 135.40 155.13 137.43 145.55 Z" />
<path fill="#ffffff" opacity="1.00" d=" M 290.41 174.47 C 294.16 166.38 292.52 157.24 293.51 148.66 C 293.94 155.12 294.38 161.68 293.55 168.13 C 293.34 170.58 291.93 172.63 290.41 174.47 Z" />
<path fill="#ffffff" opacity="1.00" d=" M 170.48 168.27 C 172.08 168.40 173.54 168.94 174.32 170.45 C 173.13 170.40 171.94 170.34 170.75 170.27 C 170.68 169.77 170.55 168.77 170.48 168.27 Z" />
<path fill="#ffffff" opacity="1.00" d=" M 256.11 169.63 C 257.45 167.46 259.93 167.66 260.54 170.22 C 259.05 170.11 257.57 169.97 256.11 169.63 Z" />
<path fill="#ffffff" opacity="1.00" d=" M 168.11 170.93 C 169.42 171.99 170.56 173.33 172.13 174.03 C 173.59 173.53 174.91 172.71 176.28 172.03 C 177.28 175.14 174.14 175.96 171.93 176.88 C 169.73 175.58 168.24 173.53 168.11 170.93 Z" />
<path fill="#ffffff" opacity="1.00" d=" M 254.76 170.94 C 255.99 171.91 257.23 172.87 258.48 173.83 C 259.75 172.97 260.98 172.06 262.19 171.12 C 262.06 173.19 262.16 176.93 259.03 176.26 C 256.09 176.35 255.50 173.07 254.76 170.94 Z" />
<path fill="#ffffff" opacity="1.00" d=" M 312.03 182.03 C 313.88 184.03 315.98 186.21 315.97 189.15 C 315.71 194.56 311.95 198.84 308.37 202.53 C 308.49 206.91 308.86 211.67 306.78 215.69 C 305.38 218.75 300.35 217.21 300.25 214.11 C 300.32 210.24 302.07 206.51 304.27 203.40 C 307.76 200.08 311.74 196.78 313.07 191.92 C 314.24 188.62 313.03 185.20 312.03 182.03 Z" />
<path fill="#ffffff" opacity="1.00" d=" M 136.29 189.61 C 137.53 198.65 137.58 208.94 144.14 216.05 C 142.14 214.77 139.69 213.62 139.09 211.08 C 136.67 204.22 136.56 196.80 136.29 189.61 Z" />
<path fill="#ffffff" opacity="1.00" d=" M 310.73 211.20 C 309.26 207.04 312.83 203.66 315.07 200.58 C 313.22 203.95 311.75 207.49 310.73 211.20 Z" />
<path fill="#ffffff" opacity="1.00" d=" M 131.07 209.01 C 132.88 208.12 135.07 209.32 135.91 211.02 C 136.98 213.19 136.67 215.69 136.80 218.03 C 134.36 218.63 130.69 220.66 128.98 217.85 C 127.97 214.85 128.92 211.29 131.07 209.01 Z" />
<path fill="#ffffff" opacity="1.00" d=" M 207.43 252.33 C 209.87 251.16 207.94 256.17 206.30 255.16 C 206.06 254.02 206.43 253.08 207.43 252.33 Z" />
<path fill="#ffffff" opacity="1.00" d=" M 226.55 251.83 C 228.15 250.78 229.81 254.46 228.03 255.11 C 226.66 254.86 226.13 252.99 226.55 251.83 Z" />
<path fill="#ffffff" opacity="1.00" d=" M 242.82 304.68 C 243.92 306.08 245.00 307.50 246.09 308.92 C 244.96 308.58 243.83 308.23 242.71 307.89 C 242.74 306.81 242.78 305.74 242.82 304.68 Z" />
<path fill="#ffffff" opacity="1.00" d=" M 178.19 312.02 C 180.23 308.52 184.41 307.50 187.87 306.01 C 188.13 306.99 185.43 311.15 188.15 310.59 C 188.53 309.57 188.92 308.60 189.28 307.59 C 189.37 312.36 190.10 318.10 185.47 321.17 C 184.85 318.28 186.06 315.61 187.02 312.97 C 186.69 312.52 186.04 311.62 185.71 311.17 L 186.10 312.14 C 185.01 314.35 183.81 316.57 181.88 318.18 C 181.85 315.64 182.78 313.29 183.82 311.04 C 181.95 311.39 180.07 311.73 178.19 312.02 Z" />
</g>
</svg>
