<?xml version="1.0" encoding="UTF-8"?>
<!DOCTYPE svg PUBLIC "-//W3C//DTD SVG 1.1//EN" "http://www.w3.org/Graphics/SVG/1.1/DTD/svg11.dtd">
<!-- Creator: CorelDRAW X7 -->
<svg xmlns="http://www.w3.org/2000/svg" xml:space="preserve" width="8.4666mm" height="8.4666mm" version="1.1" style="shape-rendering:geometricPrecision; text-rendering:geometricPrecision; image-rendering:optimizeQuality; fill-rule:evenodd; clip-rule:evenodd"
viewBox="0 0 847 847"
 xmlns:xlink="http://www.w3.org/1999/xlink">
 <defs>
  <style type="text/css">
   <![CDATA[
    .fil1 {fill:#3DAC26;fill-rule:nonzero}
    .fil4 {fill:#6DBC13;fill-rule:nonzero}
    .fil6 {fill:#A3D8D8;fill-rule:nonzero}
    .fil8 {fill:#B1A1C1;fill-rule:nonzero}
    .fil5 {fill:#CA6942;fill-rule:nonzero}
    .fil10 {fill:#CFCDC6;fill-rule:nonzero}
    .fil9 {fill:#FF7526;fill-rule:nonzero}
    .fil0 {fill:#FFC46B;fill-rule:nonzero}
    .fil11 {fill:#FFDD00;fill-rule:nonzero}
    .fil2 {fill:white;fill-rule:nonzero}
    .fil7 {fill:white;fill-rule:nonzero;fill-opacity:0.101961}
    .fil3 {fill:#484D4D;fill-rule:nonzero;fill-opacity:0.200000}
   ]]>
  </style>
 </defs>
 <g id="Layer_x0020_1">
  <metadata id="CorelCorpID_0Corel-Layer"/>
  <g id="_497979936">
   <polygon class="fil0" points="6,7 837,7 837,838 6,838 "/>
   <g>
    <g>
     <polygon class="fil1" points="269,512 325,435 351,506 377,435 433,512 502,705 351,705 350,705 199,705 "/>
     <polygon class="fil2" points="269,512 350,285 350,284 351,284 351,284 351,285 433,512 377,435 351,505 351,507 351,506 350,507 350,505 325,435 "/>
     <polygon class="fil3" points="351,284 351,284 351,285 433,512 502,705 351,705 351,705 "/>
    </g>
    <g>
     <polygon class="fil4" points="490,556 535,497 556,551 577,497 622,556 678,705 556,705 555,705 433,705 "/>
     <polygon class="fil2" points="490,556 555,381 555,380 556,380 556,380 556,381 622,556 577,497 556,551 556,552 556,551 555,552 555,551 535,497 "/>
     <polygon class="fil3" points="556,380 556,380 556,381 622,556 678,705 556,705 556,705 "/>
    </g>
    <g>
     <polygon class="fil4" points="107,590 151,544 171,586 192,544 236,590 291,705 172,705 171,705 52,705 "/>
     <polygon class="fil2" points="107,590 171,454 171,453 171,454 172,453 172,454 236,590 192,544 172,586 172,587 171,586 171,587 171,586 151,544 "/>
     <polygon class="fil3" points="171,454 172,453 172,454 236,590 291,705 172,705 171,705 "/>
    </g>
    <g>
     <polygon class="fil1" points="649,605 683,565 699,602 714,565 748,605 790,705 699,705 699,705 607,705 "/>
     <polygon class="fil2" points="649,605 699,487 699,487 699,487 699,487 699,487 748,605 714,565 699,602 699,602 699,602 699,602 699,602 683,565 "/>
     <polygon class="fil3" points="699,487 699,487 699,487 748,605 790,705 699,705 699,705 "/>
    </g>
   </g>
   <path class="fil5" d="M801 739l-760 0c-10,0 -17,-8 -17,-17 0,-9 7,-17 17,-17l760 0c10,0 17,8 17,17 0,9 -7,17 -17,17z"/>
   <g>
    <g>
     <g>
      <path class="fil6" d="M765 706c18,0 33,15 33,33l-65 0c0,-18 14,-33 32,-33z"/>
      <path class="fil7" d="M765 706c18,0 33,15 33,33l-33 0 0 -33z"/>
     </g>
     <g>
      <path class="fil6" d="M718 716c13,0 23,10 23,23l-46 0c0,-13 10,-23 23,-23z"/>
      <path class="fil7" d="M718 716c13,0 23,10 23,23l-23 0 0 -23z"/>
     </g>
     <g>
      <path class="fil8" d="M744 716c13,0 23,10 23,23l-46 0c0,-13 11,-23 23,-23z"/>
      <path class="fil7" d="M744 716c13,0 23,10 23,23l-23 0 0 -23z"/>
     </g>
    </g>
    <g>
     <g>
      <g>
       <path class="fil9" d="M711 669c0,0 -1,0 -1,0l-24 -21c-1,-1 -1,-2 0,-3 1,-1 2,-1 3,0l23 21c1,0 1,2 1,2 -1,1 -1,1 -2,1z"/>
      </g>
      <g>
       <path class="fil9" d="M713 674c-1,0 -2,-1 -2,-1 0,-1 0,-2 1,-3l32 -13c1,0 2,0 2,1 1,1 0,2 -1,3l-31 13c-1,0 -1,0 -1,0z"/>
      </g>
      <g>
       <path class="fil8" d="M703 647c0,10 -9,18 -19,18 -10,0 -18,-8 -18,-18 0,-10 9,-18 19,-18 10,0 18,8 18,18z"/>
      </g>
      <g>
       <path class="fil9" d="M711 739c0,0 0,0 0,0 -2,0 -4,-1 -4,-3l1 -120c0,-3 2,-4 4,-4 0,0 0,0 0,0 2,0 4,1 4,4l-1 120c0,2 -2,3 -4,3z"/>
      </g>
      <g>
       <path class="fil6" d="M743 617c0,18 -14,31 -32,31 -17,0 -31,-14 -31,-31 0,-18 15,-32 32,-31 17,0 31,14 31,31z"/>
      </g>
      <g>
       <path class="fil8" d="M767 651c0,14 -11,24 -24,24 -14,0 -24,-11 -24,-24 0,-13 11,-24 24,-24 13,0 24,11 24,24z"/>
      </g>
     </g>
     <path class="fil7" d="M711 586c-17,0 -31,14 -31,31 0,4 1,8 3,12 -10,1 -17,8 -17,18 0,10 8,18 18,18 6,0 11,-2 15,-6l8 7 0 70c0,2 2,3 4,3 0,0 0,0 0,0 0,0 0,0 0,0l0 -153zm-4 75l0 0 -6 -6c1,-2 2,-5 2,-8 0,0 0,0 0,0 1,0 3,1 5,1l-1 13z"/>
    </g>
    <g>
     <g>
      <g>
       <path class="fil9" d="M636 656c-1,0 -1,0 -1,0l-23 -20c-1,-1 -1,-2 0,-3 1,0 2,-1 3,0l22 20c1,1 1,2 0,3 0,0 -1,0 -1,0z"/>
      </g>
      <g>
       <path class="fil9" d="M638 661c-1,0 -2,-1 -2,-2 -1,0 0,-2 1,-2l30 -13c0,0 2,0 2,1 0,1 0,2 -1,3l-30 13c0,0 0,0 0,0z"/>
      </g>
      <g>
       <path class="fil6" d="M628 635c0,10 -8,18 -18,18 -9,0 -17,-8 -17,-18 0,-9 8,-17 17,-17 10,0 18,8 18,17z"/>
      </g>
      <g>
       <path class="fil9" d="M636 724c-2,0 -4,-2 -4,-4l0 -115c0,-2 2,-4 4,-4 2,0 4,2 4,4l0 115c0,2 -2,4 -4,4z"/>
      </g>
      <g>
       <path class="fil8" d="M666 607c0,16 -14,29 -30,29 -17,0 -30,-13 -30,-29 0,-17 13,-30 30,-30 16,0 30,13 30,30z"/>
      </g>
      <g>
       <path class="fil6" d="M689 639c0,12 -11,23 -23,23 -13,0 -23,-11 -23,-23 0,-13 10,-23 23,-23 12,0 23,10 23,23z"/>
      </g>
     </g>
     <path class="fil7" d="M636 577c0,0 0,0 0,0 -17,0 -30,13 -30,30 0,4 1,8 2,11 -8,1 -15,8 -15,17 0,10 8,18 17,18 6,0 11,-3 14,-7l8 7 0 67c0,2 2,4 4,4 0,0 0,0 0,0l0 -147zm-4 71l0 0 -6 -5c1,-2 2,-5 2,-8 0,0 0,0 0,0 1,1 3,1 4,1l0 12z"/>
    </g>
    <g>
     <g>
      <g>
       <path class="fil9" d="M464 667c-1,0 -2,-1 -2,-2 -1,-1 0,-2 1,-2l26 -11c1,-1 2,0 3,1 0,1 0,2 -1,2l-27 11c0,1 0,1 0,1z"/>
      </g>
      <g>
       <path class="fil6" d="M505 653c0,8 -7,15 -15,15 -9,0 -16,-7 -16,-15 0,-9 7,-16 16,-16 8,0 15,7 15,16z"/>
      </g>
      <g>
       <path class="fil9" d="M464 730c-3,0 -4,-2 -4,-4l0 -93c0,-2 1,-4 4,-4 2,0 3,2 3,4l0 93c0,2 -1,4 -3,4z"/>
      </g>
      <g>
       <path class="fil8" d="M493 629c0,16 -13,29 -29,29 -17,0 -30,-13 -30,-29 0,-16 13,-30 30,-30 16,0 29,14 29,30z"/>
      </g>
      <g>
       <path class="fil9" d="M464 678c-1,0 -1,0 -2,0l-20 -18c-1,0 -1,-1 0,-2 1,-1 2,-1 3,0l20 17c1,1 1,2 0,3 0,0 -1,0 -1,0z"/>
      </g>
      <g>
       <path class="fil6" d="M457 655c0,11 -9,20 -20,20 -11,0 -20,-9 -20,-20 0,-11 9,-20 20,-20 11,0 20,9 20,20z"/>
      </g>
     </g>
     <path class="fil7" d="M464 599c0,0 0,0 0,0 -17,0 -30,14 -30,30 0,2 1,4 1,6 -10,1 -18,10 -18,20 0,11 9,20 20,20 6,0 11,-2 15,-6l8 7 0 50c0,2 1,4 4,4 0,0 0,0 0,0l0 -131zm-4 71l0 0 -6 -4c2,-3 3,-6 3,-9 1,0 2,0 3,0l0 13z"/>
    </g>
    <g>
     <g>
      <g>
       <path class="fil9" d="M567 671c-1,0 -2,-1 -2,-1 -1,-1 0,-2 1,-3l31 -13c1,-1 2,0 3,1 0,1 0,2 -1,2l-32 14c0,0 0,0 0,0z"/>
      </g>
      <g>
       <path class="fil8" d="M616 655c0,10 -8,18 -18,18 -10,0 -18,-8 -18,-18 0,-10 8,-19 18,-19 10,0 18,9 18,19z"/>
      </g>
      <g>
       <path class="fil9" d="M567 744c-3,0 -4,-2 -4,-4l0 -109c0,-2 1,-4 4,-4 2,0 4,2 4,4l0 109c0,2 -2,4 -4,4z"/>
      </g>
      <g>
       <path class="fil6" d="M598 626c0,17 -14,31 -31,31 -18,0 -32,-14 -32,-31 0,-17 14,-31 32,-31 17,0 31,14 31,31z"/>
      </g>
      <g>
       <path class="fil9" d="M567 685c-1,0 -1,0 -2,-1l-23 -20c-1,-1 -1,-2 -1,-3 1,-1 2,-1 3,0l24 21c1,0 1,1 0,2 0,1 -1,1 -1,1z"/>
      </g>
      <g>
       <path class="fil8" d="M559 657c0,14 -10,24 -24,24 -13,0 -24,-10 -24,-24 0,-13 11,-24 24,-24 14,0 24,11 24,24z"/>
      </g>
     </g>
     <path class="fil7" d="M567 595c-18,0 -32,14 -32,31 0,3 1,5 1,7 0,0 0,0 -1,0 -13,0 -24,11 -24,24 0,14 11,24 24,24 7,0 14,-3 18,-7l10 8 0 58c0,2 1,4 4,4l0 -149zm-4 82l0 0 -8 -6c3,-4 4,-9 4,-14 0,0 0,0 0,-1 1,1 3,1 4,1l0 20z"/>
    </g>
    <g>
     <g>
      <path class="fil6" d="M446 718c-15,0 -27,12 -27,27l54 0c0,-15 -13,-27 -27,-27z"/>
      <path class="fil7" d="M446 718c-15,0 -27,12 -27,27l27 0 0 -27z"/>
     </g>
     <g>
      <path class="fil6" d="M480 726c-10,0 -19,9 -19,19l38 0c0,-10 -8,-19 -19,-19z"/>
      <path class="fil7" d="M480 726c-10,0 -19,9 -19,19l19 0 0 -19z"/>
     </g>
     <g>
      <path class="fil8" d="M458 726c-10,0 -19,9 -19,19l38 0c0,-10 -8,-19 -19,-19z"/>
      <path class="fil7" d="M458 726c-10,0 -19,9 -19,19l19 0 0 -19z"/>
     </g>
    </g>
    <g>
     <g>
      <path class="fil6" d="M617 709c-16,0 -29,13 -29,29l59 0c0,-16 -13,-29 -30,-29z"/>
      <path class="fil7" d="M617 709c-16,0 -29,13 -29,29l29 0 0 -29z"/>
     </g>
     <g>
      <path class="fil6" d="M655 718c-11,0 -21,9 -21,20l42 0c0,-11 -9,-20 -21,-20z"/>
      <path class="fil7" d="M655 718c-11,0 -21,9 -21,20l21 0 0 -20z"/>
     </g>
     <g>
      <path class="fil8" d="M631 718c-12,0 -21,9 -21,20l42 0c0,-11 -9,-20 -21,-20z"/>
      <path class="fil7" d="M631 718c-12,0 -21,9 -21,20l21 0 0 -20z"/>
     </g>
    </g>
    <path class="fil10" d="M524 736c-10,0 -19,8 -19,19l39 0c0,-11 -9,-19 -20,-19z"/>
    <path class="fil10" d="M758 737c-5,0 -9,4 -9,10l18 0c0,-6 -4,-10 -9,-10z"/>
    <path class="fil10" d="M602 758c-6,0 -10,4 -10,10l19 0c0,-6 -4,-10 -9,-10z"/>
    <path class="fil10" d="M541 722c-4,0 -8,3 -8,8l15 0c0,-5 -3,-8 -7,-8z"/>
    <path class="fil10" d="M697 748c-4,0 -7,3 -7,8l15 0c0,-5 -4,-8 -8,-8z"/>
    <g>
     <g>
      <g>
       <path class="fil6" d="M388 706c18,0 32,15 32,33l-65 0c0,-18 15,-33 33,-33z"/>
       <path class="fil7" d="M388 706c18,0 32,15 32,33l-32 0 0 -33z"/>
      </g>
      <g>
       <path class="fil6" d="M340 716c13,0 23,10 23,23l-46 0c0,-13 11,-23 23,-23z"/>
       <path class="fil7" d="M340 716c13,0 23,10 23,23l-23 0 0 -23z"/>
      </g>
      <g>
       <path class="fil8" d="M367 716c13,0 23,10 23,23l-46 0c0,-13 10,-23 23,-23z"/>
       <path class="fil7" d="M367 716c13,0 23,10 23,23l-23 0 0 -23z"/>
      </g>
     </g>
     <g>
      <g>
       <g>
        <path class="fil9" d="M334 669c-1,0 -1,0 -2,0l-23 -21c-1,-1 -1,-2 0,-3 0,-1 1,-1 2,0l24 21c1,0 1,2 0,2 0,1 -1,1 -1,1z"/>
       </g>
       <g>
        <path class="fil9" d="M335 674c0,0 -1,-1 -2,-1 0,-1 1,-2 2,-3l31 -13c1,0 2,0 3,1 0,1 -1,2 -2,3l-31 13c0,0 0,0 -1,0z"/>
       </g>
       <g>
        <path class="fil8" d="M325 647c0,10 -8,18 -18,18 -10,0 -18,-8 -18,-18 0,-10 8,-18 18,-18 10,0 18,8 18,18z"/>
       </g>
       <g>
        <path class="fil9" d="M333 739c0,0 0,0 0,0 -2,0 -4,-1 -4,-3l1 -120c0,-3 2,-4 4,-4 0,0 0,0 0,0 2,0 4,1 4,4l-1 120c0,2 -2,3 -4,3z"/>
       </g>
       <g>
        <path class="fil6" d="M365 617c0,18 -14,31 -31,31 -18,0 -31,-14 -31,-31 0,-18 14,-32 31,-31 18,0 32,14 31,31z"/>
       </g>
       <g>
        <path class="fil8" d="M389 651c0,14 -11,24 -24,24 -13,0 -24,-11 -24,-24 0,-13 11,-24 24,-24 14,0 24,11 24,24z"/>
       </g>
      </g>
      <path class="fil7" d="M333 586c-17,0 -30,14 -30,31 0,4 0,8 2,12 -9,1 -16,8 -16,18 0,10 8,18 18,18 6,0 11,-2 14,-6l9 7 -1 70c0,2 2,3 4,3 0,0 0,0 0,0 0,0 0,0 0,0l0 -153zm-3 75l0 0 -7 -6c1,-2 2,-5 2,-8 0,0 0,0 0,0 2,0 3,1 5,1l0 13z"/>
     </g>
     <g>
      <g>
       <g>
        <path class="fil9" d="M258 656c0,0 -1,0 -1,0l-23 -20c0,-1 0,-2 0,-3 1,0 2,-1 3,0l23 20c0,1 0,2 0,3 -1,0 -1,0 -2,0z"/>
       </g>
       <g>
        <path class="fil9" d="M260 661c-1,0 -2,-1 -2,-2 0,0 0,-2 1,-2l30 -13c1,0 2,0 2,1 1,1 0,2 -1,3l-29 13c-1,0 -1,0 -1,0z"/>
       </g>
       <g>
        <path class="fil6" d="M250 635c0,10 -8,18 -17,18 -10,0 -18,-8 -18,-18 0,-9 8,-17 18,-17 9,0 17,8 17,17z"/>
       </g>
       <g>
        <path class="fil9" d="M258 724c-2,0 -4,-2 -4,-4l0 -115c0,-2 2,-4 4,-4 2,0 4,2 4,4l0 115c0,2 -2,4 -4,4z"/>
       </g>
       <g>
        <path class="fil8" d="M288 607c0,16 -13,29 -30,29 -16,0 -29,-13 -29,-29 0,-17 13,-30 29,-30 17,0 30,13 30,30z"/>
       </g>
       <g>
        <path class="fil6" d="M311 639c0,12 -10,23 -23,23 -12,0 -23,-11 -23,-23 0,-13 11,-23 23,-23 13,0 23,10 23,23z"/>
       </g>
      </g>
      <path class="fil7" d="M259 577c0,0 -1,0 -1,0 -16,0 -29,13 -29,30 0,4 0,8 2,11 -9,1 -16,8 -16,17 0,10 8,18 18,18 5,0 10,-3 13,-7l8 7 0 67c0,2 2,4 4,4 0,0 1,0 1,0l0 -147zm-5 71l0 0 -6 -5c2,-2 2,-5 2,-8 0,0 0,0 0,0 2,1 3,1 4,1l0 12z"/>
     </g>
     <g>
      <g>
       <g>
        <path class="fil9" d="M86 667c-1,0 -2,-1 -2,-2 0,-1 0,-2 1,-2l26 -11c1,-1 3,0 3,1 0,1 0,2 -1,2l-26 11c-1,1 -1,1 -1,1z"/>
       </g>
       <g>
        <path class="fil6" d="M128 653c0,8 -7,15 -16,15 -8,0 -15,-7 -15,-15 0,-9 7,-16 15,-16 9,0 16,7 16,16z"/>
       </g>
       <g>
        <path class="fil9" d="M86 730c-2,0 -4,-2 -4,-4l0 -93c0,-2 2,-4 4,-4 2,0 4,2 4,4l0 93c0,2 -2,4 -4,4z"/>
       </g>
       <g>
        <path class="fil8" d="M115 629c0,16 -13,29 -29,29 -16,0 -29,-13 -29,-29 0,-16 13,-30 29,-30 16,0 29,14 29,30z"/>
       </g>
       <g>
        <path class="fil9" d="M86 678c0,0 -1,0 -1,0l-20 -18c-1,0 -1,-1 0,-2 0,-1 1,-1 2,0l20 17c1,1 1,2 0,3 0,0 0,0 -1,0z"/>
       </g>
       <g>
        <path class="fil6" d="M80 655c0,11 -9,20 -20,20 -11,0 -21,-9 -21,-20 0,-11 10,-20 21,-20 11,0 20,9 20,20z"/>
       </g>
      </g>
      <path class="fil7" d="M86 599c0,0 0,0 0,0 -16,0 -29,14 -29,30 0,2 0,4 1,6 -11,1 -19,10 -19,20 0,11 10,20 21,20 5,0 11,-2 14,-6l8 7 0 50c0,2 2,4 4,4 0,0 0,0 0,0l0 -131zm-4 71l0 0 -5 -4c1,-3 2,-6 3,-9 0,0 1,0 2,0l0 13z"/>
     </g>
     <g>
      <g>
       <g>
        <path class="fil9" d="M189 671c-1,0 -1,-1 -2,-1 0,-1 0,-2 1,-3l32 -13c1,-1 2,0 2,1 1,1 0,2 -1,2l-31 14c0,0 -1,0 -1,0z"/>
       </g>
       <g>
        <path class="fil8" d="M239 655c0,10 -8,18 -19,18 -10,0 -18,-8 -18,-18 0,-10 8,-19 18,-19 11,0 19,9 19,19z"/>
       </g>
       <g>
        <path class="fil9" d="M189 744c-2,0 -4,-2 -4,-4l0 -109c0,-2 2,-4 4,-4 2,0 4,2 4,4l0 109c0,2 -2,4 -4,4z"/>
       </g>
       <g>
        <path class="fil6" d="M220 626c0,17 -14,31 -31,31 -17,0 -31,-14 -31,-31 0,-17 14,-31 31,-31 17,0 31,14 31,31z"/>
       </g>
       <g>
        <path class="fil9" d="M189 685c0,0 -1,0 -1,-1l-24 -20c-1,-1 -1,-2 0,-3 0,-1 2,-1 3,0l23 21c1,0 1,1 1,2 -1,1 -1,1 -2,1z"/>
       </g>
       <g>
        <path class="fil8" d="M182 657c0,14 -11,24 -24,24 -14,0 -24,-10 -24,-24 0,-13 10,-24 24,-24 13,0 24,11 24,24z"/>
       </g>
      </g>
      <path class="fil7" d="M189 595c-17,0 -31,14 -31,31 0,3 0,5 1,7 -1,0 -1,0 -1,0 -14,0 -24,11 -24,24 0,14 10,24 24,24 7,0 13,-3 17,-7l10 8 0 58c0,2 2,4 4,4l0 -149zm-4 82l0 0 -7 -6c2,-4 4,-9 4,-14 0,0 0,0 0,-1 1,1 2,1 3,1l0 20z"/>
     </g>
     <g>
      <g>
       <path class="fil6" d="M68 718c-15,0 -27,12 -27,27l54 0c0,-15 -12,-27 -27,-27z"/>
       <path class="fil7" d="M68 718c-15,0 -27,12 -27,27l27 0 0 -27z"/>
      </g>
      <g>
       <path class="fil6" d="M103 726c-11,0 -19,9 -19,19l38 0c0,-10 -9,-19 -19,-19z"/>
       <path class="fil7" d="M103 726c-11,0 -19,9 -19,19l19 0 0 -19z"/>
      </g>
      <g>
       <path class="fil8" d="M81 726c-11,0 -20,9 -20,19l39 0c0,-10 -9,-19 -19,-19z"/>
       <path class="fil7" d="M81 726c-11,0 -20,9 -20,19l20 0 0 -19z"/>
      </g>
     </g>
     <g>
      <g>
       <path class="fil6" d="M240 709c-16,0 -30,13 -30,29l59 0c0,-16 -13,-29 -29,-29z"/>
       <path class="fil7" d="M240 709c-16,0 -30,13 -30,29l30 0 0 -29z"/>
      </g>
      <g>
       <path class="fil6" d="M278 718c-12,0 -21,9 -21,20l41 0c0,-11 -9,-20 -20,-20z"/>
       <path class="fil7" d="M278 718c-12,0 -21,9 -21,20l21 0 0 -20z"/>
      </g>
      <g>
       <path class="fil8" d="M253 718c-11,0 -20,9 -20,20l41 0c0,-11 -9,-20 -21,-20z"/>
       <path class="fil7" d="M253 718c-11,0 -20,9 -20,20l20 0 0 -20z"/>
      </g>
     </g>
     <path class="fil10" d="M147 736c-11,0 -19,8 -19,19l38 0c0,-11 -9,-19 -19,-19z"/>
     <path class="fil10" d="M380 737c-5,0 -9,4 -9,10l18 0c0,-6 -4,-10 -9,-10z"/>
     <path class="fil10" d="M224 758c-5,0 -9,4 -9,10l18 0c0,-6 -4,-10 -9,-10z"/>
     <path class="fil10" d="M163 722c-4,0 -7,3 -7,8l15 0c0,-5 -4,-8 -8,-8z"/>
     <path class="fil10" d="M319 748c-4,0 -7,3 -7,8l15 0c0,-5 -3,-8 -8,-8z"/>
    </g>
   </g>
   <g>
    <path class="fil2" d="M772 255c0,-1 0,-2 0,-2 0,-6 -4,-10 -9,-10 -4,0 -7,2 -9,6 -1,-7 -7,-12 -14,-12 -8,0 -14,6 -14,14 0,2 0,4 1,6 -4,2 -7,7 -7,12 0,8 6,15 14,15l34 0c8,0 15,-7 15,-15 0,-7 -5,-12 -11,-14z"/>
    <path class="fil2" d="M609 145c0,-1 0,-3 0,-4 0,-10 -7,-17 -16,-17 -7,0 -13,4 -15,10 -3,-12 -13,-21 -25,-21 -14,0 -25,12 -25,25 0,4 1,7 2,10 -7,4 -12,13 -12,22 0,14 11,25 25,25l60 0c14,0 25,-11 25,-25 0,-12 -8,-22 -19,-25z"/>
    <path class="fil2" d="M454 215c1,-2 1,-3 1,-5 0,-8 -7,-15 -16,-15 -6,0 -11,3 -14,9 -2,-11 -11,-19 -23,-19 -13,0 -23,10 -23,23 0,3 0,6 2,9 -8,4 -12,12 -12,21 0,13 10,24 24,24l56 0c13,0 24,-11 24,-24 0,-11 -8,-21 -19,-23z"/>
    <path class="fil11" d="M284 121c0,20 -15,35 -35,35 -19,0 -35,-15 -35,-35 0,-19 16,-35 35,-35 20,0 35,16 35,35z"/>
    <path class="fil2" d="M167 214c0,-1 0,-2 0,-3 0,-8 -6,-13 -13,-13 -5,0 -10,3 -12,7 -2,-9 -10,-16 -19,-16 -11,0 -20,9 -20,20 0,3 0,5 1,8 -6,3 -10,10 -10,17 0,11 9,20 21,20l47 0c11,0 20,-9 20,-20 0,-10 -6,-18 -15,-20z"/>
   </g>
   <path class="fil6" d="M238 325l0 2c2,0 2,-2 0,-2z"/>
   <path class="fil6" d="M518 324c-3,-3 -8,-4 -13,-2 -2,1 -4,2 -5,4 -2,3 -2,6 -1,9 0,0 0,1 0,1 1,3 4,7 7,7 1,0 1,0 1,0 3,1 5,1 7,0 3,-1 5,-3 6,-5 2,-4 2,-11 -2,-14z"/>
   <path class="fil6" d="M706 417c-3,-2 -6,-3 -9,-3 -3,0 -6,1 -8,3 -2,2 -4,6 -4,9 0,3 1,6 4,8 2,3 5,4 8,4 3,0 6,-1 9,-4 2,-2 3,-5 3,-8 0,-3 -1,-6 -3,-9z"/>
   <path class="fil6" d="M184 343c-5,0 -9,4 -9,9 0,5 4,9 9,9 5,0 10,-4 9,-9 0,-5 -4,-9 -9,-9z"/>
   <path class="fil6" d="M252 466c-5,0 -10,4 -10,9 0,1 1,2 1,3 0,2 1,4 2,6 2,2 4,3 7,3 5,0 9,-4 9,-9 0,-1 0,-2 0,-3 0,-5 -4,-9 -9,-9z"/>
   <path class="fil6" d="M289 265c-5,0 -9,4 -9,9 0,4 4,8 9,8 4,0 9,-4 9,-8 -1,-5 -4,-9 -9,-9z"/>
   <path class="fil6" d="M656 273c-1,0 -1,0 -1,-1 -2,-1 -4,-2 -6,-3 -3,0 -5,0 -8,2 -4,2 -6,8 -5,12 2,5 5,8 10,9 5,0 11,-3 12,-9 0,0 0,0 0,0 1,-4 0,-8 -2,-10z"/>
   <path class="fil6" d="M488 470c-3,0 -6,1 -7,3 -2,1 -4,4 -3,7 0,5 4,10 10,10 2,0 5,-1 7,-3 2,-2 3,-5 3,-7 0,-6 -4,-10 -10,-10z"/>
   <path class="fil6" d="M414 317c0,0 -1,0 -1,0 -6,2 -8,10 -4,15 5,4 13,2 14,-4 1,0 1,-1 1,-1 1,-6 -4,-11 -10,-10z"/>
   <path class="fil6" d="M639 448c-5,0 -9,4 -9,9l0 2c0,5 4,9 9,9 5,-1 9,-4 9,-9l0 -2c0,-5 -4,-9 -9,-9z"/>
   <path class="fil6" d="M610 360c-3,-3 -9,-4 -12,0 -1,1 -1,2 -2,2 -3,4 -4,10 0,13 3,3 9,3 12,0 1,-1 2,-2 2,-3 4,-3 4,-9 0,-12z"/>
   <path class="fil6" d="M557 241c0,0 -1,-1 -2,-1 -1,-1 -2,-1 -4,-1 -2,0 -3,0 -5,1 -2,2 -4,5 -4,8 0,3 2,6 4,8 2,1 3,1 5,1 2,0 3,0 4,-1 1,0 2,-1 2,-1 3,-1 4,-4 4,-7 0,-3 -1,-6 -4,-7z"/>
   <path class="fil6" d="M127 446c-4,0 -8,4 -8,8 0,5 4,9 8,9 5,0 9,-4 9,-9 0,-4 -4,-8 -9,-8z"/>
   <path class="fil6" d="M114 297c-4,0 -8,3 -8,7 0,4 3,8 8,8 4,0 8,-4 7,-8 0,-4 -3,-7 -7,-7z"/>
   <path class="fil6" d="M783 505c-2,-2 -4,-3 -7,-3 -3,0 -6,1 -8,3 -1,2 -3,5 -3,7 1,3 1,6 3,8 3,2 5,3 8,3 3,0 5,-1 7,-3 2,-2 3,-5 3,-8 0,-2 -1,-5 -3,-7z"/>
   <path class="fil6" d="M762 346c-5,0 -9,4 -9,9 0,5 4,9 9,9 5,0 9,-4 9,-9 0,-5 -4,-9 -9,-9z"/>
   <path class="fil6" d="M484 398c-2,-1 -4,-2 -7,-1 -1,0 -2,1 -3,1 -2,1 -3,3 -3,5 -1,3 0,6 2,7 3,1 5,2 8,0 2,-1 4,-2 5,-4 1,-3 1,-6 -2,-8z"/>
   <path class="fil6" d="M284 394c0,-2 -2,-5 -4,-5 -3,0 -5,2 -5,5 0,1 0,2 0,2 0,3 2,5 5,5 2,0 5,-2 4,-5 0,0 0,-1 0,-2z"/>
  </g>
 </g>
</svg>
