<?xml version="1.0" encoding="UTF-8"?>
<!DOCTYPE svg PUBLIC "-//W3C//DTD SVG 1.1//EN" "http://www.w3.org/Graphics/SVG/1.1/DTD/svg11.dtd">
<!-- Creator: CorelDRAW X7 -->
<svg xmlns="http://www.w3.org/2000/svg" xml:space="preserve" width="8.4666mm" height="8.4666mm" version="1.1" style="shape-rendering:geometricPrecision; text-rendering:geometricPrecision; image-rendering:optimizeQuality; fill-rule:evenodd; clip-rule:evenodd"
viewBox="0 0 847 847"
 xmlns:xlink="http://www.w3.org/1999/xlink">
 <defs>
  <style type="text/css">
   <![CDATA[
    .fil0 {fill:#444766}
    .fil1 {fill:#EEEEEE}
    .fil2 {fill:white}
   ]]>
  </style>
 </defs>
 <g id="Layer_x0020_1">
  <metadata id="CorelCorpID_0Corel-Layer"/>
  <path class="fil0" d="M599 652c110,0 200,76 200,169l-399 0c0,-93 89,-169 199,-169z"/>
  <path class="fil1" d="M666 769c57,0 103,-46 103,-103 0,-57 -46,-103 -103,-103 -57,0 -103,46 -103,103 0,57 46,103 103,103z"/>
  <path class="fil0" d="M679 770c54,0 97,-44 97,-97 0,-53 -43,-97 -97,-97 -53,0 -97,44 -97,97 0,53 44,97 97,97z"/>
  <path class="fil2" d="M749 781c8,0 14,-6 14,-14 0,-7 -6,-14 -14,-14 -7,0 -13,7 -13,14 0,8 6,14 13,14z"/>
  <path class="fil0" d="M400 821c-212,-13 -363,-86 -341,-321l0 0c10,227 117,290 338,299 1,0 13,0 14,0l10 22 -21 0z"/>
 </g>
</svg>
