<?xml version="1.0" encoding="UTF-8"?>
<!DOCTYPE svg PUBLIC "-//W3C//DTD SVG 1.1//EN" "http://www.w3.org/Graphics/SVG/1.1/DTD/svg11.dtd">
<!-- Creator: CorelDRAW X7 -->
<svg xmlns="http://www.w3.org/2000/svg" xml:space="preserve" width="8.4666mm" height="8.4666mm" version="1.1" style="shape-rendering:geometricPrecision; text-rendering:geometricPrecision; image-rendering:optimizeQuality; fill-rule:evenodd; clip-rule:evenodd"
viewBox="0 0 847 847"
 xmlns:xlink="http://www.w3.org/1999/xlink">
 <defs>
  <style type="text/css">
   <![CDATA[
    .fil0 {fill:#2f567d;fill-rule:nonzero}
   ]]>
  </style>
 </defs>
 <g id="Layer_x0020_1">
  <metadata id="CorelCorpID_0Corel-Layer"/>
  <path class="fil0" d="M602 123c-5,8 -25,57 -26,94 0,0 -24,-21 -48,19 0,0 46,-19 59,66 10,73 -22,96 -22,96 0,0 -59,-82 -119,-75 0,0 31,28 19,45 0,0 -21,3 -45,34 0,0 -20,-1 -32,-27 0,0 6,80 48,119l6 5c0,-1 6,3 5,3 -32,9 -66,8 -96,-3 -21,-7 -42,-18 -57,-33 -11,-12 -20,-34 6,-35 0,0 -23,-38 -45,40 0,0 -251,29 -240,212 0,0 140,-135 246,-5 0,0 128,-76 185,31 0,0 113,-118 239,-23 0,0 -52,-166 88,-234 0,0 -97,-80 3,-186 0,0 -107,-129 66,-240 -5,-1 -12,-1 -18,-1 -79,0 -179,30 -222,98z"/>
 </g>
</svg>
