<?xml version="1.0" encoding="UTF-8"?>
<!DOCTYPE svg PUBLIC "-//W3C//DTD SVG 1.1//EN" "http://www.w3.org/Graphics/SVG/1.1/DTD/svg11.dtd">
<!-- Creator: CorelDRAW X7 -->
<svg xmlns="http://www.w3.org/2000/svg" xml:space="preserve" width="8.4666mm" height="8.4666mm" version="1.1" style="shape-rendering:geometricPrecision; text-rendering:geometricPrecision; image-rendering:optimizeQuality; fill-rule:evenodd; clip-rule:evenodd"
viewBox="0 0 847 847"
 xmlns:xlink="http://www.w3.org/1999/xlink">
 <defs>
  <style type="text/css">
   <![CDATA[
    .fil6 {fill:#333333}
    .fil9 {fill:#934127}
    .fil2 {fill:#EDEDED}
    .fil7 {fill:#F1BA8A}
    .fil8 {fill:#F26868}
    .fil0 {fill:#F47CC3}
    .fil3 {fill:#F5B887}
    .fil4 {fill:#FFCC99}
    .fil10 {fill:#FFE200}
    .fil5 {fill:white}
    .fil1 {fill:url(#id0)}
   ]]>
  </style>
  <radialGradient id="id0" gradientUnits="userSpaceOnUse" gradientTransform="matrix(1.295 0.448924 -0.445156 1.33317 184 -477)" cx="506.81" cy="749.32" r="853.86" fx="506.81" fy="749.32">
   <stop offset="0" style="stop-opacity:1; stop-color:white"/>
   <stop offset="0.0196078" style="stop-opacity:1; stop-color:white"/>
   <stop offset="0.341176" style="stop-opacity:1; stop-color:#FAFAFA"/>
   <stop offset="0.490196" style="stop-opacity:1; stop-color:#FCDBB9"/>
   <stop offset="1" style="stop-opacity:1; stop-color:#FCD9B5"/>
  </radialGradient>
 </defs>
 <g id="Layer_x0020_1">
  <metadata id="CorelCorpID_0Corel-Layer"/>
  <path class="fil0" d="M699 840l0 -168c0,-103 -96,-215 -214,-215l-77 0c-119,0 -215,112 -215,215l0 168 506 0z"/>
  <path class="fil1" d="M688 613c30,8 23,87 14,108 -7,18 -26,27 -43,33 -24,9 -26,18 -64,35 -34,18 -45,24 -68,33 -28,11 -50,10 -76,-8 -17,-13 -27,-33 -27,-54 0,-3 0,-7 1,-10 1,-14 2,-21 13,-36 7,-9 21,-10 27,-9 -14,2 -25,10 -24,-8 1,-10 31,-25 47,-23 37,5 51,-6 93,-13 20,-3 40,-8 59,-15 10,-4 -1,-1 9,-5m39 -28l0 0 0 0z"/>
  <path class="fil2" d="M312 473c0,0 190,91 240,332 -9,3 -18,8 -26,12l149 -64c0,0 61,-61 -337,-284 0,0 -8,-18 -26,4z"/>
  <path class="fil3" d="M381 387l0 77c0,0 44,45 64,45 20,0 64,-45 64,-45l0 -76 -128 -1z"/>
  <path class="fil4" d="M680 210c-2,0 -4,-1 -6,-1 1,-8 -28,-17 -30,-30 -13,-111 -83,-138 -194,-138 -111,0 -199,38 -199,149 0,9 -35,11 -33,20 -1,0 -2,0 -3,0 -9,3 -25,20 -19,42 5,16 22,25 36,26 3,11 6,22 10,33 1,3 2,6 3,9 2,4 4,8 6,12l2 3c2,4 4,8 6,12 1,2 2,4 4,6 27,43 69,75 118,91 48,15 17,10 64,10 49,0 64,-9 64,-9 50,-14 93,-46 122,-89l2 -3c3,-6 7,-12 10,-18l0 0c1,-3 2,-5 4,-7 1,-4 3,-8 4,-12 5,-12 9,-25 12,-38 14,-1 31,-10 36,-26 7,-22 -10,-40 -19,-42z"/>
  <path class="fil5" d="M250 221l0 0c0,0 0,0 0,0z"/>
  <circle class="fil6" cx="539" cy="262" r="12"/>
  <circle class="fil6" cx="357" cy="262" r="12"/>
  <g>
   <path class="fil7" d="M422 299c7,7 16,11 26,11 10,0 19,-4 25,-10l-51 -1zm0 0l0 0 0 0z"/>
  </g>
  <path class="fil8" d="M401 378c0,0 49,-43 93,0 0,0 -33,-28 -93,0z"/>
  <path class="fil9" d="M673 207c-14,-105 -109,-190 -223,-190 -115,0 -209,85 -223,190l446 0z"/>
  <path class="fil9" d="M233 197c0,0 -19,136 -2,212 0,0 -4,-171 27,-225l-25 13z"/>
  <path class="fil9" d="M666 187c0,0 19,136 2,212 0,0 4,-171 -27,-225l25 13z"/>
  <path class="fil9" d="M271 97c0,0 -123,-126 -217,50 0,0 34,-24 61,-20 0,0 -40,19 -45,60 0,0 25,-27 46,-28 -10,11 -16,25 -16,40 0,8 1,16 5,23 3,7 31,-87 141,-93l25 -32z"/>
  <ellipse class="fil10" transform="matrix(0.0653178 -0.139375 0.139375 0.0653178 255.983 108.974)" rx="173" ry="123"/>
  <path class="fil9" d="M625 97c0,0 123,-125 216,50 0,0 -34,-24 -61,-20 0,0 40,19 45,60 0,0 -25,-27 -46,-28 11,11 17,25 17,40 0,8 -2,16 -5,23 -4,7 -31,-87 -142,-93l-24 -32z"/>
  <ellipse class="fil10" transform="matrix(0.139375 -0.0653178 0.0653178 0.139375 639.538 108.868)" rx="123" ry="173"/>
 </g>
</svg>
