<?xml version="1.0" encoding="UTF-8"?>
<!DOCTYPE svg PUBLIC "-//W3C//DTD SVG 1.1//EN" "http://www.w3.org/Graphics/SVG/1.1/DTD/svg11.dtd">
<!-- Creator: CorelDRAW X7 -->
<svg xmlns="http://www.w3.org/2000/svg" xml:space="preserve" width="4.2332mm" height="4.2332mm" version="1.1" style="shape-rendering:geometricPrecision; text-rendering:geometricPrecision; image-rendering:optimizeQuality; fill-rule:evenodd; clip-rule:evenodd"
viewBox="0 0 423 423"
 xmlns:xlink="http://www.w3.org/1999/xlink">
 <defs>
  <style type="text/css">
   <![CDATA[
    .fil40 {fill:#670021}
    .fil34 {fill:#79002C}
    .fil36 {fill:#820031}
    .fil27 {fill:#94003B}
    .fil38 {fill:#9D0040}
    .fil51 {fill:#A70044}
    .fil28 {fill:#B00049}
    .fil29 {fill:#BD2E5A}
    .fil45 {fill:#C40452}
    .fil26 {fill:#C4064E}
    .fil52 {fill:#CA1E58}
    .fil30 {fill:#CA4B6C}
    .fil53 {fill:#CE2B5C}
    .fil54 {fill:#D23963}
    .fil43 {fill:#D595A4}
    .fil39 {fill:#D70A5A}
    .fil31 {fill:#D76580}
    .fil55 {fill:#D94569}
    .fil37 {fill:#DA5167}
    .fil67 {fill:#DC3968}
    .fil47 {fill:#DC7993}
    .fil56 {fill:#DD516F}
    .fil73 {fill:#E07F9A}
    .fil68 {fill:#E15478}
    .fil57 {fill:#E45C77}
    .fil32 {fill:#E47D96}
    .fil74 {fill:#E485A2}
    .fil69 {fill:#E76C89}
    .fil58 {fill:#E8647C}
    .fil75 {fill:#E98BAB}
    .fil70 {fill:#EC829B}
    .fil50 {fill:#ED1064}
    .fil76 {fill:#ED91B4}
    .fil66 {fill:#EE3F6A}
    .fil24 {fill:#F05A66}
    .fil23 {fill:#F1616A}
    .fil22 {fill:#F1686F}
    .fil59 {fill:#F17185}
    .fil21 {fill:#F26F73}
    .fil20 {fill:#F27377}
    .fil60 {fill:#F2778A}
    .fil19 {fill:#F2797C}
    .fil18 {fill:#F37E7F}
    .fil61 {fill:#F37F8F}
    .fil41 {fill:#F3858D}
    .fil62 {fill:#F38594}
    .fil17 {fill:#F48484}
    .fil16 {fill:#F48A89}
    .fil63 {fill:#F48A99}
    .fil64 {fill:#F4929E}
    .fil33 {fill:#F498B1}
    .fil77 {fill:#F499C1}
    .fil15 {fill:#F5908E}
    .fil14 {fill:#F59593}
    .fil65 {fill:#F598A3}
    .fil13 {fill:#F59998}
    .fil12 {fill:#F69F9D}
    .fil11 {fill:#F7A5A3}
    .fil10 {fill:#F7AAA8}
    .fil9 {fill:#F8B0AE}
    .fil8 {fill:#F8B6B3}
    .fil7 {fill:#F9BDB9}
    .fil6 {fill:#F9C1BE}
    .fil5 {fill:#FAC7C4}
    .fil4 {fill:#FACDCB}
    .fil3 {fill:#FBD3D1}
    .fil25 {fill:#FDF2F7}
    .fil0 {fill:white}
    .fil1 {fill:#231F20;fill-rule:nonzero}
    .fil46 {fill:#79002C;fill-rule:nonzero}
    .fil48 {fill:#8B0036;fill-rule:nonzero}
    .fil44 {fill:#B00049;fill-rule:nonzero}
    .fil71 {fill:#BA014E;fill-rule:nonzero}
    .fil35 {fill:#C4005A;fill-rule:nonzero}
    .fil42 {fill:#C40452;fill-rule:nonzero}
    .fil72 {fill:#C6495E;fill-rule:nonzero}
    .fil49 {fill:#F05A72;fill-rule:nonzero}
    .fil2 {fill:white;fill-rule:nonzero}
   ]]>
  </style>
 </defs>
 <g id="Layer_x0020_1">
  <metadata id="CorelCorpID_0Corel-Layer"/>
  <g id="_265258728">
   <g>
    <path class="fil0" d="M10 404l0 -7c11,0 12,-17 0,-18l0 -5c11,0 12,-18 0,-18l0 -6c11,0 12,-18 0,-18l0 -6c11,0 12,-17 0,-18l0 -5c11,0 12,-18 0,-18l0 -6c11,0 12,-18 0,-18l0 -6c11,0 12,-17 0,-18l0 -5c11,0 12,-18 0,-18l0 -3 404 0 0 3c-10,0 -12,17 0,18l0 5c-10,0 -12,18 0,18l0 6c-10,0 -12,18 0,18l0 6c-10,0 -12,17 0,18l0 5c-10,0 -12,18 0,18l0 6c-10,0 -12,18 0,18l0 6c-10,0 -12,18 0,18l0 5c-10,0 -12,18 0,18l0 7c-7,1 -9,8 -9,10l-6 0c0,-12 -18,-11 -18,0l-6 0c0,-12 -18,-11 -18,0l-5 0c-1,-12 -18,-11 -18,0l-6 0c0,-12 -18,-11 -18,0l-6 0c0,-12 -18,-11 -18,0l-5 0c-1,-12 -18,-11 -18,0l-6 0c0,-12 -18,-11 -18,0l-6 0c0,-12 -18,-11 -18,0l-5 0c-1,-12 -18,-11 -18,0l-6 0c0,-12 -18,-11 -18,0l-6 0c0,-12 -18,-11 -18,0l-5 0c0,-12 -18,-11 -18,0l-6 0c0,-12 -18,-11 -18,0l-6 0c0,-12 -18,-11 -18,0l-5 0c-1,-12 -18,-11 -18,0l-6 0c0,-12 -18,-11 -18,0l-6 0c0,-5 -4,-9 -10,-10z"/>
    <path class="fil1" d="M406 414l-7 0 0 0c0,-6 -5,-8 -9,-8 -4,0 -9,3 -9,8l0 0 -6 0 0 0c0,-6 -4,-8 -8,-8 -5,0 -9,3 -9,8l0 0 -7 0 0 0c0,-6 -4,-8 -8,-8 -4,0 -9,3 -9,8l0 0 -6 0 0 0c0,-6 -5,-8 -9,-8 -4,0 -9,3 -9,8l0 0 -6 0 0 0c0,-6 -4,-8 -8,-8 -5,0 -9,3 -9,8l0 0 -7 0 0 0c0,-6 -4,-8 -8,-8 -4,0 -9,3 -9,8l0 0 -6 0 0 0c0,-6 -5,-8 -9,-8 -4,0 -9,3 -9,8l0 0 -6 0 0 0c0,-6 -4,-8 -8,-8 -5,0 -9,3 -9,8l0 0 -6 0 0 0c-1,-6 -5,-8 -9,-8 -4,0 -9,3 -9,8l0 0 -6 0 0 0c0,-6 -5,-8 -9,-8 -4,0 -9,3 -9,8l0 0 -6 0 0 0c0,-6 -4,-8 -8,-8 -5,0 -9,3 -9,8l0 0 -7 0 0 0c0,-6 -4,-8 -8,-8 -4,0 -9,3 -9,8l0 0 -6 0 0 0c0,-6 -5,-8 -9,-8 -4,0 -9,3 -9,8l0 0 -6 0 0 0c0,-6 -4,-8 -8,-8 -5,0 -9,3 -9,8l0 0 -7 0 0 0c0,-6 -4,-8 -8,-8 -4,0 -9,3 -9,8l0 0 -6 0 0 0c0,-6 -5,-8 -9,-8 -4,0 -9,3 -9,8l0 0 -7 0 0 0c0,-5 -4,-9 -9,-9l0 0 0 -8 0 0c6,0 8,-4 8,-9 0,-4 -2,-8 -8,-8l0 0 0 -7 0 0c6,0 8,-4 8,-8 0,-5 -2,-9 -8,-9l0 0 0 -6 0 0c6,0 8,-5 8,-9 0,-4 -2,-9 -8,-9l0 0 0 -6 0 0c6,0 8,-4 8,-9 0,-4 -2,-8 -8,-8l0 0 0 -7 0 0c6,0 8,-4 8,-9 0,-4 -2,-8 -8,-8l0 0 0 -6 0 0c6,0 8,-5 8,-9 1,-4 -2,-9 -8,-9l0 0 0 -6 0 0c6,0 8,-4 8,-9 0,-4 -2,-8 -8,-8l0 0 0 -7 0 0c6,0 8,-4 8,-9 0,-4 -2,-8 -8,-8l0 0 0 -3 405 0 0 3 -1 0c-5,0 -8,4 -8,9 0,4 3,8 9,8l0 0 0 7 -1 0c-5,0 -8,4 -8,8 0,5 3,9 9,9l0 0 0 6 -1 0c-5,0 -8,5 -8,9 0,4 3,9 9,9l0 0 0 6 -1 0c-5,0 -8,4 -8,9 0,4 3,8 9,8l0 0 0 7 -1 0c-5,0 -8,4 -8,9 0,4 3,8 9,8l0 0 0 6 -1 0c-5,0 -8,5 -8,9 0,4 3,9 9,9l0 0 0 6 -1 0c-5,0 -8,4 -8,9 0,4 3,8 9,8l0 0 0 7 -1 0c-5,0 -8,4 -8,8 0,5 3,9 9,9l0 0 0 8 0 0c-4,0 -6,2 -7,3 -2,2 -3,5 -3,6l1 0zm-7 0l0 0 6 0c0,-2 0,-4 2,-6 1,-2 3,-4 7,-4l0 -6c-6,-1 -9,-5 -8,-10 0,-4 3,-9 8,-9l0 -5c-6,0 -9,-5 -8,-9 0,-5 3,-10 8,-10l0 -5c-6,0 -9,-4 -8,-9 0,-4 3,-9 8,-9l0 -5c-6,-1 -9,-5 -8,-10 0,-4 3,-9 8,-9l0 -5c-6,0 -9,-5 -8,-9 0,-5 3,-10 8,-10l0 -5c-6,0 -9,-4 -8,-9 0,-4 3,-9 8,-9l0 -5c-6,-1 -9,-5 -8,-10 0,-4 3,-9 8,-9l0 -5c-6,0 -9,-5 -8,-9 0,-5 3,-10 8,-10l0 -2 -404 0 0 2c7,1 9,5 9,9 0,5 -3,10 -9,10l0 5c7,0 9,5 9,9 0,5 -3,10 -9,10l0 5c7,0 9,4 9,9 0,4 -3,9 -9,9l0 5c7,1 9,5 9,9 0,5 -3,10 -9,10l0 5c7,0 9,5 9,9 0,5 -3,10 -9,10l0 5c7,0 9,4 9,9 0,4 -3,9 -9,9l0 5c7,1 9,5 9,10 0,4 -3,9 -9,9l0 5c7,0 9,5 9,9 0,5 -3,10 -9,10l0 6c6,0 10,4 10,10l6 0c0,-6 5,-9 9,-9 5,0 9,3 9,9l5 0c0,-6 5,-9 10,-9 4,0 9,3 9,9l5 0c0,-6 5,-9 10,-9 4,0 8,3 9,9l5 0c0,-6 5,-9 9,-9 5,0 9,3 9,9l5 0c1,-6 5,-9 10,-9 4,0 9,3 9,9l5 0c0,-6 5,-9 10,-9 4,0 8,3 9,9l5 0c0,-6 5,-9 9,-9 5,0 9,3 9,9l5 0c0,-6 5,-9 10,-9 4,0 9,3 9,9l5 0c0,-6 5,-9 10,-9 4,0 8,3 9,9l5 0c0,-6 5,-9 9,-9 5,0 9,3 9,9l5 0c0,-6 5,-9 10,-9 4,0 9,3 9,9l5 0c0,-6 5,-9 10,-9 4,0 8,3 9,9l4 0c1,-6 6,-9 10,-9 5,0 9,3 9,9l5 0c0,-6 5,-9 10,-9 4,0 9,3 9,9l5 0c0,-6 5,-9 10,-9 4,0 8,3 9,9l5 0c0,-6 5,-9 9,-9 5,0 9,3 9,9z"/>
   </g>
   <g>
    <path class="fil0" d="M10 17l0 7c11,0 12,18 0,18l0 6c11,0 12,18 0,18l0 6c11,0 12,18 0,18l0 5c11,0 12,18 0,19l0 5c11,0 12,18 0,18l0 6c11,0 12,18 0,18l0 5c11,0 12,18 0,18l0 6c11,0 12,18 0,18l0 3 404 0 0 -3c-10,0 -12,-18 0,-18l0 -6c-10,0 -12,-17 0,-18l0 -5c-10,0 -12,-18 0,-18l0 -6c-10,0 -12,-18 0,-18l0 -5c-10,0 -12,-18 0,-19l0 -5c-10,0 -12,-18 0,-18l0 -6c-10,0 -12,-18 0,-18l0 -6c-10,0 -12,-17 0,-18l0 -7c-7,0 -9,-7 -9,-9l-6 0c0,12 -18,11 -18,0l-6 0c0,12 -18,11 -18,0l-5 0c-1,12 -18,11 -18,0l-6 0c0,12 -18,11 -18,0l-6 0c0,12 -18,11 -18,0l-5 0c-1,12 -18,11 -18,0l-6 0c0,12 -18,11 -18,0l-6 0c0,12 -18,11 -18,0l-5 0c-1,12 -18,11 -18,0l-6 0c0,12 -18,11 -18,0l-6 0c0,12 -18,11 -18,0l-5 0c0,12 -18,11 -18,0l-6 0c0,12 -18,11 -18,0l-6 0c0,12 -18,11 -18,0l-5 0c-1,12 -18,11 -18,0l-6 0c0,12 -18,11 -18,0l-6 0c0,5 -4,9 -10,9z"/>
    <path class="fil1" d="M415 211l-405 0 0 -3 0 0c6,0 8,-5 8,-9 0,-4 -2,-9 -8,-9l0 0 0 -6 0 0c6,0 8,-4 8,-8 0,-5 -2,-9 -8,-9l0 0 0 -6 0 0c6,-1 9,-5 8,-9 0,-4 -2,-9 -8,-9l0 0 0 -6 0 0c6,0 8,-5 8,-9 0,-4 -2,-9 -8,-9l0 0 0 -6 0 0c6,0 8,-4 8,-8 0,-5 -2,-9 -8,-9l0 0 0 -7 0 0c6,0 8,-4 8,-8 0,-4 -2,-9 -8,-9l0 0 0 -6 0 0c6,0 8,-5 8,-9 0,-4 -2,-9 -8,-9l0 0 0 -6 0 0c6,0 8,-4 8,-8 0,-5 -2,-9 -8,-9l0 0 0 -8 0 0c5,0 9,-4 9,-9l0 -1 7 0 0 1c0,3 2,5 3,6 2,1 4,2 6,2 4,0 9,-2 9,-8l0 -1 6 0 0 1c0,3 1,5 3,6 1,1 4,2 6,2 4,0 8,-2 8,-8l0 -1 7 0 0 1c0,3 1,5 2,6 2,1 4,2 7,2 4,0 8,-2 8,-8l0 -1 6 0 0 1c0,3 2,5 3,6 2,1 4,2 6,2 4,0 9,-2 9,-8l0 -1 6 0 0 1c0,3 2,5 3,6 1,1 4,2 6,2 4,0 8,-2 8,-8l0 -1 7 0 0 1c0,3 1,5 2,6 2,1 4,2 7,2 4,0 8,-2 8,-8l0 -1 6 0 0 1c0,3 2,5 3,6 2,1 4,2 6,2 4,0 9,-2 9,-8l0 -1 6 0 0 1c0,3 1,5 3,6 1,1 4,2 6,2 4,0 8,-2 9,-8l0 -1 6 0 0 1c0,3 1,5 2,6 2,1 4,2 7,2 4,0 8,-2 8,-8l0 -1 6 0 0 1c0,3 2,5 3,6 2,1 4,2 6,2 4,0 9,-2 9,-8l0 -1 6 0 0 1c0,3 1,5 3,6 1,1 4,2 6,2 4,0 8,-2 8,-8l0 -1 7 0 0 1c0,3 1,5 2,6 2,1 4,2 7,2 4,0 8,-2 8,-8l0 -1 6 0 0 1c0,3 2,5 3,6 2,1 4,2 6,2 4,0 9,-2 9,-8l0 -1 6 0 0 1c0,3 1,5 3,6 1,1 4,2 6,2 4,0 8,-2 8,-8l0 -1 7 0 0 1c0,3 1,5 2,6 2,1 4,2 7,2 4,0 8,-2 8,-8l0 -1 6 0 0 1c0,3 2,5 3,6 2,1 4,2 6,2 4,0 9,-2 9,-8l0 -1 7 0 -1 1c0,1 1,4 3,6 1,1 3,3 7,3l0 0 0 8 0 0c-6,0 -9,4 -9,8 0,5 3,9 8,9l1 0 0 6 0 0c-6,0 -9,5 -9,9 0,4 3,9 8,9l1 0 0 6 0 0c-6,0 -9,4 -9,9 0,4 3,8 8,8l1 0 0 7 0 0c-6,0 -9,4 -9,8 0,5 3,9 8,9l1 0 0 6 0 0c-6,1 -9,5 -9,9 0,4 3,9 8,9l1 0 0 6 0 0c-6,0 -9,5 -9,9 0,4 3,9 8,9l1 0 0 6 0 0c-6,0 -9,4 -9,8 0,5 3,9 8,9l1 0 0 6 0 0c-6,1 -9,5 -9,9 0,4 3,9 8,9l1 0 0 3zm-405 0l0 0 404 0 0 -2c-5,-1 -8,-6 -8,-10 -1,-4 2,-9 8,-9l0 -5c-5,0 -8,-5 -8,-10 -1,-4 2,-9 8,-9l0 -5c-5,0 -8,-5 -8,-9 -1,-5 2,-9 8,-10l0 -4c-5,-1 -8,-5 -8,-10 -1,-4 2,-9 8,-9l0 -5c-5,0 -8,-5 -8,-10 -1,-4 2,-9 8,-9l0 -5c-5,0 -8,-5 -8,-9 -1,-5 2,-9 8,-10l0 -5c-5,0 -8,-5 -8,-9 -1,-5 2,-9 8,-9l0 -5c-5,0 -8,-5 -8,-10 -1,-4 2,-9 8,-9l0 -6c-4,0 -6,-2 -7,-4 -2,-2 -2,-4 -2,-6l-6 0c0,6 -4,9 -9,9 -2,0 -5,-1 -6,-2 -2,-2 -3,-4 -3,-7l-5 0c-1,6 -5,9 -9,9 -3,0 -5,-1 -7,-2 -2,-2 -3,-4 -3,-7l-5 0c0,6 -5,9 -9,9 -3,0 -5,-1 -7,-2 -2,-2 -3,-4 -3,-7l-5 0c0,6 -4,9 -9,9 -2,0 -5,-1 -6,-2 -2,-2 -3,-4 -4,-7l-4 0c-1,6 -5,9 -9,9 -3,0 -5,-1 -7,-2 -2,-2 -3,-4 -3,-7l-5 0c0,6 -5,9 -9,9 -3,0 -5,-1 -7,-2 -2,-2 -3,-4 -3,-7l-5 0c0,6 -4,9 -9,9 -2,0 -5,-1 -6,-2 -2,-2 -3,-4 -3,-7l-5 0c-1,6 -5,9 -9,9 -3,0 -5,-1 -7,-2 -2,-2 -3,-4 -3,-7l-5 0c0,6 -5,9 -9,9 -2,0 -5,-1 -7,-2 -2,-2 -3,-4 -3,-7l-5 0c0,6 -4,9 -9,9 -2,0 -4,-1 -6,-2 -2,-2 -3,-4 -3,-7l-5 0c-1,6 -5,9 -9,9 -3,0 -5,-1 -7,-2 -2,-2 -3,-4 -3,-7l-5 0c0,6 -5,9 -9,9 -2,0 -5,-1 -7,-2 -2,-2 -3,-4 -3,-7l-5 0c0,6 -4,9 -9,9 -2,0 -5,-1 -6,-2 -2,-2 -3,-4 -3,-7l-5 0c-1,6 -5,9 -9,9 -3,0 -5,-1 -7,-2 -2,-2 -3,-4 -3,-7l-5 0c0,6 -5,9 -9,9 -3,0 -5,-1 -7,-2 -2,-2 -3,-4 -3,-7l-5 0c0,6 -4,9 -9,9 -2,0 -5,-1 -6,-2 -2,-2 -3,-4 -3,-7l-6 0c0,5 -4,9 -10,10l0 6c6,0 9,5 9,10 0,4 -2,8 -9,9l0 5c6,0 9,5 9,9 0,5 -2,9 -9,9l0 5c6,1 9,5 9,10 0,4 -2,9 -9,9l0 5c6,0 9,5 9,10 0,4 -2,9 -9,9l0 5c6,0 9,5 9,9 0,5 -2,9 -9,10l0 4c6,1 9,5 9,10 0,4 -2,9 -9,9l0 5c6,0 9,5 9,10 0,4 -2,9 -9,9l0 5c6,0 9,5 9,9 0,5 -2,9 -9,10l0 2z"/>
   </g>
   <g>
    <polygon class="fil2" points="414,212 10,212 10,210 414,210 "/>
   </g>
   <polygon class="fil3" points="389,387 389,34 36,34 36,387 "/>
   <g>
    <polygon class="fil4" points="36,49 389,49 389,388 36,388 "/>
    <polygon class="fil5" points="36,64 389,64 389,387 36,387 "/>
    <polygon class="fil6" points="36,78 389,78 389,387 36,387 "/>
    <polygon class="fil7" points="36,93 389,93 389,387 36,387 "/>
    <polygon class="fil8" points="36,108 389,108 389,387 36,387 "/>
    <polygon class="fil9" points="36,122 389,122 389,387 36,387 "/>
    <polygon class="fil10" points="36,137 389,137 389,387 36,387 "/>
    <polygon class="fil11" points="36,151 389,151 389,387 36,387 "/>
    <polygon class="fil12" points="36,166 389,166 389,387 36,387 "/>
    <polygon class="fil13" points="36,181 389,181 389,387 36,387 "/>
    <polygon class="fil14" points="36,195 389,195 389,387 36,387 "/>
    <polygon class="fil15" points="36,210 389,210 389,387 36,387 "/>
    <polygon class="fil16" points="36,224 389,224 389,387 36,387 "/>
    <polygon class="fil17" points="36,239 389,239 389,387 36,387 "/>
    <polygon class="fil18" points="36,254 389,254 389,387 36,387 "/>
    <polygon class="fil19" points="36,268 389,268 389,387 36,387 "/>
    <polygon class="fil20" points="36,283 389,283 389,387 36,387 "/>
    <polygon class="fil21" points="36,298 389,298 389,387 36,387 "/>
    <polygon class="fil22" points="36,312 389,312 389,387 36,387 "/>
    <polygon class="fil23" points="36,327 389,327 389,387 36,387 "/>
   </g>
   <polygon class="fil24" points="389,387 389,341 36,341 36,387 "/>
   <polygon class="fil25" points="374,265 374,51 52,51 52,265 "/>
   <path class="fil26" d="M366 122c-25,-4 -251,-33 -257,-33 -5,-1 -32,-1 -46,3 -15,4 -12,11 10,14l118 14c0,0 17,-4 37,-2 19,1 5,7 5,7 0,0 72,8 78,9 43,5 65,-11 55,-12z"/>
   <polygon class="fil27" points="273,156 269,116 267,116 270,156 "/>
   <polygon class="fil27" points="257,154 251,117 249,117 254,154 "/>
   <polygon class="fil27" points="306,193 332,124 329,124 304,193 "/>
   <polygon class="fil27" points="284,192 303,124 301,124 281,192 "/>
   <polygon class="fil27" points="306,193 305,124 303,124 304,193 "/>
   <path class="fil28" d="M267 190c0,0 54,2 61,2 8,1 40,3 28,4l-99 -1 10 -5z"/>
   <g>
    <path class="fil29" d="M328 192c7,1 35,3 24,4l-93 -1 9 -5c0,0 52,2 60,2z"/>
    <path class="fil30" d="M328 193c7,0 29,2 19,2l-86 0 8 -4c0,0 51,1 59,2z"/>
    <path class="fil31" d="M327 193c8,0 25,2 15,2l-79 -1 6 -3c0,0 51,1 58,2z"/>
    <path class="fil32" d="M327 193c7,0 20,1 11,1l-74 0 6 -3c0,0 50,2 57,2z"/>
   </g>
   <path class="fil33" d="M271 191c0,0 48,2 56,2 7,0 14,1 6,1l-67 0 5 -3z"/>
   <polygon class="fil34" points="294,162 295,161 297,159 296,156 291,153 289,156 288,159 "/>
   <g>
    <polygon class="fil35" points="296,159 296,157 291,154 291,154 296,157 297,159 "/>
   </g>
   <g>
    <polygon class="fil35" points="296,160 295,158 290,155 290,155 295,158 296,160 "/>
   </g>
   <g>
    <polygon class="fil35" points="295,161 294,159 289,156 289,156 294,159 295,161 "/>
   </g>
   <polygon class="fil34" points="288,187 291,188 292,191 291,193 285,195 283,193 283,190 "/>
   <g>
    <polygon class="fil35" points="285,195 285,194 290,192 292,190 292,191 291,192 "/>
   </g>
   <g>
    <polygon class="fil35" points="285,194 285,194 290,191 291,190 291,190 290,192 "/>
   </g>
   <g>
    <polygon class="fil35" points="284,193 284,193 289,190 290,189 291,189 289,191 "/>
   </g>
   <path class="fil36" d="M174 150c0,0 3,0 6,2 2,2 8,4 8,4 0,0 -31,11 -14,-6z"/>
   <path class="fil34" d="M188 146c-1,-2 -3,-2 -6,-1 -2,2 -2,3 -2,5 1,1 2,3 3,4 3,2 1,-1 4,-1 1,0 2,-4 1,-7z"/>
   <path class="fil37" d="M184 149c0,0 1,2 0,3 -1,1 0,2 1,2 0,0 3,0 3,-4 0,-3 -4,-1 -4,-1z"/>
   <path class="fil38" d="M188 150c-1,0 0,0 -2,1 -1,1 -2,-2 -2,-2l-4 0 0 -1c0,0 2,0 4,0 2,0 4,0 4,0 2,0 1,3 0,2z"/>
   <path class="fil39" d="M189 148c0,0 -2,0 -2,1 0,0 0,1 0,1 1,0 1,0 1,0 0,0 1,-1 1,-2z"/>
   <path class="fil39" d="M187 149c0,0 0,1 0,1 -1,1 -1,1 -2,1 0,-1 -1,-2 -1,-2 0,0 2,-1 3,0z"/>
   <path class="fil40" d="M181 153c0,0 -3,0 -4,3 -1,2 -1,4 -1,4 0,0 9,-4 9,-5 1,-1 -4,-2 -4,-2z"/>
   <g>
    <path class="fil41" d="M186 154c0,0 -3,-1 -3,-1 -1,-1 -2,-2 -2,-2 -2,-1 -8,-6 -13,-7 -5,-1 -7,-2 -7,-2 0,0 0,0 0,1 0,1 1,1 1,1l1 1 -1 0 0 0c0,0 5,2 6,2 6,0 12,6 13,6 1,1 3,2 4,2 1,0 3,-1 1,-1z"/>
    <path class="fil42" d="M185 155c-1,0 -3,-1 -5,-2 0,0 0,0 0,0 -3,-3 -7,-6 -12,-6 -1,0 -6,-2 -6,-2l0 0 0 0 -1 0 2 0 -1 -1c0,0 -1,0 -1,-1 0,-1 0,-1 0,-1l0 0c0,0 2,1 7,2 2,1 5,2 7,4 3,1 5,3 6,3 0,0 0,0 0,1 1,0 1,0 2,1 0,0 2,1 3,1l0 0c0,0 1,0 1,0 0,0 -2,1 -2,1 0,0 0,0 0,0zm-23 -10l0 0c0,0 5,2 6,2 5,0 9,3 12,6 0,0 0,0 1,0 1,1 3,2 4,2 0,0 0,0 0,0 1,0 2,-1 2,-1 0,0 -1,0 -1,0 -1,0 -3,-1 -3,-1 -1,0 -1,-1 -2,-1 0,0 0,-1 -1,-1 -1,-1 -7,-6 -13,-7 -3,-1 -5,-2 -6,-2 0,0 0,0 0,1 0,1 1,1 1,1l1 1 0 0 -1 0 0 0z"/>
   </g>
   <path class="fil36" d="M208 151c0,0 3,-1 5,1 3,3 9,5 9,5 0,0 -31,10 -14,-6z"/>
   <path class="fil36" d="M254 236c5,0 11,-5 12,-12 2,-8 -1,-14 -7,-14 -5,-1 -10,4 -12,12 -1,7 2,13 7,14z"/>
   <g>
    <path class="fil42" d="M264 225c0,0 0,0 0,0 0,0 0,0 0,0 3,-6 -1,-11 -1,-11 0,0 0,-1 0,-1 0,0 1,0 1,0 0,0 3,5 1,12 0,0 0,0 -1,0z"/>
   </g>
   <path class="fil43" d="M254 232c4,1 9,-3 10,-9 1,-6 -2,-11 -6,-11 -4,-1 -8,4 -10,9 -1,6 2,11 6,11z"/>
   <g>
    <path class="fil44" d="M255 222c0,0 0,0 0,0l-40 -28c0,0 0,0 0,0 0,-1 1,-1 1,0l39 27c0,1 0,1 0,1 0,0 0,0 0,0z"/>
   </g>
   <g>
    <path class="fil45" d="M260 189l-3 30c0,0 2,1 1,4 -1,3 -3,2 -4,2 0,-1 -1,-3 1,-6l3 -30 2 0z"/>
    <path class="fil46" d="M255 225c0,0 0,0 -1,0 0,0 0,-1 -1,-2 0,-1 1,-2 2,-4l3 -30 2 0 -3 30c0,0 2,2 1,4 -1,2 -2,2 -3,2zm3 -36l0 0 -2 30 0 0c-2,2 -2,3 -2,4 0,1 0,2 0,2 1,0 1,0 1,0 1,0 2,-1 3,-2 1,-3 -1,-4 -1,-4l0 0 0 0 2 -30 -1 0z"/>
   </g>
   <g>
    <path class="fil45" d="M256 221l-18 -30 -2 0 19 32c1,0 1,-1 1,-2z"/>
    <path class="fil46" d="M255 223c0,0 0,0 0,0l0 0 0 0 -19 -32 2 -1 18 31 0 0c0,0 0,1 0,1 0,1 0,1 -1,1zm0 0l0 0c0,0 1,0 1,-1 0,0 0,-1 0,-1l-18 -30 -2 0 19 32z"/>
   </g>
   <g>
    <path class="fil45" d="M238 196l-30 29c0,0 1,3 -2,4 -2,1 -3,0 -4,-1 0,0 1,-3 5,-4l29 -29 2 1z"/>
    <path class="fil46" d="M204 230c-1,0 -1,-1 -2,-2 0,0 0,-1 1,-1 0,-1 1,-2 4,-3l29 -30 2 2 0 0 -30 29c0,1 1,3 -2,4 0,1 -1,1 -2,1zm32 -35l0 0 -29 30 0 0c-3,0 -4,1 -4,2 0,0 0,1 0,1 0,0 0,1 1,1 1,0 1,0 2,0 3,-2 2,-4 2,-4l0 0 0 0 29 -29 -1 -1z"/>
   </g>
   <g>
    <path class="fil45" d="M205 225l19 -30 -1 -1 -20 31c1,1 2,0 2,0z"/>
    <path class="fil46" d="M204 226c-1,0 -1,-1 -1,-1l0 0 0 0 20 -31 2 1 0 0 -19 30c-1,0 -2,1 -2,1zm-1 -1l0 0c1,0 1,0 1,0 0,0 1,0 1,-1l19 -29 -1 -1 -20 31z"/>
   </g>
   <g>
    <path class="fil45" d="M218 208c0,0 -3,-3 -5,-3l-6 10c0,0 0,1 1,2 0,0 2,-1 2,1 0,0 1,1 2,1l6 -11z"/>
    <path class="fil46" d="M212 219l0 0c-1,0 -2,-1 -2,-1l-1 0 0 0c1,-1 1,-1 0,-1 0,0 0,0 0,0 0,0 -1,0 -1,0l0 0 0 0c-1,-1 -1,-1 -1,-1l0 -1 6 -10 0 0c0,0 1,0 1,0 1,0 2,1 3,2 0,0 1,1 1,1l0 1 -6 10zm-2 -1l0 0c0,0 1,1 2,1l5 -11c0,0 0,0 0,-1 -1,0 -2,-1 -3,-1 0,0 -1,0 -1,0l-6 9c0,1 1,1 1,2 0,0 1,0 1,0 0,0 1,0 1,0 0,0 0,1 0,1z"/>
   </g>
   <g>
    <path class="fil44" d="M202 227c0,0 0,0 0,0 0,0 0,0 0,0l10 -32c0,0 1,0 1,0 0,0 0,0 0,0l-10 32c-1,0 -1,0 -1,0z"/>
   </g>
   <g>
    <path class="fil45" d="M253 213c0,0 -2,3 -4,2l-7 -10c0,0 1,-1 2,-1 0,0 2,1 1,-1 0,0 1,-1 2,-1l6 11z"/>
    <path class="fil46" d="M249 216c0,0 0,0 0,0l0 0 -1 -1 -6 -10 0 0c0,0 1,-1 2,-1l0 0 0 0c0,0 0,0 1,0 0,0 0,0 0,0 0,-1 0,-1 0,-1l0 0 0 0c0,0 1,-1 2,-1l0 0 0 0 6 10c0,1 0,1 0,2 -1,1 -2,2 -4,2zm0 -1l0 0c0,0 0,0 0,0 1,0 3,-1 3,-1 1,-1 1,-1 1,-1l-6 -11c-1,0 -1,1 -2,1 0,0 0,1 0,1 0,0 0,0 0,0 -1,0 -1,0 -1,0 -1,0 -1,1 -2,1l7 10z"/>
   </g>
   <path class="fil36" d="M206 243c4,-2 6,-10 3,-17 -3,-6 -9,-10 -14,-7 -4,2 -6,10 -3,17 3,6 9,10 14,7z"/>
   <g>
    <path class="fil42" d="M209 233c0,0 -1,0 -1,-1 0,-7 -5,-11 -8,-12 0,0 0,0 0,0 0,-1 0,-1 0,-1 4,1 9,5 9,13 0,1 0,1 0,1z"/>
   </g>
   <path class="fil47" d="M204 241c3,-2 5,-8 2,-14 -2,-5 -7,-8 -10,-6 -4,2 -5,8 -3,14 2,5 7,8 11,6z"/>
   <path class="fil34" d="M222 147c-1,-2 -4,-3 -6,-1 -2,2 -2,3 -2,5 0,1 2,3 3,4 2,1 1,-1 4,-1 1,-1 2,-5 1,-7z"/>
   <path class="fil37" d="M218 150c0,0 0,2 -1,3 -1,1 1,2 1,2 1,0 4,0 4,-4 0,-3 -4,-1 -4,-1z"/>
   <path class="fil38" d="M221 151c-1,0 0,0 -1,1 -2,1 -3,-2 -3,-2l-3 -1 0 -1c0,0 1,1 3,1 2,0 5,0 5,0 1,0 0,3 -1,2z"/>
   <path class="fil39" d="M222 149c0,0 -1,0 -1,0 0,1 0,1 0,2 1,0 1,0 1,0 0,0 1,-1 0,-2z"/>
   <path class="fil39" d="M221 149c0,0 0,1 -1,2 0,0 -1,1 -1,0 -1,0 -1,-1 -1,-1 0,0 1,-1 3,-1z"/>
   <path class="fil40" d="M215 154c0,0 -3,0 -4,2 -1,3 -1,5 -1,5 0,0 9,-4 9,-5 1,-1 -4,-2 -4,-2z"/>
   <g>
    <path class="fil41" d="M219 154c0,0 -2,0 -3,0 0,-1 -2,-2 -2,-2 -1,-1 -5,-4 -10,-5 -4,-1 -7,-2 -7,-2 0,0 1,1 1,2 0,1 0,1 0,1l1 0 -1 0 1 0c0,0 4,1 5,1 6,1 10,4 10,5 2,1 4,2 5,2 1,-1 3,-2 0,-2z"/>
    <path class="fil42" d="M218 156c-1,0 -3,-1 -4,-2 0,0 0,0 0,0 -1,-1 -4,-4 -10,-5 -1,0 -5,0 -5,-1l-1 0 0 0 0 0 0 0 1 0 -1 0c0,0 0,0 0,0 0,0 0,-1 0,-1 0,-1 -1,-2 -1,-2l0 0c0,0 3,1 7,2 2,0 4,1 6,2 2,1 3,2 4,3l0 0c0,0 2,1 2,2 1,0 3,0 3,0l0 0c1,0 1,0 1,1 0,0 0,0 -1,1l0 0c0,0 0,0 -1,0zm-19 -8l0 0c0,0 4,1 5,1 6,1 9,3 10,5 0,0 0,0 0,0 1,1 3,2 4,2 1,0 1,0 1,0 0,-1 1,-1 1,-1 0,0 0,-1 -1,-1 0,0 -2,0 -3,0 0,-1 -2,-2 -2,-2l0 0c-3,-3 -7,-5 -10,-5 -3,-1 -6,-2 -7,-2 1,0 1,1 1,2 0,0 0,0 0,0 0,0 0,0 0,0l0 0 0 0 1 1 0 0 -1 0 1 0z"/>
   </g>
   <g>
    <path class="fil48" d="M108 175l0 0c0,0 2,-2 3,-4l0 0c-1,2 -3,3 -3,4l1 0c1,-1 3,-3 3,-3l1 0c-1,0 -3,2 -4,3l-1 0z"/>
   </g>
   <g>
    <path class="fil45" d="M303 169c0,0 -6,-6 -11,-9 -6,-4 -14,-5 -18,-6l-46 -4c0,0 -3,-1 -9,4 0,0 -8,9 -12,4 -2,-4 2,-7 2,-7l-18 -1c0,0 -4,2 -8,6 -2,2 -7,4 -9,1 -3,-3 -1,-5 0,-7 0,0 -39,1 -57,1 0,0 -4,-1 -6,-6 0,0 -2,-8 -4,-13 -2,-5 -4,-12 -10,-13 -7,-1 -11,5 -13,8 -2,5 -7,16 -3,26 0,0 6,13 20,16l79 21c0,0 49,6 53,6 5,0 33,-1 38,-1 10,-1 24,-8 28,-10 6,-3 13,-6 11,-9 -2,-3 -7,-7 -7,-7z"/>
    <path class="fil42" d="M236 196c-1,0 -2,0 -3,0 -4,0 -53,-6 -53,-6l-79 -21c-14,-3 -20,-16 -20,-16 -5,-10 2,-23 3,-26 2,-3 5,-8 11,-8 0,0 1,0 2,0 5,1 7,6 9,11 0,0 0,1 1,2 2,5 4,13 4,13 2,4 6,5 6,5 4,1 9,1 15,1 18,0 41,-1 42,-1l0 0 0 0c-1,2 -2,4 0,7 1,1 2,2 3,2 2,0 5,-2 6,-3 3,-4 8,-6 8,-6l0 0 0 0 18 1 1 0c-1,0 -3,2 -3,4 -1,1 0,2 0,3 1,1 2,1 4,1 3,0 8,-5 8,-5 4,-3 7,-4 8,-4 1,0 1,0 1,0l46 4 0 0c5,0 13,2 18,6 5,3 11,9 11,9 0,0 5,4 7,7 0,1 0,1 0,2 0,2 -4,4 -11,7l0 0c-5,3 -18,9 -28,10 -4,0 -27,1 -35,1zm-141 -77l0 0c-6,0 -9,5 -11,9 -1,2 -7,15 -3,25 0,0 6,13 20,16l79 21c0,0 49,6 53,6 1,0 2,0 3,0 8,0 31,-1 35,-1 10,-1 23,-8 28,-10l0 0c7,-3 10,-6 11,-8 0,0 0,0 0,-1 -2,-3 -7,-7 -7,-7 0,0 -6,-6 -11,-9 -6,-4 -13,-5 -18,-6l0 0 -46 -3c0,0 0,-1 -1,-1 -1,0 -4,1 -8,5 0,0 -4,5 -8,5 -2,0 -3,-1 -4,-2 -1,-1 -1,-2 -1,-4 1,-1 2,-2 3,-3l-18 0c0,0 -4,1 -8,5 -1,1 -4,3 -6,3 -2,0 -3,-1 -4,-2 -2,-3 0,-5 0,-6 -3,0 -24,0 -41,0 -6,0 -11,0 -15,0 0,0 -4,-1 -6,-6 0,0 -2,-8 -5,-13 0,-1 0,-1 0,-2 -2,-5 -4,-10 -9,-11 -1,0 -2,0 -2,0z"/>
   </g>
   <g>
    <path class="fil49" d="M116 151c-1,0 -1,0 -1,0 0,0 -2,-1 -4,-3 -1,-2 -2,-5 -3,-8 0,-2 0,-3 -1,-4 -1,-2 -1,-3 -2,-5 -1,-2 -2,-5 -3,-7 -3,-4 -7,-4 -7,-4 0,0 -1,0 -1,0 0,-1 1,-1 1,-1 0,0 5,0 8,5 1,1 2,4 3,7 1,2 1,3 2,4 0,1 1,3 1,5 1,3 2,6 3,8 1,1 4,2 4,2 0,0 0,1 0,1 0,0 0,0 0,0z"/>
   </g>
   <path class="fil50" d="M189 190c6,0 11,-7 11,-15 0,-8 -5,-14 -11,-14 -6,0 -11,6 -11,14 0,8 5,15 11,15z"/>
   <path class="fil38" d="M189 186c5,0 8,-5 8,-11 0,-6 -3,-11 -8,-11 -4,0 -8,5 -8,11 0,6 4,11 8,11z"/>
   <path class="fil51" d="M110 152c0,0 -7,6 -12,9 -3,0 -7,2 -10,1 0,0 -6,-5 -8,-11 0,0 31,0 30,1z"/>
   <path class="fil45" d="M309 176c-2,-3 -7,-8 -13,-12 -5,-4 -8,-7 -13,-7 -5,-1 -16,0 -19,0 -3,0 -28,-1 -37,1 -8,3 -21,23 -17,29 3,6 20,8 30,8 10,0 32,0 38,-2 7,-2 14,-5 16,-6 2,-1 12,-6 15,-9 0,0 1,-1 0,-2z"/>
   <g>
    <path class="fil52" d="M212 187c-4,-6 10,-26 18,-28 7,-2 31,-1 34,-1 4,0 14,-2 19,-1 5,1 8,2 13,7 6,4 11,9 13,12 1,1 0,2 0,2 -3,3 -13,8 -15,9 -2,0 -10,4 -17,5 -6,2 -27,2 -37,2 -9,0 -24,-2 -28,-7z"/>
    <path class="fil53" d="M214 187c-3,-6 11,-26 18,-28 7,-1 29,-1 32,-1 5,0 14,-1 19,-1 5,1 8,3 13,7 6,4 11,9 13,12 1,1 -1,2 -1,2 -3,3 -13,8 -15,8 -1,1 -10,5 -16,6 -7,2 -26,2 -36,2 -9,0 -23,-2 -27,-7z"/>
    <path class="fil54" d="M216 186c-3,-5 11,-24 18,-26 7,-2 27,-1 30,-1 6,0 14,-2 19,-1 5,0 8,2 13,6 6,4 11,9 13,12 1,1 -1,2 -1,2 -3,3 -13,7 -15,8 -2,1 -11,4 -17,6 -7,1 -25,1 -35,1 -9,0 -21,-1 -25,-7z"/>
    <path class="fil55" d="M219 186c-4,-5 11,-24 17,-26 6,-1 26,0 29,0 6,0 13,-2 17,-2 5,1 9,2 14,6 6,4 11,9 13,12 1,1 -1,2 -1,2 -4,3 -14,7 -16,8 -1,1 -11,4 -17,5 -6,2 -24,2 -33,2 -9,0 -20,-1 -23,-7z"/>
    <path class="fil56" d="M221 186c-4,-6 12,-24 17,-25 6,-2 24,-1 27,-1 7,0 13,-2 17,-1 5,0 9,1 14,5 6,4 11,9 13,12 1,1 -1,2 -1,2 -5,3 -14,7 -16,7 -2,1 -12,4 -17,6 -7,1 -23,1 -33,1 -8,0 -17,0 -21,-6z"/>
    <path class="fil57" d="M223 186c-3,-6 12,-23 17,-25 6,-1 22,0 25,0 8,0 13,-2 17,-2 5,0 9,1 14,5 6,4 11,9 13,12 1,1 -2,2 -2,2 -4,3 -13,6 -15,7 -2,1 -13,4 -18,5 -6,2 -22,1 -32,2 -8,0 -15,-1 -19,-6z"/>
    <path class="fil58" d="M225 185c-3,-5 13,-22 18,-23 4,-1 19,-1 22,-1 9,0 13,-1 17,-1 5,0 9,0 14,4 6,4 11,9 13,12 1,1 -2,2 -2,2 -5,3 -14,6 -16,7 -1,1 -13,3 -17,5 -7,2 -22,1 -31,1 -8,0 -14,0 -18,-6z"/>
   </g>
   <path class="fil59" d="M309 176c-2,-3 -7,-8 -13,-12 -5,-4 -9,-4 -14,-4 -4,0 -7,2 -16,2 -3,0 -17,-1 -21,0 -4,1 -21,18 -17,23 3,6 8,6 15,5 10,0 23,1 30,-1 4,-1 16,-4 18,-4 2,-1 11,-4 16,-7 0,0 3,-1 2,-2z"/>
   <path class="fil59" d="M309 176c-2,-2 -10,-10 -14,-13 -1,-1 -5,2 -7,4 -3,4 -3,9 -2,9 2,0 14,0 16,0 3,0 7,0 7,0z"/>
   <g>
    <path class="fil60" d="M295 163c4,3 12,11 13,13 1,0 -3,0 -6,0 -2,0 -13,-1 -16,-1 0,0 0,-5 3,-8 1,-2 5,-4 6,-4z"/>
    <path class="fil61" d="M294 163c4,4 12,11 14,12 1,1 -3,1 -6,1 -1,0 -13,-2 -15,-2 -1,0 -1,-5 2,-8 2,-1 4,-3 5,-3z"/>
    <path class="fil62" d="M294 164c4,3 12,9 14,11 1,1 -2,1 -5,0 -2,0 -14,-2 -16,-2 -1,-1 0,-4 2,-7 2,-2 4,-3 5,-2z"/>
    <path class="fil63" d="M294 164c4,3 12,9 14,11 1,1 -2,0 -5,0 -1,0 -13,-3 -16,-4 0,0 1,-3 3,-5 1,-2 3,-3 4,-2z"/>
    <path class="fil64" d="M293 164c4,3 12,9 14,11 1,1 -1,0 -3,0 -2,-1 -14,-4 -16,-5 -1,0 0,-3 2,-4 1,-2 3,-3 3,-2z"/>
   </g>
   <path class="fil65" d="M307 175c-2,-2 -10,-8 -14,-11 -1,-1 -6,4 -5,5 2,0 15,5 16,5 2,1 4,2 3,1z"/>
   <path class="fil66" d="M183 156c5,-5 8,-6 8,-6l18 1c0,0 -4,2 -2,6l-24 -1z"/>
   <path class="fil66" d="M113 153c-8,-2 -12,-2 -13,-2 6,0 15,0 15,0l59 -1c-1,1 -1,3 -1,3 0,1 0,1 0,2l-60 -2z"/>
   <g>
    <path class="fil48" d="M218 156l0 0c1,-9 6,-9 6,-9 0,0 0,0 1,0 2,0 4,3 4,3l1 1 -1 0c0,0 -1,0 -1,0 -1,0 -2,0 -3,0 -1,1 -7,5 -7,5zm7 -9l0 0c-1,0 -1,0 -1,0 0,0 -4,1 -6,8 1,-1 6,-4 7,-4 1,-1 2,-1 3,-1 0,0 1,0 1,0 -1,-1 -3,-3 -4,-3z"/>
   </g>
   <g>
    <path class="fil48" d="M183 156l0 0c2,-9 6,-9 7,-9 0,0 0,0 0,0 3,0 5,3 5,3l0 1 0 0c-1,0 -2,0 -4,0 -2,1 -7,5 -8,5zm7 -9l0 0c0,0 0,0 0,0 -1,0 -5,1 -6,8 1,-1 5,-4 7,-4 1,-1 2,-1 3,-1 0,-1 -2,-3 -4,-3z"/>
   </g>
   <g>
    <path class="fil39" d="M233 196c0,0 -11,-2 -16,-4 -5,-2 -22,-4 -30,-3 0,0 -118,4 -125,5 -7,0 -8,3 10,3 19,1 161,-1 161,-1z"/>
    <path class="fil44" d="M81 198c0,0 0,0 0,0 -4,0 -7,0 -9,0 -9,0 -15,-1 -15,-3 0,-1 2,-1 5,-2 6,0 124,-4 125,-4 1,0 2,0 4,0 9,0 22,1 26,3 5,2 16,4 16,4l0 0c-1,0 -116,2 -152,2zm110 -9l0 0c-2,0 -3,0 -4,0 -1,0 -119,4 -125,5 -3,0 -5,1 -5,1 0,1 4,2 15,2 2,0 5,0 9,0 33,0 135,-1 151,-1 -4,-1 -11,-2 -15,-4 -4,-2 -17,-3 -26,-3z"/>
   </g>
   <g>
    <path class="fil67" d="M189 189c8,0 23,1 27,3 5,2 14,3 14,3 0,0 -138,2 -157,2 -18,0 -16,-3 -9,-3 7,-1 125,-5 125,-5z"/>
    <path class="fil68" d="M191 189c8,0 20,1 25,3 4,1 12,3 12,3 0,0 -135,2 -154,2 -18,-1 -15,-3 -8,-3 7,-1 125,-5 125,-5z"/>
    <path class="fil69" d="M193 189c8,0 17,1 22,2 4,2 10,3 10,3 0,0 -131,3 -150,2 -18,0 -14,-1 -7,-2 7,-1 125,-5 125,-5z"/>
    <path class="fil70" d="M196 190c7,-1 13,0 18,1 4,1 8,2 8,2 0,0 -127,3 -145,3 -19,0 -14,-1 -7,-2 7,-1 126,-4 126,-4z"/>
   </g>
   <path class="fil33" d="M219 193c0,0 -2,-1 -6,-2 -5,-1 -8,-2 -15,-1 0,0 -119,3 -126,4 -7,1 -14,1 5,1 19,1 142,-2 142,-2z"/>
   <g>
    <path class="fil39" d="M110 152c-11,-2 -24,-2 -36,-2 -12,0 -15,1 -4,2l12 0 28 0z"/>
    <path class="fil71" d="M82 152l0 0 -12 0c-3,0 -7,-1 -7,-1 0,0 0,-1 3,-1 2,0 5,0 8,0 12,0 25,0 36,2l0 0 -28 0zm-8 -2l0 0c-8,0 -11,1 -11,1 0,0 2,0 7,1l12 0 27 0c-10,-2 -24,-2 -35,-2z"/>
   </g>
   <polygon class="fil27" points="127,193 151,106 149,106 124,193 "/>
   <polygon class="fil27" points="98,193 123,106 121,106 96,193 "/>
   <polygon class="fil27" points="126,193 125,106 122,106 123,193 "/>
   <polygon class="fil27" points="248,158 233,112 231,112 246,158 "/>
   <polygon class="fil27" points="228,157 210,112 208,112 226,157 "/>
   <g>
    <path class="fil72" d="M293 188c0,0 0,0 0,0 -9,-1 -8,-12 -8,-12 0,-6 3,-9 5,-11 2,-2 4,-3 5,-3 0,0 0,0 0,1 0,0 0,0 0,0 -1,0 -3,0 -5,2 -2,2 -5,5 -5,11 0,0 -1,10 8,11 0,0 0,1 0,1 0,0 0,0 0,0z"/>
   </g>
   <g>
    <path class="fil72" d="M304 183c0,0 0,0 0,0 -4,-1 -4,-7 -4,-7 0,-4 1,-5 2,-6 1,0 2,0 2,0 0,0 0,0 0,0 0,0 0,0 0,0 0,0 -1,0 -1,1 -1,0 -2,2 -3,5 0,0 0,6 4,6 0,0 0,0 0,0 0,1 0,1 0,1z"/>
   </g>
   <g>
    <path class="fil62" d="M265 177c1,0 1,0 1,-1l2 -5c0,0 -1,-1 -1,-1l-28 -1c0,0 -1,1 -1,1l-1 5c0,0 1,1 1,1l27 1z"/>
    <path class="fil72" d="M265 177l0 0 -27 -1c0,0 0,0 0,0 -1,0 -1,0 -1,-1l1 -5c0,-1 1,-1 1,-1l28 1c0,0 1,1 1,1l-1 5c0,1 -1,1 -2,1zm-26 -7l0 0c0,0 0,0 0,0l-1 5c0,0 0,1 0,1l27 1c1,0 1,-1 1,-1l1 -5c0,0 0,0 0,0l0 0 -28 -1c0,0 0,0 0,0z"/>
   </g>
   <polygon class="fil34" points="284,167 282,170 276,168 274,166 276,162 282,164 "/>
   <g>
    <polygon class="fil35" points="281,168 275,167 275,166 280,168 282,165 282,165 "/>
   </g>
   <g>
    <polygon class="fil35" points="281,169 276,167 276,167 281,168 283,166 283,166 "/>
   </g>
   <g>
    <polygon class="fil35" points="282,169 276,168 277,167 282,169 283,166 284,167 "/>
   </g>
   <polygon class="fil34" points="283,184 282,181 276,183 273,185 275,188 282,187 "/>
   <g>
    <polygon class="fil35" points="281,186 280,183 274,184 274,184 280,183 282,186 "/>
   </g>
   <g>
    <polygon class="fil35" points="282,185 281,183 275,184 275,184 281,182 283,185 "/>
   </g>
   <g>
    <polygon class="fil35" points="283,185 281,182 276,183 276,183 281,182 283,185 "/>
   </g>
   <path class="fil47" d="M207 230c-1,-4 -4,-9 -9,-9 0,0 -7,0 -6,9 0,0 2,3 5,3 3,0 10,-3 10,-3z"/>
   <g>
    <path class="fil73" d="M197 233c-3,0 -5,-4 -5,-4 0,-8 6,-8 6,-8 4,0 7,4 9,8 0,0 -7,3 -10,4z"/>
    <path class="fil74" d="M197 232c-3,1 -4,-4 -4,-4 0,-7 5,-7 5,-7 3,0 6,3 8,6 0,0 -6,5 -9,5z"/>
    <path class="fil75" d="M197 232c-2,1 -4,-6 -4,-6 0,-5 5,-5 5,-5 3,0 6,2 7,5 0,0 -5,5 -8,6z"/>
    <path class="fil76" d="M197 232c-2,1 -4,-7 -4,-7 1,-4 5,-4 5,-4 2,0 5,1 6,4 0,0 -4,6 -7,7z"/>
   </g>
   <path class="fil77" d="M204 223c-2,-2 -5,-2 -6,-2 0,0 -4,0 -5,3 0,0 2,9 4,8 2,-2 7,-9 7,-9z"/>
   <g>
    <path class="fil48" d="M323 200l0 0c2,-7 4,-14 5,-22 1,-8 0,-16 -2,-23 -2,-7 -4,-13 -8,-17 -4,-5 -8,-7 -13,-8 -7,0 -14,4 -19,12 -6,7 -10,18 -11,30l0 0c1,-12 5,-23 11,-30 5,-8 11,-12 18,-12 0,0 1,0 1,0 5,1 9,3 13,8 4,4 6,10 8,17 2,7 3,15 2,23 -1,8 -2,15 -5,22z"/>
   </g>
   <g>
    <path class="fil48" d="M299 222c-1,0 -1,0 -2,0 -6,-1 -12,-6 -17,-14 -4,-8 -6,-19 -6,-30l1 0c-1,11 1,22 6,30 4,8 10,13 17,14 4,0 8,-2 13,-5 4,-3 7,-8 10,-13l0 0c-3,5 -6,10 -10,13 -4,3 -8,5 -12,5z"/>
   </g>
   <g>
    <path class="fil48" d="M301 170l0 0c0,0 1,-1 3,-1l0 0c0,0 0,0 0,0 -2,0 -3,1 -3,1z"/>
   </g>
   <g>
    <g>
     <path class="fil48" d="M301 167l0 0c0,0 1,-1 3,-1l0 0c-2,0 -3,1 -3,1z"/>
    </g>
    <g>
     <path class="fil48" d="M300 164l0 0c0,0 2,-2 4,-2 0,0 0,0 0,0l0 0c0,0 0,0 0,0 -2,0 -4,2 -4,2z"/>
    </g>
    <g>
     <path class="fil48" d="M300 161l0 0c0,0 1,-2 4,-2 0,0 0,0 0,0l0 0c-2,0 -4,2 -4,2z"/>
    </g>
    <g>
     <path class="fil48" d="M299 158l0 0c0,0 2,-2 5,-2 0,0 0,0 0,0l0 0c0,0 0,0 0,0 -3,0 -5,2 -5,2z"/>
    </g>
    <g>
     <path class="fil48" d="M298 155l0 0c0,0 3,-3 6,-3 0,0 0,0 0,0l0 0c-3,0 -6,3 -6,3z"/>
    </g>
    <g>
     <path class="fil48" d="M298 151l0 0c0,0 3,-2 6,-2 0,0 0,0 0,0l0 0c-3,0 -6,2 -6,2z"/>
    </g>
    <g>
     <path class="fil48" d="M297 148l0 0c0,0 3,-2 7,-2 0,0 0,0 0,0l0 0c0,0 0,0 0,0 -4,0 -7,2 -7,2z"/>
    </g>
    <g>
     <path class="fil48" d="M296 145l0 0c0,0 4,-3 8,-3 0,0 0,0 0,0l0 0c-3,0 -8,3 -8,3z"/>
    </g>
    <g>
     <path class="fil48" d="M296 142l0 0c0,0 5,-4 9,-3l0 0c-1,0 -1,0 -1,0 -4,0 -8,3 -8,3z"/>
    </g>
    <g>
     <path class="fil48" d="M295 139l0 0c0,0 1,-1 3,-2 2,-1 4,-2 7,-2l0 0c-3,0 -5,1 -7,2 -2,1 -3,2 -3,2z"/>
    </g>
   </g>
   <g>
    <path class="fil48" d="M294 136l0 0c0,0 2,-1 4,-2 2,-1 4,-2 7,-2l0 0c-3,0 -5,1 -7,2 -2,1 -4,2 -4,2z"/>
   </g>
   <g>
    <path class="fil48" d="M303 184c0,0 0,0 0,0l0 0c0,0 0,0 0,0 2,0 2,-1 2,-1l1 0c0,0 -1,1 -3,1z"/>
   </g>
   <g>
    <g>
     <path class="fil48" d="M303 187l0 0c2,0 3,-1 3,-1l0 0c0,0 -1,1 -3,1z"/>
    </g>
    <g>
     <path class="fil48" d="M303 191l0 0c2,0 4,-2 4,-2l0 0c0,0 -2,2 -4,2z"/>
    </g>
    <g>
     <path class="fil48" d="M303 194l0 0c2,0 4,-2 4,-2l0 0c0,0 -2,2 -4,2z"/>
    </g>
    <g>
     <path class="fil48" d="M303 197l0 0c2,0 5,-2 5,-3l0 1c0,0 -3,2 -5,2z"/>
    </g>
    <g>
     <path class="fil48" d="M303 200l0 0c3,0 6,-3 6,-3l0 0c0,0 -3,3 -6,3z"/>
    </g>
    <g>
     <path class="fil48" d="M303 204l0 0c3,0 6,-4 6,-4l0 0c0,0 -3,4 -6,4z"/>
    </g>
    <g>
     <path class="fil48" d="M303 207l0 0c3,0 7,-4 7,-4l0 0c0,0 -4,4 -7,4z"/>
    </g>
    <g>
     <path class="fil48" d="M303 210l0 0c3,0 7,-4 7,-4l0 0c0,0 -4,4 -7,4z"/>
    </g>
    <g>
     <path class="fil48" d="M302 213l0 0c5,0 9,-5 9,-5l0 0c0,1 -4,5 -9,5z"/>
    </g>
    <g>
     <path class="fil48" d="M302 216l0 0c3,0 5,-1 7,-2 1,-2 3,-3 3,-3l0 0c0,0 -2,1 -3,3 -2,1 -4,2 -7,2z"/>
    </g>
   </g>
   <g>
    <path class="fil48" d="M302 220l0 0c3,-1 5,-2 7,-3 2,-2 3,-3 3,-3l0 0c0,0 -1,1 -3,3 -2,1 -4,3 -7,3z"/>
   </g>
   <g>
    <polygon class="fil48" points="93,149 93,149 94,120 94,120 "/>
   </g>
   <path class="fil25" d="M85 337l-8 -37 -9 38 18 0 1 6 -20 0c-1,5 -4,16 -4,21 0,5 3,6 5,6l0 3 -14 0 0 -3c4,0 6,-10 9,-24l15 -67 1 0 18 78c2,5 3,14 7,13l0 3 -18 0 0 -3c6,0 6,-3 3,-15l-3 -12 -1 -7z"/>
   <path class="fil25" d="M124 363c0,4 1,8 7,8l0 3 -22 0 0 -3c6,0 7,-4 7,-8l0 -70c0,-4 -1,-8 -7,-8l0 -3 22 0 0 3c-6,0 -7,4 -7,8l0 70z"/>
   <path class="fil25" d="M148 326c11,0 17,-4 17,-19 0,-14 -5,-19 -11,-19 -5,0 -6,0 -6,6l0 32 0 6 0 31c0,4 1,8 7,8l0 3 -20 0 0 -3c5,0 6,-4 6,-8l0 -70c0,-4 -1,-8 -6,-8l0 -3 19 0c12,0 19,8 19,25 0,14 -6,21 -13,23l15 33c2,5 3,8 7,8l0 3 -12 0 -18 -43 -4 1 0 -6z"/>
   <path class="fil25" d="M241 363c0,4 1,8 7,8l0 3 -21 0 0 -3c6,0 7,-4 7,-8l0 -68 -19 79 -1 0 -19 -76 0 65c0,4 2,8 8,8l0 3 -18 0 0 -3c6,0 7,-4 7,-8l0 -70c0,-4 -1,-8 -7,-8l0 -3 15 0 17 70 16 -70 15 0 0 3c-6,0 -7,4 -7,8l0 70z"/>
   <path class="fil25" d="M320 363c0,4 1,8 7,8l0 3 -22 0 0 -3c7,0 8,-4 8,-8l0 -70c0,-4 -1,-8 -8,-8l0 -3 22 0 0 3c-6,0 -7,4 -7,8l0 70z"/>
   <path class="fil25" d="M331 374l0 -3c5,0 6,-4 6,-8l0 -70c0,-4 -1,-8 -6,-8l0 -3 20 0 0 3c-5,0 -6,4 -6,8l0 70c0,4 2,5 7,5 9,0 16,1 20,-18l2 0 -4 24 -39 0z"/>
   <path class="fil25" d="M283 337l-8 -37 -9 38 18 0 1 6 -20 0c-1,5 -4,16 -4,21 0,5 3,6 5,6l0 3 -15 0 0 -3c5,0 7,-10 10,-24l15 -67 1 0 18 78c2,5 3,14 7,13l0 3 -19 0 0 -3c7,0 7,-3 4,-15l-3 -12 -1 -7z"/>
   <path class="fil28" d="M245 171c2,0 3,3 0,3 -2,1 -3,0 -3,0 -2,0 -4,-3 3,-3z"/>
   <path class="fil34" d="M242 172c2,0 4,2 0,2 -2,0 -2,-2 0,-2z"/>
   <path class="fil28" d="M253 171c2,0 3,3 0,4 -2,0 -3,0 -3,0 -2,-1 -4,-4 3,-4z"/>
   <path class="fil34" d="M250 172c2,0 3,3 0,3 -2,0 -2,-3 0,-3z"/>
   <path class="fil28" d="M261 171c2,0 3,3 -1,4 -2,0 -2,0 -3,0 -1,-1 -3,-3 4,-4z"/>
   <path class="fil34" d="M257 172c2,0 4,3 1,3 -3,0 -3,-3 -1,-3z"/>
   <g>
    <path class="fil72" d="M272 164l0 0c0,0 -26,-1 -36,-1 -1,0 -1,0 -1,0 0,-1 0,-1 1,-1 10,0 33,1 36,1 3,-8 11,-6 11,-6 0,0 1,0 1,0 0,0 -1,0 -1,0 0,0 -7,-1 -11,7l0 0z"/>
   </g>
   <g>
    <path class="fil72" d="M268 185l-49 -2c-1,0 -1,0 -1,-1 0,0 0,0 1,0l48 2c1,-7 3,-16 3,-16 0,-1 1,-1 1,-1 0,0 0,1 0,1 0,0 -3,10 -3,16l0 1z"/>
   </g>
  </g>
 </g>
</svg>
