<?xml version="1.0" encoding="UTF-8"?>
<!DOCTYPE svg PUBLIC "-//W3C//DTD SVG 1.1//EN" "http://www.w3.org/Graphics/SVG/1.1/DTD/svg11.dtd">
<!-- Creator: CorelDRAW X7 -->
<svg xmlns="http://www.w3.org/2000/svg" xml:space="preserve" width="8.4666mm" height="8.4666mm" version="1.1" style="shape-rendering:geometricPrecision; text-rendering:geometricPrecision; image-rendering:optimizeQuality; fill-rule:evenodd; clip-rule:evenodd"
viewBox="0 0 847 847"
 xmlns:xlink="http://www.w3.org/1999/xlink">
 <defs>
  <style type="text/css">
   <![CDATA[
    .fil0 {fill:#64A0C2}
   ]]>
  </style>
 </defs>
 <g id="Layer_x0020_1">
  <metadata id="CorelCorpID_0Corel-Layer"/>
  <g id="_229878080">
   <g>
    <path class="fil0" d="M700 224c-10,-81 -78,-144 -162,-144 -39,0 -76,15 -104,39 -27,-35 -68,-57 -115,-57 -69,0 -127,49 -142,114 -76,6 -136,68 -136,145 0,81 66,146 146,146 17,0 34,-3 49,-9 26,37 69,61 118,61 30,0 57,-9 80,-24 26,25 62,41 102,41 58,0 108,-34 131,-84 8,2 15,2 23,2 64,0 115,-51 115,-115 0,-61 -46,-110 -105,-115z"/>
    <path class="fil0" d="M191 536c0,0 -45,73 -45,98 0,25 20,45 45,45 25,0 45,-20 45,-45 0,-25 -45,-98 -45,-98z"/>
    <path class="fil0" d="M262 740c0,25 20,45 45,45 25,0 45,-20 45,-45 0,-25 -45,-98 -45,-98 0,0 -45,73 -45,98z"/>
    <path class="fil0" d="M423 536c0,0 -45,73 -45,98 0,25 21,45 45,45 25,0 45,-20 45,-45 0,-25 -45,-98 -45,-98z"/>
    <path class="fil0" d="M495 740c0,25 20,45 45,45 24,0 44,-20 44,-45 0,-25 -44,-98 -44,-98 0,0 -45,73 -45,98z"/>
    <path class="fil0" d="M611 634c0,25 20,45 45,45 25,0 45,-20 45,-45 0,-25 -45,-98 -45,-98 0,0 -45,73 -45,98z"/>
   </g>
  </g>
  <g id="_229877720">
  </g>
  <g id="_229867424">
  </g>
  <g id="_229872848">
  </g>
  <g id="_229866752">
  </g>
  <g id="_229874120">
  </g>
  <g id="_229873808">
  </g>
  <g id="_229876880">
  </g>
  <g id="_229878176">
  </g>
  <g id="_229873976">
  </g>
  <g id="_229874816">
  </g>
  <g id="_229878032">
  </g>
  <g id="_229872344">
  </g>
  <g id="_229873520">
  </g>
  <g id="_233394944">
  </g>
  <g id="_233393768">
  </g>
 </g>
</svg>
