<?xml version="1.0" encoding="UTF-8"?>
<!DOCTYPE svg PUBLIC "-//W3C//DTD SVG 1.1//EN" "http://www.w3.org/Graphics/SVG/1.1/DTD/svg11.dtd">
<!-- Creator: CorelDRAW X7 -->
<svg xmlns="http://www.w3.org/2000/svg" xml:space="preserve" width="8.4666mm" height="8.4666mm" version="1.1" style="shape-rendering:geometricPrecision; text-rendering:geometricPrecision; image-rendering:optimizeQuality; fill-rule:evenodd; clip-rule:evenodd"
viewBox="0 0 847 847"
 xmlns:xlink="http://www.w3.org/1999/xlink">
 <defs>
  <style type="text/css">
   <![CDATA[
    .fil4 {fill:#ECEDED;fill-rule:nonzero}
    .fil7 {fill:#B2B3B3;fill-rule:nonzero}
    .fil6 {fill:#5B5B5B;fill-rule:nonzero}
    .fil0 {fill:#444343;fill-rule:nonzero}
    .fil5 {fill:#2B2A29;fill-rule:nonzero}
    .fil2 {fill:#FEF5EF;fill-rule:nonzero}
    .fil3 {fill:#FDE6CA;fill-rule:nonzero}
    .fil9 {fill:#E31E24;fill-rule:nonzero}
    .fil10 {fill:#C02222;fill-rule:nonzero}
    .fil1 {fill:#774B37;fill-rule:nonzero}
    .fil8 {fill:#25BAD6;fill-rule:nonzero}
   ]]>
  </style>
 </defs>
 <g id="Layer_x0020_1">
  <metadata id="CorelCorpID_0Corel-Layer"/>
  <g id="_494507752">
   <g>
    <g>
     <polygon class="fil0" points="450,571 365,571 365,803 403,803 403,627 412,627 412,803 450,803 "/>
     <path class="fil1" d="M407 335c113,0 164,-45 164,-165 0,-111 -137,-160 -233,-103 -62,-8 -94,28 -94,103 0,120 51,165 163,165z"/>
     <path class="fil2" d="M439 205c-40,7 -76,-7 -90,-27 -55,2 -64,50 -62,85 3,30 7,56 15,69 18,26 60,50 105,50 46,0 88,-24 105,-50 9,-15 14,-49 16,-85 -15,-43 -43,-50 -89,-42z"/>
     <g>
      <path class="fil3" d="M291 576c-3,10 -1,20 6,22 7,2 15,-4 19,-14 4,-14 0,-21 -6,-23 -7,-2 -14,1 -19,15z"/>
      <path class="fil3" d="M293 563c-4,3 -8,8 -6,11 2,3 8,1 12,-1 4,-3 4,-6 2,-9 -1,-2 -4,-4 -8,-1z"/>
     </g>
     <path class="fil3" d="M446 404c-6,-3 -15,-6 -20,-7l-1 -24 -35 0 -1 24c-6,1 -14,4 -21,7l0 18 78 0 0 -18z"/>
     <g>
      <path class="fil4" d="M407 416c-17,0 -18,-19 -18,-19 -14,0 -34,0 -41,10 -11,15 -54,155 -54,155l23 5 42 -113 6 111 85 0 5 -121c0,0 32,43 32,51 0,7 -31,59 -31,59l18 14c0,0 40,-51 40,-73 0,-22 -42,-81 -47,-88 -8,-10 -28,-10 -41,-10 0,0 -1,19 -19,19z"/>
     </g>
     <g>
      <polygon class="fil5" points="359,457 360,466 454,466 455,457 "/>
      <polygon class="fil5" points="361,496 362,506 452,506 453,496 "/>
      <path class="fil5" d="M325 466l29 0 4 -9 -30 0c-1,3 -2,6 -3,9z"/>
      <path class="fil5" d="M347 486l4 -9 -30 0c-1,3 -2,6 -3,9l29 0z"/>
      <path class="fil5" d="M340 506l3 -10 -28 0c-1,4 -2,7 -3,10l28 0z"/>
      <path class="fil5" d="M466 407c-8,-10 -27,-10 -40,-10 0,0 0,5 -3,10l43 0z"/>
      <path class="fil5" d="M321 556l-25 0c-1,4 -2,6 -2,6l13 3 11 0 3 -9z"/>
      <polygon class="fil5" points="363,536 364,545 451,545 451,536 "/>
      <polygon class="fil5" points="362,516 363,526 452,526 452,516 "/>
      <polygon class="fil5" points="364,556 365,565 450,565 450,556 "/>
      <polygon class="fil5" points="360,477 361,486 453,486 454,477 "/>
      <path class="fil5" d="M477 477c3,3 4,6 6,9l30 0c-1,-3 -2,-6 -4,-9l-32 0z"/>
      <path class="fil5" d="M332 526l4 -10 -28 0c-1,3 -1,7 -2,10l26 0z"/>
      <path class="fil5" d="M335 437c-1,3 -2,6 -3,9l123 0 0 -2c0,0 1,1 2,2l36 0c-2,-3 -4,-6 -6,-9l-152 0z"/>
      <path class="fil5" d="M348 407l43 0c-2,-5 -2,-10 -2,-10 -13,0 -33,0 -41,10z"/>
      <path class="fil5" d="M343 417c-2,3 -3,6 -4,9l141 0c-2,-3 -4,-6 -6,-9l-131 0z"/>
      <path class="fil5" d="M464 457c2,3 4,6 7,9l33 0c-1,-3 -3,-6 -5,-9l-35 0z"/>
      <path class="fil5" d="M325 545l3 -9 -26 0c-1,3 -2,7 -3,9l26 0z"/>
      <path class="fil5" d="M459 556l11 9 6 0c1,-2 4,-5 7,-9l-24 0z"/>
      <path class="fil5" d="M477 516c-1,3 -3,6 -4,10l30 0c2,-4 3,-7 5,-10l-31 0z"/>
      <path class="fil5" d="M467 536c-2,3 -4,7 -6,9l29 0c2,-3 4,-6 6,-9l-29 0z"/>
      <path class="fil5" d="M487 496c-1,3 -2,6 -4,10l29 0c1,-4 2,-7 2,-10l-27 0z"/>
     </g>
     <g>
      <polygon class="fil0" points="451,822 411,822 413,803 449,803 "/>
      <g>
       <path class="fil6" d="M410 822c0,-12 10,-21 21,-21 12,0 21,9 21,21l-42 0z"/>
       <polygon class="fil0" points="452,828 410,828 410,822 452,822 "/>
      </g>
     </g>
     <g>
      <polygon class="fil0" points="404,822 363,822 365,803 402,803 "/>
      <g>
       <path class="fil6" d="M363 822c0,-12 9,-21 21,-21 11,0 21,9 21,21l-42 0z"/>
       <polygon class="fil0" points="405,828 363,828 363,822 405,822 "/>
      </g>
     </g>
     <polygon class="fil5" points="450,572 364,572 364,564 450,564 "/>
     <path class="fil3" d="M447 565c-2,0 -3,-1 -4,-2 0,-4 4,-8 9,-9 2,-1 3,-1 4,0l18 14c-1,4 -3,8 -6,13 -7,8 -17,12 -22,8 -6,-5 -5,-15 1,-24 0,0 0,0 0,0z"/>
     <polygon class="fil7" points="416,574 398,574 398,562 416,562 "/>
    </g>
    <g>
     <path class="fil6" d="M354 272l-32 0c-5,0 -8,-3 -8,-8 0,-4 3,-8 8,-8l32 0c5,0 8,4 8,8 0,5 -3,8 -8,8z"/>
     <path class="fil6" d="M492 272l-32 0c-4,0 -8,-3 -8,-8 0,-4 4,-8 8,-8l32 0c5,0 9,4 9,8 0,5 -4,8 -9,8z"/>
     <path class="fil8" d="M525 309c3,11 -3,22 -14,25 -10,2 -21,-4 -24,-14 -5,-18 11,-35 11,-35 0,0 22,7 27,24z"/>
     <path class="fil8" d="M289 309c-3,11 4,22 14,25 11,2 22,-4 24,-14 5,-18 -11,-35 -11,-35 0,0 -22,7 -27,24z"/>
     <path class="fil6" d="M433 340c0,14 -12,25 -26,25 -14,0 -26,-11 -26,-25 0,-15 12,-26 26,-26 14,0 26,11 26,26z"/>
    </g>
   </g>
   <g>
    <polygon class="fil9" points="428,405 387,401 387,386 428,386 "/>
    <g>
     <path class="fil9" d="M444 392c-4,5 -12,4 -12,4 0,0 -1,-8 3,-12 5,-5 12,-4 12,-4 0,0 1,8 -3,12z"/>
     <path class="fil9" d="M444 399c4,4 3,12 3,12 0,0 -7,1 -12,-3 -4,-4 -3,-12 -3,-12 0,0 8,-1 12,3z"/>
    </g>
    <path class="fil10" d="M436 396c0,4 -3,8 -8,8 -4,0 -8,-4 -8,-8 0,-5 4,-8 8,-8 5,0 8,3 8,8z"/>
   </g>
   <g>
    <path class="fil5" d="M573 119c-16,43 -69,48 -125,27 -56,-20 -93,-58 -78,-100 13,-34 65,-37 121,-16 56,20 94,55 82,89z"/>
    <path class="fil0" d="M490 33c-49,-18 -104,-20 -117,14 -14,39 182,111 196,71 13,-34 -31,-67 -79,-85z"/>
    <path class="fil5" d="M513 41c-4,10 -17,15 -30,10 -13,-5 -21,-17 -17,-27 4,-10 17,-14 30,-9 13,4 21,16 17,26z"/>
   </g>
  </g>
 </g>
</svg>
