<?xml version="1.0" encoding="UTF-8"?>
<!DOCTYPE svg PUBLIC "-//W3C//DTD SVG 1.1//EN" "http://www.w3.org/Graphics/SVG/1.1/DTD/svg11.dtd">
<!-- Creator: CorelDRAW X7 -->
<svg xmlns="http://www.w3.org/2000/svg" xml:space="preserve" width="8.4666mm" height="8.4666mm" version="1.1" style="shape-rendering:geometricPrecision; text-rendering:geometricPrecision; image-rendering:optimizeQuality; fill-rule:evenodd; clip-rule:evenodd"
viewBox="0 0 847 847"
 xmlns:xlink="http://www.w3.org/1999/xlink">
 <defs>
  <style type="text/css">
   <![CDATA[
    .fil12 {fill:#3F6D5D;fill-rule:nonzero}
    .fil10 {fill:#4B8977;fill-rule:nonzero}
    .fil3 {fill:#4F280F;fill-rule:nonzero}
    .fil1 {fill:#603111;fill-rule:nonzero}
    .fil2 {fill:#7E3F13;fill-rule:nonzero}
    .fil5 {fill:#E2BC79;fill-rule:nonzero}
    .fil9 {fill:#F2DA77;fill-rule:nonzero}
    .fil7 {fill:#F9F2D4;fill-rule:nonzero}
    .fil0 {fill:#FBD383;fill-rule:nonzero}
    .fil6 {fill:#FF4242;fill-rule:nonzero}
    .fil11 {fill:#FFDF48;fill-rule:nonzero}
    .fil8 {fill:#FFEFB3;fill-rule:nonzero}
    .fil4 {fill:white;fill-rule:nonzero}
   ]]>
  </style>
 </defs>
 <g id="Layer_x0020_1">
  <metadata id="CorelCorpID_0Corel-Layer"/>
  <g id="_253892640">
   <path class="fil0" d="M105 160l0 50c-8,1 -14,7 -14,15 0,8 6,14 14,15l0 10 0 0c2,45 40,81 86,81 45,0 83,-36 85,-81l0 0 0 -90 -171 0z"/>
   <g>
    <path class="fil1" d="M167 209c-5,0 -10,-1 -10,-1 -2,-1 -3,-2 -3,-4 1,-2 2,-3 4,-3 1,0 18,3 27,-4 4,-2 5,-6 6,-11 0,-2 2,-3 4,-3 2,1 3,2 3,4 -1,7 -4,12 -9,16 -6,5 -15,6 -22,6z"/>
   </g>
   <g>
    <path class="fil1" d="M256 209c-7,0 -16,-1 -22,-6 -5,-4 -8,-9 -9,-16 0,-2 1,-3 3,-4 2,0 4,1 4,3 0,5 2,9 6,11 9,7 26,4 27,4 1,0 3,1 4,3 0,2 -1,3 -3,4 -1,0 -5,1 -10,1z"/>
   </g>
   <path class="fil2" d="M132 119l170 0c11,40 -26,66 -26,66l-40 -11 13 10c-41,25 -85,-4 -85,-4 0,19 -31,22 -31,22 0,0 0,4 0,21 0,18 -28,20 -28,20l0 -34 0 -57c0,0 -3,-33 27,-33z"/>
   <path class="fil1" d="M122 121c0,0 -5,-29 18,-39 24,-10 35,5 39,-13l22 0 0 50 -79 2z"/>
   <path class="fil1" d="M274 121c0,0 5,-29 -19,-39 -23,-10 -35,5 -38,-13l-22 0 0 50 79 2z"/>
   <path class="fil3" d="M171 69l53 0c0,0 -1,-24 -26,-24 -25,0 -27,24 -27,24z"/>
   <path class="fil4" d="M195 234c0,8 -7,15 -16,15 -8,0 -15,-7 -15,-15 0,-9 7,-16 15,-16 9,0 16,7 16,16z"/>
   <path class="fil1" d="M190 235c0,4 -3,7 -6,7 -4,0 -7,-3 -7,-7 0,-3 3,-6 7,-6 3,0 6,3 6,6z"/>
   <path class="fil4" d="M265 234c0,8 -7,15 -15,15 -9,0 -16,-7 -16,-15 0,-9 7,-16 16,-16 8,0 15,7 15,16z"/>
   <path class="fil1" d="M260 235c0,4 -2,7 -6,7 -4,0 -6,-3 -6,-7 0,-3 2,-6 6,-6 4,0 6,3 6,6z"/>
   <g>
    <path class="fil5" d="M207 262c-2,0 -3,-1 -3,-3 0,-2 1,-4 3,-4 4,0 9,-1 11,-4 3,-4 -1,-13 -3,-16 -1,-1 0,-3 1,-4 2,-1 4,-1 5,1 1,1 8,14 3,23 -2,5 -8,7 -17,7z"/>
   </g>
   <g>
    <path class="fil6" d="M309 268c7,-3 11,-11 8,-18 -2,-8 -10,-12 -18,-9 -5,2 -8,6 -9,11l-1 1 -60 21c0,0 -9,2 -7,10 0,0 2,6 9,4l64 -23 0 0c3,3 9,5 14,3z"/>
    <path class="fil4" d="M228 292c-6,0 -8,-5 -9,-8 -1,-3 0,-6 1,-8 2,-4 7,-5 8,-6l59 -20c2,-6 6,-10 11,-12 2,-1 4,-1 6,-1 8,0 14,5 17,12 1,4 1,9 -1,13 -2,4 -6,8 -10,9 -2,1 -4,1 -6,1 -3,0 -7,-1 -10,-3l-62 22c-1,1 -2,1 -4,1zm76 -48l0 0c-1,0 -2,0 -4,0 -3,2 -6,5 -7,9 0,1 -1,2 -2,3l-61 21c0,0 0,0 0,0 -1,0 -3,1 -4,3 0,0 -1,1 0,3 0,0 0,2 2,2 1,0 1,0 2,-1l63 -22c2,0 3,0 4,1 2,1 4,2 7,2 1,0 2,0 4,0 2,-1 4,-3 6,-6 1,-2 1,-5 0,-8 -1,-4 -5,-7 -10,-7z"/>
   </g>
   <path class="fil3" d="M48 842l2 0c7,0 29,-2 29,-24l0 -524 -63 0 0 529c1,7 6,19 32,19z"/>
   <path class="fil3" d="M771 426l0 397c1,7 6,19 32,19l2 0c7,0 30,-2 30,-24l0 -392 -64 0z"/>
   <path class="fil7" d="M79 314c0,0 65,-5 65,59 0,63 0,95 0,95l-65 0 0 -154z"/>
   <polygon class="fil8" points="771,468 144,468 79,468 79,600 771,600 "/>
   <polygon class="fil9" points="771,766 79,766 79,600 771,600 "/>
   <path class="fil0" d="M191 331c-7,0 -13,-1 -19,-2l0 15 38 0 0 -15c-6,1 -13,2 -19,2z"/>
   <path class="fil10" d="M240 468l0 -82c0,0 -11,-47 -50,-47 -39,0 -46,36 -46,36l0 93 96 0z"/>
   <path class="fil0" d="M189 428c0,0 5,43 51,40l0 -34c0,0 -11,-4 -18,-25l-33 19z"/>
   <polygon class="fil11" points="240,383 240,790 654,790 654,389 654,383 "/>
   <g>
    <path class="fil12" d="M184 435c-2,0 -3,-1 -3,-2l-16 -22c-1,-1 0,-4 1,-5 2,-1 4,0 5,1l14 20 38 -22c1,-1 4,-1 4,1 1,2 1,4 -1,5l-41 23c0,1 -1,1 -1,1z"/>
   </g>
   <g>
    <path class="fil12" d="M175 423c-1,0 -2,-1 -3,-2 -1,-1 0,-4 2,-5l42 -23c1,-1 4,0 5,2 0,1 0,3 -2,4l-42 24c0,0 -1,0 -2,0z"/>
   </g>
   <path class="fil6" d="M128 264c0,2 -1,4 -3,4 -2,0 -4,-2 -4,-4 0,-2 2,-3 4,-3 2,0 3,1 3,3z"/>
   <path class="fil6" d="M158 275c0,2 -2,3 -4,3 -2,0 -3,-1 -3,-3 0,-2 1,-4 3,-4 2,0 4,2 4,4z"/>
   <path class="fil6" d="M191 294c0,2 -2,4 -4,4 -2,0 -3,-2 -3,-4 0,-1 1,-3 3,-3 2,0 4,2 4,3z"/>
   <path class="fil6" d="M218 307c0,2 -1,4 -3,4 -2,0 -4,-2 -4,-4 0,-2 2,-3 4,-3 2,0 3,1 3,3z"/>
   <path class="fil6" d="M189 265c2,2 2,4 0,5 -1,2 -3,2 -4,0 -2,-1 -2,-3 0,-5 1,-1 3,-1 4,0z"/>
   <path class="fil6" d="M193 323c2,1 2,4 0,5 -1,1 -3,1 -5,0 -1,-1 -1,-4 0,-5 2,-1 4,-1 5,0z"/>
   <path class="fil6" d="M228 205c0,2 -2,4 -4,4 -1,0 -3,-2 -3,-4 0,-1 2,-3 3,-3 2,0 4,2 4,3z"/>
   <path class="fil6" d="M250 298c0,2 -1,4 -3,4 -2,0 -4,-2 -4,-4 0,-2 2,-4 4,-4 2,0 3,2 3,4z"/>
   <path class="fil6" d="M167 301c2,1 2,4 0,5 -1,1 -3,1 -5,0 -1,-1 -1,-4 0,-5 2,-1 4,-1 5,0z"/>
   <path class="fil6" d="M143 292c1,1 1,4 0,5 -2,1 -4,1 -5,0 -2,-1 -2,-4 0,-5 1,-1 3,-1 5,0z"/>
   <path class="fil6" d="M154 218c0,2 -1,4 -3,4 -2,0 -4,-2 -4,-4 0,-2 2,-3 4,-3 2,0 3,1 3,3z"/>
   <path class="fil6" d="M207 222c0,2 -1,3 -3,3 -2,0 -4,-1 -4,-3 0,-2 2,-4 4,-4 2,0 3,2 3,4z"/>
   <path class="fil6" d="M237 255c1,1 1,3 0,5 -1,1 -4,1 -5,0 -1,-2 -1,-4 0,-5 1,-2 4,-2 5,0z"/>
   <path class="fil6" d="M150 243c1,1 1,3 0,5 -2,1 -4,1 -5,0 -2,-2 -2,-4 0,-5 1,-2 3,-2 5,0z"/>
   <path class="fil6" d="M224 453c0,2 -1,4 -3,4 -2,0 -4,-2 -4,-4 0,-2 2,-3 4,-3 2,0 3,1 3,3z"/>
   <path class="fil6" d="M208 435c0,2 -2,3 -4,3 -2,0 -3,-1 -3,-3 0,-2 1,-4 3,-4 2,0 4,2 4,4z"/>
   <path class="fil6" d="M273 216c1,1 1,3 0,5 -2,1 -4,1 -5,0 -2,-2 -2,-4 0,-5 1,-1 3,-1 5,0z"/>
   <path class="fil6" d="M233 436c2,2 2,4 0,5 -1,2 -3,2 -5,0 -1,-1 -1,-3 0,-5 2,-1 4,-1 5,0z"/>
   <path class="fil6" d="M263 184c1,2 1,4 0,5 -1,2 -4,2 -5,0 -1,-1 -1,-3 0,-5 1,-1 4,-1 5,0z"/>
   <path class="fil6" d="M175 192c0,2 -1,3 -3,3 -2,0 -4,-1 -4,-3 0,-2 2,-4 4,-4 2,0 3,2 3,4z"/>
   <path class="fil2" d="M105 243l0 -34 -14 -63c0,0 1,-25 31,-25 29,0 18,39 18,39l-35 83z"/>
  </g>
 </g>
</svg>
