<?xml version="1.0" encoding="UTF-8"?>
<!DOCTYPE svg PUBLIC "-//W3C//DTD SVG 1.1//EN" "http://www.w3.org/Graphics/SVG/1.1/DTD/svg11.dtd">
<!-- Creator: CorelDRAW X7 -->
<svg xmlns="http://www.w3.org/2000/svg" xml:space="preserve" width="8.4666mm" height="8.4666mm" version="1.1" style="shape-rendering:geometricPrecision; text-rendering:geometricPrecision; image-rendering:optimizeQuality; fill-rule:evenodd; clip-rule:evenodd"
viewBox="0 0 847 847"
 xmlns:xlink="http://www.w3.org/1999/xlink">
 <defs>
  <style type="text/css">
   <![CDATA[
    .fil3 {fill:#FEFEFE}
    .fil12 {fill:#FEE7C9}
    .fil13 {fill:#FDE2C1}
    .fil14 {fill:#FCD7B7}
    .fil2 {fill:#FCD59E}
    .fil6 {fill:#FBCD91}
    .fil11 {fill:#F8B87F}
    .fil10 {fill:#F8B77B}
    .fil15 {fill:#F6B287}
    .fil8 {fill:#F29221}
    .fil5 {fill:#EE7430}
    .fil7 {fill:#F1C17B}
    .fil16 {fill:#B68257}
    .fil9 {fill:#433F3E}
    .fil0 {fill:#2F2D2B}
    .fil1 {fill:#255C91}
    .fil4 {fill:#234264}
   ]]>
  </style>
 </defs>
 <g id="Layer_x0020_1">
  <metadata id="CorelCorpID_0Corel-Layer"/>
  <path class="fil0" d="M554 394c0,8 -7,15 -15,15l-123 0c-8,0 -14,-7 -14,-15l0 -118c0,-8 6,-15 14,-15l123 0c8,0 15,7 15,15l0 118z"/>
  <path class="fil1" d="M603 377c10,6 24,2 32,-9 8,-12 6,-27 -4,-33l-89 -59c-10,-6 -24,-2 -32,9 -7,12 -6,27 4,33l89 59z"/>
  <path class="fil1" d="M644 374c8,-10 5,-25 -6,-34 -12,-8 -27,-6 -34,4l-40 57c-8,10 -5,25 7,33 11,9 26,7 34,-3l39 -57z"/>
  <path class="fil2" d="M551 431c1,14 13,24 26,23 14,-1 24,-13 23,-27 -1,-13 -13,-23 -26,-22 -14,1 -24,13 -23,26z"/>
  <path class="fil1" d="M351 377c-10,6 -24,2 -31,-9 -8,-12 -6,-27 4,-33l88 -59c10,-6 24,-2 32,9 8,12 6,27 -4,33l-89 59z"/>
  <path class="fil1" d="M310 374c-7,-10 -4,-25 7,-34 11,-8 26,-6 34,4l40 57c7,10 4,25 -7,33 -11,9 -27,7 -34,-3l-40 -57z"/>
  <path class="fil2" d="M403 431c-1,14 -13,24 -26,23 -14,-1 -24,-13 -23,-27 1,-13 13,-23 27,-22 13,1 23,13 22,26z"/>
  <polygon class="fil2" points="453,556 453,808 421,808 387,556 "/>
  <polygon class="fil3" points="419,798 453,798 453,699 406,699 "/>
  <polygon class="fil1" points="408,710 421,808 453,808 453,710 "/>
  <path class="fil0" d="M431 777c-21,0 -38,17 -38,38l79 0c0,-21 -19,-38 -41,-38z"/>
  <polygon class="fil2" points="501,556 501,808 533,808 566,556 "/>
  <polygon class="fil3" points="534,798 501,798 501,699 547,699 "/>
  <polygon class="fil1" points="546,710 533,808 501,808 501,710 "/>
  <path class="fil0" d="M522 777c21,0 39,17 39,38l-80 0c0,-21 20,-38 41,-38z"/>
  <path class="fil2" d="M586 142c-1,0 -2,0 -3,0 0,0 0,0 0,0 -2,7 -4,15 -4,4 0,-10 -26,-29 -38,-34 -10,-5 -14,-13 -24,-16 -9,14 -20,32 -48,33 -16,1 -26,-1 -33,-3 -8,-2 -13,-4 -20,-4 -15,2 -24,7 -29,12 -4,5 -2,13 -7,15l-1 -8 0 1c-2,0 -4,-1 -6,0 0,0 -1,0 -1,0 -4,1 -12,9 -9,19 3,7 10,11 17,12 1,5 2,11 4,15 1,2 1,3 2,5 1,2 2,3 2,5 1,1 1,1 1,2 1,1 2,3 3,5 1,1 1,2 2,3 12,19 32,34 54,42l0 35 59 0 0 -35c24,-6 43,-21 57,-41 0,0 0,-1 0,-1 2,-3 4,-6 5,-9l0 0c1,-1 1,-2 2,-3 1,-2 1,-3 2,-5 2,-6 4,-12 5,-18 7,-1 15,-5 17,-12 3,-10 -5,-18 -9,-19z"/>
  <polygon class="fil4" points="478,477 476,477 385,469 385,675 467,675 477,527 487,675 569,675 569,469 "/>
  <path class="fil5" d="M579 146c-2,21 2,3 4,-4 0,0 0,0 0,0 1,-4 1,-8 1,-12 0,-52 -55,-93 -106,-93 -52,0 -106,41 -106,93 0,4 1,8 1,12 2,-1 4,0 6,0l0 -1 2 18c5,-2 120,-16 136,-63 7,8 63,40 62,50z"/>
  <path class="fil1" d="M569 464c-11,-83 -10,-148 -37,-188l-110 0c-27,40 -29,106 -37,188l184 0z"/>
  <path class="fil2" d="M479 322c0,0 45,-40 45,-48 0,0 0,-1 0,-1l-89 0c0,0 0,1 0,1 0,8 44,48 44,48z"/>
  <path class="fil6" d="M432 224l0 0c12,0 21,-9 21,-20 0,-4 -1,-7 -3,-10 -2,1 -4,2 -7,3 0,1 -1,1 -2,1 0,0 0,0 0,0 -1,0 -1,0 -1,0 -3,0 -5,0 -7,0 -6,0 -11,-1 -15,-3 0,1 -1,2 -3,2 0,0 0,0 0,0 -1,0 -1,0 -1,0 -1,2 -2,4 -2,7l0 0c0,11 9,20 20,20zm2 -21c-1,0 -2,1 -2,2 0,2 1,3 2,3 0,0 0,0 0,0 2,0 3,-1 3,-3 0,-1 -1,-2 -3,-2 0,0 0,0 0,0l0 0zm-13 -1c-1,0 -2,1 -2,3 0,1 1,2 2,2 0,0 0,0 0,0 1,0 3,-1 3,-2 0,-1 -1,-3 -3,-3 0,0 0,0 0,0z"/>
  <path class="fil6" d="M528 224c-11,0 -20,-9 -20,-20 0,-3 1,-7 2,-9 3,1 6,2 9,3 0,0 1,0 2,0 0,0 0,0 0,0 0,0 0,0 0,0 2,0 3,0 5,0 2,0 4,0 7,0 0,0 0,0 1,0 0,0 0,0 0,0 0,0 1,-1 1,-1 4,-1 7,-3 10,-5 0,0 0,1 0,1 -1,0 -1,1 -1,2 0,1 1,2 3,2 0,0 0,0 0,0 0,0 0,0 0,0 1,2 1,4 1,7 0,11 -9,20 -20,20zm-1 -21c0,0 0,0 0,0 -1,0 -2,1 -2,2 0,2 1,3 2,3 0,0 0,0 0,0 2,0 3,-1 3,-3 0,-1 -1,-2 -3,-2zm14 -1c0,0 -1,0 -1,0 -1,0 -2,2 -2,3 0,1 1,2 3,2 0,0 0,0 0,0 1,0 2,-1 2,-2 0,-2 -1,-3 -2,-3z"/>
  <path class="fil7" d="M467 192c6,-7 17,-7 24,0l-24 0z"/>
  <path class="fil7" d="M507 273l17 0 -17 26 -59 -47c0,0 25,6 33,6 7,0 26,-6 26,-6l0 21z"/>
  <path class="fil3" d="M519 777l0 0 0 0 0 0zm4 -1c0,0 2,-2 5,-4 5,-2 7,-1 7,1 1,2 -2,3 -6,4 -4,0 -6,-1 -6,-1zm-7 0c0,0 -2,0 -6,-1 -4,-1 -6,-2 -6,-5 1,-2 5,0 7,1 3,2 5,5 5,5zm-17 6l2 5 18 -9 0 0 16 12c0,-1 4,-4 4,-4l-16 -8c1,0 3,0 5,1 8,0 12,-3 11,-7 -1,-5 -6,-7 -11,-3 -5,3 -8,7 -9,8 -1,-2 -4,-6 -9,-9 -5,-4 -10,-2 -10,3 0,4 5,6 11,6 2,1 3,1 5,1l-17 4z"/>
  <path class="fil3" d="M433 777l0 0 0 0 0 0zm-10 0c-4,-1 -7,-2 -6,-4 0,-2 2,-3 7,-1 3,2 5,4 5,4 0,0 -2,1 -6,1zm18 -6c2,-1 6,-3 7,-1 0,3 -2,4 -6,5 -4,1 -6,1 -6,1 0,0 2,-3 5,-5zm-5 7c2,0 3,0 5,-1 6,0 11,-2 11,-6 0,-5 -5,-7 -10,-3 -5,3 -8,7 -9,9 -1,-1 -4,-5 -9,-8 -5,-4 -10,-2 -11,3 -1,4 3,7 11,7 2,-1 4,-1 5,-1l-16 8c0,0 4,3 4,4l16 -12 0 0 18 9 2 -5 -17 -4z"/>
  <polygon class="fil8" points="612,82 612,38 606,38 606,82 "/>
  <path class="fil8" d="M614 89c1,-1 1,-3 1,-4 0,-4 -2,-7 -6,-7 -3,0 -6,3 -6,7 0,1 0,3 1,4l-6 29 0 0 0 0c0,4 5,7 11,7 6,0 11,-3 11,-7l0 0 0 0 -6 -29z"/>
  <path class="fil0" d="M477 117l-96 -21 6 -52c60,0 121,0 181,0l6 52 -97 21z"/>
  <polygon class="fil9" points="618,37 476,3 334,37 476,71 "/>
  <polygon class="fil0" points="398,355 387,353 422,268 435,268 "/>
  <polygon class="fil0" points="557,357 566,353 535,265 521,265 "/>
  <path class="fil3" d="M508 214l-57 0c0,0 3,10 14,15 3,2 6,3 11,3 8,2 17,-1 19,-4l0 0c10,-5 13,-14 13,-14z"/>
  <path class="fil10" d="M441 198c0,0 0,0 0,0 -1,0 -1,0 -1,0 1,-1 2,-1 3,-1 0,1 -1,1 -2,1z"/>
  <path class="fil11" d="M414 197c-1,-1 -1,-2 -1,-3 0,0 0,-1 1,-2 0,1 1,1 1,1 0,1 -1,3 -1,4z"/>
  <path class="fil10" d="M415 197c0,0 0,0 0,0 -1,0 -1,0 -1,0 0,-1 1,-3 1,-4 1,1 2,1 3,2 0,1 -1,2 -3,2z"/>
  <path class="fil10" d="M434 208c0,0 0,0 0,0 -1,0 -2,-1 -2,-3 0,-1 1,-2 2,-2 0,0 0,0 0,0 2,0 3,1 3,2 0,2 -1,3 -3,3z"/>
  <path class="fil10" d="M421 207c0,0 0,0 0,0 -1,0 -2,-1 -2,-2 0,-2 1,-3 2,-3 0,0 0,0 0,0 2,0 3,2 3,3 0,1 -2,2 -3,2z"/>
  <path class="fil10" d="M534 198c-1,0 -1,0 -1,0 1,-1 2,-1 2,-1 0,0 -1,1 -1,1 0,0 0,0 0,0z"/>
  <path class="fil10" d="M521 198c-1,0 -2,0 -2,0 1,0 2,0 2,0 0,0 0,0 0,0 0,0 0,0 0,0z"/>
  <path class="fil11" d="M547 197c0,-2 -1,-3 -2,-4 0,-1 1,-1 1,-1 0,0 0,0 1,0 1,0 2,1 2,2 0,2 -1,3 -2,3z"/>
  <path class="fil10" d="M547 197c-2,0 -3,-1 -3,-2 0,-1 0,-2 1,-2 1,1 2,2 2,4 0,0 0,0 0,0 0,0 0,0 0,0z"/>
  <path class="fil10" d="M527 208c-1,0 -2,-1 -2,-3 0,-1 1,-2 2,-2 0,0 0,0 0,0 2,0 3,1 3,2 0,2 -1,3 -3,3 0,0 0,0 0,0z"/>
  <path class="fil10" d="M541 207c-2,0 -3,-1 -3,-2 0,-1 1,-3 2,-3 0,0 1,0 1,0 1,0 2,1 2,3 0,1 -1,2 -2,2 0,0 0,0 0,0z"/>
  <path class="fil0" d="M452 458l-67 0c0,4 0,6 0,6l0 24 67 0 0 -30z"/>
  <path class="fil0" d="M494 475l-17 0c-1,0 -3,-1 -3,-3 0,-1 2,-2 3,-2l17 0c1,0 3,1 3,2 0,2 -2,3 -3,3zm-36 -17l0 30 40 0 0 -30 -40 0z"/>
  <path class="fil0" d="M504 488l65 0 0 -24c0,0 0,-2 0,-6l-65 0 0 30z"/>
  <path class="fil3" d="M498 489l-40 0 0 -1 0 -30 40 0 0 30 0 1zm6 -37l-52 0 0 6 0 30 0 7 52 0 0 -7 0 -30 0 -6z"/>
  <path class="fil3" d="M494 470l-17 0c-1,0 -3,1 -3,2 0,2 2,3 3,3l17 0c1,0 3,-1 3,-3 0,-1 -2,-2 -3,-2z"/>
  <polygon class="fil3" points="481,321 542,299 525,273 "/>
  <polygon class="fil3" points="478,321 417,299 434,273 "/>
  <path class="fil3" d="M484 339c0,3 -2,5 -5,5 -2,0 -5,-2 -5,-5 0,-3 3,-5 5,-5 3,0 5,2 5,5z"/>
  <path class="fil3" d="M484 363c0,3 -2,5 -5,5 -2,0 -5,-2 -5,-5 0,-3 3,-5 5,-5 3,0 5,2 5,5z"/>
  <path class="fil3" d="M484 387c0,2 -2,5 -5,5 -2,0 -5,-3 -5,-5 0,-3 3,-5 5,-5 3,0 5,2 5,5z"/>
  <path class="fil3" d="M484 410c0,3 -2,5 -5,5 -2,0 -5,-2 -5,-5 0,-2 3,-5 5,-5 3,0 5,3 5,5z"/>
  <path class="fil3" d="M484 434c0,3 -2,5 -5,5 -2,0 -5,-2 -5,-5 0,-3 3,-5 5,-5 3,0 5,2 5,5z"/>
  <path class="fil12" d="M512 192c-10,-4 -16,-13 -16,-24 0,-14 13,-27 30,-27 16,0 29,13 29,27 0,9 -5,17 -12,22 -4,-4 -9,-6 -15,-6 -7,0 -13,3 -16,8zm10 -35c-3,0 -6,2 -6,5 0,4 3,6 6,6 3,0 6,-2 6,-6 0,-3 -3,-5 -6,-5z"/>
  <path class="fil13" d="M526 195c-1,0 -2,0 -3,0 0,-1 -1,-2 -2,-2 0,0 -1,0 -1,0 -1,0 -1,1 -2,1 -2,0 -4,-1 -6,-2 3,-5 9,-8 16,-8 6,0 11,2 15,6 -2,2 -5,3 -7,4 -1,-1 -2,-1 -2,-1 0,0 0,0 0,0 -2,0 -3,1 -3,2 -2,0 -4,0 -5,0z"/>
  <path class="fil14" d="M531 195c0,-1 1,-2 3,-2 0,0 0,0 0,0 0,0 1,0 2,1 -2,0 -3,1 -5,1z"/>
  <path class="fil14" d="M523 195c-2,0 -3,0 -5,-1 1,0 1,-1 2,-1 0,0 1,0 1,0 1,0 2,1 2,2z"/>
  <path class="fil12" d="M448 191c-3,-4 -9,-7 -16,-7 -6,0 -11,2 -15,7 -8,-5 -13,-13 -13,-23 0,-5 1,-10 5,-14 10,-3 23,-6 37,-10 10,4 16,14 16,24 0,10 -5,19 -14,23zm-11 -34c-3,0 -6,2 -6,5 0,4 3,6 6,6 3,0 6,-2 6,-6 0,-3 -3,-5 -6,-5z"/>
  <path class="fil15" d="M409 154c5,-8 14,-13 24,-13 5,0 9,1 13,3 -14,4 -27,7 -37,10z"/>
  <path class="fil13" d="M433 195c-1,0 -2,0 -2,0 0,0 0,0 0,0 0,-1 -1,-2 -3,-2 0,0 0,0 0,0 -1,0 -2,0 -2,1 -4,0 -6,-2 -9,-3 4,-5 9,-7 15,-7 7,0 13,3 16,7 -1,1 -3,2 -5,3 -1,-1 -1,-1 -2,-1 0,0 0,0 0,0 -1,0 -2,1 -2,2 -2,0 -4,0 -6,0z"/>
  <path class="fil14" d="M431 195c-2,0 -4,0 -5,-1 0,-1 1,-1 2,-1 0,0 0,0 0,0 2,0 3,1 3,2 0,0 0,0 0,0z"/>
  <path class="fil14" d="M439 195c0,-1 1,-2 2,-2 0,0 0,0 0,0 1,0 1,0 2,1 -1,0 -3,1 -4,1z"/>
  <path class="fil3" d="M526 141c16,0 29,13 29,27 0,15 -13,27 -29,27 -17,0 -30,-12 -30,-27 0,-14 13,-27 30,-27zm-93 54c-16,0 -29,-12 -29,-27 0,-14 13,-27 29,-27 16,0 29,13 29,27 0,15 -13,27 -29,27zm93 -57c-17,0 -30,11 -33,25 -12,-7 -24,-3 -28,-1 -4,-14 -17,-24 -32,-24 -18,0 -33,14 -33,30 0,17 15,30 33,30 18,0 33,-13 33,-30 0,-1 -1,-2 -1,-4 4,-1 16,-5 28,2 0,1 0,2 0,2 0,17 14,30 33,30 18,0 32,-13 32,-30 0,-16 -14,-30 -32,-30z"/>
  <path class="fil3" d="M583 141c0,-1 -1,-1 -2,-1l-28 16c-1,0 -1,1 -1,1 1,1 1,1 2,1l0 0 29 -15c0,-1 1,-1 0,-2z"/>
  <path class="fil3" d="M406 156l-28 -16c-1,0 -2,0 -2,1 0,1 0,1 1,2l28 15 1 0c0,0 0,0 1,-1 0,0 0,-1 -1,-1z"/>
  <path class="fil16" d="M522 168c-3,0 -6,-2 -6,-6 0,-3 3,-5 6,-5 3,0 6,2 6,5 0,4 -3,6 -6,6z"/>
  <path class="fil16" d="M437 168c-3,0 -6,-2 -6,-6 0,-3 3,-5 6,-5 3,0 6,2 6,5 0,4 -3,6 -6,6z"/>
 </g>
</svg>
