<?xml version="1.0" encoding="UTF-8"?>
<!DOCTYPE svg PUBLIC "-//W3C//DTD SVG 1.1//EN" "http://www.w3.org/Graphics/SVG/1.1/DTD/svg11.dtd">
<!-- Creator: CorelDRAW X7 -->
<svg xmlns="http://www.w3.org/2000/svg" xml:space="preserve" width="8.4666mm" height="8.4666mm" version="1.1" style="shape-rendering:geometricPrecision; text-rendering:geometricPrecision; image-rendering:optimizeQuality; fill-rule:evenodd; clip-rule:evenodd"
viewBox="0 0 847 847"
 xmlns:xlink="http://www.w3.org/1999/xlink">
 <defs>
  <style type="text/css">
   <![CDATA[
    .fil0 {fill:#151D38}
    .fil4 {fill:#95B892}
    .fil6 {fill:#A24C31}
    .fil5 {fill:#C47659}
    .fil7 {fill:#E8384A}
    .fil3 {fill:#EFD2E6}
    .fil2 {fill:#FCE2D8}
    .fil1 {fill:white}
   ]]>
  </style>
 </defs>
 <g id="Layer_x0020_1">
  <metadata id="CorelCorpID_0Corel-Layer"/>
  <g id="_263641904">
   <g>
    <path class="fil0" d="M80 790c1,-2 3,-2 5,-2 13,0 26,0 39,0 1,0 2,0 2,0 2,0 2,0 2,-2 0,-3 0,-7 0,-11 0,-3 1,-3 3,-3 2,0 4,0 6,0 1,0 2,-1 2,-2 0,-4 0,-7 0,-11 0,-3 0,-3 3,-3 21,0 43,0 64,0 0,0 1,0 1,0 2,0 2,0 2,2 1,3 0,6 0,9 0,0 0,1 0,1 0,4 0,4 4,4 1,0 3,0 4,0 2,0 3,0 3,3 0,3 0,7 0,11 0,2 0,2 2,2 12,0 24,0 37,0 2,0 2,0 2,-2 0,-2 0,-5 0,-7 0,-3 1,-3 3,-3 1,0 3,0 4,-1 1,-1 1,-3 1,-4 0,-5 0,-9 0,-14 0,-3 0,-3 3,-4 11,-4 22,-7 34,-10 17,-5 35,-9 54,-12 9,-2 18,-4 27,-5 3,0 4,-1 5,-3 5,-16 10,-31 16,-47 0,-1 0,-2 0,-3 0,0 0,0 0,0 0,0 0,0 0,0 0,0 0,-1 0,0 -1,0 -2,1 -3,1 -20,10 -41,15 -64,16 -34,2 -65,-8 -93,-26 -14,-9 -27,-19 -39,-31 -16,-15 -31,-33 -43,-52 -1,-2 -2,-4 -3,-7 -2,-3 -2,-4 1,-5 15,-6 29,-12 43,-18 2,-1 3,-2 3,-4 1,-8 -2,-14 -3,-21 0,-1 0,-2 -1,-2 -6,-2 -9,-5 -9,-11 0,-1 0,-2 -1,-2 -6,-3 -8,-7 -7,-13 0,-1 -1,-2 -2,-2 -7,-4 -10,-10 -10,-17 1,-8 5,-14 12,-16 4,-1 7,-2 11,-2 1,-1 2,-1 1,-3 -1,-5 -2,-9 -2,-14 -1,-2 -1,-2 -3,-2 -6,1 -12,3 -18,4 -1,0 -2,1 -2,2 -1,3 -4,5 -7,5 -1,1 -2,1 -4,1 -4,1 -8,-1 -9,-6 -1,-5 -2,-9 -3,-14 -3,-16 -6,-32 -9,-48 -1,-6 2,-10 7,-11 1,0 2,-1 3,-1 3,0 6,0 7,2 2,1 3,1 4,1 20,-4 39,-8 59,-13 1,0 3,0 4,-3 0,-2 1,-3 3,-4 3,-1 6,-1 9,-1 4,0 6,2 7,6 1,6 2,12 4,18 2,15 5,30 8,46 1,4 -1,8 -6,9 -1,0 -2,1 -3,1 -4,1 -7,0 -9,-3 -1,0 -2,0 -3,0 -6,1 -12,3 -19,4 -1,0 -1,1 -1,2 1,4 1,8 2,12 0,1 1,2 2,1 4,-1 8,-2 12,-2 14,-3 27,6 31,19 4,13 -3,27 -15,33 -1,0 -1,0 -2,0 -1,1 -1,1 -1,3 2,8 3,16 5,24 0,1 1,2 2,1 1,-1 2,-1 3,-1 3,-2 4,-1 5,2 1,8 3,16 6,23 5,15 12,30 21,42 6,8 13,15 22,20 9,6 19,8 30,9 21,2 38,-6 54,-19 6,-6 12,-14 17,-21 3,-5 7,-10 11,-15 5,-6 11,-10 19,-11 2,-1 2,-1 1,-3 -4,-7 -9,-14 -14,-20 -8,-11 -17,-21 -25,-32 -17,-22 -29,-45 -36,-72 -2,-8 -4,-17 -5,-26 -1,-3 -1,-3 -3,-3 -17,1 -31,-13 -30,-30 1,-16 15,-29 30,-28 5,0 5,0 6,-4 7,-27 21,-51 41,-71 23,-22 50,-36 82,-42 5,-1 11,-2 16,-2 1,0 2,0 2,-1 6,0 12,0 18,0 0,1 1,1 2,1 20,1 39,6 57,15 31,16 54,39 70,70 5,10 9,21 12,32 0,0 0,0 0,0 1,3 1,3 3,3 7,-1 14,0 19,4 11,7 16,21 12,33 -4,14 -17,21 -27,21 -1,0 -1,0 -2,0 -1,0 -2,0 -2,2 -1,3 -1,6 -2,9 -5,30 -16,57 -33,81 -8,11 -17,22 -25,32 -6,7 -11,13 -16,21 -2,3 -3,6 -5,9 -1,2 -1,2 1,3 6,1 11,4 15,8 6,5 10,11 13,18 10,26 19,51 29,76 7,17 13,34 20,51 0,1 0,1 1,2 0,1 1,1 1,0 3,-2 6,-4 10,-5 2,0 5,0 8,0 2,1 2,0 2,-1 0,-1 0,-2 0,-3 0,-38 0,-76 0,-114 0,0 0,-1 0,-1 0,-5 0,-5 4,-5 18,0 35,0 52,0 0,0 1,0 1,0 3,0 3,0 3,-2 0,-9 0,-18 0,-27 0,0 0,-1 0,-2 0,-2 0,-2 2,-2 1,0 2,0 2,0l29 0 0 270 -699 0c-1,0 -1,-1 -2,-1 0,-11 0,-22 0,-33z"/>
    <path class="fil1" d="M506 612c-5,2 -10,4 -15,6 -2,1 -1,1 0,2 5,5 10,10 15,15 1,1 1,1 2,-1 1,-1 2,-1 4,-3 2,-2 1,-1 0,-3 -3,-3 -5,-5 -8,-8 -2,-2 -2,-2 0,-5 1,-1 2,-1 2,-3 1,0 1,0 1,0 -1,0 -1,0 -1,0z"/>
    <path class="fil1" d="M576 586c-1,-1 -3,0 -4,0 -16,6 -31,13 -47,19 -1,0 -1,0 -2,0 -1,1 0,1 0,1 0,1 1,1 1,1 7,3 13,5 20,8 1,0 2,0 4,-1 9,-10 18,-19 28,-28 0,0 0,-1 -1,-1 1,1 1,1 1,1z"/>
    <path class="fil1" d="M457 586c0,-1 0,-1 0,-1 -1,1 0,1 0,1 0,0 0,0 1,1 9,9 18,18 27,27 1,1 2,1 3,1 7,-3 13,-5 20,-8 1,0 2,0 2,-1 0,-1 -1,-1 -2,-1 -16,-6 -32,-13 -49,-19 0,0 -1,-1 -2,0z"/>
    <path class="fil2" d="M672 400c3,1 6,0 10,-1 12,-5 19,-19 15,-31 -4,-12 -16,-21 -29,-18 -3,1 -4,1 -4,-2 -1,-4 -2,-8 -3,-11 -1,-2 -1,-3 -3,-3 -16,-2 -30,-7 -44,-14 -22,-11 -41,-26 -56,-46 -2,-3 -1,-3 -4,-1 -8,6 -17,12 -26,16 -23,11 -48,16 -74,15 -14,-1 -28,-3 -41,-7 -5,-2 -10,-4 -15,-6 -2,-1 -2,-1 -4,1 0,0 0,0 0,1 -12,16 -20,34 -25,54 -1,3 -1,3 -5,3 -3,-1 -7,-1 -10,0 -13,3 -21,15 -19,27 1,16 16,25 28,22 3,0 3,1 4,3 0,4 1,9 2,13 4,24 12,46 25,67 8,14 19,27 29,40 8,9 15,18 21,28 5,9 9,18 9,28 0,1 1,2 3,3 19,7 39,15 58,22 2,1 3,1 4,0 5,-1 9,-3 13,-5 15,-6 30,-11 45,-17 2,-1 3,-2 3,-4 1,-5 2,-10 4,-15 3,-9 9,-18 15,-25 7,-9 14,-18 22,-27 11,-15 21,-29 29,-46 9,-18 14,-38 17,-58 0,-6 -1,-6 6,-6z"/>
    <path class="fil0" d="M247 548c0,10 -6,18 -15,20 -11,2 -18,-5 -21,-12 0,-2 -1,-2 -3,-2 -8,4 -17,8 -26,12 -4,2 -9,4 -14,6 -2,1 -2,1 -1,3 1,2 3,4 4,6 12,18 26,35 41,50 17,16 35,30 56,40 21,10 44,16 68,16 26,0 51,-7 74,-20 0,0 1,0 1,-1 1,0 2,0 3,1 0,0 1,1 0,2 0,1 0,1 0,2 -6,17 -12,34 -18,51 -1,4 -1,4 3,3 16,-1 31,-2 47,-1 14,1 27,3 40,8 9,3 18,8 25,14 1,1 2,3 3,2 1,0 0,-2 0,-3 0,-31 0,-61 0,-92 0,-3 0,-5 -2,-7 -22,-21 -44,-43 -65,-64 -1,-1 -2,-2 -2,-3 -1,-1 -1,-1 0,-2 1,-1 1,-1 2,0 0,0 1,0 1,0 0,1 1,1 1,1 0,0 0,-1 0,-1 0,-4 -1,-8 -3,-12 0,-3 0,-3 -3,-2 -6,1 -12,5 -16,9 -5,5 -9,11 -12,17 -6,8 -13,16 -21,23 -16,13 -33,19 -54,18 -20,-2 -37,-11 -51,-27 -9,-12 -16,-25 -22,-39 -4,-9 -7,-19 -9,-29 0,-2 0,-2 -2,-1 -3,1 -6,3 -9,4 -2,0 -2,1 -2,3 2,2 2,5 2,7z"/>
    <path class="fil0" d="M518 699c0,11 0,23 0,35 0,4 0,9 0,13 0,1 0,2 1,2 0,0 1,-1 1,-1 5,-5 11,-9 17,-12 13,-7 28,-10 42,-11 16,-2 32,-2 48,0 3,0 6,0 9,0 1,0 2,0 1,-1 0,-1 0,-1 0,-1 -4,-13 -9,-25 -13,-38 -2,-5 -3,-11 -5,-16 -1,-2 0,-3 1,-3 1,0 2,0 2,2 1,0 1,0 1,1 3,10 7,21 10,31 3,8 6,16 8,23 1,2 1,3 4,3 2,0 4,1 6,1 3,0 7,1 11,1 0,1 1,1 1,0 1,-3 2,-6 1,-9 -5,-12 -10,-25 -15,-37 -11,-31 -23,-62 -35,-92 -5,-12 -13,-20 -25,-25 0,0 -1,0 -2,-1 0,0 -1,0 -1,1 -2,4 -3,8 -3,12 0,1 0,1 1,0 0,0 1,0 1,0 1,-1 2,-1 3,0 0,1 0,2 -1,3 0,0 -1,0 -1,1 -7,7 -15,15 -23,23 -14,14 -28,28 -43,43 -1,1 -2,3 -2,5 0,16 0,31 0,47z"/>
    <path class="fil1" d="M394 776c38,0 77,0 116,0 1,0 2,0 3,0 2,0 2,0 2,-2 0,-4 0,-8 0,-12 0,-7 0,-7 -5,-12 -8,-7 -17,-12 -27,-15 -15,-5 -31,-7 -47,-7 -23,-1 -45,1 -67,5 -21,3 -42,8 -63,14 -10,2 -21,5 -31,9 -3,1 -3,1 -3,4 0,4 0,8 0,12 0,5 0,4 4,4 40,0 79,0 118,0z"/>
    <path class="fil1" d="M640 776c39,0 78,0 117,0 0,0 1,0 2,0 2,0 2,-1 2,-2 0,-5 0,-10 0,-16 0,-1 -1,-2 -2,-2 -5,-2 -11,-3 -16,-5 -2,-1 -3,-1 -5,-1 0,-1 -1,0 -1,1 0,2 -1,3 -1,5 -2,5 -6,9 -11,9 -4,0 -8,-2 -10,-5 0,-1 -1,-2 -2,-1 -1,1 -2,2 -4,2 -5,1 -9,0 -12,-4 -1,-2 -1,-2 -3,-1 -2,1 -4,2 -6,2 -7,1 -12,-5 -12,-12 1,-3 1,-6 2,-8 0,-2 0,-2 -2,-3 0,0 -1,0 -1,0 -11,-2 -21,-3 -31,-5 -14,-1 -27,-2 -41,-2 -9,0 -18,0 -28,1 -10,2 -21,4 -31,8 -9,4 -17,9 -24,17 -1,1 -1,3 -1,4 0,5 0,10 0,16 0,2 0,2 2,2 1,0 2,0 3,0 39,0 77,0 116,0z"/>
    <path class="fil3" d="M748 670c0,-4 0,-7 0,-11 0,-22 0,-43 0,-65 0,-3 0,-3 -3,-3 -4,0 -9,0 -13,0 -12,0 -25,0 -37,0 -3,0 -3,0 -3,3 0,1 0,1 0,2 0,27 0,53 0,79 0,12 0,25 0,37 0,1 1,3 2,3 1,1 3,0 3,0 5,-1 10,0 14,3 2,1 3,1 5,1 12,-3 23,6 23,18 0,3 -1,5 -1,7 0,1 0,1 1,2 3,0 5,1 7,1 2,1 2,1 2,-1 0,-1 0,-2 0,-2 0,-25 0,-49 0,-74z"/>
    <path class="fil4" d="M517 788c82,0 165,0 247,0 5,0 5,0 5,-4 0,-5 0,-4 -4,-4 -166,0 -331,0 -496,0 -5,0 -4,-1 -4,4 0,5 -1,4 4,4 83,0 165,0 248,0z"/>
    <path class="fil5" d="M239 428c0,-1 0,-1 0,-2 -2,-10 -4,-21 -6,-31 -2,-8 -3,-17 -5,-25 0,-2 -1,-2 -2,-2 -2,1 -5,1 -7,2 -17,4 -35,7 -52,11 -3,1 -3,1 -2,3 1,5 2,10 3,15 2,14 5,28 7,41 1,3 1,3 4,2 15,-3 31,-7 47,-10 4,-1 8,-2 12,-3 0,0 1,0 1,-1z"/>
    <path class="fil2" d="M262 477c0,-14 -12,-25 -27,-23 -2,0 -5,1 -7,1 -3,1 -6,2 -9,2 -3,1 -5,5 -5,8 1,3 4,6 7,5 1,0 2,0 3,0 3,-1 7,-2 10,-2 2,-1 3,0 3,1 0,1 -1,2 -2,2 -2,1 -3,1 -5,2 -2,0 -2,0 -1,1 3,4 4,7 2,11 0,1 0,2 1,3 4,4 4,8 2,13 -1,1 -1,2 0,3 2,4 2,7 0,11 -1,2 -1,3 0,4 1,5 3,9 7,13 2,3 2,3 6,2 2,-2 2,-2 2,-4 -1,-5 -2,-10 -3,-15 -1,-4 -2,-8 -3,-12 0,-2 0,-2 2,-3 0,0 1,0 2,-1 9,-3 15,-12 15,-22z"/>
    <path class="fil5" d="M174 776c-13,0 -25,0 -38,0 -1,0 -2,0 -2,0 -1,0 -2,0 -2,1 0,3 0,6 0,10 0,1 1,1 2,1 0,0 1,0 2,0 25,0 51,0 77,0 0,0 1,0 1,0 1,0 2,0 2,-1 0,-3 0,-6 0,-9 0,-2 -1,-2 -2,-2 -1,0 -1,0 -2,0 -13,0 -25,0 -38,0z"/>
    <path class="fil5" d="M218 527c0,5 -1,9 -3,13 -1,3 -1,6 -1,10 0,8 6,14 13,14 8,1 15,-4 16,-12 1,-6 0,-11 -4,-16 -4,-4 -8,-9 -9,-15 -1,-1 -1,-1 -2,-1 -2,1 -4,1 -6,1 -1,1 -3,0 -4,2 -1,1 0,2 0,4z"/>
    <path class="fil6" d="M172 446c0,-1 0,-2 0,-3 -3,-16 -6,-31 -9,-47 -1,-4 -2,-9 -3,-14 0,-3 -2,-4 -5,-4 -1,1 -2,1 -3,1 -4,1 -4,2 -4,6 3,17 7,35 10,52 1,3 1,7 2,10 1,3 2,4 5,4 2,-1 3,-1 5,-1 1,-1 2,-2 2,-4z"/>
    <path class="fil6" d="M239 360c-1,0 -2,0 -4,1 -3,0 -4,2 -3,6 3,17 6,34 9,51 1,4 2,7 2,11 1,3 2,4 6,3 1,0 2,0 4,0 2,-1 3,-3 3,-5 0,-1 0,-2 -1,-2 -3,-17 -6,-33 -9,-49 -1,-5 -1,-9 -2,-13 -1,-2 -2,-3 -5,-3z"/>
    <path class="fil2" d="M181 480c0,9 9,15 17,13 5,-1 11,-2 17,-3 3,-1 6,-1 8,-2 3,-1 5,-3 5,-6 0,-3 -2,-5 -4,-6 -2,-1 -4,-1 -5,-1 -7,2 -14,3 -20,5 -1,0 -2,0 -3,0 -1,0 -2,0 -2,-1 0,-1 0,-2 1,-2 1,-1 1,-1 2,-1 2,0 4,-1 6,-1 1,0 2,-1 2,-2 -1,-3 -1,-5 -2,-7 0,-1 0,-2 -2,-1 -3,1 -7,1 -11,2 -5,2 -9,7 -9,13z"/>
    <path class="fil5" d="M174 760c-2,0 -4,0 -5,0 -8,0 -16,0 -24,0 -2,0 -2,0 -2,2 0,3 0,6 0,8 0,2 0,2 2,2 0,0 1,0 1,0 19,0 38,0 56,0 1,0 1,0 2,0 1,0 2,0 2,-2 0,-2 0,-5 0,-8 0,-2 0,-2 -3,-2 -10,0 -19,0 -29,0z"/>
    <path class="fil2" d="M698 730c0,-4 -2,-7 -5,-10 -5,-5 -10,-6 -16,-4 -5,2 -9,7 -10,13 0,1 0,2 2,2 2,0 4,0 7,1 1,0 3,0 3,-2 0,-1 1,-2 2,-2 1,1 2,1 2,2 0,1 -1,2 -1,3 0,4 -1,8 -2,12 0,4 1,7 4,8 5,2 9,0 11,-5 0,-3 1,-6 1,-9 1,-2 2,-5 2,-9z"/>
    <path class="fil2" d="M735 738c0,-9 -8,-16 -16,-16 -2,0 -2,1 -1,2 2,5 3,10 2,15 -1,5 -2,9 -3,13 0,4 2,8 6,9 4,0 8,-2 9,-6 0,-2 1,-4 1,-5 1,-4 2,-8 2,-12z"/>
    <path class="fil2" d="M716 735c0,-10 -7,-17 -16,-16 -2,0 -2,0 -1,2 3,5 3,10 2,15 -1,4 -1,8 -2,13 -1,4 2,8 6,8 4,1 7,-1 9,-6 0,-1 0,-2 0,-3 1,-5 2,-9 2,-13z"/>
    <path class="fil2" d="M231 495c0,0 0,-1 0,-1 -1,-2 -1,-3 -2,-4 -2,0 -2,1 -3,1 -1,1 -2,1 -3,1 -3,1 -7,2 -11,2 -6,1 -11,4 -17,4 -1,0 -2,0 -2,1 -1,4 3,9 7,9 2,-1 4,-1 6,-2 6,-1 13,-3 20,-4 3,-1 5,-3 5,-7z"/>
    <path class="fil2" d="M208 520c1,0 3,0 4,0 5,-1 10,-2 14,-4 5,-1 7,-6 4,-10 0,0 -1,-1 -2,-1 -2,1 -3,1 -4,1 -7,2 -13,3 -20,5 -2,0 -3,1 -3,3 1,4 4,6 7,6z"/>
    <path class="fil1" d="M526 612c0,0 0,0 0,0 0,0 0,1 0,1 1,1 2,2 3,2 1,2 1,3 0,5 -2,2 -4,3 -5,5 -2,1 -4,3 -5,5 2,2 4,3 5,5 1,1 2,1 3,0 5,-5 10,-10 15,-15 1,-1 1,-2 -1,-2 -4,-2 -9,-4 -14,-6 0,0 -1,0 -1,0z"/>
    <path class="fil5" d="M217 453c0,-1 -1,-3 -1,-4 0,-1 -1,-2 -2,-1 -3,0 -5,1 -7,1 -3,1 -3,1 -3,3 2,7 3,13 4,19 0,2 1,3 3,2 0,0 1,0 1,0 2,0 2,-1 1,-2 -3,-3 -4,-6 -2,-10 0,-3 2,-5 5,-6 0,-1 1,-1 1,-2z"/>
    <path class="fil7" d="M516 627c0,-1 1,-1 1,-1 2,-2 5,-5 7,-7 1,-1 1,-1 0,-2 -2,-2 -4,-5 -7,-7 0,-1 -1,-1 -2,0 -2,2 -4,5 -7,7 -1,1 -1,1 0,2 3,2 5,5 7,7 0,0 1,0 1,1z"/>
    <path class="fil7" d="M516 633c0,0 -1,0 -1,1 -1,1 -3,2 -4,4 -1,0 -1,1 0,2 1,1 3,3 4,4 1,1 2,1 3,0 1,-1 2,-3 4,-4 1,-1 1,-1 0,-2 -2,-1 -3,-3 -5,-5 0,0 -1,0 -1,0z"/>
    <path class="fil6" d="M215 442c0,0 0,-1 0,-2 -1,-1 -1,-1 -3,-1 -2,1 -5,1 -8,2 -2,0 -2,0 -1,2 0,1 0,1 0,2 0,1 1,1 1,1 4,-1 7,-2 10,-2 1,-1 1,-1 1,-2z"/>
    <path class="fil2" d="M214 528c0,0 0,0 0,0 0,-1 0,-2 0,-3 0,-1 0,-2 -1,-2 -1,1 -2,1 -2,2 1,1 1,3 1,4 1,1 1,3 1,4 1,-2 1,-3 1,-4 0,-1 0,-1 0,-1z"/>
    <path class="fil7" d="M622 397c-10,0 -19,-8 -19,-19 0,-10 9,-19 19,-19 11,0 19,9 19,19 0,11 -8,19 -19,19z"/>
    <path class="fil7" d="M410 359c10,0 19,8 19,19 0,11 -8,19 -19,19 -10,0 -19,-8 -19,-19 0,-10 9,-19 19,-19z"/>
    <path class="fil0" d="M517 357c17,0 33,0 50,0 5,0 6,1 3,5 -9,17 -22,28 -41,32 -20,4 -37,-1 -51,-15 -6,-5 -10,-10 -13,-17 -2,-4 -2,-5 3,-5 16,0 33,0 49,0z"/>
    <path class="fil1" d="M518 361c-8,0 -15,0 -22,0 -8,0 -17,0 -25,0 -3,0 -3,0 -1,2 3,5 6,9 10,13 14,13 30,18 48,14 16,-3 28,-13 37,-26 0,-1 1,-2 1,-3 -1,-1 -2,0 -3,0 -15,0 -30,0 -45,0z"/>
    <path class="fil0" d="M451 347c0,6 -5,10 -10,9 -5,0 -9,-4 -9,-9 0,-5 5,-10 10,-9 5,0 9,4 9,9z"/>
    <path class="fil0" d="M591 338c5,0 9,4 9,9 0,5 -4,10 -9,10 -5,0 -9,-4 -9,-10 0,-5 4,-9 9,-9z"/>
    <path class="fil0" d="M685 375c0,-6 -4,-11 -10,-12 -3,0 -4,-1 -3,-2 0,-1 1,-2 3,-2 6,1 12,5 14,12 2,6 -1,13 -6,17 -2,2 -5,2 -8,3 0,0 -1,0 -2,0 -1,0 -1,-1 -2,-2 0,-1 1,-1 2,-2 0,0 1,0 2,0 6,-1 10,-6 10,-12z"/>
    <path class="fil0" d="M358 359c0,0 1,0 1,0 1,0 2,1 2,1 0,1 -1,2 -1,2 -1,0 -1,0 -2,1 -7,1 -11,5 -11,12 0,6 5,11 11,11 1,1 3,1 3,3 0,1 -2,1 -4,1 -7,0 -14,-7 -14,-15 0,-8 6,-15 14,-16 0,0 1,0 1,0z"/>
    <path class="fil0" d="M518 331c1,0 1,0 2,1 0,1 0,1 -1,2 0,0 -1,0 -1,1 -2,1 -4,2 -5,2 -3,2 -3,2 0,3 1,1 3,2 4,3 1,1 1,1 2,2 0,0 0,1 0,2 -1,1 -2,1 -3,0 0,0 0,0 0,0 -4,-2 -7,-4 -10,-7 -2,-1 -2,-2 0,-3 3,-2 7,-4 11,-6 0,0 1,0 1,0z"/>
    <path class="fil0" d="M418 341c0,-8 7,-15 15,-17 0,0 1,0 1,0 1,0 2,1 2,2 0,1 0,2 -1,2 -1,0 -2,0 -3,1 -5,1 -9,6 -10,12 0,0 0,1 0,1 0,2 -1,2 -2,2 -1,0 -2,-1 -2,-2 0,-1 0,-1 0,-1z"/>
    <path class="fil0" d="M614 341c0,0 0,0 0,0 0,2 -1,3 -2,3 -1,0 -2,-1 -2,-3 -1,-7 -5,-11 -12,-12 0,0 0,-1 0,-1 -2,0 -2,-1 -2,-2 0,-1 1,-2 2,-1 1,0 2,0 2,0 8,2 14,8 14,16z"/>
   </g>
   <path class="fil6" d="M429 820c116,0 232,0 348,0 1,0 1,0 2,0 2,0 2,0 2,-3 0,-7 0,-14 0,-21 0,-5 0,-5 -4,-5 -232,0 -464,0 -695,0 -1,0 -1,0 -2,0 -2,0 -2,0 -2,4 0,7 0,13 0,20 0,5 0,5 3,5 116,0 232,0 348,0z"/>
  </g>
 </g>
</svg>
