<?xml version="1.0" encoding="UTF-8"?>
<!DOCTYPE svg PUBLIC "-//W3C//DTD SVG 1.1//EN" "http://www.w3.org/Graphics/SVG/1.1/DTD/svg11.dtd">
<!-- Creator: CorelDRAW X7 -->
<svg xmlns="http://www.w3.org/2000/svg" xml:space="preserve" width="4.2332mm" height="4.2332mm" version="1.1" style="shape-rendering:geometricPrecision; text-rendering:geometricPrecision; image-rendering:optimizeQuality; fill-rule:evenodd; clip-rule:evenodd"
viewBox="0 0 423 423"
 xmlns:xlink="http://www.w3.org/1999/xlink">
 <defs>
  <style type="text/css">
   <![CDATA[
    .fil1 {fill:#FFC21C;fill-rule:nonzero}
    .fil2 {fill:#FFD46E;fill-rule:nonzero}
    .fil0 {fill:#FFD46E;fill-rule:nonzero}
   ]]>
  </style>
 </defs>
 <g id="Layer_x0020_1">
  <metadata id="CorelCorpID_0Corel-Layer"/>
  <g id="_602263056">
   <path class="fil0" d="M369 76c59,67 42,179 -39,252 -81,73 -194,78 -254,12 -60,-67 -42,-179 39,-252 80,-73 194,-78 254,-12z"/>
   <path class="fil1" d="M345 50c60,66 42,179 -38,251 -81,73 -195,78 -255,12 -59,-66 -42,-179 39,-252 81,-72 195,-77 254,-11z"/>
   <path class="fil2" d="M301 306c2,-2 4,-3 6,-5 1,-1 3,-3 4,-4l-215 -240c-2,2 -3,3 -5,4 -2,2 -3,4 -5,5l215 240z"/>
  </g>
 </g>
</svg>
