<?xml version="1.0" encoding="UTF-8"?>
<!DOCTYPE svg PUBLIC "-//W3C//DTD SVG 1.1//EN" "http://www.w3.org/Graphics/SVG/1.1/DTD/svg11.dtd">
<!-- Creator: CorelDRAW X7 -->
<svg xmlns="http://www.w3.org/2000/svg" xml:space="preserve" width="8.4666mm" height="8.4666mm" version="1.1" style="shape-rendering:geometricPrecision; text-rendering:geometricPrecision; image-rendering:optimizeQuality; fill-rule:evenodd; clip-rule:evenodd"
viewBox="0 0 847 847"
 xmlns:xlink="http://www.w3.org/1999/xlink">
 <defs>
  <style type="text/css">
   <![CDATA[
    .fil0 {fill:#131a2c;fill-rule:nonzero}
   ]]>
  </style>
 </defs>
 <g id="Layer_x0020_1">
  <metadata id="CorelCorpID_0Corel-Layer"/>
  <path class="fil0" d="M707 324c-1,-3 -5,1 -5,1 -5,4 -17,-3 -17,-3 -5,-1 -5,6 -5,6 -2,1 -5,0 -5,0 -1,-1 -1,-1 -2,-1 -4,-2 -12,4 -12,4 -22,6 -19,-19 -19,-19 5,-18 -1,-20 -1,-20 -4,0 -3,-8 -3,-8 0,-12 5,-9 5,-9 4,14 10,22 10,22 5,4 5,-3 5,-3 0,0 1,0 1,-1 -1,-2 0,-5 0,-5 0,-3 4,-2 4,-2 2,0 1,-1 0,-3 1,1 3,0 3,0 1,0 0,-5 0,-5 0,-2 1,-4 1,-4 16,15 21,8 21,8 0,-4 -17,-17 -17,-17 7,-5 9,-13 9,-13l0 0c43,5 69,-16 69,-16 -23,9 -71,0 -71,0 -4,-1 6,-24 7,-27 2,-10 -2,-18 -10,-25 -8,-7 -18,-11 -29,-13 -7,-2 -15,1 -22,1 -7,-1 -11,-5 -17,-8 -10,-7 -23,-8 -34,-5 -2,-2 -17,-7 -17,-5 0,2 3,2 5,3 3,2 3,5 7,6 4,1 8,3 12,4 5,2 10,5 14,10 2,4 3,7 6,11 3,2 6,4 10,5 4,1 9,1 12,0 14,-3 11,5 11,5 -8,0 -16,16 -16,16 -8,1 -57,-21 -60,-22 -23,-11 -32,-14 -32,-14 10,5 18,13 18,13 13,13 31,23 49,32l-2 1c-3,4 4,15 4,15 -8,-5 -18,-6 -27,-3 -10,2 -16,11 -25,12 -1,0 -7,0 -8,-1 2,3 5,4 8,5 6,1 13,-8 19,-4 -5,1 -9,3 -12,7 4,0 6,-1 9,-2 3,-1 6,0 9,0 0,0 6,2 6,1 -3,5 -8,7 -13,9 -4,2 -10,2 -14,5 -4,2 -6,6 -7,10 0,3 -1,9 3,11 3,1 3,-3 4,-5 -1,2 -2,2 -3,1 -1,-2 -1,-4 -1,-6 1,-5 4,-7 8,-8 2,0 15,1 15,0 -5,10 -15,9 -15,9 9,6 15,1 15,1 -3,6 -9,10 -15,12 -7,2 -18,3 -22,-6 -2,-4 1,-9 4,-11 -8,-3 -9,5 -9,5 -3,-7 3,-13 9,-15 -16,-3 -15,17 -15,17 -12,-1 -13,13 -13,13 4,-8 13,-5 13,-5 -1,3 0,6 1,9 1,1 2,4 4,4 -8,6 -16,11 -21,19 -3,5 -4,11 -5,16 0,0 0,3 0,3 -9,2 -17,-1 -25,-4 -3,-2 -7,-3 -10,-6 -2,-1 -4,-3 -7,-4 -5,-2 -11,-1 -16,-2 -15,-2 -25,-14 -39,-18 -12,-4 -23,-6 -35,-2 -5,1 -14,4 -18,1 -1,3 -1,8 -5,9 -4,4 -27,4 -27,4 -52,4 -80,-69 -80,-69 2,31 27,63 55,77 8,4 17,7 26,10 8,2 25,1 30,11 0,0 0,-4 0,-4 8,-3 17,1 17,1l-2 -4c16,-8 41,33 41,33 8,22 19,19 19,19l0 8 -12 -1c-3,5 2,6 2,6 7,-2 18,1 18,1 6,12 -11,10 -11,10 -15,-5 -17,1 -17,1 -1,16 -8,26 -8,26 -2,1 -7,1 -9,2 -3,1 -5,3 -8,3 -5,2 -10,1 -15,2 -3,1 -6,5 -10,5 -8,-11 -15,-11 -15,-11 -5,0 -2,14 -2,14 0,0 -9,-6 -11,-7 -4,-1 -4,5 -4,5 -44,-26 -67,-23 -67,-23 5,0 11,7 11,7 -25,-11 -75,-1 -75,-1 14,1 21,6 21,6 -29,-4 -75,29 -85,37 14,-11 28,-8 28,-8 -12,3 -23,13 -33,21 -17,14 -32,34 -52,45 -14,8 -31,12 -47,14 -4,1 -7,1 -10,1 27,0 52,14 78,19 25,5 52,4 76,1 4,-1 13,-1 16,-3 -8,6 -21,7 -21,7 13,3 40,-8 40,-8 -8,11 -28,18 -28,18 47,-5 117,-68 117,-68 -10,26 -54,51 -54,51 26,-4 63,-49 63,-49 0,0 2,-9 0,1 -2,11 -10,31 -10,31 5,-3 20,-39 20,-39l0 16c9,-9 20,-44 20,-44l0 8 2 0c1,-1 5,-8 5,-8l9 1 0 -10c2,1 5,3 8,3 2,0 7,1 7,-3 0,-1 -1,-6 0,-7 6,-9 28,-14 28,-14 -1,5 -1,11 3,16 2,2 6,4 9,2 4,-1 8,-5 5,-9 -1,0 -4,-1 -3,0 2,5 -2,4 -2,4 -8,-10 6,-17 6,-17 11,-1 21,-6 30,-10 2,-1 19,-10 21,-8 8,8 19,4 19,4 -5,5 2,16 2,16l-10 14c-10,-8 -29,18 -29,18l6 2c0,0 6,-8 6,-8 3,-3 8,-4 10,0 6,7 -6,10 -10,14 -3,2 -6,6 -6,9 0,1 0,2 0,2 0,0 3,2 4,2 1,1 2,2 3,3 7,9 7,18 11,27 2,8 11,19 21,16 3,-2 5,-6 6,-9 0,-4 -3,-11 -7,-5 1,0 2,1 2,3 0,2 -5,0 -5,-1 -2,-1 -3,-3 -3,-4 -1,-3 -3,-5 -3,-8 0,-3 1,-5 1,-8 0,-3 0,-5 -1,-8 0,-1 -2,-8 -2,-8 8,-5 10,-22 10,-22l28 -21 4 6c1,1 9,1 9,1 7,16 16,16 16,16 -10,-6 -4,-20 -4,-20 4,-11 43,-19 43,-19 42,-14 45,-54 45,-54 5,-16 14,8 14,8 6,3 7,-1 7,-1 0,0 1,3 1,0 -1,-4 9,-13 9,-13 11,-6 28,-32 28,-32 0,-8 4,-13 4,-13 11,-4 15,5 15,5 5,0 13,-13 13,-13l105 -42 7 -29c0,0 -114,62 -116,62 -5,-1 0,-4 0,-4z"/>
 </g>
</svg>
