<?xml version="1.0" encoding="UTF-8" ?>
<!DOCTYPE svg PUBLIC "-//W3C//DTD SVG 1.1//EN" "http://www.w3.org/Graphics/SVG/1.1/DTD/svg11.dtd">
<svg width="736pt" height="920pt" viewBox="0 0 736 920" version="1.1" xmlns="http://www.w3.org/2000/svg">
<g id="#ffffffff">
<path fill="#ffffff" opacity="1.00" d=" M 92.64 283.61 C 94.44 281.08 98.67 283.05 98.09 286.00 C 98.01 288.32 94.76 289.64 93.15 287.92 C 91.59 287.08 91.93 284.89 92.64 283.61 Z" />
<path fill="#ffffff" opacity="1.00" d=" M 133.55 604.64 C 135.45 602.47 138.00 600.44 141.07 600.65 C 143.13 601.19 144.97 602.31 146.84 603.30 C 142.82 605.55 137.96 604.49 133.55 604.64 Z" />
<path fill="#ffffff" opacity="1.00" d=" M 692.06 918.14 C 706.75 917.03 721.65 916.80 736.00 913.17 L 736.00 920.00 L 633.84 920.00 C 653.26 919.54 672.66 918.95 692.06 918.14 Z" />
</g>
<g id="#3f4140ff">
<path fill="#3f4140" opacity="1.00" d=" M 325.30 0.00 L 341.79 0.00 C 385.88 1.81 428.37 15.56 469.06 31.76 C 504.37 46.09 533.85 72.17 556.38 102.55 C 582.07 136.91 600.10 176.39 613.78 216.88 C 619.90 235.05 625.00 253.54 629.43 272.18 C 634.33 293.93 638.73 315.86 640.98 338.06 C 629.80 322.28 613.86 310.46 596.51 302.25 C 580.58 294.76 563.49 289.54 545.99 287.51 C 539.27 287.31 531.72 285.87 525.80 289.90 C 519.82 293.89 515.73 299.98 512.05 306.01 C 504.91 317.90 499.46 330.68 493.45 343.14 C 491.89 346.48 489.98 349.68 488.98 353.26 C 510.05 352.56 531.25 352.94 552.13 356.00 C 572.00 359.00 591.47 365.59 608.43 376.50 C 624.90 386.92 639.13 400.44 652.48 414.54 C 664.58 427.62 676.84 440.84 685.44 456.58 C 705.56 492.72 713.27 534.18 717.32 574.90 C 720.34 607.86 720.99 641.02 720.02 674.10 C 719.48 697.74 718.44 721.37 717.85 745.01 C 718.29 775.37 719.58 805.76 723.35 835.91 C 726.35 861.74 730.36 887.48 736.00 912.87 L 736.00 913.17 C 721.65 916.80 706.75 917.03 692.06 918.14 C 672.66 918.95 653.26 919.54 633.84 920.00 L 515.22 920.00 C 451.10 918.56 386.87 917.95 322.97 911.95 C 332.15 899.62 337.95 885.20 342.71 870.71 C 351.17 844.73 356.19 817.80 360.35 790.86 C 366.03 751.34 369.76 711.48 370.40 671.55 C 359.41 687.88 346.11 702.46 333.46 717.49 C 320.48 732.38 307.45 747.23 294.22 761.90 C 296.20 752.38 295.84 742.61 295.11 732.98 C 293.76 713.17 290.36 693.58 287.06 674.02 C 285.62 666.20 284.17 658.38 282.74 650.56 C 272.82 657.84 262.57 664.70 252.03 671.08 C 250.27 672.12 248.60 673.32 246.99 674.59 C 240.14 678.36 233.32 682.22 226.77 686.51 C 216.11 692.31 205.71 698.60 194.88 704.12 C 200.21 692.31 203.17 679.61 205.40 666.90 C 206.61 660.32 208.01 653.74 208.44 647.06 C 210.70 633.77 212.06 620.34 213.39 606.92 C 214.20 597.43 214.82 587.93 215.44 578.42 C 215.48 577.83 215.55 576.66 215.59 576.08 C 233.00 576.45 249.76 570.69 265.94 564.89 C 299.84 551.96 332.04 535.02 363.54 517.12 C 363.35 510.88 362.01 504.74 360.16 498.79 C 344.32 499.11 328.10 495.92 314.48 487.59 C 301.05 479.60 290.69 467.28 283.04 453.81 C 276.93 443.08 272.10 431.65 268.15 419.96 C 264.71 410.14 262.14 399.97 257.40 390.66 C 254.42 384.08 249.77 378.25 243.84 374.11 C 233.92 366.75 225.88 357.27 218.73 347.28 C 171.60 286.87 122.48 228.04 75.90 167.20 C 72.58 162.77 69.35 158.29 66.27 153.70 C 68.24 150.26 70.35 146.89 72.78 143.74 C 84.60 128.12 99.00 114.65 113.97 102.09 C 138.00 82.12 164.20 64.95 191.04 49.03 C 220.95 31.23 251.99 14.25 285.99 5.75 C 298.84 2.40 312.08 0.96 325.30 0.00 Z" />
<path fill="#3f4140" opacity="1.00" d=" M 91.06 252.87 C 100.24 250.64 109.86 251.79 118.91 254.09 C 120.46 254.81 122.13 255.44 123.32 256.72 C 129.46 263.42 134.39 271.10 139.15 278.81 C 139.75 279.64 139.93 280.55 139.69 281.55 C 125.06 264.85 102.16 257.68 80.42 258.82 C 82.87 255.33 87.08 253.83 91.06 252.87 Z" />
<path fill="#3f4140" opacity="1.00" d=" M 96.32 278.45 C 103.16 276.32 113.26 280.78 112.05 289.07 C 109.40 295.91 100.34 297.90 94.07 295.19 C 90.50 293.61 87.21 289.99 88.01 285.82 C 89.05 282.00 92.56 279.30 96.32 278.45 M 92.64 283.61 C 91.93 284.89 91.59 287.08 93.15 287.92 C 94.76 289.64 98.01 288.32 98.09 286.00 C 98.67 283.05 94.44 281.08 92.64 283.61 Z" />
<path fill="#3f4140" opacity="1.00" d=" M 105.86 506.00 C 111.36 508.90 117.37 510.47 123.37 511.92 C 129.42 513.26 134.35 517.63 137.73 522.66 C 138.96 524.16 138.87 525.87 137.11 526.97 C 133.23 523.69 129.37 520.05 124.38 518.55 C 117.16 516.18 111.05 511.43 105.86 506.00 Z" />
</g>
<g id="#818286ff">
<path fill="#818286" opacity="1.00" d=" M 58.09 200.01 C 61.94 188.11 67.96 176.87 75.90 167.20 C 122.48 228.04 171.60 286.87 218.73 347.28 C 225.88 357.27 233.92 366.75 243.84 374.11 C 249.77 378.25 254.42 384.08 257.40 390.66 C 262.14 399.97 264.71 410.14 268.15 419.96 C 272.10 431.65 276.93 443.08 283.04 453.81 C 270.25 456.87 257.13 458.45 243.99 458.85 C 235.68 459.81 227.35 458.68 219.02 458.60 C 213.40 458.63 208.11 455.68 204.75 451.25 C 196.72 440.65 194.78 427.09 192.43 414.37 C 190.94 402.00 189.42 389.61 189.38 377.14 C 188.67 370.10 188.40 363.04 188.50 355.97 C 188.45 349.75 187.38 343.59 187.46 337.37 C 187.28 337.36 186.91 337.34 186.73 337.33 C 185.77 346.59 181.31 354.92 177.01 363.01 C 173.52 369.59 169.52 375.88 165.27 382.00 C 165.99 372.97 167.81 364.02 167.63 354.93 C 168.44 337.97 169.02 320.99 168.64 304.02 C 167.26 315.67 161.73 326.19 155.57 335.97 C 153.92 322.46 152.00 308.84 146.95 296.11 C 144.87 291.11 143.43 285.64 139.69 281.55 C 139.93 280.55 139.75 279.64 139.15 278.81 C 134.39 271.10 129.46 263.42 123.32 256.72 C 122.13 255.44 120.46 254.81 118.91 254.09 C 119.41 254.04 120.41 253.94 120.91 253.89 C 110.96 242.90 98.99 233.90 89.25 222.73 C 81.42 212.86 83.03 199.60 84.59 188.00 C 83.30 189.61 82.05 191.25 81.05 193.06 C 75.08 204.34 71.09 216.69 69.58 229.37 C 69.07 236.00 69.57 242.64 69.56 249.27 C 64.96 244.70 60.72 239.58 58.34 233.48 C 53.88 222.89 54.63 210.78 58.09 200.01 Z" />
</g>
<g id="#d7a477ff">
<path fill="#d7a477" opacity="1.00" d=" M 84.59 188.00 C 83.03 199.60 81.42 212.86 89.25 222.73 C 98.99 233.90 110.96 242.90 120.91 253.89 C 120.41 253.94 119.41 254.04 118.91 254.09 C 109.86 251.79 100.24 250.64 91.06 252.87 C 87.08 253.83 82.87 255.33 80.42 258.82 C 102.16 257.68 125.06 264.85 139.69 281.55 C 143.43 285.64 144.87 291.11 146.95 296.11 C 152.00 308.84 153.92 322.46 155.57 335.97 C 161.73 326.19 167.26 315.67 168.64 304.02 C 169.02 320.99 168.44 337.97 167.63 354.93 C 167.81 364.02 165.99 372.97 165.27 382.00 C 169.52 375.88 173.52 369.59 177.01 363.01 C 181.31 354.92 185.77 346.59 186.73 337.33 C 186.91 337.34 187.28 337.36 187.46 337.37 C 187.38 343.59 188.45 349.75 188.50 355.97 C 188.40 363.04 188.67 370.10 189.38 377.14 C 189.42 389.61 190.94 402.00 192.43 414.37 C 194.78 427.09 196.72 440.65 204.75 451.25 C 197.01 454.58 189.55 458.58 182.75 463.58 C 166.54 476.14 148.51 486.17 130.03 494.96 C 123.45 497.77 116.93 500.84 110.01 502.73 C 103.80 504.42 97.58 506.70 91.05 506.39 C 86.03 506.65 81.23 503.03 79.55 498.38 C 76.24 490.67 77.45 481.93 79.38 474.02 C 80.56 468.13 85.44 464.07 87.63 458.62 C 90.26 453.04 92.38 446.20 89.58 440.32 C 85.47 434.98 77.93 433.71 74.06 428.01 C 75.70 425.91 77.63 423.97 80.23 423.14 C 91.32 418.91 102.69 415.48 113.82 411.36 C 121.40 408.56 128.41 403.21 131.77 395.70 C 132.99 393.39 132.64 390.72 132.69 388.22 C 131.28 387.32 129.78 386.15 127.99 386.69 C 114.73 389.41 105.52 400.87 92.54 404.32 C 88.91 404.97 84.59 405.11 81.85 402.18 C 77.85 397.79 78.36 391.45 78.38 385.95 C 78.29 379.60 79.74 372.88 77.00 366.88 C 75.42 363.75 72.63 360.71 68.93 360.44 C 65.05 360.17 61.67 362.52 58.67 364.67 C 50.64 370.95 44.36 379.10 38.47 387.34 C 34.03 394.09 29.20 400.75 22.96 405.97 C 20.02 408.44 15.04 410.07 11.94 407.06 C 9.22 403.69 8.43 399.22 7.77 395.05 C 6.96 386.60 7.45 378.07 8.75 369.70 C 5.00 369.30 1.17 367.58 0.00 363.69 L 0.00 359.03 C 1.92 356.06 5.11 352.74 9.00 354.03 C 10.73 354.13 13.47 355.81 14.23 353.32 C 18.46 344.73 24.33 337.08 30.40 329.73 C 34.92 323.54 40.84 318.62 46.71 313.78 C 53.38 308.38 61.99 306.10 68.55 300.52 C 72.59 297.26 76.40 293.13 77.45 287.88 C 77.96 283.88 77.99 279.77 77.21 275.80 C 75.82 270.05 73.21 264.68 71.86 258.92 C 70.93 255.74 70.84 252.34 69.56 249.27 C 69.57 242.64 69.07 236.00 69.58 229.37 C 71.09 216.69 75.08 204.34 81.05 193.06 C 82.05 191.25 83.30 189.61 84.59 188.00 M 96.32 278.45 C 92.56 279.30 89.05 282.00 88.01 285.82 C 87.21 289.99 90.50 293.61 94.07 295.19 C 100.34 297.90 109.40 295.91 112.05 289.07 C 113.26 280.78 103.16 276.32 96.32 278.45 Z" />
<path fill="#d7a477" opacity="1.00" d=" M 156.30 573.80 C 162.61 570.65 169.78 573.35 176.36 574.02 C 177.26 574.21 178.15 574.44 179.04 574.71 C 181.10 575.33 183.18 575.91 185.25 576.54 L 185.37 577.14 C 195.26 579.24 205.41 578.18 215.44 578.42 C 214.82 587.93 214.20 597.43 213.39 606.92 C 199.05 610.36 186.14 617.88 172.53 623.33 C 167.04 624.65 161.46 622.71 156.00 622.06 C 146.70 620.99 137.29 619.94 127.93 620.99 C 123.68 621.70 119.95 619.06 116.09 617.75 C 107.75 614.23 98.54 611.63 91.97 605.05 C 90.16 603.71 90.59 601.34 90.36 599.39 C 98.64 597.93 106.60 602.11 114.84 602.45 L 115.08 602.49 C 120.94 604.76 127.35 604.78 133.55 604.64 C 137.96 604.49 142.82 605.55 146.84 603.30 C 148.35 603.63 149.91 604.03 151.47 603.72 C 157.70 602.66 163.59 600.27 169.60 598.38 C 172.16 597.77 173.17 595.09 174.49 593.12 C 170.36 589.36 166.10 585.75 161.88 582.11 C 159.42 579.83 156.44 577.45 156.30 573.80 Z" />
<path fill="#d7a477" opacity="1.00" d=" M 252.03 671.08 C 262.57 664.70 272.82 657.84 282.74 650.56 C 284.17 658.38 285.62 666.20 287.06 674.02 C 275.16 679.12 260.88 681.36 249.01 674.96 C 248.41 675.16 247.21 675.56 246.61 675.76 L 246.99 674.59 C 248.60 673.32 250.27 672.12 252.03 671.08 Z" />
</g>
<g id="#997347ff">
<path fill="#997347" opacity="1.00" d=" M 142.67 495.54 C 146.00 494.67 149.57 495.47 153.00 495.42 C 150.54 498.19 147.86 500.91 146.47 504.41 C 143.73 511.19 143.64 518.63 143.21 525.82 C 142.68 527.96 141.98 530.06 141.14 532.10 C 139.84 530.35 138.57 528.59 137.11 526.97 C 138.87 525.87 138.96 524.16 137.73 522.66 C 139.19 513.70 137.15 503.54 142.67 495.54 Z" />
<path fill="#997347" opacity="1.00" d=" M 171.98 534.69 C 174.55 534.43 177.12 535.22 178.84 537.22 C 183.81 543.48 184.08 551.93 183.16 559.53 C 182.06 564.66 180.33 569.62 179.04 574.71 C 178.15 574.44 177.26 574.21 176.36 574.02 C 177.36 571.76 178.61 569.51 178.60 566.98 C 178.64 562.02 179.28 556.77 177.09 552.14 C 175.54 548.21 172.12 545.31 170.99 541.18 C 170.05 538.98 171.42 536.79 171.98 534.69 Z" />
<path fill="#997347" opacity="1.00" d=" M 192.35 647.49 C 196.98 645.68 201.85 644.58 206.62 643.17 C 207.22 644.46 207.87 645.74 208.44 647.06 C 208.01 653.74 206.61 660.32 205.40 666.90 C 202.01 665.83 198.61 664.80 195.10 664.27 C 192.03 663.84 188.79 662.62 187.00 659.94 C 184.82 655.27 187.59 649.27 192.35 647.49 Z" />
<path fill="#997347" opacity="1.00" d=" M 226.77 686.51 C 233.32 682.22 240.14 678.36 246.99 674.59 L 246.61 675.76 C 244.25 680.20 246.53 684.79 248.40 688.92 C 250.96 695.00 254.25 701.15 253.83 707.97 C 254.25 716.67 247.49 723.47 246.52 731.91 C 245.98 737.30 245.38 742.70 244.17 748.00 C 242.80 752.76 246.32 757.21 245.52 761.99 C 244.61 767.65 240.33 772.20 239.76 777.98 C 238.70 789.75 236.50 801.40 233.97 812.94 C 232.47 820.60 228.12 827.32 226.45 834.93 C 224.80 840.83 224.92 847.06 223.26 852.95 C 221.28 860.99 218.03 868.75 217.34 877.06 C 215.79 891.04 210.96 904.66 211.35 918.82 C 208.36 917.97 206.64 915.20 205.40 912.56 C 203.00 906.70 202.57 900.22 202.61 893.96 C 203.58 874.68 210.10 856.20 211.63 836.99 C 211.90 828.65 210.34 820.33 211.30 812.00 C 211.62 807.50 211.72 801.52 216.48 799.33 C 217.11 790.08 213.19 780.61 216.39 771.54 C 218.51 764.88 224.24 760.21 226.47 753.61 C 228.04 749.62 227.46 745.25 227.38 741.07 C 226.44 727.60 225.85 713.94 228.22 700.57 C 229.06 695.83 228.09 691.06 226.77 686.51 Z" />
</g>
<g id="#ed1b24ff">
<path fill="#ed1b24" opacity="1.00" d=" M 105.11 522.37 C 110.63 518.37 117.79 517.76 124.38 518.55 C 129.37 520.05 133.23 523.69 137.11 526.97 C 138.57 528.59 139.84 530.35 141.14 532.10 C 141.98 530.06 142.68 527.96 143.21 525.82 C 147.18 522.52 151.87 519.94 156.98 518.95 C 172.78 515.89 190.05 527.87 192.11 543.98 C 193.74 555.32 189.56 566.29 185.25 576.54 C 183.18 575.91 181.10 575.33 179.04 574.71 C 180.33 569.62 182.06 564.66 183.16 559.53 C 184.08 551.93 183.81 543.48 178.84 537.22 C 177.12 535.22 174.55 534.43 171.98 534.69 C 171.42 536.79 170.05 538.98 170.99 541.18 C 172.12 545.31 175.54 548.21 177.09 552.14 C 179.28 556.77 178.64 562.02 178.60 566.98 C 178.61 569.51 177.36 571.76 176.36 574.02 C 169.78 573.35 162.61 570.65 156.30 573.80 C 156.44 577.45 159.42 579.83 161.88 582.11 C 166.10 585.75 170.36 589.36 174.49 593.12 C 173.17 595.09 172.16 597.77 169.60 598.38 C 163.59 600.27 157.70 602.66 151.47 603.72 C 149.91 604.03 148.35 603.63 146.84 603.30 C 144.97 602.31 143.13 601.19 141.07 600.65 C 138.00 600.44 135.45 602.47 133.55 604.64 C 127.35 604.78 120.94 604.76 115.08 602.49 L 114.84 602.45 C 109.84 597.57 105.45 592.06 101.77 586.13 C 95.24 575.97 89.99 564.29 90.23 551.99 C 90.00 540.50 95.82 529.09 105.11 522.37 Z" />
</g>
</svg>
